/* XPM */
static char *_d541dc101294a2aa0a45f6397f3daa7TG1PlZjkWHsKajbh[] = {
/* columns rows colors chars-per-pixel */
"64 64 193 2 ",
"   c #5D0C07",
".  c #5E0E0A",
"X  c #5E130A",
"o  c #5E1113",
"O  c #630F0A",
"+  c #66110B",
"@  c #6A130C",
"#  c #6E1C0E",
"$  c #711D0E",
"%  c #640F10",
"&  c #641011",
"*  c #671C14",
"=  c #6B1D12",
"-  c #6B1A19",
";  c #6B2316",
":  c #6A2219",
">  c #6C2323",
",  c #682429",
"<  c #712322",
"1  c #722D2C",
"2  c #7D3C3B",
"3  c #7E514E",
"4  c #823F3F",
"5  c #96412A",
"6  c #AC5B2F",
"7  c #AC5C32",
"8  c #A95935",
"9  c #AB653C",
"0  c #BE6C3E",
"q  c #C06B3F",
"w  c #C77A3F",
"e  c #833F41",
"r  c #834243",
"t  c #825254",
"y  c #895959",
"u  c #9D5C5C",
"i  c #A25B5E",
"p  c #9E625C",
"a  c #AD6B49",
"s  c #B7744C",
"d  c #A36452",
"f  c #B67C5A",
"g  c #AE7D64",
"h  c #B17E64",
"j  c #B47E6B",
"k  c #C16D43",
"l  c #C57A43",
"z  c #C87940",
"x  c #C87848",
"c  c #AF8067",
"v  c #B18067",
"b  c #B98E6F",
"n  c #B48272",
"m  c #BA8E74",
"M  c #BE9473",
"N  c #DF994F",
"B  c #C98857",
"V  c #DE9753",
"C  c #DD9954",
"Z  c #DA9B5B",
"A  c #DD9C5B",
"S  c #E4974F",
"D  c #E3984F",
"F  c #E8984E",
"G  c #E49751",
"H  c #E39953",
"J  c #E89853",
"K  c #E5965B",
"L  c #E29B5A",
"P  c #DBA05F",
"I  c #E7A35E",
"U  c #E9A45D",
"Y  c #C7956E",
"T  c #DD9E61",
"R  c #D0966B",
"E  c #DDA365",
"W  c #DDA56B",
"Q  c #DEA96D",
"!  c #DDAC73",
"~  c #D6A479",
"^  c #DAAB7C",
"/  c #DFB47B",
"(  c #E4A464",
")  c #E1A569",
"_  c #E4AA6B",
"`  c #E9A968",
"'  c #E1A672",
"]  c #E3AE72",
"[  c #E5B276",
"{  c #EBB475",
"}  c #E5B37B",
"|  c #EAB57A",
" . c #E5B87E",
".. c #EBB97E",
"X. c #A68987",
"o. c #A78989",
"O. c #B19397",
"+. c #CD9F88",
"@. c #C79B9D",
"#. c #CFAA8A",
"$. c #D3A984",
"%. c #D8AB86",
"&. c #D1A98A",
"*. c #DDB388",
"=. c #CFA391",
"-. c #D6AB92",
";. c #DDBB96",
":. c #E5B683",
">. c #EAB683",
",. c #E6B885",
"<. c #EBBB84",
"1. c #EDBE86",
"2. c #E9B689",
"3. c #E5BC8C",
"4. c #EABC8A",
"5. c #EDBE88",
"6. c #EDBE8A",
"7. c #F0BD82",
"8. c #E4BD93",
"9. c #EABF93",
"0. c #D9AFB3",
"q. c #DAB2B2",
"w. c #DBBBB8",
"e. c #EDC18C",
"r. c #F1C187",
"t. c #F1C38D",
"y. c #EBC393",
"u. c #E8C596",
"i. c #E1C09D",
"p. c #EBC69B",
"a. c #EECA9B",
"s. c #F1C592",
"d. c #F4CA96",
"f. c #F3CD9B",
"g. c #F5D29B",
"h. c #E7C7A3",
"j. c #EDCBA4",
"k. c #ECCFAB",
"l. c #F3CFA0",
"z. c #EFD2AE",
"x. c #EFDAAF",
"c. c #F5D3A4",
"v. c #F4D8A6",
"b. c #F3D6AD",
"n. c #F5D7AE",
"m. c #F8D5AA",
"M. c #F4D8AA",
"N. c #F2D9AD",
"B. c #F3D8AE",
"V. c #F4D8AD",
"C. c #F5D8AF",
"Z. c #F6D9AF",
"A. c #F8D9AD",
"S. c #E7CFB6",
"D. c #EED5B4",
"F. c #EED9B3",
"G. c #EDD9BC",
"H. c #F4D6B1",
"J. c #F3D8B0",
"K. c #F4D9B1",
"L. c #F8D9B4",
"P. c #F3DCBB",
"I. c #F8D8B8",
"U. c #F4E1BC",
"Y. c #DBC3C3",
"T. c #DECBCA",
"R. c #F2DCC0",
"E. c #F5DEC5",
"W. c #EAD4D1",
"Q. c #F2DAD4",
"!. c #F5E3C4",
"~. c #F3E3CC",
"^. c #FAE7CA",
"/. c #EFE1DD",
"(. c #F4E5D2",
"). c #F8E9D2",
"_. c #FAECD5",
"`. c #F7ECDD",
"'. c #FAEEDE",
"]. c #FDF3D7",
"[. c #FCF2DB",
"{. c #EDE4E2",
"}. c #F2E3E1",
"|. c #F9EFE1",
" X c #F3EEEC",
".X c #F9EDE8",
"XX c #FCF3E4",
"oX c #FBF5E6",
"OX c #FCF5EC",
"+X c #FDF9ED",
"@X c #FCF6F1",
"#X c #FDFAF4",
"$X c #FCFBFC",
/* pixels */
"+ O O O O @ O + + @ + + + @ O @ + + + + + + + + + + + + + + + + + & + + + & + + + + + + + + + O + O + O O @ O @ O O O + + O O   ",
"+ + + @ @ @ @ O + + @ @ @ O @ O + + + + + + + + + + + + + + + + O + + @ + @ + + + @ + + @ @ @ @ @ O + @ @ @ O @ @ @ @ @ + O O O ",
"+ & + @ O # # @ @ # @ @ @ @ @ @ @ @ @ @ @ @ @ @ + # # @ @ # @ @ @ @ # @ @ # @ @ # @ @ # # @ @ @ @ # @ @ # @ $ @ @ @ @ # + + & O ",
"+ @ @ O # 8 k k q q q q 0 0 0 q 0 0 0 0 0 0 0 0 0 0 0 0 q q q q k q 0 0 q 0 k k q q q q k k k k q q q q q q q q q q q q 5 @ + O ",
"@ @ @ O $ x K J J H D D F D D D H D D H F H H H H D H D J F G J H J H D D J H F H D J J H H K H J J H H J J H J J J H K 8 # + + ",
"& @ + O $ x K G D D D D D D D D D H D D D D D D D D S H D S D S D D D D D D D H D S D D H H H H H D D H D D H D G J G K 8 @ + O ",
"@ % @ O $ x L H I N C C C N N N H H C H H H H C H H H H H H G S D D D D H D H H H C C H L L H H H H H H H H L H H L A A 7 @ O O ",
"% @ @ O - R s.6.<.e.<.r.e.e.r.r.1.1.e.1.6.1.1.<.1.e.4.1.1.1.{ G D D L { r.r.<.r.r.<.1.<.6.1.6.6.1.1.e.1.1.6.<.e.1.4.e.4.a + O O ",
"+ & @ O ; $.A.n.B.V.V.V.V.n.B.V.B.B.n.M.B.M.M.M.V.M.A.V.V.n.r.H F D U d.V.B.V.V.V.V.V.B.V.J.V.K.K.V.K.V.V.J.J.B.K.V.H.m.h X O O ",
"+ @ & O : &.K.V.J.J.K.V.B.K.J.B.B.x.B.x.B.B.x.M.V.B.M.M.V.V.1.H D H U d.M.B.B.B.V.B.J.B.B.H.J.K.K.K.B.J.K.B.B.B.J.J.H.H.h . O O ",
"+ + + O ; &.L.B.B.K.K.J.B.F.B.J.F.B.B.x.x.B.x.x.B.V.M.M.n.m.1.L H H ( d.v.M.M.B.V.J.V.B.B.B.B.B.V.B.J.B.B.B.x.B.J.H.H.H.c X O O ",
"@ @ + O ; &.K.V.V.K.V.J.B.B.J.B.B.J.J.J.B.B.B.B.B.V.u. ... .4.h.j.j.j.2.| |  .l.B.B.J.B.B.B.B.B.B.J.B.J.B.J.B.F.J.J.H.L.g O O O ",
"@ + + + : &.L.J.V.K.K.J.B.B.B.H.B.H.B.H.B.H.B.B.B.V.,.C H Z ;.OX#X#X`.~ G G A y.B.J.B.B.B.B.b.M.B.B.B.J.x.B.x.J.J.J.J.B.g O + + ",
"O + + + ; &.V.V.K.K.V.J.B.H.H.B.B.H.J.F.J.H.B.B.J.V.:.Z L C ;.OX$X$X`.^ V G Z y.x.B.B.B.J.B.B.b.B.B.B.F.B.B.B.B.J.J.n.L.c O + + ",
"+ + + + ; &.K.K.V.K.J.n.B.n.B.B.B.F.H.B.J.B.M.n.n.M.:.Z L A ;.+X$X$X|.$.Z C T y.M.J.B.b.n.B.B.b.x.M.B.x.B.B.B.K.J.L.M.V.c + + @ ",
"@ @ + O ; &.L.B.B.K.K.B.J.J.B.J.B.H.H.B.F.v.e.<.>.<.e.p.p.h.R.@X$X$XOXS.p.p.p.e.<.<.4.d.m.B.B.B.M.x.x.M.F.B.B.J.J.J.B.B.c + + + ",
"O @ O O $ &.n.B.n.K.K.J.V.J.B.V.J.B.V.J.B.g._ V V A a.XX+X+X#X$X$X$X#X#X#X+X]. .A H L ..c.n.B.B.x.x.M.x.B.B.B.J.J.B.K.L.v O O @ ",
"@ O O O ; $.V.n.K.K.V.J.B.J.K.B.V.J.J.B.M.g._ C V C f.+X$X$X$X$X$X$X$X$X$X#X[. .H H H { c.B.B.B.x.M.M.x.B.B.x.B.J.B.V.V.v + + + ",
"+ + @ O ; &.L.V.K.K.I.K.K.J.J.J.K.K.V.B.m.f.Q C C C a.#X#X$X$X$X$X$X$X$X$X#X[.e.C H H | v.M.V.B.B.x.M.x.V.V.V.L.V.K.V.V.v X + + ",
"+ + @ O ; R e.e.e.e.e.6.e.e.e.e.e.e.e.e.r.<.} ] [ [ V.#X$X$X$X$X$X$X$X$X$X#X[.u.[ [ [ <.e.r.t.r.r.r.e.e.e.e.6.6.e.e.s.e.9 + X + ",
"@ @ + + $ l L L L L L H L C H V H H C H H T t.c.k.v.^.#X$X$X$X$X$X$X$X$X$X#XoXU.x.v.c.>.Z K J H C H H H H H J K L L L L 9 + + + ",
"+ + + + $ w L H G G G G G G H G H D D D G T s.m.x.x.^.#X$X$X$X$X$X$X$X$X$X#X+X!.F.F.M.,.K G G S D D S H G G F G H H H H 6 @ + + ",
"+ + + O $ w H D G G H G G V V S G S S D V A y.V.F.F.(.@X$X$X$X$X$X$X$X$X$X$X+X~.G.F.x.,.Z K G H H H H H S F G F F F D H 6 @ + X ",
"+ + + O $ w H D H ` 2.2.2.,.2.2.,.,.,.,.,.3.P.~.~.~. X@X$X$X$X$X$X$X$X$X$X$X+X`./.(.~.k.3.4.,.2.,.,.,.<.2.>.2.>.U F F F 6 + + O ",
"@ O + O # w H D I f.XXOX@X@X@X@XOXOXOX@X X X$X$X@X@X@X$X$X$X$X$X$X$X$X$X$X$X#X@X$X$X@X@X+X+XOX@X+X@X@X@XOXOXOX_...H J H 6 @ + + ",
"@ & + O # w H D C c.@X$X$X$X$X$X$X$X$X$X$X$X$X$X$X#X$X$X$X$X$X$X$X$X$X$X$X$X$X$X$X$X$X$X$X#X$X$X$X$X$X$X$X$X$XXX<.D H H 6 @ + + ",
"+ + + O # w H D A l.@X$X$X$X$X$X$X$X$X$X$X X$X$X$X$X$X$X$X$X$X$X$X$X$X$X$X$X$X$X$X$X$X$X$X$X$X$X$X$X$X$X$X$X$X+X,.C C V 7 @ + @ ",
"@ O + O # B _ _ _ f.!.^.~.|.#X$X$X$X$X$X$X$X$X$X$X$X$X$X$X$X$X$X$X$X$X$X$X$X$X$X$X$X$X$X$X$X$X XT.Y.Y.Y.Y.Y.Y.w.*._ _ _ 9 + & + ",
"+ + + O $ ~ c.c.f. .E E E h.+X$X$X$X$X$X$X$X$X$X$X$X$X$X$X$X$X$X$X$X$X$X$X$X$X$X$X$X$X$X$X$X$Xw.1 : > > < < < < Y c.c.g.f + + + ",
"@ + O O ; $.K.B.c.} C D C ;.@X$X$X$X$X$X$X$X$X$X$X$X$X$X$X$X$X$X$X$X$X$X$X$X$X$X$X$X$X$X$X$X$X0.- + O O O + O + b K.V.A.h + + + ",
"+ + O + : &.I.B.M.} C V Z ;.@X$X$X#X$X$X$X$X$X$X$X$X$X$X$X$X$X$X$X$X$X$X$X$X$X$X$X$X$X$X$X$X$Xq.-   O O + + + o m P.U.L.v o + + ",
"@ % + + ; &.I.F.B.3.W W Q u.~.(./.(. X$X$X$X$X$X$X$X$X$X$X$X$X$X$X$X$X$X$X$X$X$X$X$X$X{.T.T.T.@.e 2 2 2 2 2 2 2 n -.-.-.d + + + ",
"+ + @ + ; &.K.K.H.c.c.g.f.e.W ) E :.[.$X$X$X$X$X$X$X$X$X$X$X$X$X$X$X$X$X$X$X$X$X$X$X$XO., , , y W.{.{././././.Q.p * ; = = + + + ",
"+ + + + ; &.L.V.H.B.b.V.M.1.L D N ] _.$X$X$X$X$X$X$X$X$X$X$X$X$X$X$X$X$X$X$X$X$X$X$X$Xo.o & . 3  X$X$X$X$X$X#XOXu . O O O O @ O ",
"@ & + + : &.J.L.H.x.B.B.M.7.H D D _ _.$X$X$X$X$X$X$X$X$X$X$X$X$X$X$X$X$X$X$X$X$X$X$X$XX.o & o t  X$X$X$X$X$X$X@Xu O O @ O + + + ",
"@ & + + ; &.L.V.H.x.M.B.M...H D S _ ~. X+X+X$X$X$X$X$X$X$X$X$X$X$X$X$X$X$X$X$X$X$X$X#XX.o & + t  X$X$X$X$X$X$X.Xi O @ @ + & O + ",
"@ & & + ; #.K.V.B.F.x.M.M.r.H D S I c.G.U.(.@X$X$X$X$X$X$X$X$X$X$X$X$X$X$X$X$X$X$X$X$Xo.& & + t  X$X$X$X$X$X$XOXi % @ @ @ @ O O ",
"& @ + + ; #.U.V.J.J.B.x.M...H H N I g.x.x.R. X#X$X$X$X$X$X$X#X$X$X$X$X@X$X$X$X$X$X$X$Xo.o & O t  X$X$X$X$X$X$X.Xi O + + @ @ + O ",
"@ + + O ; #.J.J.B.x.x.B.V.7.H H N I d.B.B.G.oX$X$X$X$X$X$X@X$X$X$X$X$X$X$X$X$X$X$X$X#Xo.o & . t  X$X$X$X$X$X$X@Xi O O @ @ @ + + ",
"@ + + O ; &.K.J.J.M.x.B.V.<.H G N U g.U.G.~. X#X$X$X$X$X$X$X$X$X$X$X$X$X$X$X$X$X$X$X$XO., , > y W.}.}.}./.{./.Q.u - = ; @ @ + + ",
"@ % + O = #.L.J.K.B.B.x.B.7.H G D _ !.oXXXXX#X$X$X$X$X@X$X$X$X$X$X$X$X$X$X$X$X$X$X$X$X{.Y.Y.Y.@.r 4 4 4 e r r r j =.-.-.d O O O ",
"@ + + O : %.K.K.J.B.B.B.K.7.H J S ` _.$X#X$X$X$X$X$X$X$X#X$X$X$X$X$X$X$X$X$X$X$X$X$X$X$X#X$X$Xq.- O + O O + + + m I.L.I.g O O O ",
"@ + + O ; &.L.V.B.B.B.B.V.7.H G S _ _.$X$X#X$X$X$X$X$X$X$X$X$X$X$X$X@X$X$X$X$X$X$X$X$X$X$X#X$Xq.- O O O O + + & M K.K.I.c X + + ",
"% + + % ; &.L.K.B.v.c.g.g.<.P L C [ _.#X$X$X$X$X$X$X$X$X$X$X$X+X@X@X@X$X$X$X$X$X$X$X$X$X$X$X#Xq.< = = = = @ @ * M L.K.K.v + + + ",
"+ @ + + ; %.I.J.B.3.Q Q _  .e.t.t.g.XX#X$X$X$X$X$X$X$X$X$X$XoX~.~.~.(.@X$X$X$X$X$X$X$X$X$X$X$XQ.=.+.+.~ x s k x *.K.V.K.v + + + ",
"@ O O + ; &.K.J.B.} C C Z [ M.M.n.U.+X$X#X$X$X$X$X$X$X$X$X$X[.F.F.D.U.OX$X$X$X$X$X$X$X$X$X#X@X'.P.I.I.k.' K K I y.V.K.K.v + + + ",
"O + @ + : &.K.K.B.:.C D V [ b.x.F.U.+X#X#X$X$X$X$X$X$X$X$X$X].J.x.B.P.XX$X$X$X$X$X$X$X$X$X$X@X|.P.H.I.k.W H H C y.V.B.J.c + + + ",
"@ + @ + : &.K.K.H.} C N C / F.F.F.U.+X$X$X$X@X$X#X$X$X@X#X+X_.I.B.B.P.[.+X#X#X#X$X#X$X$X$X$X#X.XR.G.I.k.Q D D I y.K.x.B.c @ + + ",
"@ O @ O : #.I.J.B.:.V G V ;.`.|.|.|.$X$X$XOX`.~.~.!.z.u.y.3.u.M.J.B.z.u.3.8.u.P.~.~.(.|.$X$X$X+X|.`.`.~.! H S L e.J.H.J.c + + + ",
"@ @ O O : &.P.b.B.} H H V 8.@X$X$X$X$X$X$XOX!.F.F.z./ Z C C ! v.J.B.f.W Z C Z y.n.H.J.).#X$X$X$X$X$X$X.X^ H D L y.B.V.A.h + @ + ",
"@ @ + O : #.I.J.b.} V H Z i.@X$X$X$X$X$X$X+X!.J.F.F./ Z D D [ v.B.J.f.W C V A y.n.n.J.(.+X#X$X$X$X$X$XoX^ H H A y.M.M.A.v + + @ ",
"@ @ + O ; %.A.n.l.:.T Z T 8.OX#X$X$X#X#X+XXXU.n.n.v./ Z A C ! c.J.V.f.W C H T t.m.b.x.^.+X#X#X#X$X$X#X|.%.L L T e.M.A.v.f + @ + ",
"@ % O O $ B | | } u.z.V.D.R.~.(.~.E.h.9.y.3. .} [ } >.1.1.<.u.m.H.H.m.y.6.1.1.>.[ [ } 2.y.9.9.h.~.(.(.~.F.x.b.k.e.[ [ [ a + @ + ",
"@ @ @ O $ x H G T c.OX$X@X_.G.F.H.j.T V S H H S V Z <.m.K.B.M.B.n.V.n.V.V.V.c.] V H G G H D V ! z.D.F.P.XX#X#XXX<.C D D 7 + @ + ",
"% + @ @ $ z J F K c.@X$X#X_.P.J.H.j.E H S S H D H C ..c.B.B.B.M.n.B.H.H.J.n.l.] V G G G D D H ! v.D.H.P.XX$X$XXX<.H D D 6 + + + ",
"+ + % O $ z J F K c.@X$X#X[.K.K.b.f.E V S S S H H C ..c.B.B.M.B.n.B.B.H.K.m.g.] V G S S D D C ! c.B.H.I.XX$X#X.X .N D F 6 @ + + ",
"+ @ + & $ z H F H >.j.j.j.y.>.>.>.>. .| ..|  .|  .>.y.m.B.B.B.b.B.M.B.B.B.n.c.6.>.| >. .| | { | ..>.>.>.p.j.j.p.` D D G 6 O O O ",
"+ + & O $ w J J G G L H L H H H V ) d.A.V.M.b.n.M.M.M.B.B.B.b.b.n.B.B.B.B.B.n.H.b.J.n.n.m.m.c.r.L C S N G H Z C D D D H 6 @ + @ ",
"+ + + O $ z H H S H J J G G S F G ( f.n.B.B.x.B.n.B.B.B.B.B.B.F.B.B.B.B.B.B.n.B.B.B.H.B.K.B.v.t.L C S S G G G G H H H H 6 @ + + ",
"@ + O O $ l H D H G G G G S J S S ( f.b.B.H.B.H.B.B.z.b.b.B.B.B.b.B.z.B.J.H.J.H.x.H.B.B.n.n.c.t.P H G G G G G H C V H V 6 + @ + ",
"+ O + O # B ..{ | | | [ { { | [ | <.c.b.B.B.B.J.B.H.B.B.b.b.D.z.b.D.H.J.H.B.H.F.B.x.B.x.b.b.M.f. .} { | | | [ | } | | | 9 + + + ",
"@ + O O ; ~ c.A.m.M.M.b.n.n.B.V.x.M.B.B.B.B.B.J.B.B.b.B.B.B.B.b.H.b.V.B.B.B.B.B.B.B.B.b.b.B.n.B.B.M.b.b.B.B.n.B.b.b.M.m.v + O + ",
"+ + O O ; $.J.H.B.B.P.B.J.B.B.B.x.x.b.b.B.n.J.J.n.n.b.b.n.n.J.n.B.B.V.V.V.K.B.V.B.B.J.H.B.n.J.H.J.x.B.B.J.J.H.H.B.H.B.V.v + X O ",
"@ O O O ; &.H.H.H.H.J.J.J.B.B.B.x.H.x.B.B.b.B.H.K.J.B.B.J.J.L.J.J.J.K.K.K.K.K.H.J.I.K.J.K.n.J.H.J.B.J.I.I.J.J.P.J.J.B.m.v X   X "
};
