/* XPM */
static char *result[] = {
/* columns rows colors chars-per-pixel */
"64 64 218 2 ",
"   c #020101",
".  c #0B0302",
"X  c #0C0906",
"o  c #070908",
"O  c #0B0A0A",
"+  c #120705",
"@  c #150D09",
"#  c #1D0C0C",
"$  c #0F110F",
"%  c #141311",
"&  c #1A1211",
"*  c #1E1A1A",
"=  c #230D0C",
"-  c #20100E",
";  c #221512",
":  c #2E1514",
">  c #2A1915",
",  c #241A19",
"<  c #341513",
"1  c #381C18",
"2  c #2E201F",
"3  c #37201F",
"4  c #282121",
"5  c #342725",
"6  c #3B2525",
"7  c #38302E",
"8  c #481C16",
"9  c #451D1B",
"0  c #4A1E1A",
"q  c #45201F",
"w  c #49221F",
"e  c #4D2522",
"r  c #4F2822",
"t  c #4C2D2B",
"y  c #552624",
"u  c #522925",
"i  c #582B29",
"p  c #59312C",
"a  c #443432",
"s  c #5A3533",
"d  c #5D3738",
"f  c #563F3E",
"g  c #5A3F3D",
"h  c #753D39",
"j  c #783F3E",
"k  c #4C4136",
"l  c #56403D",
"z  c #57463E",
"x  c #69443E",
"c  c #77403F",
"v  c #79403E",
"b  c #584947",
"n  c #5D4B49",
"m  c #56544F",
"M  c #624946",
"N  c #6A4F47",
"B  c #614C49",
"V  c #774643",
"C  c #645645",
"Z  c #745753",
"A  c #67625E",
"S  c #656563",
"D  c #797063",
"F  c #89423E",
"G  c #844444",
"H  c #8F4F4E",
"J  c #825754",
"K  c #955B59",
"L  c #A04E48",
"P  c #A15E59",
"I  c #AD5C5B",
"U  c #B65F57",
"Y  c #B65E5C",
"T  c #B85D5A",
"R  c #83665A",
"E  c #A65E61",
"W  c #B25F61",
"Q  c #836760",
"!  c #897966",
"~  c #8B7C65",
"^  c #8B7C6A",
"/  c #8A7D75",
"(  c #AB6765",
")  c #AC6C6D",
"_  c #B76763",
"`  c #B56D6C",
"'  c #BB6B6B",
"]  c #BC716E",
"[  c #A37972",
"{  c #A27F7A",
"}  c #BF7B78",
"|  c #C4655D",
" . c #CB6660",
".. c #C26B64",
"X. c #C66E6B",
"o. c #CA6D6B",
"O. c #DD6F67",
"+. c #D56E6B",
"@. c #DD6E69",
"#. c #C4716D",
"$. c #CE726F",
"%. c #DB7067",
"&. c #D5726E",
"*. c #DC716D",
"=. c #D46E71",
"-. c #C47171",
";. c #CB7574",
":. c #D67272",
">. c #DA7272",
",. c #D87973",
"<. c #D67B7A",
"1. c #D87C78",
"2. c #E06E66",
"3. c #E06E6A",
"4. c #E16F70",
"5. c #99846C",
"6. c #8C8275",
"7. c #9A8C74",
"8. c #9F817B",
"9. c #A0817B",
"0. c #A6997C",
"q. c #AB9A7C",
"w. c #CE8078",
"e. c #D88077",
"r. c #D2817D",
"t. c #DA847E",
"y. c #E0847C",
"u. c #898782",
"i. c #8E8E8E",
"p. c #918F8D",
"a. c #988B8C",
"s. c #91908E",
"d. c #918F90",
"f. c #929191",
"g. c #9B9A9A",
"h. c #B38B89",
"j. c #AB9989",
"k. c #BA9889",
"l. c #A09E9F",
"z. c #BA9491",
"x. c #B0A29C",
"c. c #A4A4A4",
"v. c #AEADAB",
"b. c #B4B1A9",
"n. c #B3B5B3",
"m. c #BABABA",
"M. c #C38D8A",
"N. c #DA8581",
"B. c #D98985",
"V. c #C5948E",
"C. c #DD968D",
"Z. c #CA9992",
"A. c #E68F88",
"S. c #E89B94",
"D. c #D5A49C",
"F. c #C6B197",
"G. c #E9A69F",
"H. c #ECA69E",
"J. c #CBA7A4",
"K. c #DAB4AF",
"L. c #D5B3B4",
"P. c #DCB4B3",
"I. c #ECA6A2",
"U. c #EDAAA4",
"Y. c #F1ACA5",
"T. c #E1B0AA",
"R. c #EEB4AB",
"E. c #ECB9AE",
"W. c #F2B1A7",
"Q. c #F0B3AA",
"!. c #F1B8AC",
"~. c #E5B6B2",
"^. c #EBB7B2",
"/. c #ECB9B3",
"(. c #E6B8B9",
"). c #E8B9B9",
"_. c #F0B7B1",
"`. c #F1B9B2",
"'. c #D8C29B",
"]. c #E3CAAA",
"[. c #F3D7AD",
"{. c #F2D8AE",
"}. c #EAD4B0",
"|. c #EDD7B4",
" X c #EED9B4",
".X c #E7D5BA",
"XX c #ECDABB",
"oX c #F3D7B2",
"OX c #F2D9B3",
"+X c #F1DBBA",
"@X c #F1E1BD",
"#X c #D2CECD",
"$X c #D6D5D5",
"%X c #ECDDC3",
"&X c #F3DBC0",
"*X c #EFE2C5",
"=X c #EEE3CB",
"-X c #F3E2C5",
";X c #F3E4CB",
":X c #F5E9CE",
">X c #EFE5D4",
",X c #F2E6D2",
"<X c #F4E9D4",
"1X c #FAEED2",
"2X c #F4ECDC",
"3X c #F9EDDB",
"4X c #E5E5E5",
"5X c #F5EEE1",
"6X c #F9EFE3",
"7X c #FAF2E3",
"8X c #FBF6E6",
"9X c #FBF6EC",
"0X c #FEF9ED",
"qX c #F0F2F5",
"wX c #FCF7F1",
"eX c #FDFAF5",
"rX c #F8F6F9",
"tX c #FCFBFC",
/* pixels */
"eXeXtXtXtXtXtXtXtXtXtXrXtXtXtXtXtXtXtXl.@                                             O c.tXtXtXtXtXtXtXtXtXtXtXtXtXeXtXrXtXeXeX",
"tXtXeXtXtXtXtXtXtXtXtXtXtXtXtXtXtXtXtXc.O                                             o c.tXtXtXtXtXtXtXtXtXtXtXtXtXtXtXeXtXtXtX",
"tXtXtXtXtXtXtXtXtXtXtXtXtXtXtXtXtXtXtXc.O                                             O c.tXtXtXtXtXtXtXtXtXtXtXtXtXtXtXtXtXtXtX",
"tXtXtXtXrXtXtXtXtXtXtXtXtXtXtXtXtXtXtXc.O     # t s p s M B B B B B B M s p p t =     o c.tXtXeX9X5X2X6X9XeXtXtXtXtXtXtXtXtXtXtX",
"tXtXtXtXtXtXtXtXtXtXtXtXtXtXtXtXtXtXtXc.O   . q ` ;.;.<.I.~.~.~.~.~.R.U.t.:.$.` 9 .   O c.tXeX9X<XXXXX.X,X0XeXtXtXtXtXtXtXtXtXtX",
"tXtXtXtXrXtXtXtXtXtXtXtXtXtXtXtXtXtXtXc.O   + 0 ] :.>.<.Y.R.^.).^.~.^.U.<.>.&.' 9 .   o c.tXtX0X,XXX|..X<X0XeXtXtXtXtXtXtXtXtXtX",
"tXtXtXtXtXtXtXtXrXtXtXtXtXtXtXtXtXtXtXl.o     9 ` >.=.N.Y._.`.`././.E.W.t.@.:.] q     X c.tXeX0X<XXX|.XX<XeXtXtXtXtXrXtXtXtXtXtX",
"tXtXtXtXtXtXtXtXtXtXtXtXtXtXtXtXtXtXtXm.m m m B J H H K [ { { { 9.9.8.[ K H H Z x z k z b.8X7X3X;X X XXX<XeXtXtXtXtXtXtXtXtXtXtX",
"tXtXtXtXtXtXtXtXtXtXrXtXtXtXtXtXtXtXtXrXqXqXqXv.& X . X . o o o O o o X o . . - j..X].].OX+X+XOXOXOXOXXX<XeXtXtXtXtXtXtXtXtXtXtX",
"tXtXtXtXtXtXtXtXtXtXtXtXtXtXtXtXtXtXtXtXtXtXtXn.$                             @ j.+X+XOX[.[.oXOXOXOXOXXX<XeXtXtXtXtXtXtXtXtXtXtX",
"tXtXtXtXtXtXtXtXtXtXtXtXtXtXtXtXtXtXrXtXtXtXtXm.$                             @ k.@X+X{.[.[.[.[.OXoXoXXX3XwXtXtXtXtXeXtXtXtXtXtX",
"tXtXtXtXtXtXtXrXtXtXtXtXtXtXtXtXtXtXtX4Xn.n.n.u.$     O 7 a a a 6 1 6 1 +     X D j.j.q.'.[.[.oXoX|.oX+X;X3X6X7X5X7X7X7X8XeXtXtX",
"tXtXtXtXtXtXtXtXtXtXtXtXrXtXtXtXtXtXtXv.% O O o       5 x.K.T.G.;.X.#.( < .     o O X @ 7.OX[.oXoXoX|.oXOX+XOXXX.XXXXX*X>X9XtXtX",
"tXtXtXtXtXtXtXtXtXtXtXtXtXtXtXtXtXtXtXc.O             6 J./.`.Y.1.+.&._ <             X 7.+XoX[.oXoX|.{.{.{.OXOX X X X.X>XeXeXtX",
"tXtXtXtXtXtXtXtXtXtXtXtXtXtXtXtXtXtXtXc.o             5 J./.!.Y.1.+.&._ 8 .           X 7. XOX+X+XOX{.{.[.[.{.{. X{. XXX>XeXeXtX",
"tXtXtXtXtXtXtXtXtXtXtXtXtXtXtX4X$X#X#Xa.2 > : > 2 2 3 g D.G.H.H.,.+.*.' y < < < : : : 3 5.F.F.F.].OX{.OX[.[.[.{. X@X*X=X2XeXeXtX",
"tXtXtXtXtXtXtXtXtXtXtXtXtXtXtXg.4 * > d ) ' ' } D.D.D.C.e.*.*.*.*.O.@.@. .| | | | | _ ( p ; & > 5.OX{.{.{.[.[.{.;X7XwXwXwXeXtXtX",
"tXtXtXtXtXtXtXtXtXtXtXtXtXtXtXd.o   . y -.>.=.N.W.!.!.H.,.%.@.@.O.*.%.@.@.2.3.@.3.%.%.] r .   . ! oX{.{.{.[.[.OX:X0XeXtXtXtXtXeX",
"tXtXtXtXtXtXtXtXtXtXtXtXtXtXtXf.    + y -.>.>.t.Y.!.!.Y.1.*.*.*.@.*.%.*.3.3.2.3.3.*.*.#.y .   . ^  X|.{.{.OX|..X:X0XeXtXtXtXtXeX",
"tXtXtXtXtXtXtXtXtXtXtXtXtXtXtXf.o   . 0 E W W ` V.Z.Z.M.( Y Y T Y Y T T T T Y Y U U Y P 0 .   . ~  X{.{.+X+X*X*X<XeXtXtXtXtXtXtX",
"tXtXtXtXtXtXtXtXtXtXtXtXtXtXtXf.o     X - = = - ; ; ; & # # = = = = = = = = = = - = - = X     . ~  X X X=X8X0X0XwXeXtXtXtXtXtXtX",
"tXtXtXtXtXtXtXtXtXtXtXtXtXtXtXf..                                                             . 5. X X.X2X0XtXtXtXtXtXtXtXtXtXtX",
"tXtXtXtXtXtXtXtXtXtXtXtXtXtXtXf.o                                                             . ~  X X X1X0XeXtXtXtXtXtXtXtXtXtX",
"tXtXtXtXtXtXtXtXtXtXtXtXtXtXtXf.o     o % & & & & & & & & & & % & % & & & & & & & % & % X     . ~ }. X X;X8X8X9XeXeXtXtXtXtXtXtX",
"tXtXtXtXtXtXtXtXtXtXtXtXtXtXtXf.      a h.z.z.z.z.z.z.z.z.z.z.z.z.z.z.z.z.z.z.z.z.z.z.z.a     . ! +X|.{. X@X*X=X2XeXeXtXtXtXtXtX",
"tXtXtXtXtXtXtXtXtXrXtXtXtXtXtXf.o     f P.).(.).(././././././././././././.^._._././.].P.b     . ! OX{.[.{. X XXX<XeXtXtXtXtXtXtX",
"tXtXtXtXtXtXtXtXtXtXtXtXtXtXtXd.o     f L.(./.~.~.~./.~.~.E.~.^.^.~.E.E.^.^.^.^.E.~./.P.f     . ^ +X+XOXOX X XXX<X0XtXtXtXtXtXtX",
"rXtXtXtXtXtXtXrXtXtXtXtXtXtXtXd.      f P.(./.^.^.^.^.^.^.^.E.^.^.^.^.^.^.^.^.^./.E./.K.g     . / %X&X+XXXXX%X%X<X0XeXtXtXtXtXtX",
"tXtXtXtXtXtXtXtXtXtXtXtXtXtXtXf.o     g P.(.)./.E.^.^.^.^.^.^.^./././._.^.^.^.^.^.^./.P.l       u.8X7X7X5X7X7X8X8XeXtXtXtXtXtXtX",
"tXtXtXrXtXtXtXtXtXtXtXtXtXtXtXd.      f P.)././.^.^.^./.^.^././././././.^._.^.^.^././.P.l     o p.eXeXtXtXtXeXeXeXtXtXtXtXtXtXtX",
"tXtXtXtXrXtXtXtXtXtXtXtXtXrXtXd.o     g P.).)./.^.^.^._.^._.^.^././././._./._.^./.^./.P.l .     i.tXtXtXtXtXtXtXtXtXtXtXtXtXtXtX",
"tXrXtXtXtXtXtXtXrXtXtXtXtXtXtXd.o     g P.).)./.^.^._.^.^.^.^./.^./._./././._.^.^.^./.P.g     o i.tXtXtXtXtXtXtXtXtXtXtXtXtXtXtX",
"tXtXtXtXtXtXtXtXtXtXtXtXtXtXtXd.o     f P.(.~./.^._.^.^.E.^.^./.^.^./._./././.^.E.^./.P.g     o p.tXtXrXtXtXtXrXtXtXtXtXtXtXtXtX",
"tXtXtXtXtXtXtXtXtXtXeXtXtXtXtXf.      f P.)././.^.^././.^.^.^.^.^.^.^././././././././.P.g     o i.tXtXtXtXtXtXtXtXtXtXtXtXtXtXtX",
"tXtXtXtXtXtXtXtXtXtXtXtXtXtXtXf.o     b L.).(././.^././.^././.^./././././././././.E.^.P.f       i.tXrXtXrXtXtXtXtXtXtXtXtXtXtXtX",
"tXtXtXtXtXtXtXtXeXtXtXtXtXtXtXs.      b L.(.(.(.(.^.~.~.^.~.~.~.~.~.^.~.~.~.~.^.~.~.~.L.f     o i.tXtXtXtXtXtXtXtXtXtXtXtXtXtXtX",
"tXtXtXtXtXtXtXtXtXtXtXtXtXtXtXf.o     , n B B n B B B B B B n n B n n M B n n M n M B b ,     o s.tXtXtXtXtXtXtXtXtXtXtXtXtXtXtX",
"tXtXtXtXtXtXtXtXtXtXtXtXtXtXtXf..                                                             o i.tXtXtXtXtXtXtXtXtXtXtXtXtXtXtX",
"tXtXtXtXtXeXeXtXeXeXeXtXeXeXtXp.o                                                               i.tXtXtXtXtXtXtXrXtXrXtXtXtXtXtX",
"tXtXtXtXeXeXeXeXeXeXeXeXeXeXeXs.          .           . .             .                       o i.tXtXtXtXtXtXrXtXtXtXtXtXtXtXtX",
"tXtXeX5X2X<X,X<X:X>X<X:X:X,X<X6..     : d c c N R Q Q J V V j j j v v v c j j j j j v x :     o i.tXtXtXtXtXtXrXrXtXtXtXtXtXtXtX",
"tXtX0X>XXXXX X X X X X X|. XXX6..   . r #.:.&.B.R././.I.r.>.>.@.4.*.*.4.4.@.>.*.>.>.>.-.u .     i.tXtXtXtXtXrXrXtXtXtXtXtXtXtXtX",
"tXeX0X=XXX X|.{.{.{.{.{.{.OX+X^ .     u #.+.*.t.W.^.E.I.<.>.@.@.@.3.3.3.3.3.@.@.@.@.@.$.y .     i.tXtXtXtXtXrXtXrXrXtXtXtXtXtXtX",
"tXeX0X:X.X X{.[.{.{.{.{.{.{.+X^ .   . r ..@.@.N.W.E.E.G.<.>.@.@.3.3.3.%.@.3.2.O.@.2.@.X.y .   o i.tXtXtXtXtXtXtXtXtXtXtXtXtXtXtX",
"tXtXeX7X<X1X;X@XOXOXOX{.[.oX+X^ .     r #.3.@.N.W.E.E.G.,.+.@.@.O.3.3.O.3.O.@.O.@.O.3.o.y .     i.tXtXtXtXtXtXtXrXtXtXtXtXtXtXtX",
"tXtXtXtXeX0X8X;X+X+XOX{.[.oXoX^ .     r X.3.4.N.R.E.E.G.,.@.3.O.@.2.3.@.@.@.O.@.@.O.3.=.y .   o i.tXtXtXtXtXtXtXtXtXtXtXtXtXtXtX",
"tXtXtXtXtXeX0X:X+X+XOX{.[.[.+X^ .     u X.@.>.N.R.E.!.H.,.+.3.@.O.2.3.O.2.O.@.@.@.3.3.o.y .     i.tXtXtXtXtXtXtXtXtXtXtXtXtXtXtX",
"tXtXtXtXtXeX0X:X+XOXOXOX[.[.OX! .     r #.4.=.N.W.!.!.H.,.@.@.%.@.@.O.3.@.@.@.O.@.@.3.-.y .     i.tXtXtXtXtXtXtXrXtXtXtXtXtXtXtX",
"tXtXtXtXtXtX0X<X+XOX{.{.{.{.OXk.C C C C v G F P C.S.S.A.*.*.O.@.%.@.O.O.@.@.+.+.L F G V Z A S S m.tXtXtXtXtXrXtXtXtXtXtXtXrXtXtX",
"tXtXtXtXtXeX0X<XXXOXOXOXOX{.{.|.OXOXXX7.+ . + w ..@.+.@.O.@.O.%.@.O.2.O.2.@.4...0 . . @ l.wXrXrXrXtXtXtXtXtXtXtXtXtXtXtXtXtXtXtX",
"tXtXtXtXeXeX8X:XXXOX{.{.{.{.{.OX{.{.OX7.X     8 ..2.2.O.O.O.+.O.O.O.2.O.O.@.+...9     O c.eXtXtXtXtXtXtXtXtXtXtXrXtXtXtXtXtXtXtX",
"tXtXtXtXeX0X8X:XXXOX{.{.{.{.{.OXOXOX@X7.X     8 | O.O.O.%.%.%.@.%.2.O.O.O.O.@.' 8 .   O c.tXtXtXtXtXtXtXtXtXtXrXtXtXtXtXtXtXtXtX",
"tXtXeX8X5X3X1X@X|.OX{.[.{.OXOX'.q.0.0.R e w q c w.y.y.y.*.O.@.%.O.O.2.@.@.@.@.o.h 0 w t / b.v.n.$XtXtXtXtXtXtXtXrXtXtXtXtXtXtXtX",
"tXeX0X>XXX@X X{.{.{.{.{.[.[.+X^ @ X + i ' o...r.U.R.W.H.,.O.O.O.O.O.2.3.2.2.3.@.+.+.o.` y # @ $ g.tXtXtXtXtXtXtXtXtXtXtXtXtXtXtX",
"eXeX0X:X@X|.{.{.{.{.oX{.oXoX+X~ .     r #.@.+.N.!.R.R.H.,.O.O.O.3.O.@.3.2.@.2.@.4.4.4.o.y .     i.tXtXtXtXtXtXtXtXtXtXtXtXtXtXtX",
"tXeX0X:XXXXX X X|.|. XOXoXOXXX^ o     r X.@.@.t.W.E.E.H.,.&.O.O.O.@.O.@.@.2.+.+.@.3.=.o.y +     i.tXtXtXtXtXtXtXtXtXtXtXtXtXtXtX",
"tXeXeX2X=X-X*X-X-X-X=X-X-X-X;X/ .     u o.@.&.t.U.E.!.I.,.*.@.@.@.@.@.3.@.@.+.@.O.O.O.X.y +   o d.tXtXtXtXtXtXtXtXtXtXtXtXtXtXtX",
"tXtXeXwXeXwXwX9XwXwXwXwXwXwXwXp..     u X.@.%.t.R.E.E.H.,.+.%.@.@.@.@.@.@.@.%.@.2.2.3.X.y .   . d.tXtXtXtXtXtXtXtXtXtXtXtXtXtXtX",
"tXtXtXeXtXrXtXtXtXtXtXtXtXtXtXs.o   . u X.@.+.t.R.E.E.H.,.+.@.@.@.@.@.@.@.@.@.@.@.3.3.#.y .     i.tXtXtXtXrXtXtXtXtXtXtXtXtXtXtX",
"tXtXtXtXtXtXtXtXtXtXtXtXtXtXtXa.    . u -.:.:.N.Q.^.`.I.1.>.@.@.@.*.*.*.*.*.*.%.%.4.>.-.y .   o d.tXtXtXtXtXtXtXtXtXrXtXtXtXtXtX",
"tXtXtXtXtXtXtXtXtXtXtXtXtXtXtXs.    . q K E E ) M.V.z.h.( ( I I I I I I U I I I I I P K 9 .   o i.tXtXtXtXrXtXtXtXtXtXtXtXtXtXtX",
"tXtXtXtXtXtXtXtXtXeXtXtXtXtXeXs.o     . # = # # - & ; = # # # # # # # # # # # # # # # # X       i.tXtXtXtXtXtXtXtXtXtXtXtXtXtXtX",
"rXtXtXtXtXtXtXtXtXtXtXtXeXtXtXs.                                                              o i.tXtXtXtXtXtXtXtXtXtXtXtXtXtXtX",
"tXtXtXtXtXtXtXtXtXtXtXtXtXtXeXp.o                                                             o d.tXtXtXtXtXtXtXtXtXtXtXtXtXtXtX"
};
