/* XPM */
static char *result[] = {
/* columns rows colors chars-per-pixel */
"64 64 246 2 ",
"   c #0B0200",
".  c #170409",
"X  c #271D08",
"o  c #2A1515",
"O  c #372D0C",
"+  c #3B360C",
"@  c #372A19",
"#  c #321A27",
"$  c #382525",
"%  c #3E2F28",
"&  c #541E17",
"*  c #443313",
"=  c #433519",
"-  c #442C27",
";  c #552E2D",
":  c #473827",
">  c #482A37",
",  c #4A3833",
"<  c #543937",
"1  c #642C27",
"2  c #6C3930",
"3  c #464211",
"4  c #73431E",
"5  c #6C6B1F",
"6  c #584D2D",
"7  c #5C4837",
"8  c #764B2A",
"9  c #7A4B33",
"0  c #6A5738",
"q  c #706A29",
"w  c #543549",
"e  c #64394E",
"r  c #77374C",
"t  c #763551",
"y  c #7B3A57",
"u  c #6B3966",
"i  c #7B3473",
"p  c #5D4947",
"a  c #644948",
"s  c #70504F",
"d  c #6B5758",
"f  c #755A58",
"g  c #766349",
"h  c #786957",
"j  c #7D7453",
"k  c #6D4768",
"l  c #73466A",
"z  c #76556A",
"x  c #7A4A79",
"c  c #7C5874",
"v  c #7A6869",
"b  c #7B6873",
"n  c #803D5B",
"m  c #925A53",
"M  c #8C6D52",
"N  c #AA775C",
"B  c #8A5A77",
"V  c #826B6B",
"C  c #956A69",
"Z  c #876879",
"A  c #9B6C74",
"S  c #887479",
"D  c #9C7274",
"F  c #A9726B",
"G  c #A77674",
"H  c #7F8028",
"J  c #86862C",
"K  c #8D8B35",
"L  c #9A9738",
"P  c #A0A037",
"I  c #AAA83B",
"U  c #B8B73E",
"Y  c #948C46",
"T  c #B88E5B",
"R  c #A6995E",
"E  c #B9B746",
"W  c #BCBA42",
"Q  c #BBB656",
"!  c #9B8768",
"~  c #978B70",
"^  c #A89A67",
"/  c #B19373",
"(  c #B6AB71",
")  c #C4975B",
"_  c #C2BC46",
"`  c #C5BD57",
"'  c #C49863",
"]  c #CDAB7A",
"[  c #D9B77C",
"{  c #E2B76F",
"}  c #C8C24E",
"|  c #C7C256",
" . c #DBD36B",
".. c #CDC477",
"X. c #D6CC72",
"o. c #ECCA7A",
"O. c #825982",
"+. c #8C6A87",
"@. c #96688B",
"#. c #90738F",
"$. c #96788A",
"%. c #A56F96",
"&. c #AD72A7",
"*. c #B776A6",
"=. c #BB75B3",
"-. c #C177AC",
";. c #C175B3",
":. c #BB73C6",
">. c #C67DCA",
",. c #D67DEA",
"<. c #DC7FF4",
"1. c #AC939F",
"2. c #B39395",
"3. c #BDB08A",
"4. c #AF89A7",
"5. c #B598A4",
"6. c #B686B8",
"7. c #B998BA",
"8. c #C4B585",
"9. c #D7B786",
"0. c #D1B193",
"q. c #DAB793",
"w. c #E3BC88",
"e. c #EABE98",
"r. c #CDB4AD",
"t. c #D6A8B2",
"y. c #D9CA87",
"u. c #D8C98D",
"i. c #EAC788",
"p. c #F1CD8B",
"a. c #E6DA87",
"s. c #E8CA97",
"d. c #E8D496",
"f. c #F7D79A",
"g. c #EBCEAA",
"h. c #E6D3A8",
"j. c #F6D7A5",
"k. c #EBD9B8",
"l. c #F8E6B8",
"z. c #BD8EC4",
"x. c #C485C8",
"c. c #C597C9",
"v. c #D495CE",
"b. c #CC89DA",
"n. c #D588DB",
"m. c #D28CDE",
"M. c #CE99D8",
"N. c #D395DE",
"B. c #D699D8",
"V. c #D39CDC",
"C. c #D3B1CF",
"Z. c #D7A7DA",
"A. c #E2ADDC",
"S. c #CF8DE2",
"D. c #D485E5",
"F. c #D885E6",
"G. c #D48CE4",
"H. c #DA8CE5",
"J. c #D684EA",
"K. c #DB84EC",
"L. c #D68CE9",
"P. c #DC8CEC",
"I. c #D594E4",
"U. c #D994E6",
"Y. c #D59BE3",
"T. c #D99CE5",
"R. c #D694E9",
"E. c #DC93EB",
"W. c #D699E9",
"Q. c #DD9BEC",
"!. c #DE85F2",
"~. c #DE8AF1",
"^. c #DD85F8",
"/. c #DD94F1",
"(. c #E28CEC",
"). c #E194EE",
"_. c #E699E8",
"`. c #E29CED",
"'. c #E38CF3",
"]. c #E288F6",
"[. c #E494F3",
"{. c #E994F6",
"}. c #E49BF3",
"|. c #E99CF6",
" X c #E597F9",
".X c #EA94F8",
"XX c #EB9CF8",
"oX c #D6A2E1",
"OX c #DAA3E5",
"+X c #DCAAE5",
"@X c #DDA3EB",
"#X c #DDAAEB",
"$X c #DDB5E7",
"%X c #DEA2F1",
"&X c #E2A3ED",
"*X c #EBA4EC",
"=X c #E5A9E9",
"-X c #E3ACED",
";X c #E3B2ED",
":X c #E8B7EA",
">X c #E4B9EC",
",X c #E5A4F2",
"<X c #EAA4F6",
"1X c #E5ABF2",
"2X c #EAABF5",
"3X c #EDA4F9",
"4X c #EEAAF9",
"5X c #F0A7FA",
"6X c #F0ADFA",
"7X c #E6B4F1",
"8X c #EBB4F5",
"9X c #E6B8F2",
"0X c #ECBBF4",
"qX c #EEB4F9",
"wX c #EFBBF8",
"eX c #F0BCF7",
"rX c #F1B3FA",
"tX c #F2BCFB",
"yX c #D7C9C7",
"uX c #ECCECF",
"iX c #F4D1CC",
"pX c #F6E8C7",
"aX c #F9EFD2",
"sX c #FCF4D9",
"dX c #EBC9E9",
"fX c #ECC3F4",
"gX c #EBC9F4",
"hX c #EEC3F8",
"jX c #F1C2F6",
"kX c #F1CBF7",
"lX c #F3C3FB",
"zX c #F4CBFB",
"xX c #EDD6F0",
"cX c #F3D7F7",
"vX c #F5D3FB",
"bX c #F5DBFB",
"nX c #F8DCFD",
"mX c #F6EDE0",
"MX c #FDF9E7",
"NX c #EEE1F4",
"BX c #F4E4F9",
"VX c #FAE4FD",
"CX c #FCECFE",
"ZX c #FEFDF3",
"AX c #FDF4FE",
"SX c #FEFDFE",
/* pixels */
"SXSXSXSXSXSXSXSXAXbX$X$X$X$X#X;X-X-X;X;X>XzXvXnXbXbXbXnXbXbXvXvXvXbXbXbXbXbXbXbXbXnXvXzX9X#X#X;X#X;X;X;X-X;X$XbXAXSXSXSXSXSXSXSX",
"SXSXSXSXSXSXSXSXAXgXM.V.#X#X@XW.U.D.I.L.N.@X;X-X>XgXcXvXfX9X7X;X7X7X7X$X9XcXbXgX>X;X2X&XI.Y.@X@X@XW.U.L.H.U.M.gXAXSXSXSXSXSXSXSX",
"SXSXSXSXSXSXSXAXCXfXV.1XtXtXqX4X|.].{.[.D.I.Q.Y.Z.gXVXnX#XS.Y.V.V.V.Y.M.$XBXVXgXV.Y.U.R.G.Q.qXtXqX4X<X'.'.XXI.fXCXSXSXSXSXSXSXSX",
"SXSXSXSXSXSXSXAXAXfXN.S.Y.OXT.U.P.J.~.P.H.qXzXkXfXbXAXVX$X#XhXvXvXvXkXgXgXCXCXgXoX8XlXqXI.I.Y.OXoXU.P.K.!.L.I.fXCXSXSXSXSXSXSXSX",
"SXSXSXSXSXSXSXSXCXfXM.oX;X9X#X@XE.G.[.R.W.zXCXVXcXBXSXVX$X#XVXCXAXAXAXBXNXAXAXdXoXvXbXzXW.Y.#X>X;X+XQ.L.'.).S.fXCXSXSXSXSXSXSXSX",
"SXSXSXSXSXSXSXAXCXfXZ.9XvXnXzXlX2XU.<X,XoXzXCXVXNXBXSXVX$X$XVXCXAXAXAXNXNXAXAXgXoXvXVXvXoX$XvXnXvXlXrXE.}.<XM.fXCXSXSXSXSXSXSXSX",
"SXSXSXSXSXSXSXAXCXgXV.#XzXvXlXwX<XH.|.&XY.vXCXVXNXBXAXVX$X$XCXSXSXAXAXNXNXAXAXxXC.cXVXvXoX+XhXvXlXwX2XE.}.,XY.fXCXSXSXSXSXSXSXSX",
"SXSXSXSXSXSXSXSXCXfXM.M.OX+XW.E.H.F.(.H.V.zXCXVXNXBXAXCXxXxXAXSXSXSXAXNXNXAXAXNXgXbXVXvXoXM.oX+XOXT.U.G.P.L.N.fXVXSXSXZXSXSXZXSX",
"SXSXSXSXSXSXSXAXCXfXS.T.1X1X,X}.(.K.'.U.Y.vXCXVXxXBXAXAXbXbXAXAXAXAXAXbXNXAXAXBXcXVXVXvXY.T.&X1X*X`.[.F.~./.I.fXCXSXSXSXSXSXSXSX",
"SXSXSXSXSXSXSXSXCXhXR.,XrXtX4X3X|.K.{._.V.zXCXCXVXCXAXCXbXvXCXCXAXCXCXVXBXAXAXVXcXVXVXzXQ.Q.4XrX6X3X.X].'.{.I.fXVXSXSXSXSXSXSXSX",
"SXSXSXSXSXSXSXAXCXhXS.D././.L.E.R.H.H.I.OXvXVXVXVXnXVXnXzXzXbXnXVXbXnXbXnXnXnXvXzXvXVXvX@XI.E.P.'.K.K.].~.J.G.fXCXAXSXSXSXSXSXSX",
"SXSXSXSXSXSXSXAXCXhXm.b.}.4X/.<XqX4X2X2X8XvXzX+X+X+X+X@XOXoX+X#X#X+X+X+X@X#X@X@XW.#XhXvXwX2X3X3X3X X]..X'.,.b.fXCXSXSXSXSXSXSXSX",
"SXSXSXSXSXSXSXSXCXhXD.b.<X6X[.4XtXtXtXtXtXwX9X9X>X>X8X;X-X=X=X1X%X#X@X@X@X&X&XQ.@X,X4XqXtXtXrXtXrXXX'.3X{.J.S.0XBXSXSXSXSXSXSXSX",
"SXSXSXSXSXSXSXAXCXhXS.D.[.}.L.Q.2X4X3X4X<XW.9XbXvXgXlXlXqX2X2XtX8X4X4X4X4X3X2X3X4XrX,XE.<X4X4X3X3X{.]..X'.J.G.fXCXAXSXSXSXSXSXSX",
"SXSXSXSXSXSXSXSXCXhXI.S.G.G.R.R.W.R.L.L.~.S.9XzX+XV.V.oXV.I.I.Y.I.I.I.U.U.I.N.I.E.4X}.D.L.L.I.E.P.P.K.K.K.D.b.fXCXAXSXSXSXSXSXSX",
"SXSXSXSXSXSXSXAXCXgXY.8X,XY.0XkXwX<X/.~. X/.qXhXoXoX-X;X;X;X;X1X1X7X-X1X1X1X2X_.I.4X}.P.}.E.Q.rXqX4X|.P./.}.Y.fXVXSXSXSXSXSXSXSX",
"SXSXSXSXSXSXSXAXCXgXoXwX1X+XvXVXvXrX[.[.3X/.4XwXY.#XhXhXlXlXlXlXlXlXlXlXlXlXtX,XU.4X}./.4XQ.%XzXzXtXrX).|.2XN.fXCXSXSXSXSXSXSXSX",
"ZXSXSXSXSXSXSXAXCXfXI.,XU.Y.wXfX9X2XE./.|.E.<X8XW.%X2X8X8XqX8X8X8X4X8X8X2XqX2XW.I.4X}.P.3X/.Q.wXqX2X3X(.[.|.N.fXCXSXSXSXSXSXSXSX",
"SXSXSXSXSXSXSXAXCXhXG.D.G.I.I.Y.Y.I.G.L.L.S.2XwXW.S.I.W.W.R.I.R.R.R.R.R.U.U.R.I.U.4X}.L.~.G.R./.E.P.K.!.].,.m.fXCXSXSXSXSXSXSXSX",
"SXSXSXSXSXSXAXAXCXwXS.D.}.4XR.1XwXhX8X2X%XY.#XhX$X#X#X#X#X,X1X<X3X<X<X1X,X1X1X%X;X8XQ.I.,X4X2X1X<X[.!.{.'.F.m.hXCXAXAXSXSXAXSXSX",
"AXAXAXAXCXAXAXCXVXwXL.b.2XlX@XgXVXVXvXkXhX>Xz.#.+.+.+.+.@.6._.|.,X&XZ.6.#.#.@.#.+.#.z.$X9XhXhXgXtX<X/.3X{.J.m.jXCXCXAXAXAXAXCXAX",
"cXcXvXcXcXvXvXvXlX4XG.D.,XqXY.M.C.7.7.C.cXNX#.# % 6 , : ; e %.>.n.>.@.s % 6 , , , # #.xXxXC.7.z.z.b.S.}.[.,.D.1XzXzXvXvXvXvXvXcX",
"Z.oXZ.oXoXV.T.T.Q.E.D.D.L.U.x.x % > , b yXNXS : ~ 3.3.8./ h e @.=.@.e g ^ 3.3.3.~ : b NXdX~ , % % x :.G.G.D.G.I.Y.W.W.T.oXY.Y.Z.",
"gXgXfXfXhX8X1X2XqXqX3X<X<X2XM.u - h j h b 1.h 3 ^ ..X.a.s.( h p w < M / u.a.y.u.( : f 1.b g j j > k #X8X3X3XqX2X2X<X1X<X<X,X,X-X",
"nXgXgXfX0X7X,X,X8X1X,X,X1X#XM.d 6 ( ` g - Z a * L E Q  .a.d.( %   - ^ a.o. .| Q Y * a V @ q Q ( 7 k Z.;X,X,X8X1X,X,X,X,X2X<X*X<X",
"vX+XM.V.Y.Y.I.Y.I.Y.Y.Y.Y.V.z.b 7 M Y 0 < f : * L U E }  .a.3.=   * ( a. .} W E L 3 6 s 6 0 Y M a c c.M.V.Y.Y.I.I.Y.I.I.U.U.L.I.",
"zXoXoX7XqXqX8X8XwX8X8X8XqX8X>XC.$.< - 7 h % X 3 L U U W } X.8.:   + ( X.} W W W P 3 X = g 7 % < $.C.:X0X0X0X0X0X8X0X8XwXwXqXQ.R.",
"wXW.@XwXlXlXlXtXlXlXlXlXlXlXhXgXC.@.Z h + X 3 H U W W W Q X.( 3   = ( X.} W W W I J * X % g Z +.c.0XlXlXlXlXlXlXlXlXlXlXlXtX,XR.",
"tXT.Y.&X1X-X1X-X1X-X1X1X1X-X+X6.@.c v 7 X 3 J I U _ _ _ Q [ 3.:   = ( ..W E W W W E J 3 X 7 v c +.6.OX=X-X-X-X-X-X-X-X-X,X1XR.I.",
"lX#XI.R.U.U.U.U.I.U.R.R.I.I.b.k # % = O 3 J U U U I L L Y ^ ~ %   @ ! R Y P P I W U E J 3 O = - # k z.I.U.U.I.I.I.U.U.I.I.I.I.W.",
"tXqX4X4X4X4X4X4X3X4X4X3X4X4XOXk < ! R L L U U U I q * O O = - o . o % = + + + 5 P U U U P L R ~ < l B.3X5X3X4X4X3X3X4X3X4X3X4X4X",
"@X%X@XQ.Q.[.[.[.{.{.[.[.[.{.m.k p 8...` _ U U I 5 q 0 X < f x x c c z f , O 6 q 5 P E E E ` y.0.a k b.[.[.[.{.[.{.}.[.{.{.[.[.}.",
"I.}.E.L.}.}.[.[.[.].<.,.,.D.z.e 7 y. .| _ W E J 3 6 h d z %.c.Y.Y.V.c.%.z d j 6 + K E W W | y.u.p u :.,.<.,.<.!.[.[.[.[.'.].K.E.",
"E.rX<X}.tXlXrXrX6XXXK.K.L.~.x.u 7 ] a. .} W Q Y O X p #.c O.z.$XwX9Xc.B z #.d @ X K E E |  .d.u.w u :.,.<.].<..X6X4XrX6X5X'..X3X",
"L.4X|.).qXwXrXrX6XXX~.|.rXtX=Xx < ^ X.o. .| Q Y O p z u +.+.b 7.$X7.z +.+.k $.d + K Q `  .a.y.( w x I.~.]..X].XXrXrXrXrX5X'..X3X",
"D.~.L.G.E.Q.}./.{.(.D.E.,X1XoX%.s 0 R y.a.y.u.^ - z &.O.d v b d d h b v z O.4.v @ ! u.y.d.y.R 0 s &.L.J.].'.,.[.{.}.`.).[.K.].'.",
"Q.G.R.#X#X%XR.S.E.P.S.I.+X&XZ.v.&.s s M ! ! ! f $ x c.c.+.b v $ @ p v v +.z.M.Z $ h ~ ! ! M g h 4.M.U.D.K./.J.K.P.n.`.&X_.).K.K.",
"tX@X7XbXnXlX2XL.<X}.I.7XvXvXkX0XA.*.i ; > > w > w &.9XwXyXS @ X j ~ 6 S C.0XfX%.w % > > - - v yXdXjX4XU.}.3XE.}.<XU.wXzXtXrX}.'.",
"qXT.>XvXvXhX2XL.3X}.I.8XvXnXzXlX2Xm.x.=.&.=.6.7.c.+XtXjX$X#.% j 3.V , +.$XlXhX+Xz.z.z.6.&.4.C.cXvXlXqXR.}.3XE.|.<XU.eXvXtXtX}.'.",
"U.G.T.1X@X@XR.S.E.P.m.V.+X=X+XOXU.F.[.).n.Q.}.`.T.&X&XM.4.b b h 0 p v b #.c.Z.+XoXoX%XW.S.S.#X;X@X@XQ.K.K.[.J.~.E.n.&X*X&X`.L.K.",
"G.).R.G.&X&X&XQ.).P.D.U.&XOXQ.Q.P.K.'.(.J.(.Q.Q.).I.I.z.e w V d p d b w w &.V.=X#XQ./.E.D.U.Q.&XQ.W./.K.!.!.K.~.[.Q.[.`.P.F.(.].",
"U.rX2X`.lXvXzXtXrX}.P.<XtXtX4X4X.X(..X{.P.5XrXrXtX_.=X>Xb % a 5.yX1.p % u -.jXvXvXlXrX5XP.|.rXtXtX4X3X]..X.X!.|.6XrXrXrX6X'.{.XX",
"Y.lX8X@XvXvXzXlXtX3XF.R.Q.`.Q.E.P.J.].K.(.*X0X:X:Xv.Z.dXc.1.5.C.uXC.5.1.4.c.dXxXdXdX0X*XH.m.T.`.W.E.~.J.!.!.K.|.tXtXtXtX4X[.|.6X",
"W.lX8X@XvXvXlXlXtX3XL.`.2X1X,X,X}.J.(.(.>.&.@.G A m C G D D D D C D D $.A m A G F F @.%.x.B.=X:X1X<X}.~.~.'.P.}.tXlXlXtXqX[.|.3X",
"R.qX4XQ.lXlXlXtXrX,XU.2XvXvXlXtX4X(.XX*X;.n 1 1 2 9 9 9 9 9 9 9 9 9 9 9 9 9 9 9 8 9 2 y =.OXzXnXzXtXqX/.{.3XP.<XtXtXlXtX6X).}.6X",
"L.3X X/.6XrXrXrX6X}.U.9XnXVXzXlX2X(.5X*X-.t & 1 N ' ' ' ' ' ' ' ) ) ) ) ' ' ' ) ' ' m r *.Z.cXVXvXzXrXQ.|.3X(.|.rXrXqX6X3X'.{.XX",
"G.P.G.L.E.Q.).P.[.P.L.>XvXVXzXlX1XU.2X_.=.t & 8 ] i.p.p.p.p.o.o.{ { o.o.p.p.o.p.s.e.F n &.Z.cXVXvXlXrXE.}.5X(.H.(.U.U.).).F.L.K.",
",XR.Q.8X4X1X[.K.'.E.I.9XnXVXvXzX2XU.<X*X=.t & 8 9.f.j.f.f.f.p.i.o.p.{ p.f.f.f.f.j.g.G n *.C.cXCXbXzXqXI.`.4XH.).).G.&X2X&X}.E.K.",
"tXW.0XbXbXlX5X(.XX<XI.>XVXVXcXzX1XU.4X*X*.r & 8 w.j.j.j.j.f.s.e.k.l.s.i.s.j.j.j.j.g.G y *.A.cXVXvXlXwXI.&X6XR.}.3XQ.jXzXlXtX}.P.",
"8XY.;XvXlXrX<XP.|.|.I.>XbXVXcXjX2XU.3X*X-.r & 8 ] s.s.j.s.u.u.l.sXsXaXh.w.s.j.d.f.s.F y *.A.cXVXvXzXqXT.`.5XP.|.,XU.tXzXtXrX|.P.",
"I.m.I.T.T.T.P.K.K.K.I.7XnXVXkXlX2XU.5X*X-.r & 4 ) [ w.] 9.q.h.sXZXZXMXk.s.9.9.[ { ] N r *.C.vXVXvXlXqXT.`.3XP.P.P.H.)._.).(.P.F.",
"G.}.Q.U.-X8X2X3X|.P.R.7XbXVXvXlX2XU.<X*X-.r & 4 N w.p.s.d.k.mXMXZXZXZXsXpXh.d.s.w.] m r *.Z.cXVXbXzXrXU.|.3XP.P.}.`.`.}.[.K.~.[.",
"I.lX2X,XzXvXzXtXrX<XU.8XvXnXzXlX4XP.<X*X=.t & 4 ) s.l.aXsXMXZXZXSXSXZXZXMXaXh.q.w.9.m n *.A.zXnXvXlXrX/.}.4X'.|.rXtXtXtX6X'.|.3X",
"W.lX8X@XzXvXzXtXtX<XU.1XzXzXtXrX3XP.|.}.=.t & 8 ] w.s.aXsXZXZXSXSXSXSXZXmXyX~ g m / A n *.OXjXvXzXtX4X~..XXX'.|.tXtXtXtX6X[.|.5X",
"W.hX8X&XvXvXlXlXtX<XL.U.Q.@XQ.[.K.K.(.H.-.r & 9 9.p.s.q.pXZXSXSXSXSXSXZXyX1.2.r.3.C e t *.n.T.=XQ.Q.P.K.].].].|.tXlXtXtX4X[.|.5X",
"R.8X<XQ.tXlXlXtXtX<XL.E.1X<X,X}.).K.(.(.-.r & 9 9.j.i.9.k.mXSXSXSXSXSXSXr.d 0.mXk.f & t &.B.=X1X1X}.[.!.].].(.|.tXtXtXtX6X'.|.5X",
"L.}.).P.<X4XqX2X3X[.L.}.qXtX4X4X.X~.{.[.;.t & 9 9.j.i.[ h.mXZXSXSXSXSXSXyX~ 5.r.0.m e t =.H.qXtXqX3X|.].'..X(.{.3X6X6X4X|.(.[.|.",
"L.L.L.G.U.R.I.L.K.L.D.I.Y.W.W.E.K.J.K.H.;.t & 9 9.s.i.9.k.MXZXZXZXZXZXZXmXyX~ 0 m ' C n -.n.B._.I.U.P.K.K.].F.K.P.P.E.).P.H.F.K.",
"4XW.,XjXlX8X}.L.}.[.G.&X8XhX7X2X_.P.|._.-.t & 9 ] w.X.s.pXMXMXMXaXaXmXMXMXsXq./ N e.N n *.v.:XjX:X2X<XL.'.{.K.{.).U.2XrX2X3X).H.",
"tX@X9XnXnXzX2XL.3X,XI.8XbXnXzXtX2XU.2X*X-.t & 8 [ [ [ l.sXsXaXk.k.k.k.pXsXsXpXh.{ e.N n *.B.zXnXvXlXrXU.|.3XP.<X3XU.eXvXlXtX|.~.",
",XI.=XzX0X8X,XP.}.}.R.,XhXjX0XqX}.U.|._.-.2 & 8 ] w.p.l.l.k.h.q.s.s.q.u.j.l.l.j.w.e.N n *.B.0XkXjX8X*XU.[.}.P.[.}.I.8XhX8X4X}.L.",
"m.m.S.R.W.U.I.G.P.K.D.I.T.Q.U.L.K.,.P.n.-.n & 2 ) i.f.f.w.[ [ s.j.j.s.w.[ ..d.f.p.[ m n *.v.B.OXB.U.H.F.F.].F.K.L.L.R./.E.K.K.F.",
"G.3X,X/.qXtXqX4X3X[.^./.4XqX4X<X{.]..X(.;.n & 2 T [ w.w.w.e.s.j.j.k.j.g.e.w.i.9.{ ] m n =.N.2X8X<X3XXX].]..X^.{.|.<X3X<X X^.].{.",
"/.wX4X%XvXvXzXtXrX.X^. X4X4X4X|..X<..X<.:.i 1 2 2.q.t.q.g.iXiXiXiXiXiXiXiXiXg.q.9.t.@.n :.'.4X6X3X.X.X].].].^.XXrXrXtXrX6X]..X4X"
};
