/* XPM */
static char *result[] = {
/* columns rows colors chars-per-pixel */
"64 64 248 2 ",
"   c #0A0505",
".  c #160F0D",
"X  c #2F0F0E",
"o  c #17290E",
"O  c #28261C",
"+  c #2D1B24",
"@  c #39172C",
"#  c #36262A",
"$  c #2C3523",
"%  c #38312D",
"&  c #3A2835",
"*  c #481A0D",
"=  c #49270C",
"-  c #4D250C",
";  c #52250B",
":  c #522E0C",
">  c #4D2712",
",  c #582F15",
"<  c #653C1F",
"1  c #421934",
"2  c #4C2D36",
"3  c #2D431F",
"4  c #37472C",
"5  c #5B4A1A",
"6  c #5B501F",
"7  c #614916",
"8  c #69451A",
"9  c #71451E",
"0  c #60501D",
"q  c #5C5224",
"w  c #5C5A2B",
"e  c #514A31",
"r  c #654E2D",
"t  c #684A2A",
"y  c #754A26",
"u  c #65512B",
"i  c #7A5629",
"p  c #674E36",
"a  c #675132",
"s  c #785131",
"d  c #52773B",
"f  c #56384A",
"g  c #663852",
"h  c #57504C",
"j  c #6E4C4B",
"k  c #654B59",
"l  c #685557",
"z  c #576D49",
"x  c #5E6953",
"c  c #696D57",
"v  c #657955",
"b  c #744763",
"n  c #6C5565",
"m  c #6D6567",
"M  c #747865",
"N  c #796E70",
"B  c #855E26",
"V  c #855C2A",
"C  c #805F3C",
"Z  c #846027",
"A  c #86673A",
"S  c #81514F",
"D  c #886B45",
"F  c #8F7053",
"G  c #AA7E4B",
"H  c #8F5374",
"J  c #846D76",
"K  c #A17F64",
"L  c #6C845A",
"P  c #6F8D5A",
"I  c #708663",
"U  c #758766",
"Y  c #7D8A72",
"T  c #7AA661",
"R  c #9A865B",
"E  c #949156",
"W  c #95935B",
"Q  c #B38A55",
"!  c #BC935C",
"~  c #939467",
"^  c #919963",
"/  c #8B8C75",
"(  c #B19272",
")  c #93B177",
"_  c #A5A677",
"`  c #A6A67A",
"'  c #BFA17D",
"]  c #C29554",
"[  c #C19759",
"{  c #C49D75",
"}  c #D4A969",
"|  c #C6A275",
" . c #CEAA71",
".. c #D4AE76",
"X. c #D8B479",
"o. c #E2B774",
"O. c #E2BB7B",
"+. c #8ED75F",
"@. c #8BDC5A",
"#. c #90CB6D",
"$. c #8ED562",
"%. c #94D969",
"&. c #99CA7A",
"*. c #9CD977",
"=. c #9ED67A",
"-. c #A2CF7F",
";. c #A1D57D",
":. c #97E469",
">. c #98E469",
",. c #9EE473",
"<. c #A8EF7E",
"1. c #E7C37D",
"2. c #906E86",
"3. c #98788A",
"4. c #A57B97",
"5. c #B677A3",
"6. c #C67DAB",
"7. c #958C8E",
"8. c #AA908E",
"9. c #99B08A",
"0. c #ABA98E",
"q. c #A7BA99",
"w. c #B591A9",
"e. c #B3AEAE",
"r. c #B8A7B4",
"t. c #CEAF8B",
"y. c #DCBB84",
"u. c #D8B788",
"i. c #D8BC91",
"p. c #E4BE85",
"a. c #E1BF92",
"s. c #CA8BB5",
"d. c #CAB5B3",
"f. c #9DCA84",
"g. c #9FCB8A",
"h. c #A3CC89",
"j. c #A6D488",
"k. c #AADC8B",
"l. c #ABC998",
"z. c #ADD795",
"x. c #B4DB9A",
"c. c #ACE586",
"v. c #AEED86",
"b. c #B1EB8C",
"n. c #B1F38A",
"m. c #B2E394",
"M. c #B2EA90",
"N. c #B9E69C",
"B. c #BCF997",
"V. c #BEF49B",
"C. c #B8CAA7",
"Z. c #B9D9A5",
"A. c #B7D1A8",
"S. c #BDDAA9",
"D. c #BCE6A6",
"F. c #BEF1A5",
"G. c #DAC28F",
"H. c #DCC396",
"J. c #E7C588",
"K. c #E3C48C",
"L. c #E6C796",
"P. c #ECCB94",
"I. c #EBCE9B",
"U. c #F2CF92",
"Y. c #EDD19D",
"T. c #F4D395",
"R. c #F3D39B",
"E. c #F6DA9F",
"W. c #C1FA9C",
"Q. c #C4DEA3",
"!. c #CDDCA4",
"~. c #C5DBAB",
"^. c #D2CDB8",
"/. c #C5D8B5",
"(. c #E5C9A7",
"). c #F2CFA5",
"_. c #EBD3A7",
"`. c #F3D4A3",
"'. c #F6D9A4",
"]. c #F7D9A6",
"[. c #F5D7AB",
"{. c #EBC7B8",
"}. c #ECD9B4",
"|. c #F4D9B4",
" X c #C5E6AA",
".X c #C4EBAC",
"XX c #D0E3AC",
"oX c #C2F4A4",
"OX c #C4F9A5",
"+X c #C5F5AC",
"@X c #C9F5AE",
"#X c #C6F8AA",
"$X c #C7E6B4",
"%X c #CAEBB5",
"&X c #CDEDBB",
"*X c #D1EFB5",
"=X c #D1ECBD",
"-X c #CBF3B3",
";X c #CAF7B1",
":X c #CDF1B9",
">X c #D3F6B7",
",X c #D1F2BE",
"<X c #F9E2AB",
"1X c #F8E5B9",
"2X c #C9BCC6",
"3X c #D2B7CB",
"4X c #E3B2D6",
"5X c #D0CDCA",
"6X c #CADFCA",
"7X c #D8C9D5",
"8X c #DBD4DB",
"9X c #EBCDC4",
"0X c #E6D7C8",
"qX c #E2CCDC",
"wX c #E5DADC",
"eX c #CAE1C6",
"rX c #D4EDC5",
"tX c #D4F3C3",
"yX c #DAF7C7",
"uX c #DDFACB",
"iX c #DAF0D2",
"pX c #F9EAC8",
"aX c #FDF4C9",
"sX c #F7EAD4",
"dX c #E7F1D1",
"fX c #E4FBD4",
"gX c #E6FAD9",
"hX c #EBFEDC",
"jX c #FDF5D8",
"kX c #E9D8E5",
"lX c #F2D2EA",
"zX c #DFE9E6",
"xX c #EBE6EB",
"cX c #F2ECEC",
"vX c #EEFEE3",
"bX c #EBF9E5",
"nX c #FCF5E6",
"mX c #F1FEE5",
"MX c #FEFBE4",
"NX c #F4FEEB",
"BX c #FDFCEC",
"VX c #F7E8F6",
"CX c #EFF1F9",
"ZX c #F8F4F5",
"AX c #F6FFF1",
"SX c #FBFEF5",
"DX c #FBF4FC",
"FX c #FEFEFD",
/* pixels */
"FXFXFXFXFXFXFXFXFXFXFXFXFXFXFXFXSXFXSXAXSXAXmXvXtXeX%X&XD.eXF.F.$XD..X XD. X X XtXhXmXMXNXNXBXAXSXSXFXFXFXFXFXFXFXFXFXFXFXFXFXFX",
"FXFXFXFXFXFXFXFXFXFXFXFXFXSXSXAXAXBXNXvXvXvXhXyXD.h.g.) #.#.g.g.g.j.f.=.;.-.-.j.m.,XfXfXhXhXhXmXNXSXAXFXFXFXFXFXFXFXFXFXFXFXFXFX",
"FXFXFXFXFXFXFXFXFXFXFXFXSXSXNXNXmXfXrX%XD.$X.XD.x.h.T d d d T f.k.c.c.c.<.;.;.c.m.F.F.F..X&X=XgXmXNXAXSXFXSXFXFXFXFXFXFXFXFXFXFX",
"FXFXFXFXFXFXFXFXFXFXSXSXNXmXhXhXfX>Xx.h.g.j.f.k.D.j.z o o o P z.F.F.V.V.W.W.W.W.M.k.z.j.j.h.x.rXfXgXvXmXAXAXSXFXFXFXFXFXFXFXFXFX",
"FXFXFXFXFXFXFXFXFXSXSXNXvXfX,X-X.XoXk.k.k.k.k.m. Xl.z     o z x.;X+X+X#X.X#XOXOXF.D.z.z.z.z.x.D.%X.X:XuXvXNXSXFXFXFXFXFXFXFXFXFX",
"FXFXFXFXFXFXFXFXFXSXNXvXfX-Xz.h.j.k.N.W.F.oX.X.XS.q.z o o o L Z.:X-X;X@X@X@X@X@XF.F.F.F.F.F.D.x.j.g.z..XuXvXAXSXFXFXFXFXFXFXFXFX",
"FXFXFXFXFXFXFXFXAXAXmXfX-Xm.&.&.j.m.OX;X>X>X>XS.9.Y I x $ o L Z.:X-X-X-X-X-X@X@X;X;XtXF.F.;X+Xm.k.f.&.k..XuXmXAXSXSXFXFXFXFXFXFX",
"FXFXFXFXFXFXFXSXSXbXgX&Xk.=.&.k.N.@X-X>XuXuXtXC.x 4 Y q.z 3 L z.:X-X-X-X@X@X-X-X;X;XF.;X;X;X@XoXF.c.=.&.k.$XgXmXBXSXFXFXFXFXFXFX",
"FXFXFXFXFXFXFXAXvXfX:XD.m.k.m.D.tXtXtXtXyXuXiXq.4 o h U I v 9. X:X-XF.:X-X-X-X-X-X@X-X-X-X-X@X@XOXN.c.c.k.D.&XiXvXSXFXFXFXFXFXFX",
"FXFXFXFXFXSXSXNXfX%Xx.z.z.m.N.$XtXiXD.eXeXtXrXq.z o o 4 U l.S.%X-X-X-X-X-X;X-X;X-X-X%X@X-X-X%X-X+X+XF.OXV.m.z.F.uXNXSXFXFXFXFXFX",
"FXFXFXSXSXNXNXuX%XD.l.) U P L U Y Y U 7.A.rX=Xl.h o 4 v 9.$X&X-X-X:X-X-X-X-X-X-X-X-X@X-X-X-X:X-X-X+X;X#XoXN.M.m..XuXbXFXAXFXFXFX",
"FXFXSXSXNXmXfX$Xz.z.l.Y 4 O O O O + o 4 9.C./.9.d 3 U l.S.&X:X-X-X-X-X-X-X-X-X-X-X-X-X-X-X-X-X-X-X-X+X+X#XOXF.M.j.D.uXbXAXAXFXFX",
"FXFXAXNXvXyX$XS.z.) P x h x m m h & . + h N M M z I q.D.*X:X-X-X-X-X-X-X-X:X-X-X-X-X-X-X-X-X-X-X-X;X@X+X#X#XF.b.&.j.F.tXhXmXSXFX",
"FXSXNXvXuX Xl.x.z.Y 4 x 7.e.7X7Xr.2.& + + # O 4 I q.S.eX,X:X-X-X-X-X-X-X-X-X-X-X-X-X-X-X-X-X-X-X-X-X-X-X;X#XF.n.=.&.j.N.tXvXNXFX",
"FXAXbXyX.XN.h.9.U I Y 7.2XkXVXVX8Xr.7.N k k g h v / l.eX:X:X:X-X-X-X-X-X-X-X-X-X-X-X-X-X-X-X-X-X-X-X-X;X;X#XF.B.c.j.#.j.N.:XvXAX",
"FXAXvXD.k.z.z.L 4 v e.8XcXZXDXDXVXlXlX7Xs.4.7.J h 4 Y S.&X&X-X-X-X-X-X-X-X-X-X-X-X-X-X-X-X-X-X-X-X-X-X-X;X;XF.F.B.v.%.%.*.D.fXNX",
"AXNXgXx.j.x.x.v o 4 2.2XCXFXDX8Xe.r.kXVXlX4X3X2.2 $ U /.&X%X-X-X-X-X-X-X-X-X-X-X-X-X-X-X-X-X-X-X-X-X-X-X-X-X+X#XV.v.%.+.$.k.uXmX",
"NXvXuXx.h.k.h.c O . & N wXCXDXe.n m 2XkXlXlX3X4.f % / C.$X&X-X-X-X-X-X-X-X-X-X-X-X-X-X-X-X-X-X-X-X-X-X-X-X-X;X+XF.v.%.@.$.c.,XhX",
"gXyX$XD.j.^ L x f + + N 8XDXDX7X7.N 7.e.lXVXlXs.J k c Y q.$X%X-X;X-X-X-X-X-X-X;X:X;X-X-X-X-X-X-X;X-X-X-X-X-X-X;XOXv.:.@.$.;.D.,X",
"uXD.l.Z.z.L $ j 2.f @ N qXDXDXCXzXe.n m 2XDXDXkXd.2.h 2 Y Q.%X-X;X-X-X-X-X:X-X-X-X-X-X-X-X-X-X-X;X-X-X-X-X-X+X+XOXn.%.@.$.%.&.x.",
"yXx.g.S.l.z O h 4.g 1 J 7XVXkXxXCX8Xw.7.7XDXDXVX3X8.f O M S.%X-X:X:X-X-X-X-X-X-X-X-X-X-X-X-X-X-X-X-X-X:X-X;X+X;XOXB.<.>.%.#.#.j.",
">Xx.l.S.l.x O k 2.b 1 H qXkX5X7XcXAXzXxXCXDXDXVX3X4.f O I S.:X:X-X;X-X-X-X-X-X:X-X-X-X-X-X-X-X-X-X-X-X-X-X-X-X;XOXW.B.<.%.%.#.k.",
">XN.g.S.C.x O k 4.b @ 2.qXxXqXkXCXSXFXFXFXFXFXZXkXr.k # M S.-X-X-X-X-X-X-X-X-X-X;X:X-X-X-X-X-X-X-X-X-X-X-X-X-X-X;XOXW.v.%.#.#.k.",
";XN.l.S.C.x O k 3.b 1 n 3XVXCXCXDXSXcXcXcXZXDXDXDX5Xm $ U Z.&X-X:X-X-X-X-X-X-X-X-X-X-X-X-X-X-X-X-X-X-X-X-X:X-X;X#XOXW.n.%.$.%.;.",
"F.m.D.&XS.m + k 3.b + f 2.r.CXDXDXkXe.7.7.w.8XCXDXqXm $ I S.-X-X-X-X-X-X-X-X-X-X-X-X-X-X-X-X-X-X-X-X:X-X-X-X-X-X;XOXW.n.*.$.$.*.",
"c.M.@XuXeXM % k 2.k + . @ N 2XxXxXr.k # & k e.zXCX8Xm $ I S.-X-X-X-X-X-X-X-X-X-X-X-X-X-X-X-X-X-X-X-X;X-X-X-X-X-X#XOXW.n.%.+.+.+.",
";.M.-XfXiXe.N m h 2       & N 3.4.2.b f f n J w.8X7Xm $ I S.-X-X-X-X-X-X-X-X-X-X-X-X:X-X-X-X-X-X-X-X-X-X-X-X-X;X#X#XOXn.*.+.@.+.",
"=.M.;XfXbXbX5XY % . .   . . @ 1 @ g 2.4.4.2.f k r.2Xm $ I Q.%X@X;X-X-X-X-X-X-X-X-X-X-X-X-X-X:X-X-X-X-X-X-X-X-X-X-X#XOXn.,.%.@.@.",
"=.M.;XfXAXFXcXe.M x x % . + f g g 2.6.6.s.2.2 1 3.r.h O P Q.-X-X-X-X-X-X-X;X-X-X-X-X-X-X-X-X-X-X-X-X-X-X-X-X-X-X@X#XOXW.v.,.+.@.",
"=.M.>XfXBXSXbXiX/.C.C.M + f J 4.5.5.6.6.5.2.1 @ m 2.h $ U S.*X@X-X-X-X-X-X:X-X%X*X*X-X-X-X-X-X-X-X-X:X-X;X;X-X-X@X@X;XOXB.<.>.@.",
"=.M.;XfXAXSXNXgXiXrX/.J + 2 4.s.s.s.s.6.2.g 1 X 2 k l F 0.~.*X*X*X*X*X*X*X*X:X%X*X*X*X=X*X*X%X*X-X;X-X-X-X-X-X-X-X-X-X#XW.n.>.@.",
"=.M.;XhXAXSXNXgXrXrX/./ # f 2.s.6.6.6.2.g X X   . > M 0.H.Q. X!.!.!.!.!.!.!.!.!.!.!.!.!.!.!.!.!.XX$X-X-X-X-X-X-X-X@X#X#XOXn.>.@.",
";.M.;XfXAXFXNXfXrX&X$Xq.J c l b b b b < * X X X X X a G E E E E E E E E E E E E E E W W W W E ^ ^ h..X-X-X-X-X-X;X-X-X+XF.n.:.@.",
"=.M.;XfXAXAXNXgX,X&X=X/.C./ 2 X * X * * * ; ; ; : : < 8 8 7 7 7 7 7 7 7 7 7 7 7 7 5 7 7 7 5 5 5 w )  X-X-X-X-X-X-X-X-X;X#Xn.:.@.",
"=.M.;XgXAXFXNXuX,X-X&X=XXXq.M e * X * * 8 V V V B B B V B B B B B B B B Z Z B B Z Z V V V i i 5 5 ^ Q.-X-X-X-X-X-XF.:X;XF.n.:.@.",
"=.M.;XfXAXAXNXfX:X:X-X-X,X/.C.~ < * * 9 A ! [ [ ] ] ] ] ] ] ] ] ] ] ] ] ] ] ] ! ] ] ! [ ! ! R i 6 ^ Q.-X-X-X-X-X-X-X-X-XOXn.:.@.",
"*.M.;XfXAXFXNXuXtX:X-X-X-X*XXX0.p > > y Q X.p.p.O.O.O.O.o.O.O.o.o.} } o.o.O.1.X.O.X.O.X.y.y.| s q ^ Q.%X-X-X-X-X-X-X-X;XOXn.>.@.",
";.M.>XfXAXSXNXfX:X-X-X-X@X*XXX` p * ; s { P.T.T.T.T.R.T.T.T.U.U.1.} 1.J.U.T.T.T.T.T.T.T.I.).u.D w ^ Q.-X-X-X-X-X-X-X-X@XOXn.>.@.",
"=.M.;XfXAXSXmXfX:X-X-X-X*X*XXX` r > ; s | `.'.'.].'.].'.E.E.P.K.J.K.K.K.P.E.'.'.'.'.'.[.'.[.i.D w ^ Q.@X;X-X-X-X-X-X-X;XOXn.>.@.",
"*.M.>XfXAXSXNXfXtX-X-X-X@X*XXX_ p > > s | '.'.].].'.'.'.E.T.K.y.I.<X_.y.G.I.E.'.'.'.].].].`.p.D e ^ Q.%X-X-X-X-X-X-X;X;XOXn.>.@.",
"=.M.>XfXNXFXNXfX:X-X-X%X-X-XXX_ r = - i | T.E.E.E.E.E.E.P.K.K.I.<XaX1X_.L.G.P.T.R.'.'.'.].].p.D q ^ Q.-X-X-X-X-X-X@X-X-XOXn.>.@.",
"*.M.>XfXAXSXmXfXtX-X-X-X-X%XXX_ w = ; i { U.T.T.E.T.T.P.G.G.I.1XjXjXjXaX[.u.y.U.T.R.T.T.R.R.u.A q ^ Q.-X-X-X-X-X-X-X-X@XOXn.>.@.",
";.M.;XfXAXSXNXfX&X-X-X-X-X-XXX_ r - ; y ! 1.1.1.K.O.K.G.G.G.}.jXMXMXNXMX1XL.y.p.J.1.p.p.p.p.} A 0 W Q.-X-X-X-X-X-X-X-X@XOXn.>.@.",
"*.M.;XfXAXSXNXfXtX:X-X:X-X*XXX_ t - ; 9 Q } } } ......t.G.}.sXMXBXSXSXMXaX|.L.u........... .] Z 6 W Q.%X-X-X-X-X-X@X-X@XOXn.>.@.",
"=.M.;XfXAXSXNXfX:X-X-X-X-X%XXX_ t ; ; 9 G } X.J.P.L.(.(.9XsXnXSXSXFXFXSXjXsX1X_.I.L.L.I.a...Q i 6 ^ Q.@X-X-X-X-X-X-X-X-XOXn.>.@.",
"=.M.>XfXAXSXNXfXrX-X-X-X-X*XXX` t ; ; 9 G ..T.<X1XaXaXjXnXBXFXFXFXFXFXFXBXMXjXsXpXpX1X|.[.p.! i 6 W  X-X-X-X-X-X-X@X-X@XOXn.>.@.",
"=.M.;XhXAXDXNXfX,X-X-X-X-X%XXX_ p > ; y Q p.T.[.aXjXjXBXSXSXFXFXFXFXFXFXFXSXBXnX0Xi.0.' 0.t.[ V 6 ^ Q..X-X-X-X-X-X@X-X;XOXn.>.@.",
"=.M.;XfXAXSXbXfXrX-X-X-X@X*XXX_ r - - i { K.K.G.|.jXMXBXZXSXDXFXFXFXFXDXFXSXZXnX^.J p p D { { S q ^ Q.-X-X-X-X-X-X-X-X;XOXn.>.@.",
"*.M.;XfXAXSXNXfX:X:X-X-X-X-XXX_ r - - i | P.K.G.(.}.dXBXBXSXDXFXFXDXFXFXDXFXwXe.8.7.7.K ( K F u 5 ^ Q.%X-X-X-X-X-X-X-X@XOXn.>.@.",
"=.M.>XfXAXSXNXgXtX-X-X:X-X%XXX_ r - ; s | Y._.I.G.G.}.jXBXSXFXFXFXFXFXFXFXSXd.F N d.wXsXd.K < > 5 ^ Q.-X-X-X-X-X-X-X-X;XoXn.>.@.",
"*.M.;XfXAXSXNXiX&X%X;X-X-X-XXX_ t > ; s | ).].Y.u.t.(.pXnXZXFXFXFXFXFXFXFXBXd.l c d.DXBX{.F > = 5 ^ Q.-X-X-X-X-X-X-X-X@XOXn.>.@.",
";.M.>XfXAXSXNXfXtX-X-X-X-X%XXX_ r - ; s | )._.Y.u.X.H.1XjXSXFXFXFXFXFXFXSXZXd.N F d.sXsXd.F < > 5 ^ Q.-X-X-X-X-X-X-X-X@XOXn.>.@.",
"*.M.>XfXBXSXAXgXtX-X-X-X-X-XXX_ r > ; s | ).[.I.u...I.pXjXSXFXFXFXFXFXSXSXDX0X0.8.` 8.( ( K D t e ^ Q.@X-X-X-X-X-X-X-X-XOXn.>.@.",
"*.M.;XfXAXSXbXfX:X&X-X-X-X%XXX_ t > ; s | `.`.P.G.t.}.jXnXSXFXDXFXSXSXSXSXSXnXwXd.F a t S ( ' s e ^ Q.%X-X-X-X-X-X@X-X;XOXn.>.@.",
";.M.;XfXAXSXNXfXtX%X-X-X-X*XXX_ t > ; y | I.P.G.G.H.dXjXNXSXSXSXnXcXnXnXSXSXSXBX0X( F A G t.u.D q ^ Q.-X-X-X-X-X@X%X-X@XOXn.>.@.",
"*.M.>XfXAXSXNXfXtX-X-X-X-X%XXX_ r ; ; V | P.G.y.H.}.pXjXjXMXjXjXsXpXpXjXjXMXMXMXaX_.y.| | a.u.D q ^ Q.-X-X-X-X-X-X@X;X;X#Xn.>.@.",
"*.M.;XfXAXSXNXfX:X:X-X-X-X-XXX_ u = ; i } J.X.X._.1XaXjXaXpX1X|.}.[.}.}.}.aXjXjXaX1X<Xy.X.L.u.A q ^ Q.@X-X-X-X-X-X@X-X-XOXn.>.@.",
"*.M.;XgXAXFXNXfXtX-X-X-X-X%XXX_ t = ; i } J.X.O.[.aXjXaX1X[.H.i.K._.L.u.H._.1XaXaX1X<XK.u.L.u.D 0 ^ Q.%X-X-X-X-X-X-X-X@XoXn.>.@.",
"*.M.;XfXAXSXNXuX&X%X-X-X-X%XXX_ t = ; y Q O.1.U.<X1X1X_.I.K.p.y.L.R.P.G.G.G.H.Y.[.1X[.).K.a...C q W Q.-X-X-X-X-X-X-X-X@XOXn.>.@.",
"*.M.;XfXNXFXNXfXtX-X-X-X-X-X$X_ u - ; 9 Q } T.<X<X`.G.X.....p.T.R.'.'.).G.u...X.p.R.].[.].p.[ V 6 ^ Q.-X-X-X-X-X-X@X-X@XOXn.>.@.",
";.M.>XfXAXFXNXfX>X@X-X-X-X*XXX_ t ; ; 9 G } O.U.J.J.O.X.p.p.p.R.].].[.[.Y.K.G.X.p.p.a.a.a.X.Q i 6 W  X@X-X-X-X-X-X-X@X@XOXn.>.@.",
";.M.>XgXAXFXbXfX,X*X*X*X-X*XXX_ p ; ; 9 G } o.....X.K.Y.T.R.).].].[.|.|.'.Y.R.T.a.u.o.u...} ! i 0 ^ !.*X-X-X-X-X%X-X-X@XOXn.>.@.",
"f.N.>XvXFXFXAXbXrX=XrX=X=X=X=X8.p ; ; 9 Q u.p.u.u.a.Y.].[.|.|.|.|.|.|.|.|.|.[.[.).a.u.u.a.a.t.C t ~ !.&X&X&X&X&X&X:X%X:X@XN.*.+.",
"g.Z.eXzXCXCXCXxX6XeX6X6X6XeX6X8.g , 1 S 8.(.(.{.{.{.{.9X9X9X9X9X9X9X9X9X9X9X{.9X{.{.{.{.{.{.t.l j / /.6X6X6X6X6XeX6XeXeXeXZ.f.#."
};
