/* XPM */
static char *result[] = {
/* columns rows colors chars-per-pixel */
"64 64 177 2 ",
"   c #79613F",
".  c #7E6443",
"X  c #836542",
"o  c #826846",
"O  c #856B4A",
"+  c #8A6E4B",
"@  c #8C7245",
"#  c #8C704D",
"$  c #90734D",
"%  c #8A6D52",
"&  c #877053",
"*  c #8B7354",
"=  c #8F7857",
"-  c #8A755A",
";  c #8E795B",
":  c #937652",
">  c #947A57",
",  c #997B56",
"<  c #937C5C",
"1  c #997D5B",
"2  c #A07F58",
"3  c #8A7760",
"4  c #8D7B63",
"5  c #947D62",
"6  c #987D62",
"7  c #947D68",
"8  c #988057",
"9  c #9A805E",
"0  c #A2845D",
"q  c #958165",
"w  c #9B8264",
"e  c #97826A",
"r  c #9A856A",
"t  c #9D896D",
"y  c #9F8C74",
"u  c #A28762",
"i  c #A38866",
"p  c #A38C6C",
"a  c #AA8E6C",
"s  c #AD926F",
"d  c #B79B6B",
"f  c #B9986F",
"g  c #A38E72",
"h  c #AB8F71",
"j  c #A59175",
"k  c #AB9474",
"l  c #AA957B",
"z  c #AD997D",
"x  c #B39A75",
"c  c #BB9C75",
"v  c #B19778",
"b  c #B39B7C",
"n  c #BA9E7C",
"m  c #BEA475",
"M  c #B4A07F",
"N  c #BDA27D",
"B  c #C09F77",
"V  c #C3A47D",
"C  c #CBA97E",
"Z  c #A79681",
"A  c #A99580",
"S  c #AE9A82",
"D  c #AF9C88",
"F  c #B39E83",
"G  c #B7A185",
"H  c #BBA383",
"J  c #B4A38C",
"K  c #BBA58B",
"L  c #BCA98D",
"P  c #B8A790",
"I  c #B6A893",
"U  c #BEAC93",
"Y  c #BDAC99",
"T  c #BFB49A",
"R  c #C0A783",
"E  c #C3AA86",
"W  c #CCAD83",
"Q  c #C3AB8B",
"!  c #CAAF8C",
"~  c #CDB38D",
"^  c #D1B38B",
"/  c #C3AE93",
"(  c #C5B196",
")  c #CBB493",
"_  c #C3B29A",
"`  c #CBB69A",
"'  c #C7B89D",
"]  c #CDB99A",
"[  c #D4B997",
"{  c #D2BB9C",
"}  c #D8BD9A",
"|  c #C5B5A1",
" . c #CDBAA2",
".. c #CDBEAA",
"X. c #D2BEA3",
"o. c #D8BFA2",
"O. c #D1BEAA",
"+. c #DEC19B",
"@. c #E5C79C",
"#. c #CFC1AC",
"$. c #D4C0A3",
"%. c #D9C2A3",
"&. c #D4C2AB",
"*. c #DAC6AB",
"=. c #DDC9AD",
"-. c #D5C6B4",
";. c #DCC7B2",
":. c #D7C9B3",
">. c #DDCBB3",
",. c #D7CCBA",
"<. c #DACBBB",
"1. c #DDD1BB",
"2. c #E0C7A4",
"3. c #E5CAA5",
"4. c #EECCA1",
"5. c #E2CAAC",
"6. c #F0CFA3",
"7. c #EED0A6",
"8. c #EAD1AC",
"9. c #E3CEB3",
"0. c #E2CFB9",
"q. c #E6D1B5",
"w. c #EBD4B5",
"e. c #EBD8B7",
"r. c #E4D4BB",
"t. c #E9D6BB",
"y. c #EDDABE",
"u. c #F3DAB4",
"i. c #F9DFB6",
"p. c #F3DCBC",
"a. c #F5E1BD",
"s. c #FAE2BA",
"d. c #DDD4C1",
"f. c #E6D6C3",
"g. c #E6D9C4",
"h. c #EBDAC4",
"j. c #E5D7C9",
"k. c #E3DACD",
"l. c #EBDDCB",
"z. c #F2DFC1",
"x. c #F0DEC8",
"c. c #E4D5D0",
"v. c #E9DFD3",
"b. c #EDE1CD",
"n. c #F3E1C4",
"m. c #F9E5C4",
"M. c #FBE9C5",
"N. c #F3E4CB",
"B. c #F8E6CB",
"V. c #F4E8CD",
"C. c #FAEBCC",
"Z. c #FDF3CF",
"A. c #E7E2D6",
"S. c #EDE3D2",
"D. c #EFE8D5",
"F. c #EDE6DC",
"G. c #F4E5D3",
"H. c #F5E9D4",
"J. c #FAECD4",
"K. c #F0E6D9",
"L. c #F4EBDB",
"P. c #FAEEDB",
"I. c #FCF2D5",
"U. c #FEF9D7",
"Y. c #FCF2DB",
"T. c #FEF9DE",
"R. c #F5EDE2",
"E. c #F9EFE3",
"W. c #FBEFEB",
"Q. c #FBF3E4",
"!. c #FEFAE4",
"~. c #FCF5EA",
"^. c #FEFBEC",
"/. c #FCF6F1",
"(. c #FFFCF4",
"). c #FCF7FA",
"_. c #FEFEFD",
/* pixels */
"_._._._._._._._._._._._._._._._._._._._._._._._._._._._._._._._._._._._._._._._._._._._._._._._._._._._._._._._._._._._._._._._.",
"_._._._._._._._._._._._._._._._._._._._._._._._._._._._._._._._._._._._._._._._._._._._._._._._._._._._._._._._._._._._._._._._.",
"_._._._._._._._._._._._._._._._._._._._._._._._._._._._._._._._._._._._._._._._._._._._._._._._._._._._._._._._._._._._._._._._.",
"_._._._._._._._._._._._._._._._._._._._._._._._._._._._._._._._._._._._._._._._._._._._._._._._._._._._._._._._._._._._._._._._.",
"_._._._._._._._._._._._._._._._._._._._._._._._._._._._._._._._._._._._._._._._._._._._._._._._._._._._._._._._._._._._._._._._.",
"_._._._._._._._._._._._._._._._._._._._._._._._._._._._._._._._._._._._._._._._._._._._._._._._._._._._._._._._._._._._._._._._.",
"_._._._._._._._._._._._._._._._._._._._._._._._._._._._._._._._._._._._._._._._._._._._._._._._._._._._._._._._._._._._._._._._.",
"_._._._._._._._._._._._._._._._._._._._._._._._._._._._._._._._._._._._._._._._._._._._._._._._._._._._._._._._._._._._._._._._.",
"_._._._._._._._._._._._._._._._._._._._._._._._._._._._._._._._._._._._._._._._._._._._._._._._._._._._._._._._._._._._._._._._.",
"_._._._._._._._._._._._._._._._._._._._._._._._._._._._._._._._._._._._._._._.(._._._.(._._._._._._._._._._._._._._._._._._._._.",
"_._._._._._._._._._._._._._._._._._._._._._._._._._._._._._._._._._.(._.(.(.(.(.(.).(.)._._._._._._._._._._._._._._._._._._._._.",
"_._._._._._._._._._._._._._._._._._._._._._._._._._._._._._._._.(.(.(.~.R.A.k.k.d.k.k.A.F.~.(.(._._._._._._._._._._._._._._._._.",
"_._._._._._._._._._._._._._._._._._._._._._._._._._._._._._.(._.(.(.!.b.#.J F z S S F J ..A./._._._._._._._._._._._._._._._._._.",
"_._._._._._._._._._._._._._._._._._.(._.(._._._._._._._._._._.(.^.Q.H.>.F q & # # + o * S 1.Q._.)._._._._._._._._._._._._._._._.",
"_._._._._._._._._._._._._._.(._.(.(.(.(.(.(._.(._.(.(._.(.(.(.(.F.d.#._ G x s a 0 : X O k >.Q.(.).)._._._._._._._._._._._._._._.",
"_._._._._._._._._._._._.(.(.(.(.(.(.(.(.^.~.~.^.^.^.(.(.(.(.(.Q.d.T y S ] 5.3.+.^ f : # k >.P.(._.)._._._._._._._._._._._._._._.",
"_._._._._._._._._._._._.(.(.~.R.S.l.j.j.h.j.l.G.Y.^.^.^.^.Q.K.g...S r G =.M.C.i.4.C 2 + k >.Y.(._._._._._._._._._._._._._._._._.",
"_._._._._._._._._._.(.(.(.^.L.,.Y D S S F S F _ r.I.Q.!.Y.N.&.K S J L $.y.I.C.s.6.C 0 $ k =.P.(.(._._._._._._._._._._._._._._._.",
"_._._._._._._._._._.(.(.^.Y.g.T t - & % & * * p ] p.C.C.B.9.G q y U >.h.J.T.C.a.6.C 0 + k 3.I.^._._._._._._._._._._._._._._._._.",
"_._._._._._._._._._.(.Q.l.:.' L S z l l k a p k H ) [ [ [ Q n k J &.l.Y.Q.!.U.m.u.^ 0 + k 5.I.^.(._._._._._._._._._._._._._._._.",
"_._._._._._._._._.(.^.K...Z j / *.w.w.w.9.3.} Q x i 9 1 9 p H ` 9.x.E.~.!.^.!.U.a.} u # k 5.U.^.(._._._._._._._._._._._._._._._.",
"_._._._._._._._._.(.^.v.Y 4 4 L y.I.Y.Y.J.C.p.=.L p < ; < k ` e.V.Q.^.^.(.^.^.T.C.%.i * l 5.I.^.(._._._._._._._._._._._._._._._.",
"_._._._._._._._._.(.^.S.Y 3 - G q.V.I.T.T.Y.P.N.1. ._ U U  .q.G.Q.~.(.(.(.(.^.!.J.*.p * l 5.Y.^.(._.)._._._._._._._._._._._._._.",
"_._._._._._._._._.(.(.S.T e 4 F %.t.B.Y.!.!.!.~.Q.Y.H.l.g.b.H.~.^.(.(.(.(.(.(.^.P.*.l ; l *.H.!.^.(.(._._._._._._._._._._._._._.",
"_._._._._._._._._././.F.<.U b G K ` e.I.!.^.(.(.^.(.^.~.E.E.~./.(.(.(._.(.(.(.^.Y.r._ l G L #.r.P.^.^.(.(.(._._._._._._._._._._.",
"_._._._._._._._._.).^.^.P.h.*.K t k { N.!.^.(.(.(.(.(.(././._._.(._._.(._.(.(.(.~.G.<...P j g U r.Y.!.!.^.^.^.(.)._._._._._._._.",
"_._._._._._._._._._.(.(.^.Q.h.K ; < Q y.Y.^.(.(.)._.).(._.(._.)._.(._.(._.(.(.(.^.Q.G.h.] l r z ] r.f.f.l.L.Q.(.)._._._._._._._.",
"_._._._._._._._._._._._.(.~.h.L = : H e.H.E.(.(._.(._._._._.(._._._._._._._.(._.(.^.~.H.r. .K M z z l S P &.G.~./.(.(._._._._._.",
"_._._._._._._._._._._._.).~.l./ w 1 n %.h.H.Q.(.(._._._._._._._.(._._._._.(._._.(.(.^.~.J.h.=.Q p $ * * 1 K 0.H.~.(.(.(._._._._.",
"_._._._._._._._._._._.).)./.H.*.E c c R ` 1.D.~.(._._._._._._._._._._._._._._._._._.(.^.~.J.n.=.E M s p s M / *.d.F.(._._._._._.",
"_._._._._._._._._._._._._.(.R.V.e.@.c u p T d.L.~.(._._.)._._._._._._._._._._._._.(.(.^.!.~.I.V.a.8.@.+.^ N t j | A./.(._._._._.",
"_._._._._._._._._._._._.(.^.T.V.u.} B u p T d.L.~.(.(._._._._._._._._._._._._._._._.(.(.^.!.!.U.U.M.s.@.W a # - I d./.)._._._._.",
"_._._._._._._._._._.(.(.(.^.C.=.E c c V ` 1.D.Q.(.(._._._._._._._._._._._._._._._.(.(.(.^.!.Q.I.C.p.@.m u $ X % D k.~._.(._._._.",
"_._._._._._._._._.(.(.^.!.J.t.L 1 , c } e.G.Q.(._._._._._._._._._._._._._._._._._.(.^.!.!.Y.C.z.e.2.E i $ O O ; I k./.(._._._._.",
"_._._._._._._._._.(.!.Y.l.*.L r o : H q.H.Y.^.(.(._._._._._._._._._._._._._._.(.(.^.E.H.h.*.X./ E H n b v l S P -.F.)._._._._._.",
"_._._._._._._._._.^.!.V.$.j = O . > E h.Y.^.(.(._._._._._._._._._._._._._._._.(./.E.G.f. .z w > = w b { q.t.f.l.R./.)._._._._._.",
"_._._._._._._._.(.^.T.n.Q =   . + p X.N.^.^.^.(.(._._._._._._._._._._._._._.(.~.~.G.0.X.K g 6 < 5 g U h.Y.^.!.^.(.)._._._._._._.",
"_._._._._._._.(.(.^.T.n.E # . 9 v ) t.J.!.^.(.(.(._.(.(._.(._._._._._._._.(.(.^.Y.t.) b F / ` `  ...r.P.^.(.(.(._._._._._._._._.",
"_._._._._._._.(.~.!.I.e.E < > b o.y.G.Q.!.^.^.^.(.(.(.(._._._._._._._._._.(.(.^.P.5.l 4 b *.B.P.L.P.Q.~.(.(._._._._._._._._._._.",
"_._._._._._._.(.~.b.*.) N x b [ y.J.Y.!.^.^.^.!.!.Y.~.^.(.(.(._._._._._.(.(.^.!.J.%.g & l 9.P.~.^.^.(._.(._._._._._._._._._._._.",
"_._._._._._._./.L...l i x ~ 2.p.B.Y.~.!.!.!.!.Y.J.N.G.Y.^.(.(._.(._.(._.(.(.^.!.I.%.p - l <.E.(.(.(._._._._._._._._._._._._._._.",
"_._._._.)._._.(.S._ 5 * x +.p.M.J.Y.Y.Y.J.B.y.e.5.%.>.b.P.^.(.(.(._.(.(.(.(.!.!.Z.$.g - Z <.E.(.(._.(._._._._._._._._._._._._._.",
"_._._._.)._._.~.S.Y < > N 8.M.M.m.B.M.x.w.] G k j j G $.x.P.Q.^.(.(.(.(.^.^.^.T.C.%.p - Z <.W.(._._._._._._._._._._._._._._._._.",
"_._._._._._._.(.F.| r 6 H 8.a.i.7.8.8.8.[ b 9 * * * t L *.y.N.H.P.~.^.^.^.!.!.T.C.%.p - Z <.Q.(.(._._._._._._._._._._._._._._._.",
"_._._._._._._.).E.d.Y F L ~ ~ E H N H H G b b z z z b F G U (  .:.h.G.P.Q.!.T.T.C.%.p - l <.Q._._._._._._._._._._._._._._._._._.",
"_._._._._._._._./.P.l.;./ j 9 : = = * ; i / =.e.t.e.$.G q ; ; w S X.t.B.I.I.U.U.C.+.p * A <.Q.(.(._._._._._._._._._._._._._._._.",
"_._._._._._._._.(.(.~.G...z q q q q q r S *.H.Q.Q.Y.h._ j 6 5 w j K X.9.m.C.I.Z.m.} i * A <.W.(.(._._._._._._._._._._._._._._._.",
"_._._._._._._.)._.(.(.E.j.<.......#...#.<.b.Q.^.(.^.P.f.-... .` / b k Q 2.z.M.M.u.^ w * A <.W.(._._._._._._._._._._._._._._._._.",
"_._._._._._._._._._.(./.~.E.E.E.R.R.R.E.Q.~.^.(.(.(./.~.E.R.P.G.5.F w h ! 3.8.7.@.V < % l ,.E.(.(._._._._._._._._._._._._._._._.",
"_._._._._._._._._._._.(._.(._._._._._._._._.(._._.(._.(.(.(.(.(.G.o.F H N m m m d u O & l ,.E.(._._._._._._._._._._._._._._._._.",
"_._._._._._._._._._._._._._._._._._._._._._.(._._._._.(.(._._.).W.G.q.{ x 8 $ @ @ @ . O l d.R.(.(._._._._._._._._._._._._._._._.",
"_._._._._._._._._._._._._._._._._._._._._._._._._._._._._._.)._.)./.^.g.H r 8 = < 6 7 y I c.W./._._.(._._._.(._._._._._._._._._.",
"_._._._._._._._._._._._._._._._._._._._._._._._._._._._._._._._.)._._.E.>.X.+.$.X.O.O.<.d.R.(.(._._.(._._._._._._._._._._._._._.",
"_._._._._._._._._._._._._._._._._._._._._._._._._._._._._._._._._._._.(.Q.I.P.P.Y.P.P.Q.~.^._._._._._._._._._._._._._._._._._._.",
"_._._._._._._._._._._._._._._._._._._._._._._._._._._._._._._._._._._._.(.(.(.^.^.(.(._.(._.)._._._._._._._._._._._._._._._._._.",
"_._._._._._._._._._._._._._._._._._._._._._._._._._._._._._._._.)._._._._._._.(._.(._._._._._._._._._._._._._._._._._._._._._._.",
"_._._._._._._._._._._._._._._._._._._._._._._._._._._._._._._._._._._._._._._._._._._._._._._._._._._._._._._._._._._._._._._._.",
"_._._._._._._._._._._._._._._._._._._._._._._._._._._._._._._._._._._._._._._._._._._._._._._._._._._._._._._._._._._._._._._._.",
"_._._._._._._._._._._._._._._._._._._._._._._._._._._._._._._._._._._._._._._._._._._._._._._._._._._._._._._._._._._._._._._._.",
"_._._._._._._._._._._._._._._._._._._._._._._._._._._._._._._._._._._._._._._._._._._._._._._._._._._._._._._._._._._._._._._._.",
"_._._._._._._._._._._._._._._._._._._._._._._._._._._._._._._._._._._._._._._._._._._._._._._._._._._._._._._._._._._._._._._._.",
"_._._._._._._._._._._._._._._._._._._._._._._._._._._._._._._._._._._._._._._._._._._._._._._._._._._._._._._._._._._._._._._._.",
"_._._._._._._._._._._._._._._._._._._._._._._._._._._._._._._._._._._._._._._._._._._._._._._._._._._._._._._._._._._._._._._._.",
"_._._._._._._._._._._._._._._._._._._._._._._._._._._._._._._._._._._._._._._._._._._._._._._._._._._._._._._._._._._._._._._._."
};
