/* XPM */
static char *bdb47feba89f46268841f60248e2b187aFgMmOIUCnMxjyTB[] = {
/* columns rows colors chars-per-pixel */
"64 64 182 2 ",
"   c None",
".  c #000000",
"X  c #0C0602",
"o  c #150C05",
"O  c #1A0D06",
"+  c #1D1106",
"@  c #1E1208",
"#  c #211107",
"$  c #281207",
"%  c #2E1A07",
"&  c #241308",
"*  c #2C1609",
"=  c #27180A",
"-  c #2D1A0B",
";  c #301608",
":  c #321D0C",
">  c #3C1E0E",
",  c #36210E",
"<  c #3C220E",
"1  c #3A2311",
"2  c #3F2812",
"3  c #332012",
"4  c #411E0B",
"5  c #41250F",
"6  c #4C240F",
"7  c #45290F",
"8  c #52270F",
"9  c #4C2611",
"0  c #442B13",
"q  c #4A2C12",
"w  c #502710",
"e  c #542B13",
"r  c #592E13",
"t  c #4F3217",
"y  c #4A341C",
"u  c #513216",
"i  c #5B3314",
"p  c #5E3815",
"a  c #543618",
"s  c #622E13",
"d  c #633315",
"f  c #6C3415",
"g  c #623A15",
"h  c #6C3E17",
"j  c #6D3719",
"k  c #643D19",
"l  c #6E3919",
"z  c #753614",
"x  c #743B17",
"c  c #723A1A",
"v  c #7C3C19",
"b  c #783816",
"n  c #4E3A26",
"m  c #553F27",
"M  c #5A3D20",
"N  c #65401D",
"B  c #6C421C",
"V  c #74431A",
"C  c #7A421C",
"Z  c #7D491B",
"A  c #7A4517",
"S  c #56442E",
"D  c #5B4227",
"F  c #5D4F39",
"G  c #594A34",
"H  c #5E5039",
"J  c #6D4521",
"K  c #714720",
"L  c #734921",
"P  c #7D4E24",
"I  c #775C3E",
"U  c #79583B",
"Y  c #813F1B",
"T  c #86451E",
"R  c #8A451E",
"E  c #824C1C",
"W  c #89481F",
"Q  c #8E501F",
"!  c #92551F",
"~  c #A35D1F",
"^  c #834520",
"/  c #8B4621",
"(  c #8E4C20",
")  c #934D22",
"_  c #994F23",
"`  c #855122",
"'  c #8B5422",
"]  c #8F5A28",
"[  c #955121",
"{  c #995322",
"}  c #945923",
"|  c #9C5B23",
" . c #925B29",
".. c #995F2A",
"X. c #865A30",
"o. c #815C3A",
"O. c #A35C24",
"+. c #A95F26",
"@. c #A05A28",
"#. c #9A602A",
"$. c #976637",
"%. c #A56124",
"&. c #AB6326",
"*. c #A4642A",
"=. c #AD6628",
"-. c #AB6A2E",
";. c #B06726",
":. c #B16728",
">. c #B46D2C",
",. c #B86E2C",
"<. c #B6702F",
"1. c #BA712E",
"2. c #AD6D32",
"3. c #AC6E3C",
"4. c #B06E31",
"5. c #AF7237",
"6. c #B67131",
"7. c #BA7332",
"8. c #B67A3D",
"9. c #BD7B3B",
"0. c #C17D3B",
"q. c #846C53",
"w. c #997B53",
"e. c #947556",
"r. c #AB774A",
"t. c #B97E47",
"y. c #B57D4D",
"u. c #BB824C",
"i. c #BF894D",
"p. c #AF855B",
"a. c #B78859",
"s. c #BD8C5B",
"d. c #B18558",
"f. c #AD946A",
"g. c #B59364",
"h. c #BD9665",
"j. c #BA9867",
"k. c #C18B4E",
"l. c #C38C57",
"z. c #CC9356",
"x. c #C4925F",
"c. c #CE9759",
"v. c #CA9A5F",
"b. c #D09759",
"n. c #D49A5B",
"m. c #C59160",
"M. c #CC9763",
"N. c #C59A67",
"B. c #CA9C65",
"V. c #C99C68",
"C. c #C79B68",
"Z. c #D79F60",
"A. c #D59F6A",
"S. c #CDA16A",
"D. c #D5A26C",
"F. c #D9A36B",
"G. c #D6A96E",
"H. c #CEA873",
"J. c #D5AB72",
"K. c #D5B27C",
"L. c #DBB57D",
"P. c #DFB87F",
"I. c #DCB077",
"U. c #DEB791",
"Y. c #D2B391",
"T. c #E3BC82",
"R. c #E6BE95",
"E. c #E2BC93",
"W. c #E7C096",
"Q. c #E8C097",
"!. c #EAC49C",
"~. c #E6C19A",
"^. c #EBCAA5",
"/. c #ECCBA5",
"(. c #E7CAA8",
"). c #E8C6A0",
"_. c #F0D1AD",
"`. c #F2D4B2",
"'. c #F3D5B2",
"]. c #F3D7B5",
"[. c #F1D3B0",
"{. c #FBE0BF",
/* pixels */
"                          U.R._.            !.R.Q.Q.Q.Q.].          '.~.R.Q.Q.Q.!.].          `.E.E.U.                          ",
"                          { 7.Q.            M.:.6.6.6.9./.          `.u.>.6.7.4.k.'.          /.2.&.{                           ",
"                          { 6.Q.            m.~ %.%.%.2.^.          '.t.%.%.%.+.t.'.          /.2.%.{                           ",
"                          { 6.Q.            m.%.%.%.%.2./.          '.t.%.%.%.~ t.'.          /.2.&.{                           ",
"                          { 1.Q.            x.+.%.O.+.2.^.          _.t.~ %.O.+.u.`.          ^.2.%.{                           ",
"                          i g Y.          ].e.9 e r w J (.          ].U 8 e e e o.].          ^.J e e                           ",
"                          k K s.F.A.e.p.F.F.$.K a = B P M.A.A.q.m.A.F.X.V 2 : B X.A.F.M.q.C.D.M.L K -                           ",
"                          ;.:.=.=.;.5 C &.=.;.>.` 0 :.:.=.&.&.% ! &.&.;.<.h g >.:.&.&.| % O.&.&.>.>.q                           ",
"                          l l c l V : w l c c x i * c l c l V # d l c l V 7 > c l c l B # j l c j C :                           ",
"                          t t O 5 u t t u - $ u t t u q O 0 u u t u # : t t u u < + q t q u u O q q 1                           ",
"                          >.>., | >.<.>.1.N g ,.>.>.>.*.: =.>.>.>.1.t Z <.<.>.,.Q 7 >.>.>.,.>.1 *.>.|                           ",
"                          W Q = C W W / ) i q ( / / W E = T T W W [ < g / / / ( V < ( W W W ' = C / /                           ",
"                          : 1 - > 1 + X X X X X X O , , : 1 1 O % 1 : 3 1 = X X X . X X o , < - : : o                           ",
"                          =.<.6.4.7.0 . . . . . . 7 >.6.>.4.-., | 4.<.<.7.h . . . . . . = >.4.6.>.| >                           ",
"                          { { { { | 5 . . . . . . > { { _ { | % / [ [ [ @.g . . . . . . # [ { { { { >                           ",
"                          : - # % : o . . . . . . o : = # - : O = : = * : + . . . . . . X - - & - - O                           ",
"                          -.-.% ' 2.0 . . . . . . 0 -...% #.-.-.-.-.0 V 2.N . . . . . . = -.*.: ..*.(                           ",
"                          O.%.: { O.5 . . . . . . 5 O.| : O.O.O.O.&.7 C &.d . . . . . . # @.%.: [ O.{                           ",
"                          > 5 o : > O . . . . . . O > < o > > > > 5 @ * > & . . . . . . X > 5 o : > >                           ",
"                          `  . . . .1 . . . . . . : '  . . .] = V  . . . .a . . . . . . # ] ]  .E C *                           ",
"                          %.&.&.&.:.0 . . . . . . 0 =.&.&.&.&., | &.&.&.:.h . . . . . . # &.&.=.&.O.>                           ",
"                          e e e e i & . . . . . . # e e e e i + 9 e e w r : . . . . . . o w e u e e #                           ",
"                          K V @ i K - . . . . . . - K N + k K K L L - q L 0 . . . . . . + K B @ N B i                           ",
"                          >.;., | ,.q . . . . . . q >.%.: &.:.:.:.>.q E ,.B . . . . . . = =.>.: @.:.{                           ",
"                          l V + d c - . . . . . . $ x h # j j c j V % 9 c > . . . . . . o j V & d l f                           ",
"                        f.H F G 5 > O : 7 y F F F F F F S > > o < 7 D H H F F F H n > : o 0 7 S F H H f.                        ",
"y.i.J.            G.z.c.c.n.n.I.) _ > E %.i.F.z.n.n.n.n.S./ ) : | O.M.v.b.n.n.n.F.l.R R : &.+.G.c.n.n.b.c.G.            L.i.k.y.",
") ~ v.            v.+.&.&.=.=.S.c v : V T r.k.%.&.&.&.6.N.f v * E R s.8.&.&.=.&.9.d.f z = ( T B.=.&.&.=.%.k.            G.O.+._ ",
"[ +.v.            v.%.%.%.%.%.V.3 & O * $ I k.%.%.%.%.-.g.& # O * $ w.8.~ &.%.~ 8.e.O # O - - g.-.%.%.%.~ i.            G.%.%.[ ",
"[ ~ v.            v.%.&.%.%.&.V.L z z Y Y y.i.+.%.%.O.2.N.z z z Y R m.8.%.%.%.%.9.a.z z b / / V.-.&.%.%.+.k.            G.%.%.[ ",
"_ O.v.            m.[ [ { [ O.S.^ b z j b r.y._ | { { -.N.b b z z b s.3.[ { ! ! t.a.z z b b v V...{ | [ [ k.            J.O.{ ) ",
"% % w.W.T.K.K.T.T.w.% - & % , j.A.C.m.N.C.J.I ; - & - 0 H.V.V.j.N.V.J.m : * $ : m J.C.C.h.C.V.H.5 : = * % I T.T.L.K.T.T.j.: * - ",
"/ [ 2.0.0.P B 0.9.6.-...- | -.7.0.0.M ' 0.9.6.-.P 2 %.2.7.0.9.y *.0.9.2.-.k i &.2.9.9.5.0 6.9.9.-.2.0 V -.4.0.0.$.a 9.9.7.*.[ / ",
"[ O.O.| +.g i +.O.O.O.| : | O.O.O.&.0 C O.O.O.O.E 5 O.O.O.| +.: [ O.@.O.+.g p O.O.O.O.| - | O.O.O.+.7 C O.O.O.O.E 5 O.O.O.O.O.{ ",
"> > > > 1 * & > > > 1 < o > > > > < & * > > > > : o > > > > 5 o : > > > 1 - # > > > > < o > > > > 5 @ * > > > > : o 4 > > > > > ",
"c E : p  . . . .J - '  . . . .= V  . . . .u 7  . . .] ` = `  . . . .1 p  . . . .B : '  . . .] = V  . . . .u 7  . . . .` # Z Z c ",
"{ =.7 T &.&.&.=.E 7 &.&.&.&.=.: | &.&.&.:.h p :.=.=.+.O.: +.&.&.=.:.q Z =.=.+.:.E 0 :.&.&.+.=.: { &.=.&.:.k g =.&.&.&.| , %.&.{ ",
"e i & > e e e e 0 # e e e e i o 9 e e w u , * e w r w e o e e e e r = 4 e e e e 0 # e e e e i o 7 e e w r : - w e e e e o w e e ",
"u p B V K 0 , B K K L k + k K K L K - 0 B V K B a & k e e 8 4 4 4 4 w e r : : L K K J N + k L L V K - q L L V K a = B L B g g e ",
"{ &.=.>.>.h g >.>.:.>.O.: =.>.:.>.,.q E >.>.>.>.Q 0 O._ v 8 O O O o 8 v _ r g >.:.:.>.%.: =.:.>.>.>.q E >.:.>.>.E 0 :.>.:.=.=.{ ",
"c c c c c 7 > c l c l B # f l c j c : e l h c c i = Y s X X . . X . X X s w 4 c c c j h # j c l l V % e l c c c p = c l c l l l ",
"< 7 O : u u t u 1 + q u t u t o 5 u t t u % - u 7 5 s O . . . . . . . . O r 5 q 2 + q u q u t O 5 t t u u - & t t e u q o 0 7 < ",
"{ =.7 E <.>.>.1.' 7 >.,.>.<.>.< | <.>.<.1.h B 7.+.{ Y o . . . . . . . . o v { >.' 7 >.4.>.>.>.> | <.<.>.1.B g ,.>.<.<.*.: &.&.{ ",
"/ ) < g W W W W c : ( ^ / T Q = C / W T ( u 9 W W Y 4 X . . . . . . . . X 4 Y / V > W W W W ' = C W W T W i q / / / T E = T / T ",
"* : : 3 < = @ : 1 : 1 3 o : 1 3 1 1 + = , , : : * 6 * . . . . . . . . . . ; 6 % : - 1 : o : 1 : : 1 + = 1 : 3 > - O : < % - - - ",
"{ =.<.<.7.N p ,.<.4.4.%.: &.>.4.>.7.q Z 6.>.6.&.O.R * . . . . . . . . . . * T O.<.<.4.*.: *.4.4.>.7.q Z <.4.>.7.` 7 >.4.>.%.%._ ",
") { [ { { p i [ { ) { } - { { ) { | 5 c { { { { [ R * . . . . . . . . . . * R { [ { { [ : { { { { | 7 c { { { { Z < { { { [ { ) ",
"= * & * : = & : - # % - + - : # * : # = - * = = * 6 ; . . . . . . . . . . ; 6 * % & - : O % - # % : # = - * & : - + - : & * * = ",
"/ | < V -.2.-.2.` < *.2.-.-.*.: ' -.-.-.-.g g *.[ Y ; . . . . . . . . . . ; Y { P 1 %.2.-.2.*.: ' 2.-.*.2.k u -.-.-.-.#.- } | W ",
"_ &.7 V O.O.O.O.Z 5 O.O.O.O.%.: { O.O.@.+.g i +.| R * . . . . . . . . . . * W O.E 5 +.O.O.O.O.: [ O.O.O.%.g i +.O.O.O.{ : | O._ ",
"> 7 @ * > > > 4 : O > > > > 1 o : > > > 1 = & > > e ; . . . . . . . . . . ; e > : o 1 > > > 5 o : 1 > > 4 * # 4 > > > 1 o > > > ",
"c E  . . .u 0 ]  . . .` = `  . . . .1 p  . . .E C b ; . . . . . . . . . . ; b Z  . .] ` # `  . . . .1 i  . . . .J % '  . . .E c ",
"{ &.&.&.:.h g =.=.=.&.| : +.&.&.=.:.q Z ;.&.&.%.O.R ; . . . . . . . . . . * R +.&.+.=.| , %.&.=.=.:.q Z &.=.=.=.` 7 =.=.&.=.&.{ ",
"e e e e r : % e e e w u o w w r w i # > w e e e e d ; . . . . . . . . . . ; s e e r e e O w w u e r = > e e e e 7 @ e w e w e e ",
"e g = q V J J K a = B V K J L + i J L L L 5 0 k p s ; . . . . . . . . . . ; d p u = B L K K L @ i J L K L 2 : B K K L k + p g e ",
"{ :.7 E >.>.:.>.` 7 >.>.:.>.:., | >.:.>.>.h k ;.+.R ; . . . . . . . . . . * W &.Q 0 :.:.:.>.:.: | >.:.:.,.h g >.:.:.:.*.: &.=.{ ",
"j V % e l c c c i * c l c j V # g j c c c 7 > c c z ; . . . . . . . . . . * b c i = c j c j V # d l c c c 7 < c c c c h + c l j ",
"5 0 q u u - = u u q u q o q u t t u # : u t t 0 5 e ; . . . . . . . . . . ; e 5 t u u q o q u u u u # : u t t u 2 + q u q 0 7 < ",
"[ &.:.,.1.B g ,.>.<.>.*., =.>.>.<.<.q Z <.>.<.;.O.R * . . . . . . . . . . * R &.>.>.4.%.: =.>.>.>.7.q E <.>.<.<.` 7 >.<.>.&.&.{ ",
"T W W W W u 9 / / / W E = T / / / [ < d W W W W T T * . . . . . . . . . . * Y T W W / E = T W W T [ < g W W / / h > / T T / T / ",
"* : O & 1 : 3 1 - o > 1 - , , o - 1 : 1 , & & : % 9 ; . . . . . . . . . . ; 6 % - O : < - , , O % < , 3 1 # + 1 1 - 1 3 o % % - ",
"_ &.7 Z <.<.,.<.' 7 >.4.<.<.<., | >.4.>.1.B i =.O.T * . . . . . . . . . . ; / %.' 7 >.4.6.<.>.:  .>.6.>.7.h p >.6.4.>.*., %.%.) ",
") O.7 c [ [ [ { Z < { { [ { | : ( _ [ [ | p e { _ R * . . . . . . . . . . ; T { Z < { [ { { | : W _ { { O.p r { { { { [ - { { ) ",
"# = X O & & # & @ X & # # # # X @ & & # # O o # & # X . . . . . . . . . . X # # O o & # O & & X & @ # @ & o o @ # @ & # X # # # "
};
