/* XPM */
static char *d59bfcdb020d422fc07c889d72bbb407x6gzqCN8iWEbplv0[] = {
/* columns rows colors chars-per-pixel */
"64 64 189 2 ",
"   c None",
".  c #000000",
"X  c #0B0502",
"o  c #0E0803",
"O  c #140B05",
"+  c #1C0E05",
"@  c #1D1107",
"#  c #1E1208",
"$  c #210F05",
"%  c #231307",
"&  c #241409",
"*  c #2B160A",
"=  c #27190A",
"-  c #2C1A0B",
";  c #291707",
":  c #301608",
">  c #331C0C",
",  c #3D1E0E",
"<  c #37200C",
"1  c #3B230E",
"2  c #3C2611",
"3  c #3E2914",
"4  c #362110",
"5  c #42220F",
"6  c #46290F",
"7  c #4B2B0F",
"8  c #4A230E",
"9  c #54280F",
"0  c #452310",
"q  c #4C2611",
"w  c #422913",
"e  c #4C2C11",
"r  c #452E19",
"t  c #522610",
"y  c #532A13",
"u  c #5B2C12",
"i  c #4F3115",
"p  c #4C351D",
"a  c #533214",
"s  c #5B3414",
"d  c #5F3814",
"f  c #543518",
"g  c #583719",
"h  c #5A391A",
"j  c #602B0F",
"k  c #612C10",
"l  c #643316",
"z  c #6E3515",
"x  c #623A15",
"c  c #693D17",
"v  c #663418",
"b  c #6A3618",
"n  c #653D1A",
"m  c #6D3B18",
"M  c #763614",
"N  c #763816",
"B  c #793916",
"V  c #733C1A",
"C  c #7A3E1B",
"Z  c #4E3621",
"A  c #593D22",
"S  c #6D431C",
"D  c #744419",
"F  c #7C431C",
"G  c #7C4A1C",
"H  c #5B4229",
"J  c #6E4620",
"K  c #664A2D",
"L  c #704720",
"P  c #754921",
"I  c #7C4D22",
"U  c #7F5024",
"Y  c #654B31",
"T  c #6D5235",
"R  c #755A3C",
"E  c #7B5F41",
"W  c #7D6C4D",
"Q  c #786042",
"!  c #833F1A",
"~  c #84421C",
"^  c #8B441D",
"/  c #834B1D",
"(  c #8A4A1F",
")  c #954E1F",
"_  c #8B521E",
"`  c #87501D",
"'  c #A35D1F",
"]  c #804F21",
"[  c #8C4A20",
"{  c #8A4620",
"}  c #944E22",
"|  c #984E23",
" . c #845325",
".. c #8A5626",
"X. c #8E5927",
"o. c #8C5828",
"O. c #955221",
"+. c #9B5423",
"@. c #955A23",
"#. c #9D5B23",
"$. c #935B29",
"%. c #9C5E2B",
"&. c #A45C24",
"*. c #A85F26",
"=. c #9C622B",
"-. c #9F6127",
";. c #996339",
":. c #A66224",
">. c #AA6326",
",. c #A3652B",
"<. c #AE6628",
"1. c #AC6A2E",
"2. c #B06626",
"3. c #B06728",
"4. c #B46D2C",
"5. c #B86F2D",
"6. c #B7702F",
"7. c #BA712E",
"8. c #A76B36",
"9. c #AE6D31",
"0. c #B36F30",
"q. c #B57131",
"w. c #BA7331",
"e. c #B4763A",
"r. c #B67B3F",
"t. c #BE7A3A",
"y. c #C17C3B",
"u. c #806D4E",
"i. c #826446",
"p. c #91734E",
"a. c #937B57",
"s. c #A5734C",
"d. c #AB7849",
"f. c #B67A41",
"g. c #B97E40",
"h. c #B37A49",
"j. c #BB8144",
"k. c #BC854B",
"l. c #AA865B",
"z. c #B58657",
"x. c #BE8651",
"c. c #B68859",
"v. c #BC8D5E",
"b. c #BD9464",
"n. c #BD9867",
"m. c #CB8D4D",
"M. c #C3884C",
"N. c #CF904F",
"B. c #C38D50",
"V. c #C08B5A",
"C. c #CC9156",
"Z. c #C7945A",
"A. c #CB985C",
"S. c #D09251",
"D. c #D69B5B",
"F. c #C49462",
"G. c #C59D6A",
"H. c #CA9E6A",
"J. c #C89966",
"K. c #CEA169",
"L. c #D5A163",
"P. c #D6AD74",
"I. c #D5AF79",
"U. c #D8AF78",
"Y. c #D8AE77",
"T. c #DBB57D",
"R. c #DEB87F",
"E. c #D4B17D",
"W. c #CCA773",
"Q. c #BDA386",
"!. c #D6AF87",
"~. c #DEB981",
"^. c #DBB589",
"/. c #C2A687",
"(. c #E2BB82",
"). c #E0B88E",
"_. c #E6BD92",
"`. c #E3BB91",
"'. c #E8BF94",
"]. c #E4C189",
"[. c #EBC196",
"{. c #EACAA5",
"}. c #EFD0AD",
"|. c #F0D1AE",
" X c #F1D3B0",
".X c #F3D6B4",
"XX c #F1D5B3",
"oX c #F4D8B7",
"OX c #F6DBBA",
/* pixels */
"                        } &.C..X          XXg.w.w.w.w.M.|.          oXx.6.w.w.w.t.{.            F.' :.|                         ",
"                        } &.C..X           Xr.&.:.:.&.e.}.          oXx.:.:.:.:.1.{.            F.&.&.}                         ",
"                        } &.C..X           Xf.:.:.:.:.e.}.          oXx.:.>.:.:.9.{.            Z.' &.}                         ",
"                        } *.C..X           Xf.:.:.:.:.e.}.          oXx.:.:.:.:.9.{.            F.&.#.}                         ",
"                        C ( d.OX          .X;.F ~ ~ F ;.XX          OXs.C ~ F ~ $.{.            v.F F {                         ",
"                        > < Y _._.`.Q.^._._.A 4 & # < A ).'._.Q.^._.'.T 1 = + 4 r !._.'./.!.'.'.i., < X                         ",
"                        >.6.6.6.7.1.- :.0.5.5.w.S s 6.q.6.7.5.> +.q.7.q.7.] 6 6.5.5.5.5.2 ..0.0.5.q.$..                         ",
"                        +.O.O.O.O.@.* } O.+.| &.d y +.O.O.O.#.= [ +.O.O.+.D 6 O.O.O.O.&.1 C +.| O.+./ X                         ",
"                        - * = & * - O * * & = * & @ - * % * - O * = & & * = + * * % * > + & - * = * & X                         ",
"                        1.1.I 1 ,.9.1.1.9.4 D 1.1.1.1.X.- -.9.1.1.9.e n 8.1.1.1.%.= @.9.1.9.9.h h 1.@.{                         ",
"                        *.>.G 5 *.&.*.:.>.1 / *.&.&.*...> *.*.&.*.>.e D *.&.*.*.#.> #.&.&.&.>.x l *.&.|                         ",
"                        0 0 < + 0 0 0 0 q # , 0 0 0 0 5 O 0 0 0 0 q % * 0 0 0 0 q O 0 0 0 0 0 * & 0 0 0                         ",
"                        c I  . . .P X . . . . . . 1 I  . .U I % n I  . . .A . . . . . . . S  . .] D q .                         ",
"                        >.<.<.<.3.,.O . . . . . . x 3.<.3.<.1.> #.3.3.3.3.] . . . . . . . @.3.1.3.<.F X                         ",
"                        b b b m b m o . . . . . . , m b m b D @ s b b b m u . . . . . . . u m m b b y .                         ",
"                        i a 2 + e i X . . . . . . - f w O e i i a a = - a 2 . . . . . . . w a - - f 0 ,                         ",
"                        5.7. .6 4.<.O . . . . . . n w.%.< 3.6.6.7.7.f D 7. .. . . . . . . +.w.n S w.:.|                         ",
"                        [ } D > } ~ O . . . . . . q } / - ( [ [ ( O.w s ) v . . . . . . . C O.s q } [ {                         ",
"                        = - - = - - . . . . . . . + - : = - - + = > = * > & . . . . . . . - > * & = % o                         ",
"                        :.1.q.5.q.1.O . . . . . . s 0.0.6.6.q.- @.5.q.4.6. .. . . . . . . =.0.0.<.#.V X                         ",
"                        +.&.&.+.+.#.O . . . . . . s &.&.&.+.&.- [ #.&.+.&.G . . . . . . X / +.&.#.&.C X                         ",
"                        > > > > > 1 . . . . . . . @ > > : > 4 O > > : > , = . . . . . . . * > > > > * X                         ",
"                        %.%.S > @.$.o . . . . . . f ,.I * X.%.=.%.=.w s =.S . . . . . . . ] ,.a f =.] C                         ",
"                        >.>./ 6 <.&.O . . . . . . x <.@.> >.>.>.>.3.e D 3.G . . . . . . X ..2.x l >.&.|                         ",
"                        t y 6 + u q X . . . . . . * u 7 O y u u y s = , t , . . . . . . . q s > ; y 9 9                         ",
"].].              ].].].a.W W T q q + s d R u.u.u.W W W R y q O a s T u.u.W u.u.u.E y y @ q s K W W W a.].].].            ].].].",
"f.Z.            (.k.m.m.m.N.L.v.^ [ * :.&.J.C.m.S.N.N.D.J.^ | = #.&.Z.A.m.N.N.N.D.W.{ | > _ &.x.L.m.C.N.m.m.R.            K.f.g.",
"&.k.            R.1.:.>.>.>.t.z.j m & / F v.e.:.>.>.>.q.b.j z % G B z.g.:.>.>.>.3.J.l N = D C d.B.' >.>.:.<.U.            Z.' :.",
":.k.            ~.1.:.:.:.:.g.a.$ % & : * l.e.:.:.:.:.e.l.$ % % : : p.k.:.:.:.:.1.n.= $ * : * i.B.:.:.:.:.:.U.            Z.:.:.",
"' k.            ~.1.:.:.:.:.g.c.M M B ~ ^ J.e.*.:.:.:.e.F.M M N ! ! V.g.' >.:.:.1.H.B N M ! ! h.B.' :.:.:.>.P.            Z.' :.",
"' k.            ~.%.+.O.O.O.g.c.M N M N B F.8.} O.O.O.9.F.M M N N B z.f.) O.O.O.,.H.B N M M M d.h.) O.O.O.%.P.            Z.+.O.",
"; T ].R.~.E.R.(.E.3 * & & * H U.J.H.F.G.H.I.Z * & & - p I.H.K.n.H.H.P.K = = & - 3 W.H.H.G.J.H.T.R = = % * < G.(.(.E.T.(.(.p.; = ",
"@.:.y.t.8.e e.t.t.9.4.i x 1.0.y.y.e.3 9.t.t.9.3.n e ,.9.t.t.t.r ,.t.t.0.9.P 2 <.9.t.t.y.p $.y.t.e.1...> ,.9.e.y.y.n  .t.t.e.#.#.",
"&.&.&.&._ > &.&.&.&.>.a b *.&.&.*.#.- +.&.&.*.*.c s *.&.&.&.:.> O.&.&.&.*.F 0 :.&.&.&.*.1 ( &.&.&.*._ > *.&.&.&.>.q m *.&.&.&.&.",
"5 5 5 5 2 O 5 5 2 , 0 & = 5 0 , 0 5 O , 0 2 5 6 = % 0 0 5 , 6 O , 0 5 0 0 > + 0 2 0 0 0 O > 8 0 5 5 1 O 0 , 5 5 0 # - 0 5 5 1 5 ",
"D 6 1  . ... . .& c  ... . .x - U  ... . .- h  . . . .J & G  . . . .4 e  . . . .I # D  . . . .e 1  . ... .] % S  . . ...g > D D ",
"<.c s 3.<.<.<.<.> #.<.<.<.2./ 6 3.<.<.<.4.1 ` <.3.<.3.@.< <.<.<.<.4.e D 3.<.<.<.:.- :.<.<.<.3.n x 3.<.<.<.<.> #.<.<.<.3.G e 2.>.",
"m 6 > b v b v m @ u v v b c a & b v b v m & y v b b b d + v b v v V < 8 b b b v c O l v b b m 1 , b v b v m + s v b b c 7 = z v ",
"e e a a e O e f f f f = - a f f f f O e f f a f < % q 2 0 , : : : : , 5 5 > # a f f f f # 1 f f f a w + i a f a a = < a a i 6 q ",
":.<.5.7.=.< <.5.5.7.7.a S 6.4.5.6.<.- :.5.4.5.6.S s *.| ^ k : : : : u ~ } m e 5.5.5.6.7.1 _ 5.q.4.5.@.2 3.6.6.6.7.i D 7.6.4.>.>.",
"[ [ ( ( / = [ ( [ [ O.e a [ ( [ ( ` = ] { [ { } s q } v + X . . X . X + z l , [ [ [ [ O.< m [ [ ( ( G > [ ( ( ( O.5 l [ [ [ [ ] ",
"= # @ - > = - > + = - * - 4 & @ - - * - > + * - & % u + . . . . . . . . + u $ - - O - > * - - & + > - = - > + = < - - > & @ * * ",
">.x a 4.q.0.q.q.> @.q.q.0.w.] 5 6.q.q.4.q.w X.6.*.} M X . . . . . . . . X M | <.1.- :.q.q.q.w.n s 6.q.0.0.0.- %.6.q.q.w.I 6 >.:.",
"*.c 9 &.+.#.+.&.- [ &.+.+.&.F w &.O.+.&.&.1 F #.+.^ 0 X . . . . . . . . X 0 { +.@.* +.+.+.+.*.d s &.+.&.O.&.- } #.O.+.&.D q &.+.",
"> = @ > > : > > O * > * > > * + > > * : 1 O * > : 9 $ . . . . . . . . . . + 9 : > O > > * : 4 % + > > : : 4 O - > - * 4 = + > - ",
"..=.=.=. .= @.=.=.=.,.e a =.=.=.=.$.& ..=.-.%.../ N $ . . . . . . . . . . $ N / =.=.=.=.4 D =.=.=.=.] - $.=.=.=.=.w l &.-.@./ ..",
"*.*.:.>.O.> *.>.>.*.2.a V >.:.*.*.*.- &.:.>.:.>.&.! + . . . . . . . . . . + ~ &.>.>.*.<.1 [ >.:.:.>..., >.*.>.*.3.e D >.>.>.*.*.",
"t y u y e O y y y y u = > y y y t f O q y y y t y l $ . . . . . . . . . . $ l t y y q s + , y y y y q + y y y y s & > y t y t y ",
"x 1 - S J L J S # a J L J L i & S J L J L = a x s l $ . . . . . . . . . . $ l s n O n J L L L 2 > S S L J J @ s S L J L i = d d ",
"2.c s 4.5.3.3.4.< #.4.3.4.4.` 6 3.4.4.<.4.2 _ <.*.! + . . . . . . . . . . + ! &.:.> ,.3.4.3.6.c x 4.3.4.3.4.- -.4.4.3.5.G e 3.>.",
"F a , C V F V / & b F F C F d - C C C C / - s C V N $ . . . . . . . . . . $ N C G @ C C F V F 7 0 F F C B F % m V F C F s > F C ",
"1 w 2 w 2 O 1 w 2 2 w # & w w 2 w 2 O 1 w 2 w , > u $ . . . . . . . . . . $ u > 2 2 w w O > w w 3 w 4 O 2 w 2 w w # = w w 2 w 1 ",
"<.6.7.7.-.> 3.6.6.6.w.a S 5.6.6.0.1.> :.7.0.5.>.&.! + . . . . . . . . . . + ! &.5.5.q.7.2 _ 7.q.0.5.@.1 3.6.7.0.7.f D w.5.q.6.<.",
"O.O.O.O.( - O.O.O.} &.e x | } O.O.@.= } } O.O.} } ! $ . . . . . . . . . . $ ! } O.O.} #.> F O.} } +./ > O.O.} } #.w b O.O.} } O.",
"= % $ = - @ - - + = - & % - = $ * - + = - % = * & t $ . . . . . . . . . . $ t & * % = > @ & * % % * - @ - = $ = > @ % * & % = ; ",
"#.d y 1.1.9.1.1.> ..1.9.9.0.] 1 >.1.9.9.0.2 ..#.O.C $ . . . . . . . . . . $ B @.%.= #.1.9.9.q.n a 1.1.9.9.1.- @.4.1.9.9.G 6 #.#.",
":.S u *.&.&.&.>.> ) &.&.&.&.F 0 *.&.&.&.*.1 / &.+.~ + . . . . . . . . . . + ~ &.#.- &.&.&.&.>.x s *.&.&.&.&.- O.&.&.&.*.D 6 *.&.",
"1 * @ , , 1 , 5 O : 1 5 , 0 > + 2 , , , 0 + : 2 , k $ . . . . . . . . . . $ u , 1 O , , , , 5 = % , , , 2 5 O , , , , 5 - + 5 , ",
"D G ....P % I ..X...o.2 e ....o. . .# I ..o. .F D z $ . . . . . . . . . . $ M m  .o. .o.- x  .o.....J & /  .o...o.2 a ..X.] D G ",
">.<.<.<.#.> <.<.<.<.3.a S 3.<.>.<.:.- :.<.>.<.>.&.! + . . . . . . . . . . + ! &.<.<.<.3.1 [ 3.<.<.<.@.1 <.<.3.>.4.q D <.3.>.:.:.",
"l v v l s # l l b l c < 1 l l b l n O k l l l x l m $ . . . . . . . . . . $ z l l v l c % y l v l v s # v x l l m - 0 l l l l l ",
"e - = a h f f g O w s g h g w @ a h h s g # 1 e 0 k $ . . . . . . . . . . $ k w f O i f f g g - * f f h g g + w h h h h 2 % i q ",
"2.c s 7.5.4.5.5.< #.4.4.4.4. .6 5.5.4.4.6.w ` >.*.! + . . . . . . . . . . $ ! *.:.> >.5.6.4.7.S s 5.5.5.4.3.> &.4.4.4.5.G 7 <.>.",
"+.c q O.} O.} #.- ~ } | ) +.F 1 O.| } } #.1 C | | ! $ . . . . . . . . . . + ! } O.= } O.} O.+.h u O.| } } #.= ( } } } +.D 6 O.O."
};
