/* XPM */
static char *_fa1c6a55c414967fa3895c6ce8fabbdc8I5Pn9Fan8tztpO[] = {
/* columns rows colors chars-per-pixel */
"64 64 123 2 ",
"   c #75ADCF",
".  c #6DADD5",
"X  c #6DAFDD",
"o  c #7AAED3",
"O  c #6FB5DE",
"+  c #79B1D2",
"@  c #74B2DC",
"#  c #7AB2DE",
"$  c #7BB9DF",
"%  c #69AFEC",
"&  c #67B3E4",
"*  c #6DB4E4",
"=  c #67B4EB",
"-  c #6BB5EC",
";  c #65B9EE",
":  c #68B9EC",
">  c #72B4E5",
",  c #79B5E1",
"<  c #73B8E7",
"1  c #7CBBE5",
"2  c #72B5EA",
"3  c #79B5E8",
"4  c #7ABBEA",
"5  c #66B6F5",
"6  c #68B7F4",
"7  c #67BBF6",
"8  c #68BBF6",
"9  c #66B7F9",
"0  c #69B7F8",
"q  c #66BAF9",
"w  c #68BAF8",
"e  c #73BBF1",
"r  c #79BDF0",
"t  c #74C1F6",
"y  c #9CB8CA",
"u  c #8AB8D7",
"i  c #81B6DB",
"p  c #92B7D4",
"a  c #92BDD6",
"s  c #91BDD9",
"d  c #83BAE1",
"f  c #9EC1D4",
"g  c #94C3DF",
"h  c #AACBDB",
"j  c #8BCAEE",
"k  c #93C4E6",
"l  c #94C5EE",
"z  c #90CCEB",
"x  c #9ECCED",
"c  c #83C7F2",
"v  c #8EC6F0",
"b  c #87CDF3",
"n  c #89CDF2",
"m  c #84CFFA",
"M  c #85D0F6",
"N  c #8BD1F4",
"B  c #8CD4FA",
"V  c #97D4F4",
"C  c #9EDDFA",
"Z  c #A5C6E4",
"A  c #A6CBE1",
"S  c #A1CDE8",
"D  c #B5CBE2",
"F  c #AFD3EA",
"G  c #BBD5E6",
"H  c #AAD4F1",
"J  c #A7DAF6",
"K  c #A3DBFA",
"L  c #B2DCF4",
"P  c #B2DFF9",
"I  c #BEDFF9",
"U  c #AAE2F7",
"Y  c #ADE2FB",
"T  c #AFECFD",
"R  c #BCE2F7",
"E  c #BFF6FE",
"W  c #BEF8FE",
"Q  c #C1D9E5",
"!  c #C2DCF0",
"~  c #CAEEFC",
"^  c #D5E3F1",
"/  c #D3E8F5",
"(  c #DDEAF3",
")  c #D3EDF8",
"_  c #C1F7FE",
"`  c #CCF3FD",
"'  c #C1F8FE",
"]  c #C9F9FE",
"[  c #DEF0F5",
"{  c #D4F4FE",
"}  c #DBF3FB",
"|  c #D3FCFE",
" . c #DFFEFE",
".. c #E4E7E8",
"X. c #E0EBF1",
"o. c #E1F1F6",
"O. c #EAF3F6",
"+. c #E3F4FC",
"@. c #EDF6FC",
"#. c #E4FEFF",
"$. c #ECFCFE",
"%. c #FDF7F6",
"&. c #F6F9F6",
"*. c #FCFBF6",
"=. c #F3F7FA",
"-. c #FCF7F9",
";. c #F2FEFE",
":. c #F2FEFF",
">. c #F4FDFD",
",. c #F7FCFF",
"<. c #F5FEFF",
"1. c #FBFBFB",
"2. c #FEFAF8",
"3. c #FCFBFB",
"4. c #FBFCF8",
"5. c #F9FEF9",
"6. c #F8FDFA",
"7. c #FCFCF8",
"8. c #FCFCFA",
"9. c #FCFCFB",
"0. c #FBFBFC",
"q. c #FCFBFC",
"w. c #FBFFFF",
/* pixels */
"q.q.q.q.q.q.q.q.q.q.q.q.q.q.q.q.q.q.q.q.q.q.q.q.q.q.q.q.q.q.q.q.q.q.q.q.q.q.q.q.q.q.q.q.q.q.q.q.q.q.q.q.q.q.q.q.q.q.q.q.q.q.q.q.",
"q.q.q.q.q.q.q.q.q.q.q.q.q.q.q.q.q.q.q.q.q.q.q.q.q.q.q.q.q.q.q.q.q.q.q.q.q.q.q.q.q.q.q.q.q.q.q.q.q.q.q.q.q.q.q.q.q.q.q.q.q.q.q.q.",
"q.q.q.q.q.q.q.q.q.q.q.q.q.q.q.q.q.q.q.q.q.q.q.q.q.q.q.q.q.q.q.q.q.q.q.q.q.q.q.q.q.q.q.q.q.q.q.q.q.q.q.q.q.q.q.q.q.q.q.q.q.q.q.q.",
"q.q.q.q.q.q.q.q.q.q.q.q.q.q.q.q.q.q.q.q.q.q.q.q.q.q.q.q.q.q.q.q.q.q.q.q.q.q.q.q.q.q.q.q.q.q.q.q.q.q.q.q.q.q.q.q.q.q.q.q.q.q.q.q.",
"q.q.q.q.q.q.q.q.q.q.q.q.q.q.q.q.3.3.3.q.q.q.q.q.q.q.q.q.q.q.q.q.q.q.q.q.q.q.q.q.q.q.q.q.q.q.q.0.q.q.q.q.q.q.q.q.q.q.q.q.q.q.q.q.",
"q.q.q.q.q.q.q.q.q.q.q.q.3.3.3.3.3.3.3.q.q.q.q.q.q.q.q.q.q.q.q.q.q.q.q.q.q.q.q.q.q.q.q.q.q.q.q.0.q.q.q.q.q.q.q.q.q.q.q.q.q.q.q.q.",
"q.q.q.q.q.q.q.q.q.q.8.8.8.8.8.8.8.8.8.8.q.q.q.q.q.q.q.q.q.q.q.q.q.q.q.q.q.q.q.q.q.q.q.q.q.q.0.0.q.q.q.q.q.q.q.q.q.q.q.q.q.q.q.q.",
"q.q.q.q.q.q.q.q.q.8.8.8.8.8.8.8.8.8.8.8.q.q.q.q.q.q.q.q.q.q.q.q.q.q.q.q.q.q.q.q.q.q.q.q.q.q.0.0.q.q.q.q.q.q.q.q.q.q.q.q.q.q.q.q.",
"q.q.q.q.q.q.q.q.q.8.9.8.8.8.8.7.*.4.4.7.4.8.q.q.3.3.3.3.3.3.3.3.8.3.8.w.7.8.8.q.q.q.0.0.0.0.0.0.q.q.q.q.q.q.q.q.q.q.q.q.q.q.q.q.",
"q.q.q.q.q.q.q.q.q.9.9.8.8.4.4.7.*.*.7.4.w.8.q.q.3.3.3.-.*.3.*.*.3.*.*.1.7.8.8.8.q.0.0.0.0.0.0.0.q.q.q.q.q.q.q.q.q.q.q.q.q.q.q.q.",
"q.q.q.q.q.q.q.q.q.8.9.8.4.4.4.4.7.*.4.4.w.3.q.3.3.-.%.-.%.%.3.*.4.4.4.*.8.7.3.3.q.q.0.0.0.0.w.4.q.q.q.q.q.q.q.q.q.q.q.q.q.q.q.q.",
"q.q.q.q.q.q.q.q.q.q.9.9.4.4.4.4.8.8.4.4.1.3.3.3.3.%.-.-.3.3.4.4.4.4.4.4.*.3.*.3.q.q.q.0.0.1.w.4.0.0.q.q.q.q.q.q.q.q.q.q.q.q.q.q.",
"q.q.q.q.q.q.q.q.q.q.q.0.w.1.1.4.4.4.4.4.*.*.3.*.-.3.3.<.<.<.<.<.:.:.:.w.4.9.3.3.3.3.*.3.7.8.4.4.w.1.q.q.q.q.q.q.q.q.q.q.q.q.q.q.",
"q.q.q.q.q.q.q.q.q.q.0.0.w.1.0.w.w.1.4.4.*.*.*.*.*.3.<.@.} } } } } [ [ O.=.9.q.8.*.3.*.*.7.7.6.4.1.1.q.q.q.q.q.q.q.q.q.q.q.q.q.q.",
"q.q.q.q.q.q.q.q.q.q.0.0.0.0.1.0.6.6.*.3.*.4.*.1.<.:.#.` P S x x x S h G ( @.<.9.3.*.3.3.7.*.4.4.1.1.0.q.q.q.q.q.q.q.q.q.q.q.q.q.",
"q.q.q.q.q.q.q.q.q.q.9.8.q.q.4.4.6.6.w.w.4.4.=.@.#. .| T c > * - > > # k I } @.$.=.*.*.*.*.7.4.6.4.1.w.q.q.q.q.q.q.q.q.q.q.q.q.q.",
"q.q.q.q.q.q.q.q.q.8.8.8.8.q.*.3.4.:.<.w.q.w.@.~ L J C m 8 6 9 9 5 5 % 3 l H F G / :.9.4.4.4.&.1.w.<.3.0.3.3.3.3.3.3.3.3.3.q.q.q.",
"q.q.q.q.q.q.q.q.q.3.9.9.3.3.3.8.4.:.$.@.+. .} H d 1 r 0 5 0 q q 9 0 6 % % @ o u F { $.@.@.=.=.=.1.0.0.0.3.3.3.3.3.3.3.3.q.q.q.q.",
"q.q.q.q.q.q.q.q.q.q.8.3.3.3.3.3.:.:.#.~ P P Y n 2 ; 6 0 0 w w q 9 9 9 5 % = & , z U R ! ^ @.1.1.0.0.w.3.3.3.3.3.3.3.3.3.q.q.q.q.",
"q.q.q.q.q.q.q.q.q.q.q.q.3.3.3.3.<.:.#.J 4 4 r e 7 6 6 q 0 0 w q 0 5 0 9 0 0 ; : 2 1 i p D +.w.w.0.0.1.3.*.*.3.3.3.3.3.3.q.q.q.q.",
"q.q.q.q.q.q.q.q.q.q.q.q.w.4.4.<.<.$.| V & & % = 6 7 6 q w q q 7 q w w w q 9 5 ; & X . + Z +.w.1.0.,.4.4.8.3.3.3.3.3.3.3.q.q.q.q.",
"q.q.q.q.q.q.q.q.q.q.q.q.4.4.4.:.$.#.] B 6 6 6 6 6 8 6 q w q 6 w 6 w 6 w 9 q 6 6 7 : & , x } <.-.1.=.=.1.3.*.*.*.3.3.3.3.3.3.3.3.",
"q.q.q.q.q.q.q.q.q.q.3.1.w.4.4.:.#.` T m 6 7 6 6 6 7 8 8 w w w 8 8 8 w w q q q 7 ; 8 : < v R o.&.w.<.*.4.*.*.3.3.3.3.3.3.3.3.3.3.",
"q.q.q.q.q.q.q.q.q.q.q.w.4.4.4.$.| K c 8 5 6 7 7 7 8 8 w 8 8 8 w w w w w q q t w 8 w ; * < g Q O.<.w.w.4.*.3.*.*.3.3.3.3.3.3.3.3.",
"q.q.q.q.q.q.q.q.q.q.q.q.4.4.4.$._ B - 5 5 8 : 6 8 8 8 8 8 8 8 8 8 8 8 8 7 7 q t w 0 6 = &   h O.9.9.8.8.*.*.3.3.3.3.3.3.3.3.3.3.",
"q.q.q.q.q.q.q.q.q.q.q.q.4.<.$.#._ B 8 5 5 8 6 ; 8 8 6 8 w 8 7 w 8 8 7 7 7 q q q w 0 0 w : . g ) $.9.8.8.3.3.*.3.3.3.3.3.3.3.3.3.",
"q.q.q.q.q.q.q.q.q.q.q.q.w.$.#.| T m e 0 w 6 8 ; 8 8 8 8 7 8 8 8 8 w 7 7 7 7 q 7 0 0 w q 7 O k R } 9.8.8.*.*.q.3.3.3.3.3.3.3.3.3.",
"q.q.q.q.q.q.q.q.q.q.q.q.<.#.| U b e 6 9 w w w 8 8 8 8 w 6 8 w 8 8 6 6 7 t q 7 6 0 6 w q 7 & $ g G O.8.8.3.3.q.q.3.3.3.3.3.3.3.3.",
"q.q.q.q.q.q.q.q.q.q.q.q.<.#.' z * 8 5 9 w w 7 8 8 6 8 8 8 8 6 7 8 7 7 7 q 7 7 7 w w w q 7 : O + f X.3.8.3.8.q.q.3.3.3.3.3.3.3.3.",
"q.q.q.q.q.q.q.q.q.q.q.q.:. .W j - 8 q q q w 8 8 8 w 8 w 8 8 6 8 8 q 7 7 q q 7 7 8 8 w 6 7 ; O O g ( w.1.q.q.q.q.3.3.3.3.3.3.3.3.",
"q.q.q.q.q.q.q.q.q.q.q.q.:. ._ N - w w w w w w w 8 8 8 w w 6 w 8 t q 7 7 7 7 7 6 8 7 7 7 7 7 & O k ( w.<.q.q.3.3.3.3.3.3.3.3.3.3.",
"q.q.q.q.q.q.q.q.q.q.q.q.:. ._ N - 8 w w w w w w 8 8 8 6 7 8 8 8 q q q 7 7 7 7 6 8 7 8 7 7 ; : @ u ( 9.3.q.q.3.3.3.3.3.3.3.3.3.3.",
"q.q.q.q.q.q.q.q.q.q.3.3.<. .' N : w w q w w w 8 q q 8 8 7 q 8 7 7 7 7 7 7 7 7 7 7 7 t q 7 ; : O k / *.*.q.q.q.9.q.q.3.3.3.3.3.3.",
"q.q.q.q.q.q.q.q.q.q.3.3.:.#.' N : w q w 6 w 8 8 7 t 7 8 7 q t 7 7 7 7 7 7 7 8 8 q q ; q 7 7 : O f / 8.w.q.q.9.9.q.q.3.3.3.3.3.3.",
"q.q.q.q.q.q.q.q.q.q.1.3.:.#._ N = w q q q q 8 7 6 7 8 8 7 7 8 7 7 7 7 7 8 7 8 8 t q 7 7 7 ; : O s ( 8.8.q.q.9.9.q.q.3.3.3.3.3.3.",
"q.q.q.q.q.q.q.q.q.q.1.1.:. ._ N : w q q q w w w 7 7 8 7 7 7 8 8 q 7 7 7 8 8 8 8 8 7 7 8 7 ; : O s ( 9.9.q.q.9.9.q.q.3.3.3.3.3.3.",
"q.q.q.q.q.q.q.q.q.q.q.q.4. .W n = w q q w w w w 7 8 7 8 7 7 7 8 7 7 7 7 w q q q 7 7 8 8 7 t : O a ( 9.q.q.q.9.9.3.3.3.3.3.3.3.3.",
"q.q.q.q.q.q.q.q.q.q.q.q.$. .' n = w q q q w w w q 8 q t 7 7 7 7 7 7 7 7 8 t 7 7 7 7 8 8 7 : : O a ( 9.q.q.q.9.9.3.3.3.3.3.3.3.3.",
"q.q.q.q.q.q.q.q.q.q.q.q.:. ._ n = q 9 q q w 8 8 7 7 q 7 q 7 8 8 7 8 t q 8 8 7 7 7 7 8 8 7 ; : O a ( 9.9.q.q.q.9.3.3.3.3.3.3.3.3.",
"q.q.q.q.q.q.q.q.q.q.q.q.:.#.E n = q q 9 w w w w 7 7 7 7 q t 8 8 8 8 8 8 8 8 7 7 q q t 8 8 : : O a ( 9.9.q.q.q.q.3.3.3.3.3.3.3.3.",
"q.q.q.q.q.q.q.q.q.q.q.q.:. ._ n & 9 q 9 q q w w 7 7 7 8 8 8 8 8 8 8 8 t q 7 7 7 7 8 8 8 8 : : O s ( q.q.q.q.9.9.3.3.3.3.3.3.3.3.",
"q.q.q.q.q.q.q.q.q.q.q.q.,.#._ n = q 9 q q q w w 7 7 8 8 q t 8 7 8 7 q q 7 q 7 7 8 8 7 8 8 8 : O s X.9.q.q.q.9.9.3.3.3.3.3.3.3.3.",
"q.q.q.q.q.q.q.q.q.q.q.q.:. .E b = q 9 q w 8 w w q 7 7 7 q 7 7 7 7 7 7 7 8 t 8 8 7 7 8 t ; ; : O a X.q.q.q.q.9.9.3.3.3.3.3.3.3.3.",
"q.q.q.q.q.q.q.q.q.q.q.q.:. ._ b & 5 q 9 w w w 8 7 7 q 7 7 7 7 7 8 7 7 7 7 8 8 7 7 q 7 q 7 t : O s ( q.q.q.q.9.9.3.3.3.3.3.3.3.3.",
"q.q.q.q.q.q.q.q.q.q.q.q.<. ._ n = q 9 q w w w 8 q 7 7 7 q ; 7 q 8 8 7 7 8 8 7 7 7 7 7 7 7 ; : O a ( q.q.q.q.q.q.3.3.3.3.3.3.3.3.",
"q.q.q.q.q.q.q.q.q.q.q.q.:.#.W n = 9 q q w w 8 8 7 q 7 t q t 7 q 8 8 7 7 8 8 7 7 8 7 q 7 8 : : O a ( q.q.q.q.q.q.3.3.3.3.3.3.3.3.",
"q.q.q.q.q.q.q.q.q.q.1.1.<. .W n & 9 q q w w w 8 q 7 t 7 q 7 ; q 7 q q 7 8 t q 7 8 8 8 q 8 : : O s ( 9.q.q.q.9.9.3.3.3.3.3.3.3.3.",
"q.q.q.q.q.q.q.q.q.q.3.1.:. .W b = 6 q q w w w 8 q q ; 7 q 7 q t 8 t 7 7 8 8 q q 8 8 8 t 8 8 : O s X.9.q.q.q.9.8.3.3.3.3.3.3.3.3.",
"q.q.q.q.q.q.q.q.q.q.q.q.:. .W n = 5 q 9 q q 8 w 8 8 8 8 7 7 7 7 7 7 7 7 7 7 7 7 7 q 7 7 t : : O a ( 9.q.q.q.q.q.q.q.3.3.3.3.3.3.",
"q.q.q.q.q.q.q.q.q.q.q.q.:.#._ n & q q q 9 7 w 8 w 8 q t 7 7 7 7 7 7 7 7 7 7 7 7 7 7 7 7 q 8 : * s X.q.q.q.q.q.q.q.q.3.q.3.3.3.3.",
"q.q.q.q.q.q.q.q.q.q.q.q.:. .W j = q q 9 q 7 q 7 q ; q 7 q q 7 7 7 7 7 7 7 7 7 7 7 7 7 7 7 ; ; @ s ( 9.q.q.q.8.8.q.q.q.q.q.q.q.q.",
"q.q.q.q.q.q.q.q.q.q.q.q.:. .W b & q q q 7 7 6 q 7 t 7 7 ; ; t 7 7 7 q ; ; t 7 t ; t 7 t 8 ; : * s X.9.q.q.q.8.8.q.q.q.q.q.q.q.q.",
"q.q.q.q.q.q.q.q.q.q.q.3.:. .E j & q q 7 8 8 8 8 7 7 7 t ; 7 t 7 7 q ; 7 ; t 7 ; 7 7 ; t 8 : ; * s X.9.9.q.q.3.3.q.q.q.q.q.q.q.q.",
"q.q.q.q.q.q.q.q.q.q.q.3.:. .W N = 7 q 7 8 8 8 w t 7 7 ; 7 7 ; 7 t ; 7 7 8 7 7 7 7 7 q ; 8 ; ; , s ( 9.9.q.q.3.3.q.q.q.q.q.q.q.q.",
"q.q.q.q.q.q.q.q.q.q.3.3.<. .W j & q q 6 w w w w ; 7 7 7 7 7 ; 7 7 q 7 7 7 7 ; 7 7 7 7 7 w 8 8 * s ( 9.9.q.3.3.3.q.q.9.9.q.q.q.q.",
"q.q.q.q.q.q.q.q.q.q.3.1.:. .W n = q q 6 w w w w q 7 7 7 7 7 q 7 7 ; t 7 7 7 7 7 7 7 7 7 w 6 : > s ( 9.9.q.3.3.3.3.0.9.9.9.9.9.8.",
"q.q.q.q.q.q.q.q.q.q.q.q.:. .W b = 9 9 9 9 9 w w w 6 w w q 6 q q q q q 6 q w w w q q q 6 w w 6 * s ( 8.8.3.*.3.*.3.1.w.1.1.4.w.1.",
"q.q.q.q.q.q.q.q.q.q.q.q.<.#._ n = 9 9 9 9 9 9 9 w w w 0 q q q q q q 5 q w w w 6 q q q w w w 6 * s X.8.3.3.*.3.3.8.4.1.1.=.w.w.0.",
"q.q.q.q.q.q.q.q.q.q.q.q.<. ._ b = 9 9 9 9 9 q q w w q w q 9 q q q 7 7 q q 0 q q q q q q 6 w 6 > s ( 3.3.*.3.*.3.9.1.0.1.w.4.1.1.",
"q.q.q.q.q.q.q.q.q.q.q.q.:.#._ b ; q q 9 9 9 q q w q q w q w q q q q q q q q q w q q q q q w 5 * s ( 3.3.*.*.3.3.9.w.0.w.0.=.w.1.",
"q.q.q.q.q.q.q.q.3.3.3.3.>. .E b = q q q q q q q q q q q q q q q q q q q q q q q q q q q q q 5 2 s ( 9.9.%.3.*.3.8.w.1.w.w.1.<.1.",
"q.q.q.q.q.q.q.q.3.3.3.3.>.| W b 5 q q q q q t q q q q t t q q q q q t q q q t q q t q q q q 6 * s ( 9.q.3.*.*.3.8.4.=.*.1.1.4.1.",
"3.3.3.3.q.q.3.3.3.3.3.3.:.| W M 5 5 q q q q w t t 8 q q q q q t q q q q t q q q w q t 7 q q 6 > a ( 9.9.*.*.3.3.q.3.3.3.1.3.w.1.",
"%.%.%.%.%.%.%.%.%.%.*.7.7.#.] j * = = = ; 7 - ; = ; ; 7 : : ; ; ; ; : 6 = : ; ; : ; = - : > @ o y ..*.3.%.%.*.%.%.%.%.-.*.%.3.-."
};
