/* XPM */
static char *result[] = {
/* columns rows colors chars-per-pixel */
"64 64 209 2 ",
"   c #020101",
".  c #0C0201",
"X  c #0E0A05",
"o  c #110100",
"O  c #160B04",
"+  c #1C0A04",
"@  c #1A130B",
"#  c #1A1408",
"$  c #240D05",
"%  c #330806",
"&  c #251508",
"*  c #301D0A",
"=  c #251D12",
"-  c #2A1A11",
";  c #351C11",
":  c #38280F",
">  c #242012",
",  c #490C0A",
"<  c #5C0D06",
"1  c #5D0E0C",
"2  c #5A120C",
"3  c #5E1312",
"4  c #610D06",
"5  c #630F0A",
"6  c #65110B",
"7  c #6A140C",
"8  c #67180F",
"9  c #6D180D",
"0  c #711D0F",
"q  c #641211",
"w  c #6A1411",
"e  c #651813",
"r  c #691912",
"t  c #731E11",
"y  c #462D17",
"u  c #4A331B",
"i  c #6E261B",
"p  c #772214",
"a  c #782314",
"s  c #76291A",
"d  c #6E2120",
"f  c #6E2B2C",
"g  c #732D26",
"h  c #5F4726",
"j  c #634324",
"k  c #774A29",
"l  c #64552A",
"z  c #6C572C",
"x  c #6B5E37",
"c  c #7C5932",
"v  c #74653F",
"b  c #852E1E",
"n  c #84301C",
"m  c #893C28",
"M  c #913D25",
"N  c #923B29",
"B  c #823C34",
"V  c #824B2F",
"C  c #964727",
"Z  c #994624",
"A  c #9B462E",
"S  c #9D4A2B",
"D  c #9A4A34",
"F  c #825731",
"G  c #8D5A33",
"H  c #925D34",
"J  c #A34D2E",
"K  c #A5522E",
"L  c #AF5F2F",
"P  c #A65433",
"I  c #AA5732",
"U  c #AE5E31",
"Y  c #AF573B",
"T  c #AD593C",
"R  c #B05D31",
"E  c #B35F3B",
"W  c #89663F",
"Q  c #926134",
"!  c #996737",
"~  c #93753E",
"^  c #9E703E",
"/  c #AF602F",
"(  c #AF6031",
")  c #A66E3A",
"_  c #BB6936",
"`  c #B6673A",
"'  c #BB693A",
"]  c #AB773F",
"[  c #B6773A",
"{  c #C2713E",
"}  c #874E4D",
"|  c #944F45",
" . c #8B524C",
".. c #985648",
"X. c #8C5352",
"o. c #A55A41",
"O. c #8B6741",
"+. c #9F6E45",
"@. c #8F7A43",
"#. c #9B7043",
"$. c #A86447",
"%. c #BE6B43",
"&. c #A77648",
"*. c #BD7847",
"=. c #AD745C",
"-. c #B77558",
";. c #A86D68",
":. c #C56F48",
">. c #C47142",
",. c #CE7E46",
"<. c #CE7E48",
"1. c #D07E47",
"2. c #D07D48",
"3. c #B6873F",
"4. c #A68944",
"5. c #B08B4F",
"6. c #B59646",
"7. c #A6925B",
"8. c #BBA059",
"9. c #A79660",
"0. c #B8A461",
"q. c #C8864A",
"w. c #D3834B",
"e. c #DD8D4E",
"r. c #C49F4E",
"t. c #DB924E",
"y. c #D39C4E",
"u. c #DF994F",
"i. c #C28855",
"p. c #DD8E52",
"a. c #C9915B",
"s. c #D69554",
"d. c #DB9353",
"f. c #DD9A55",
"g. c #DD9B5A",
"h. c #E5974F",
"j. c #E8964F",
"k. c #E4984F",
"l. c #E08E56",
"z. c #E08E59",
"x. c #E49652",
"c. c #E89653",
"v. c #E49851",
"b. c #E89852",
"n. c #E49359",
"m. c #E9975A",
"M. c #E29E5D",
"N. c #CAAA53",
"B. c #DDA352",
"V. c #DDAA56",
"C. c #E4A453",
"Z. c #E9A051",
"A. c #E3AA56",
"S. c #E2A05E",
"D. c #E5AA5A",
"F. c #E4BD5C",
"G. c #E9B85B",
"H. c #CE9369",
"J. c #E19C60",
"K. c #DBA567",
"L. c #DCBF64",
"P. c #E4A060",
"I. c #E4BD62",
"U. c #E4AD76",
"Y. c #E8B07A",
"T. c #DEC15D",
"R. c #E4C15E",
"E. c #E8C05D",
"W. c #DEC061",
"Q. c #E3C366",
"!. c #BE8582",
"~. c #B58E8D",
"^. c #B68F91",
"/. c #B09595",
"(. c #B39498",
"). c #C38A85",
"_. c #CE9C81",
"`. c #C5978D",
"'. c #C59191",
"]. c #C79D98",
"[. c #D2A29E",
"{. c #E5B083",
"}. c #E5B986",
"|. c #EBBB84",
" X c #E6BE89",
".X c #E9BC8B",
"XX c #EBB891",
"oX c #EBC185",
"OX c #E6C390",
"+X c #F3C695",
"@X c #F1CB97",
"#X c #F2CC9B",
"$X c #EEC4A7",
"%X c #F3C8A5",
"&X c #F5D7AD",
"*X c #F6D6AC",
"=X c #F3D8AD",
"-X c #E6C8BB",
";X c #F5D7B1",
":X c #F3D8B0",
">X c #F9D8B1",
",X c #E6CDCA",
"<X c #F6E5D2",
"1X c #F7EEED",
"2X c #F8EBE8",
"3X c #FEF3E1",
"4X c #FFF9F2",
"5X c #FFF7FB",
"6X c #FDFCFB",
/* pixels */
"6 6 q 6 6 7 w 6 6 q w 5 5 6 6 6 7 5 7 5 6 6 6 6 6 6 6 6 5 q 5 5 5 q 6 w 5 6 6 6 6 6 6 6 6 6 6 6 6 6 6 6 6 6 6 6 6 6 7 4 7 4 4 < ",
"6 5 q q 6 6 6 6 5 5 5 5 5 5 6 6 5 5 5 5 6 6 6 6 6 6 6 6 5 7 5 7 6 5 6 w 5 6 6 6 6 6 4 6 6 6 6 6 6 6 4 1 5 < 5 5 7 4 4 4 4 7 6 6 ",
"5 6 5 w 7 6 6 0 t a a a a a t a a a p a a t n t t a t t p p p p t a a t t b t a a a a a p p p p a a a a a p a a a a a a 0 6 6 4 ",
"6 6 6 6 6 6 6 K w.2.w.w.2.w.w.w.w.w.w.w.w.w.1.1.w.w.w.w.w.w.w.w.w.w.w.w.2.w.w.w.w.w.w.w.w.w.w.w.w.w.w.w.w.w.w.w.w.w.w.w./ 9 6 6 ",
"6 6 w 6 6 6 6 L m.c.c.c.m.c.c.c.c.v.v.j.j.b.x.c.b.b.c.c.b.v.v.c.v.c.v.v.b.x.c.v.v.v.v.v.v.v.v.b.v.v.c.c.v.v.v.x.v.b.v.b._ 7 6 6 ",
"6 6 w 6 6 6 6 R v.v.v.x.c.x.v.v.c.b.b.b.k.b.b.c.b.c.c.c.b.c.v.v.c.v.c.v.c.j.b.v.v.k.v.v.v.v.v.x.v.v.v.v.v.v.x.x.x.x.v.v._ 7 6 2 ",
"6 7 w 6 6 6 6 R v.v.x.k.x.k.v.p.,.2.2.2.1.1.2.2.2.2.2.2.w.,.,.<.w.,.,.,.,.,.,.w.,.,.,.,.w.,.1.1.<.<.<.<.p.x.x.x.v.x.v.v._ 7 6 6 ",
"6 6 6 6 6 6 6 R v.v.x.v.x.x.n.E p t t t t t t t t t t t p t r p p r 0 p 0 0 0 0 t t t t t t t t t p t 0 I n.x.x.v.x.k.k._ 8 6 6 ",
"6 6 7 6 6 5 7 R v.v.x.x.v.k.c.T 6 6 6 q 5 6 6 5 6 6 6 5 6 6 5 7 6 4 6 4 5 5 5 q 5 5 5 5 5 6 6 6 6 5 6 5 P n.x.x.x.x.k.b._ 7 6 6 ",
"6 7 7 6 6 5 7 L v.n.v.x.x.k.c.T 6 6 6 6 5 6 5 5 5 5 5 4 5 5 5 q 6 6 6 1 4 4 5 5 5 4 5 5 5 7 5 5 5 5 5 < D n.x.x.x.v.x.b._ 7 6 6 ",
"6 6 w 6 w 6 6 R c.v.v.v.k.k.x.T 6 6 q t b b b b b b b b b m n s 2 , , , i n n n n n b b n n b g B B V B $.v.v.v.v.x.k.v._ 7 6 q ",
"6 7 6 6 w w 7 R v.v.v.v.x.k.c.T 6 6 6 N 2.z.z.l.p.e.p.e.e.l.l.-.; o o & &.s.t.t.e.e.x.e.e.p.l.s.{.$X$X$X{.g.f.v.v.x.x.b._ 7 q 5 ",
"5 6 6 7 7 7 7 R x.k.k.v.k.k.x.Y 5 5 6 N d.x.v.v.v.v.v.x.v.x.v.i.-     & &.v.u.k.k.v.k.k.j.v.v.g.}.*X>X>X}.s.k.v.v.b.v.v._ 8 6 6 ",
"5 6 6 6 1 1 4 L x.v.v.v.x.k.x.Y 7 5 6 N d.x.x.v.v.v.x.v.k.f.v.5.-   . @ &.f.u.k.v.k.v.k.v.v.v.g.}.*X&X*X}.f.f.k.v.x.x.b._ 6 6 6 ",
"6 6 6 B } }  .*.x.k.x.k.x.k.c.T 6 7 5 N z.n.x.x.v.v.x.v.C.B.A.7.-     @ 5.D.B.C.v.k.k.k.k.k.v.f.}.=X&X*X}.f.v.k.k.x.v.v.` 7 6 6 ",
"6 6 w '.2X3X<XY.f.v.k.k.x.k.c.T 6 7 5 N l.c.v.x.v.v.v.C.G.F.F.8.=     @ 7.L.F.G.C.k.c.k.v.v.v.f. X=X*X*X}.f.f.x.k.k.v.v._ 7 5 6 ",
"6 5 q [.5X4X3XoXk.k.v.v.v.k.n.T 7 6 4 N n.k.x.x.v.v.v.C.G.G.R.8.>     @ 7.Q.R.G.Z.k.v.k.f.v.v.f. X=X=X*X}.g.x.x.f.k.x.c._ 7 6 6 ",
"6 5 w [.4X4X3XoXf.x.v.k.x.k.c.T 6 6 6 N d.k.v.v.v.k.v.A.G.E.R.0.>     @ 9.Q.R.F.Z.v.b.v.k.v.v.f. X=X=X*X}.v.v.v.k.k.k.k._ 7 6 6 ",
"6 5 q ;.].(.`.K.u.k.k.v.k.k.c.T 6 6 6 N x.k.v.i.! H Q Q ~ ~ ~ v @     X x @.@.#.! Q H Q q.f.v.f.}.=X=X=X}.f.v.v.x.k.x.c._ 7 6 6 ",
"q 6 6 q e 3 8 U x.v.v.v.k.k.n.T 6 6 1 M l.k.v.&.& o . O . .   X               . . . . O O.f.v.n.}.=X=X=X}.s.k.k.k.x.k.x._ 7 5 6 ",
"5 6 6 q 7 7 7 U v.v.v.k.v.k.c.T 5 7 5 N l.k.v.&.+                                     X O.g.v.f.oX=X=X=X}.y.k.x.k.k.k.v._ 7 6 6 ",
"5 w w 5 7 w 7 U v.k.v.v.v.v.n.T 5 6 5 N n.k.x.+.+ .                                   . W B.v.f. X=X=X:X}.s.k.k.x.c.k.b._ 9 6 5 ",
"5 w 6 w 5 q 7 U v.v.x.k.k.k.n.T 7 5 5 N l.x.x.*.j j f u X                     . y h h j &.k.x.g. X=X=X:X}.f.k.k.k.x.k.c._ 7 7 5 ",
"5 5 7 5 7 6 7 L k.v.k.v.v.k.c.T 5 q 5 N n.x.x.f.g.g.s.=.@ X                   O ^ f.f.s.t.k.k.v. X=X=X=X}.f.k.k.x.k.x.x._ 9 5 5 ",
"q 6 6 w 6 6 7 / j.k.k.k.k.k.c.T 7 5 5 N n.k.h.k.k.k.k.[ $               X     # ) v.k.u.u.x.x.f. X=X=X;X}.f.k.k.x.k.x.x._ 7 6 6 ",
"5 6 6 6 6 6 6 R j.j.v.k.k.k.c.T 5 q 5 N l.k.k.k.u.k.k.[ $                     + ) c.C.u.f.v.x.f..X;X=X:X}.g.v.k.c.x.x.x._ 7 6 6 ",
"5 6 6 7 6 6 4 L j.x.v.k.v.k.v.Y 5 q 5 N p.k.k.k.A.A.A.3.&     O l x z l #     + ] D.D.A.B.v.x.f.<.;.=.=.$.P K K { x.x.c._ 7 6 5 ",
"6 6 7 7 6 4 7 L v.k.v.v.v.v.v.Y 6 q 5 N h.k.k.B.G.E.R.6.#     * 8.T.R.N.:     O 4.I.G.F.V.f.v.n.A 3 6 5 5 7 6 6 Z x.x.c._ 7 6 6 ",
"4 6 6 6 6 6 7 L k.v.v.k.v.k.x.Y 6 w 5 N l.k.u.B.F.F.R.6.#     > 6.R.T.N.:     O 4.R.F.F.V.f.x.n.A 6 6 7 5 7 5 6 Z j.j.c._ 7 4 7 ",
"6 6 7 6 6 6 7 L j.v.v.k.k.k.c.Y 6 6 5 N l.k.k.B.L.T.W.5.& o . * r.F.F.N.y . . $ 4.I.R.I.V.v.x.f.D 1 6 6 7 6 6 < Z l.x.l.' 7 5 5 ",
"6 6 7 6 6 4 6 L v.k.v.k.v.k.c.Y 6 6 6 N x.k.u.5.z l l l c F F Q y.A.V.B.! F c c z l l l k S S D ;.^./.~./.~.~.~.-.A S J m 5 5 7 ",
"6 6 6 6 6 6 6 L k.k.v.k.k.k.c.Y 6 6 5 N l.h.f.#.O     ; i.S.f.k.k.k.k.k.k.v.f.a.y       % 2 1 3 (.6X5X6X5X5X5X4X'.5 5 5 5 7 5 5 ",
"6 7 6 6 7 5 7 L x.k.x.k.k.k.c.Y 7 6 6 N d.k.g.#.+     ; i.v.k.k.k.k.k.k.k.k.v.a.y       % 3 q 3 (.6X6X6X6X6X6X6X^.q 5 6 6 w 5 5 ",
"5 6 6 6 6 5 5 / k.k.k.k.k.c.c.E 6 7 4 N x.k.f.#.$ . o : i.v.v.v.v.v.v.k.k.k.c.a.y o . o % 3 q q /.6X6X6X6X6X6X6X'.q q 5 6 5 5 5 ",
"5 6 6 6 6 5 6 / v.v.x.k.j.j.c.Y 7 5 6 N x.v.v.q.H G G ^ y.v.v.k.k.k.v.k.k.v.c.s.) H G G i 4 w 3 /.4X6X6X6X6X6X6X'.q 5 5 6 5 7 5 ",
"6 6 6 6 6 6 6 / v.k.k.x.k.j.c.o.7 5 4 N n.v.x.x.v.v.k.f.v.k.k.x.v.v.k.k.v.v.v.c.x.v.x.n.M 5 5 q /.6X6X6X6X6X6X6X'.w 5 q 6 5 7 5 ",
"4 6 4 7 6 6 6 L v.v.k.v.k.j.c.Y q 7 4 N n.k.k.x.v.v.v.k.k.v.v.x.x.x.k.x.v.x.x.x.x.x.k.d.C 1 6 3 /.6X6X6X6X6X6X6X'.7 5 5 5 6 6 6 ",
"6 6 6 6 6 6 7 L k.v.v.k.c.k.c.o.5 5 5 N l.k.x.k.x.v.k.x.k.j.k.x.x.k.x.k.x.x.x.x.x.x.j.h.M 7 7 3 ~.1X1X1X1X1X1X1X).9 7 7 7 6 6 6 ",
"4 7 6 6 6 6 7 / v.v.v.k.v.x.c.T 7 6 5 N x.k.x.k.k.x.k.k.k.k.v.k.k.v.x.x.x.x.x.x.x.v.k.k.{ [ :.%...}  . .X.X.X. .o.%.>.%.J 7 5 6 ",
"4 6 6 6 6 6 7 ( v.v.v.k.v.v.c.T 5 6 6 N n.b.k.v.v.v.k.k.k.k.v.v.x.k.x.x.x.x.x.x.v.v.k.k.b.c.n.m.D < 1 5 6 4 1 < Z n.c.c.' 7 6 6 ",
"7 6 5 q 5 6 7 R v.v.v.v.k.k.c.T 7 4 5 N n.j.k.k.x.k.v.v.k.k.k.v.k.v.v.k.x.x.v.x.k.x.v.k.k.x.x.d.A 4 5 7 6 6 6 1 Z h.v.x.' 7 7 6 ",
"6 7 7 5 w 5 6 R n.v.v.v.j.k.b.T 7 5 5 N n.k.x.k.k.v.v.k.k.k.k.x.v.k.k.x.k.v.k.v.v.k.k.v.k.x.k.x.D 8 r r 9 8 8 8 Z x.x.c._ 7 6 6 ",
"5 7 6 7 w 5 7 U v.v.v.v.k.j.v.T 5 5 5 N n.b.k.k.k.v.k.v.k.k.k.k.x.k.v.v.x.k.k.v.k.v.v.x.k.v.k.g.H._._._.i.%.%.>.w.d.x.b._ 7 6 6 ",
"5 6 6 7 q q 7 R v.v.v.v.j.b.b.T 7 5 5 N x.j.j.x.v.k.x.k.x.k.k.k.k.v.v.k.v.k.v.v.v.v.k.k.x.k.x.g.+X>X>X>X.Xg.v.c.k.k.x.v._ 9 6 6 ",
"5 5 5 5 6 w 6 Y c.v.v.v.j.j.c.Y 7 6 4 N l.j.k.x.k.x.k.x.x.k.k.v.v.k.x.v.k.v.x.k.v.k.v.v.k.x.v.g..X*X*X*X}.f.k.f.k.k.k.c.{ 7 4 4 ",
"6 w 6 6 6 q 7 R v.v.v.v.j.j.c.Y 6 5 4 N n.k.j.k.j.x.x.k.k.k.k.v.v.k.k.k.k.v.k.v.k.x.k.v.k.v.g.g..X*X*X*X Xf.k.k.k.c.k.j._ 7 6 6 ",
"6 6 6 7 w w 7 R v.v.x.k.j.j.c.Y 6 6 4 N n.b.k.x.x.k.x.k.k.v.v.v.v.k.k.k.v.x.k.v.v.v.x.v.v.v.v.g..X*X>X*X}.s.k.k.k.x.k.j._ 7 6 7 ",
"5 7 w 6 6 w 7 R v.v.v.j.j.j.c.Y 6 6 4 N x.x.j.x.x.x.k.k.k.f.x.v.k.k.k.x.v.k.v.k.v.k.k.k.v.v.v.g.OX*X&X*X}.f.k.x.k.x.k.j._ 9 6 4 ",
"6 6 6 6 3 5 5 U x.x.k.x.k.k.x.Y 6 6 5 M p.x.x.x.v.k.k.k.v.v.k.v.k.k.k.f.x.x.k.x.k.k.v.v.x.x.f.K..X*X*X*X}.s.k.k.v.v.k.b._ 7 6 6 ",
"5 7 6 d f f g ` v.v.v.x.x.k.x.Y 6 5 5 N J.J.J.J.S.S.S.S.S.S.S.V.S.S.S.D.S.S.M.M.S.S.S.S.M.V.K.K.OX*X&X*X|.f.k.v.v.k.x.b._ 7 6 6 ",
"6 w w !.,X,X-XY.f.v.v.v.k.j.c.Y 5 q 1 D XX#X#X#X#X#X@X@X#X#X#X#X@X@X#X#X@X#X#X#X#X#X#X#X#X#X#X#X=X=X&X*X}.s.k.f.v.v.k.v._ 7 6 5 ",
"6 6 w [.4X4X3X|.v.v.v.v.k.k.n.T 5 3 1 | %X>X*X*X:X:X:X:X=X=X=X&X=X=X=X=X:X&X=X=X=X>X:X&X:X*X&X&X=X=X*X*X}.f.f.v.k.v.v.v._ 7 6 6 ",
"6 5 w [.4X4X3X|.v.x.x.k.x.x.c.Y 7 5 < | %X;X>X;X:X:X;X:X:X;X;X:X=X=X:X:X:X=X=X;X=X=X=X=X&X=X=X=X=X=X*X*X|.f.x.x.x.k.k.b._ 9 5 6 ",
"6 6 w ).,X,X-XU.u.k.k.x.k.k.c.` s s s ) XX#X#X#X#X#X#X#X#X#X#X#X#X@X#X#X#X#X#X#X@X@X#X@X@X@X@X@X@X@X@X+XY.g.f.x.k.x.k.v._ 7 5 6 ",
"5 6 6 d f f g ` x.x.k.x.k.h.k.p.w.w.w.d.J.P.M.S.P.P.P.S.M.S.S.J.S.P.P.P.P.K.P.J.J.V.P.S.M.M.S.M.B.S.V.J.g.u.k.x.v.x.x.b._ 7 6 6 ",
"5 6 6 5 1 5 5 U x.k.k.x.k.k.k.x.c.c.v.v.k.k.k.k.v.v.v.v.x.v.v.v.v.v.v.v.v.v.v.v.v.v.v.v.v.k.k.k.v.v.x.n.v.k.k.k.x.x.v.b._ 7 6 5 ",
"4 6 7 6 7 6 7 R x.k.k.x.x.k.j.k.x.v.k.v.x.k.k.j.k.k.k.k.k.k.k.k.k.v.k.k.x.k.k.k.k.k.k.x.k.k.k.v.k.v.k.x.k.k.k.v.x.v.x.c.` 7 6 6 ",
"6 6 6 6 6 6 6 R c.k.x.x.k.k.k.k.k.k.k.v.x.k.k.j.k.x.v.k.x.v.v.k.v.k.k.k.k.j.k.x.x.k.x.k.x.x.x.x.x.x.k.k.x.k.v.x.x.x.x.v.' 8 1 6 ",
"4 6 6 6 6 6 6 R c.k.x.x.k.k.h.k.k.k.k.x.x.c.k.x.x.k.v.x.k.v.j.v.k.k.v.v.x.k.k.c.c.k.c.j.k.x.k.k.v.v.k.d.x.k.x.c.v.v.x.c._ 8 6 6 ",
"4 6 6 6 6 6 6 R x.c.x.x.x.k.j.k.c.k.k.j.k.k.x.k.k.c.j.k.k.j.j.b.v.v.v.v.x.x.k.k.k.k.k.j.x.k.x.x.x.x.x.k.x.k.x.k.x.x.k.c.' 8 6 1 ",
"4 6 6 6 6 7 7 Y m.c.c.b.c.c.b.b.j.j.b.b.b.j.j.j.c.c.b.j.j.j.b.b.b.b.j.j.c.b.b.b.b.b.b.b.b.b.v.b.v.v.v.v.x.c.k.b.c.c.n.m.' 8 6 6 ",
"6 6 6 6 6 6 7 A :.:.>.{ { >.>.>.{ { >.>.>.>.>.{ >.>.>.>.{ { { >.>.{ >.{ { >.>.>.>.{ { >.>.>.>.{ >.>.{ >.{ >.{ >.>.>.:.>.J 7 5 6 ",
"7 7 6 6 6 6 7 9 0 9 7 9 9 9 9 9 7 9 9 9 0 9 0 9 9 9 0 9 9 9 9 9 0 7 0 9 0 7 9 9 7 9 9 9 0 9 9 9 9 9 9 9 9 9 9 9 r r 9 9 7 6 6 6 ",
"7 6 6 6 7 6 6 6 6 6 6 6 6 6 6 6 6 7 6 6 6 6 4 6 6 6 6 6 6 6 6 5 6 6 4 6 5 5 5 7 7 5 7 6 6 6 6 6 6 6 6 6 6 6 6 5 7 7 6 7 6 6 6 6 "
};
