/* XPM */
static char *result[] = {
/* columns rows colors chars-per-pixel */
"64 64 170 2 ",
"   c #010101",
".  c #0C0B02",
"X  c #07080A",
"o  c #0C0C0C",
"O  c #130F00",
"+  c #11100F",
"@  c #0F0F11",
"#  c #09151F",
"$  c #131313",
"%  c #181610",
"&  c #17181A",
"*  c #1A1A1A",
"=  c #241D00",
"-  c #201F18",
";  c #272000",
":  c #2A2300",
">  c #2B260E",
",  c #362B00",
"<  c #32320A",
"1  c #3E3401",
"2  c #2E2914",
"3  c #312E1C",
"4  c #3E3613",
"5  c #383319",
"6  c #19252E",
"7  c #232324",
"8  c #2D2D2D",
"9  c #2C2C22",
"0  c #333125",
"q  c #323029",
"w  c #353535",
"e  c #383837",
"r  c #393A3A",
"t  c #413500",
"y  c #4C3E03",
"u  c #403814",
"i  c #483F14",
"p  c #4F4000",
"a  c #49440A",
"s  c #574801",
"d  c #5B4B00",
"f  c #5D4E0A",
"g  c #534400",
"h  c #4C4D11",
"j  c #625101",
"k  c #6A5600",
"l  c #6D5A02",
"z  c #766001",
"x  c #7A6401",
"c  c #676210",
"v  c #696918",
"b  c #766A16",
"n  c #4D4626",
"m  c #434239",
"M  c #71673A",
"N  c #414141",
"B  c #4D4D4D",
"V  c #4F4F53",
"C  c #4C535B",
"Z  c #535353",
"A  c #5B5B51",
"S  c #515258",
"D  c #56615F",
"F  c #6B6340",
"G  c #7E7740",
"H  c #656650",
"J  c #836B00",
"K  c #886F01",
"L  c #8F7500",
"P  c #887608",
"I  c #907600",
"U  c #937900",
"Y  c #857E15",
"T  c #8A7A2F",
"R  c #9E8100",
"E  c #8B8B1E",
"W  c #90841D",
"Q  c #AA8B00",
"!  c #A38500",
"~  c #B49300",
"^  c #B99700",
"/  c #BD9C02",
"(  c #B0980A",
")  c #A09718",
"_  c #B1A518",
"`  c #8D892D",
"'  c #96982E",
"]  c #A19027",
"[  c #C19E00",
"{  c #C5A200",
"}  c #CAA500",
"|  c #CDA901",
" . c #C4A90B",
".. c #CAAF0B",
"X. c #D4AD00",
"o. c #D6B101",
"O. c #D9B504",
"+. c #D3B50A",
"@. c #DBBD0B",
"#. c #C6B112",
"$. c #CDB915",
"%. c #D0BE18",
"&. c #DEC511",
"*. c #D3C21A",
"=. c #DAC91C",
"-. c #E0C611",
";. c #E3CD17",
":. c #E3CE18",
">. c #E6D41D",
",. c #E8D71E",
"<. c #E8D51B",
"1. c #C4C42A",
"2. c #C8C733",
"3. c #D4D53D",
"4. c #EADC22",
"5. c #E2DB28",
"6. c #EDE52A",
"7. c #EEE529",
"8. c #F2EB2D",
"9. c #F0E325",
"0. c #EDEC34",
"q. c #E5E53A",
"w. c #E6E83B",
"e. c #F3EF30",
"r. c #EFF13A",
"t. c #F7F736",
"y. c #F8F736",
"u. c #F7F836",
"i. c #F9F936",
"p. c #F7F63A",
"a. c #FAFB38",
"s. c #8F834B",
"d. c #9C9D47",
"f. c #9D915A",
"g. c #AFAF42",
"h. c #AFB043",
"j. c #A2BA5F",
"k. c #8FA867",
"l. c #8BAB70",
"z. c #A1BB62",
"x. c #CABB68",
"c. c #A9C060",
"v. c #D1CC4B",
"b. c #C8D64F",
"n. c #CFDB4B",
"m. c #D1DC4A",
"M. c #FAF44D",
"N. c #FAF741",
"B. c #FBF451",
"V. c #FAF15A",
"C. c #C1CE7F",
"Z. c #FBF062",
"A. c #FDED77",
"S. c #39678D",
"D. c #356A95",
"F. c #356D9B",
"G. c #447997",
"H. c #437796",
"J. c #4D8091",
"K. c #6A89A0",
"L. c #779EBE",
"P. c #B2B2B2",
"I. c #FFEA86",
"U. c #FFEA88",
"Y. c #F2E6AF",
"T. c #FFF3BC",
"R. c #CACACB",
"E. c #E3E3E4",
"W. c white",
"Q. c None",
/* pixels */
"Q.Q.Q.Q.Q.Q.Q.Q.Q.Q.Q.Q.Q.Q.Q.Q.Q.Q.Q.Q.Q.Q.Q.Q.Q.Q.Q.Z Z e         e Z Z Q.Q.Q.Q.Q.Q.Q.Q.Q.Q.Q.Q.Q.Q.Q.Q.Q.Q.Q.Q.Q.Q.Q.Q.Q.Q.Q.",
"Q.Q.Q.Q.Q.Q.Q.Q.Q.Q.Q.Q.Q.Q.Q.Q.Q.Q.Q.Q.Q.Q.Q.Q.Q.Q.Q.Z Z e         e Z V Q.Q.Q.Q.Q.Q.Q.Q.Q.Q.Q.Q.Q.Q.Q.Q.Q.Q.Q.Q.Q.Q.Q.Q.Q.Q.Q.",
"Q.Q.Q.Q.Q.Q.Q.Q.Q.Q.Q.Q.Q.Q.Q.Q.Q.Q.Q.Q.Q.Q.Q.Q.Q.Z Z 8 & u I I U U u & 8 Z Z Q.Q.Q.Q.Q.Q.Q.Q.Q.Q.Q.Q.Q.Q.Q.Q.Q.Q.Q.Q.Q.Q.Q.Q.Q.",
"Q.Q.Q.Q.Q.Q.Q.Q.Q.Q.Q.Q.Q.Q.Q.Q.Q.Q.Q.Q.Q.Q.Q.Q.Q.Z Z 7   t X.X.o.X.t   7 Z Z Q.Q.Q.Q.Q.Q.Q.Q.Q.Q.Q.Q.Q.Q.Q.Q.Q.Q.Q.Q.Q.Q.Q.Q.Q.",
"Q.Q.Q.Q.Q.Q.Q.Q.Q.Q.Q.Q.Q.Q.Q.Q.Q.Q.Q.Q.Q.Q.Q.Q.Q.w 8 a f P ;.;.:.;.P d i 8 w Q.Q.Q.Q.Q.Q.Q.Q.Q.Q.Q.Q.Q.Q.Q.Q.Q.Q.Q.Q.Q.Q.Q.Q.Q.",
"Q.Q.Q.Q.Q.Q.Q.Q.Q.Q.Q.Q.Q.Q.Q.Q.Q.Q.Q.Q.Q.Q.Q.Z B @   x X.&.t.u.u.i.-.X.x   @ B Z Q.Q.Q.Q.Q.Q.Q.Q.Q.Q.Q.Q.Q.Q.Q.Q.Q.Q.Q.Q.Q.Q.Q.",
"Q.Q.Q.Q.Q.Q.Q.Q.Q.Q.Q.Q.Q.Q.Q.Q.Q.Q.Q.Q.Q.Q.Q.N r > = P @.:.y.t.t.t.:.@.P = > r N Q.Q.Q.Q.Q.Q.Q.Q.Q.Q.Q.Q.Q.Q.Q.Q.Q.Q.Q.Q.Q.Q.Q.",
"Q.Q.Q.Q.Q.Q.Q.Q.Q.Q.Q.Q.Q.Q.Q.Q.Q.Q.Q.Q.Q.Z N o . L Q *.i.t.y.t.t.t.t.t.=.Q L . X N Z Q.Q.Q.Q.Q.Q.Q.Q.Q.Q.Q.Q.Q.Q.Q.Q.Q.Q.Q.Q.Q.",
"Q.Q.Q.Q.Q.Q.Q.Q.Q.Q.Q.Q.Q.Q.Q.Q.Q.Q.Q.Q.Q.Z N   . L ^ =.a.t.t.t.t.i.t.t.=.^ L .   N Z Q.Q.Q.Q.Q.Q.Q.Q.Q.Q.Q.Q.Q.Q.Q.Q.Q.Q.Q.Q.Q.",
"Q.Q.Q.Q.Q.Q.Q.Q.Q.Q.Q.Q.Q.Q.Q.Q.Q.Q.Q.Q.Q.Z N X . ! X.:.t.t.t.t.t.t.t.t.>.X.! .   N S Q.Q.Q.Q.Q.Q.Q.Q.Q.Q.Q.Q.Q.Q.Q.Q.Q.Q.Q.Q.Q.",
"Q.Q.Q.Q.Q.Q.Q.Q.Q.Q.Q.Q.Q.Q.Q.Q.Q.Q.Q.Q.Q.Z N     Q X.4.t.t.t.t.u.u.t.t.,.X.! X X N Z Q.Q.Q.Q.Q.Q.Q.Q.Q.Q.Q.Q.Q.Q.Q.Q.Q.Q.Q.Q.Q.",
"Q.Q.Q.Q.Q.Q.Q.Q.Q.Q.Q.Q.Q.Q.Q.Q.Q.Q.Q.Q.Q.7 3 j l %.4.8.a.t.t.t.t.u.u.a.8.,.%.l j 3 7 Q.Q.Q.Q.Q.Q.Q.Q.Q.Q.Q.Q.Q.Q.Q.Q.Q.Q.Q.Q.Q.",
"Q.Q.Q.Q.Q.Q.Q.Q.Q.Q.Q.Q.Q.Q.Q.Q.Q.Q.Q.Q.Q.  = Q / 6.p.u.t.t.t.t.t.p.t.t.t.a.6./ Q =   Q.Q.Q.Q.Q.Q.Q.Q.Q.Q.Q.Q.Q.Q.Q.Q.Q.Q.Q.Q.Q.",
"Q.Q.Q.Q.Q.Q.Q.Q.Q.Q.Q.Q.Q.Q.Q.Q.Q.Q.Q.Q.&   ; ~ [ 6.u.u.t.t.t.t.t.t.i.t.t.t.6.{ ~ ;   & Q.Q.Q.Q.Q.Q.Q.Q.Q.Q.Q.Q.Q.Q.Q.Q.Q.Q.Q.Q.",
"Q.Q.Q.Q.Q.Q.Q.Q.Q.Q.Q.Q.Q.Q.Q.Q.Q.Q.Z Z 8   : } o.7.u.u.t.t.t.t.t.t.t.t.t.u.6.o.{ :   8 Z V Q.Q.Q.Q.Q.Q.Q.Q.Q.Q.Q.Q.Q.Q.Q.Q.Q.Q.",
"Q.Q.Q.Q.Q.Q.Q.Q.Q.Q.Q.Q.Q.Q.Q.Q.Q.Q.B B q O 1 | @.0.u.u.t.t.t.t.t.t.t.t.t.u.8.@.| 1 O q B B Q.Q.Q.Q.Q.Q.Q.Q.Q.Q.Q.Q.Q.Q.Q.Q.Q.Q.",
"Q.Q.Q.Q.Q.Q.Q.Q.Q.Q.Q.Q.Q.Q.Q.Q.Q.Q.X X y R ( 6.e.t.t.t.u.t.t.t.t.t.t.t.u.t.t.e.8.( U y X X Q.Q.Q.Q.Q.Q.Q.Q.Q.Q.Q.Q.Q.Q.Q.Q.Q.Q.",
"Q.Q.Q.Q.Q.Q.Q.Q.Q.Q.Q.Q.Q.Q.Q.Q.Q.Q.    p ^  .t.u.t.t.t.t.t.t.t.t.t.t.t.t.t.t.u.e. ./ g     Q.Q.Q.Q.Q.Q.Q.Q.Q.Q.Q.Q.Q.Q.Q.Q.Q.Q.",
"Q.Q.Q.Q.Q.Q.Q.Q.Q.Z Z 7                 s } +.t.t.u.t.t.u.u.t.t.t.t.u.t.t.t.t.t.t.+.} s                 7 Z Z Q.Q.Q.Q.Q.Q.Q.Q.Q.",
"Q.Q.Q.Q.Q.Q.Q.Q.Q.Z Z 7                 s X.@.e.t.t.t.t.t.t.t.t.t.t.t.t.t.u.t.t.t.@.X.s                 7 Z Z Q.Q.Q.Q.Q.Q.Q.Q.Q.",
"Q.Q.Q.Q.Q.Q.Q.Q.Q.8 8 4 y g d d d d c v ) :.,.t.t.i.t.t.t.t.t.t.t.t.t.t.t.t.t.t.t.>.;.) v c d d d d g y u 8 8 Q.Q.Q.Q.Q.Q.Q.Q.Q.",
"Q.Q.Z Z 8             j ^ [ X.X.X.o.9.i.i.i.t.t.t.t.t.t.t.t.i.t.t.t.t.t.t.t.t.t.t.t.t.i.i.9.o.X.o.X./ ~ j             w Z Z Q.Q.",
"Q.Q.N N 0 = = : : < < P  ...@.@.@.&.7.t.t.t.t.t.t.t.t.t.t.t.t.t.t.t.t.t.i.t.t.t.t.t.t.t.t.7.@.@.@.@... .P < < : ; ; = q N N Q.Q.",
"Z Z *   y Q ~ } } 5.0.0.e.t.t.t.8.t.t.t.t.t.t.t.t.t.t.t.t.t.t.t.t.t.t.t.t.t.t.t.t.t.t.t.t.t.e.t.t.t.e.t.e.0.5.} { ~ Q p   * Z Z ",
"V B - . g ^ / o.+.8.t.t.t.t.u.t.i.t.t.t.t.t.i.t.t.t.t.t.t.t.p.p.p.p.t.t.t.t.t.t.t.t.t.t.t.t.p.t.t.t.t.t.t.t.8.O.o./ ^ g . - B V ",
"$ + x ! #.6.6.8.8.t.t.t.t.u.t.t.i.t.t.t.t.t.t.t.t.t.t.t.t.M.A.A.A.A.M.t.t.t.t.t.y.y.t.t.t.y.t.i.u.t.t.t.t.t.t.8.6.6.6.#.! x $ $ ",
"    U o.<.i.u.u.u.t.t.t.t.t.t.t.t.t.t.t.u.u.t.t.i.i.i.i.t.M.U.U.U.U.B.t.t.t.i.i.i.y.i.i.t.t.t.t.t.t.t.t.t.t.i.t.a.u.a.<.o.U     ",
"    J { *.u.t.t.t.t.t.t.t.t.t.t.t.t.t.t.i.i.3.g.d.k.l.b.t.B.U.U.U.U.B.i.b.l.k.d.d.q.i.i.t.t.t.t.t.t.t.t.t.t.t.u.u.t.t.*.{ J     ",
"    x ^ %.i.t.t.t.t.t.t.t.t.i.t.t.t.t.t.t.i.3.A C S.F.z.t.M.I.U.U.I.M.i.z.F.S.C A m.i.y.t.t.t.t.t.t.t.t.t.t.t.t.t.t.a.*.^ J     ",
"* * f x _ i.t.t.u.t.u.t.u.t.t.t.t.t.t.t.N.M.v.m r K.L.C.M.Z.I.U.I.I.Z.M.C.L.K.r m v.M.p.u.u.t.u.u.t.u.t.t.t.t.t.t.t.i._ x f * & ",
"Z B *   b u.t.u.u.i.t.t.t.t.t.t.t.t.t.t.V.U.x.o @ R.W.T.I.I.U.U.U.U.I.I.T.W.R.@ . x.U.V.t.t.t.t.t.t.t.t.t.t.t.u.u.i.u.v   * Z Z ",
"Z Z *   v q.q.e.8.t.t.t.t.t.u.t.i.t.t.t.V.A.x.o o P.E.Y.I.U.U.U.U.U.U.U.Y.E.P.o o x.A.V.t.t.t.u.t.t.t.i.t.t.t.e.e.q.q.c   * B Z ",
"Q.Q.    9 H G +.@.8.i.t.t.t.t.t.t.u.t.u.u.N.2..   & - f.U.U.U.U.U.U.U.U.f.* &   O 2.N.u.u.u.t.t.t.t.t.t.t.t.8.@.+.G H 9     Q.Q.",
"Q.Q.    7 V F | X.7.t.t.t.t.t.t.t.t.t.t.u.u.1.O       s.U.I.U.U.U.I.U.U.s.      . 1.a.u.u.u.t.t.t.t.t.t.t.i.7.o.} F V 7     Q.Q.",
"Q.Q.r r 8 & 4 ~ [ @.&.&.&.,.t.t.t.u.u.u.u.u.1.O       ` B.Z.I.U.U.I.Z.M.`       . 1.i.i.p.t.t.t.t.t.>.&.-.-.@./ ~ 4 & 8 r r Q.Q.",
"Q.Q.Z Z 8   = Q ^ } X.X.X.&.t.i.t.t.u.u.u.a.1..       E a.B.I.U.U.I.B.i.E       . 1.i.i.t.t.t.t.i.t.&.X.X.X.} ^ Q =   8 Z Z Q.Q.",
"Q.Q.Q.Z r 7 3 j k ~ { } X.@.,.4.t.t.t.t.t.i.2.0 7 .   ` i.M.I.U.U.I.M.i.E   X 7 9 2.a.i.t.t.t.t.4.>.@.X.| } ~ k j 3 7 r Z Q.Q.Q.",
"Q.Q.Q.Q.Q.Z N   . L ^ } X.X.X.O.8.t.t.t.u.i.3.A B o   E i.M.U.U.U.U.M.i.E   o B A 3.i.i.t.t.t.e.O.X.X.X.{ ^ I .   N Z Q.Q.Q.Q.Q.",
"Q.Q.Q.Q.Q.Z N $ $ z L ~ | | X.O.e.u.t.t.t.u.3.D C 6 # ' i.M.A.A.A.A.M.i.' # 6 C A m.i.t.t.t.u.e.O.X.| | ~ L l + & N Z Q.Q.Q.Q.Q.",
"Q.Q.Q.Q.Q.Q.Q.B B $ . k ^ [ X.@.e.t.t.u.u.u.n.H.D.D.D.j.t.p.p.p.p.u.t.i.j.D.D.F.H.m.i.t.t.t.i.8.O.X.[ ^ k . % B B Q.Q.Q.Q.Q.Q.Q.",
"Q.Q.Q.Q.Q.Q.Q.Z B $ X j Q ^ X.+.8.i.t.t.t.i.m.G.H.G.G.j.t.t.t.t.u.u.u.i.z.G.G.G.J.n.i.t.u.t.t.e.O.X.^ Q j X $ B Z Q.Q.Q.Q.Q.Q.Q.",
"Q.Q.Q.Q.Q.Q.Q.Q.Q.N N 3 = s X.+.e.u.t.t.t.i.t.m.n.n.n.N.t.t.t.t.u.u.t.i.w.n.m.m.m.p.t.t.t.t.t.e.+.X.s = 3 N N Q.Q.Q.Q.Q.Q.Q.Q.Q.",
"Q.Q.Q.Q.Q.Q.Q.Q.Q.Z Z 7   t X.o.e.t.t.t.t.t.i.i.i.i.i.i.t.t.t.t.t.i.t.t.i.i.i.i.i.i.t.t.t.t.t.8.@.X.t   7 Z Z Q.Q.Q.Q.Q.Q.Q.Q.Q.",
"Q.Q.Q.Q.Q.Q.Q.Q.Q.Z Z 7   a >.4.t.t.t.t.t.t.t.t.t.t.t.t.t.t.t.t.t.t.t.t.t.t.t.t.t.t.t.t.t.t.t.t.4.>.a   7 Z Z Q.Q.Q.Q.Q.Q.Q.Q.Q.",
"Q.Q.Q.Q.Q.Q.Q.Q.Q.Z Z 7   h t.u.t.t.t.i.t.t.t.t.t.t.t.t.t.t.t.t.t.t.t.t.t.t.t.t.t.t.u.t.t.t.t.t.t.t.a   7 Z Z Q.Q.Q.Q.Q.Q.Q.Q.Q.",
"Q.Q.Q.Q.Q.Q.Q.Q.Q.r r 5 , b t.t.t.t.t.t.t.i.t.t.t.t.t.t.t.t.t.p.t.t.p.t.t.t.t.t.t.t.t.t.t.u.u.i.t.t.b , 5 e r Q.Q.Q.Q.Q.Q.Q.Q.Q.",
"Q.Q.Q.Q.Q.Q.Q.Q.Q.    j ~ #.t.t.t.t.t.t.t.t.t.t.t.t.t.t.t.t.t.t.t.t.t.t.i.t.t.t.t.t.t.t.t.t.t.t.t.t.#.~ j     Q.Q.Q.Q.Q.Q.Q.Q.Q.",
"Q.Q.Q.Q.Q.Q.Q.Q.Q.    k ^ #.t.t.t.t.t.t.t.t.t.t.t.i.t.t.t.t.t.u.t.u.u.t.t.t.t.t.t.t.t.t.u.t.u.t.t.t.$.^ k     Q.Q.Q.Q.Q.Q.Q.Q.Q.",
"Q.Q.Q.Q.Q.Q.Q.Q.Q.    z X.&.t.t.t.t.t.t.t.t.t.t.t.t.t.t.t.t.u.t.t.t.t.t.t.t.t.t.t.t.t.p.t.t.t.t.t.t.&.| z     Q.Q.Q.Q.Q.Q.Q.Q.Q.",
"Q.Q.Q.Q.Q.Q.Q.Q.Q.    z o.-.t.t.t.t.t.i.t.t.t.t.t.i.t.u.t.u.t.i.t.i.t.p.t.t.t.t.t.t.t.t.t.t.t.t.t.t.-.X.x     Q.Q.Q.Q.Q.Q.Q.Q.Q.",
"Q.Q.Q.Q.Q.Q.Q.Z B o   Y 9.7.t.t.t.t.t.u.t.t.t.t.t.t.t.t.u.u.t.i.t.t.u.u.t.u.t.t.t.t.i.t.u.t.t.t.t.t.7.9.Y   o B Z Q.Q.Q.Q.Q.Q.Q.",
"Q.Q.Q.Q.Q.Q.Q.Z V +   E a.t.t.t.p.t.y.t.t.t.t.t.t.t.t.t.t.u.i.i.t.t.t.u.u.u.t.t.t.t.t.u.t.t.t.t.t.i.i.a.E   $ B Z Q.Q.Q.Q.Q.Q.Q.",
"Q.Q.Q.Q.Q.Q.Q.8 w 7 7 ' i.i.t.t.t.t.t.t.t.t.t.p.u.4.,.,.,.,.,.,.4.,.,.,.4.>.4.t.t.t.t.t.t.t.i.t.u.t.i.i.' 7 7 8 8 Q.Q.Q.Q.Q.Q.Q.",
"Q.Q.Q.Q.Q.Q.Q.    N Z g.i.i.t.t.u.t.u.t.y.t.t.t.p.@.X.X.X.X.X.X.X.X.X.X.X.X.@.t.i.t.t.t.t.t.t.t.t.t.i.i.h.Z N X   Q.Q.Q.Q.Q.Q.Q.",
"Q.Q.Q.Q.Q.Q.Q.  X N Z g.i.t.t.u.t.t.t.t.t.t.t.8.7.@.X.X.} [ Q Q ! Q [ X.X.X.@.7.6.t.t.t.t.t.t.y.t.t.t.i.h.Z N     Q.Q.Q.Q.Q.Q.Q.",
"Q.Q.Q.Q.Q.Q.Q.  . N Z h.i.t.t.t.t.t.t.t.t.i.8.O.o.X.X.{ ^ J . . . . J ^ { X.X.o.O.8.t.t.t.t.t.t.t.u.t.i.h.Z N X   Q.Q.Q.Q.Q.Q.Q.",
"Q.Q.Q.Q.Q.Q.Q.    N Z g.a.t.t.t.t.t.t.e.t.t.9.X.X.} } ~ Q l . X   . x Q ^ } } X.X.7.t.t.e.y.t.t.i.t.u.i.g.Z N     Q.Q.Q.Q.Q.Q.Q.",
"Q.Q.Q.Q.Q.Q.Q.    N Z g.t.t.t.t.t.t.:.@.@.@.+.[ ~ y : : = > N N N N 2 = = : y ~ / +.@.@.@.:.t.i.t.t.u.i.g.V N .   Q.Q.Q.Q.Q.Q.Q.",
"Q.Q.Q.Q.Q.Q.Q.  X N Z g.a.u.a.u.i.t.-.X.X.X.| ^ Q =       * Z Z V Z &       = Q ^ X.X.X.X.-.i.i.u.u.u.i.g.Z N X   Q.Q.Q.Q.Q.Q.Q.",
"Q.Q.Q.Q.Q.Q.Q.8 8 7 7 W :.:.:.;.*.%.] T b d d y y q 8 - Q.Q.Q.Q.Q.Q.Q.Q.* 8 0 y y d d b T ] %.%.:.:.:.:.W 7 7 8 8 Q.Q.Q.Q.Q.Q.Q.",
"Q.Q.Q.Q.Q.Q.Q.Z Z o   x o.X.o.X./ ~ M S 8         N S Q.Q.Q.Q.Q.Q.Q.Q.Q.Q.Z N X       8 S M ~ ^ X.X.o.O.x   o Z Z Q.Q.Q.Q.Q.Q.Q.",
"Q.Q.Q.Q.Q.Q.Q.Z B 7 & f U U U I x x n e 8 & &     N Z Q.Q.Q.Q.Q.Q.Q.Q.Q.Q.Z N     $ & 8 e n x J L L U U f & 7 B Z Q.Q.Q.Q.Q.Q.Q.",
"Q.Q.Q.Q.Q.Q.Q.Q.Q.Z Z 7                 7 Z Z Q.Q.Q.Q.Q.Q.Q.Q.Q.Q.Q.Q.Q.Q.Q.Q.Q.Q.Z Z 7                 7 Z Z Q.Q.Q.Q.Q.Q.Q.Q.Q.",
"Q.Q.Q.Q.Q.Q.Q.Q.Q.Z Z 7                 7 Z Z Q.Q.Q.Q.Q.Q.Q.Q.Q.Q.Q.Q.Q.Q.Q.Q.Q.Q.Z Z 7                 7 Z Z Q.Q.Q.Q.Q.Q.Q.Q.Q."
};
