/* XPM */
static char *d6a1744afc004982f1c4407b91bbc18cOBpGOkZA3plhRFAu[] = {
/* columns rows colors chars-per-pixel */
"64 64 67 1 ",
"  c #6C774B",
". c #6E7B4B",
"X c #71774C",
"o c #727C4D",
"O c #7E7B51",
"+ c #827C53",
"@ c #8A7E57",
"# c #8E7F58",
"$ c #947F5A",
"% c #76824E",
"& c #78804F",
"* c #7B8551",
"= c #7D8952",
"- c #818353",
"; c #838D54",
": c #888F56",
"> c #8E8058",
", c #94805A",
"< c #9B845D",
"1 c #9C865E",
"2 c #9E865F",
"3 c #9F885F",
"4 c #849054",
"5 c #869055",
"6 c #869155",
"7 c #879255",
"8 c #889356",
"9 c #899356",
"0 c #8A9357",
"q c #899457",
"w c #8B9457",
"e c #8C9557",
"r c #8B9458",
"t c #8D9458",
"y c #8D9658",
"u c #8D9758",
"i c #8F9759",
"p c #8F9859",
"a c #91985A",
"s c #939B5B",
"d c #949B5B",
"f c #949C5B",
"g c #949B5C",
"h c #969C5C",
"j c #979E5D",
"k c #989E5D",
"l c #999F5E",
"z c #99A05E",
"x c #9CA25F",
"c c #9DA35F",
"v c #A08660",
"b c #A38761",
"n c #A28861",
"m c #A48B62",
"M c #A58B62",
"N c #A58C62",
"B c #A58D62",
"V c #A78C62",
"C c #A78E63",
"Z c #A88F63",
"A c #A98F63",
"S c #A99063",
"D c #A99064",
"F c #AB9264",
"G c #9EA360",
"H c #9EA460",
"J c #9FA460",
/* pixels */
"6666666666666666666666666666666666666666666666666666666666666666",
"6666666666666666666666666666666666666666666666666666666666666666",
"6666666666666666666666666666666666666666666666666666666666666666",
"6666666666666666666666666666666666666666666666666666666666666666",
"6666666666666666666666666666666666666666666666666666666666666666",
"6666666666666666666666666666666666666666666666666666666666666666",
"6666666666666666666666666666666666666666666666666666666666666666",
"6666666666666666666666666666666666666666666666666666666666666666",
"6666666666666666666666666666666666666666666666666666666666666666",
"6666666666666666666666666666666666666666666666666666666666666666",
"6666666666666666666666666666666666666666666666666666666666666666",
"6666666666666666666666666666666666666666666666666666666666666666",
"6666666666666666666666666666666666666666666666666666666666666666",
"6666666666666666666666666666666666666666666666666666666666666666",
"666666666666666666666666666669y99666rq96666666666666666666666666",
"666666666666666666666666666669ss06;9ssq9666666666666666666666666",
"666666666666666666666qq6666qqskj6;6yfzs6666666666666666666666666",
"666666666666666666669ygy646rsjkf**9dzjy9666666666666666666666666",
"6666666666666666666;9szdr46rjzzy%%9xzz96;699qq996666666666666666",
"666666666666666666669skks;*;fGxy%oexJk6%%6qsssy96666666666666666",
"666666666666666699966sjzk;o*pgg8%O6sss=.%6sfzkfe6666666666666666",
"66666666666666qpdgy9qsxJk;o.===*-+===*% =sjzxxke6666666666666666",
"66666666666666ejkzkeqyjkg;o  . O#$Oo.X..;kzzkjsq6666666666666666",
"66666666666666ekxxjjy6;;;-++O++@12#O+OX.;kJxs;;;6666666666666666",
"66666666666666qfkxkGs;o.o+$$$$$vnN2,$$Oo;szz9*%;9666666666666666",
"666666666666666;9gzJj=  O#2bvvbmSSNnbv>+-;;;;=;ry666666666666666",
"66666666666666=%*ekGg=oO$2mFCFCCFFNNFN2,+o.o=ejjfe66666666666666",
"666666666666qy9==;9q;*O#2mFFFFFFFFFFFFN2#O. *scJzse9666666666666",
"666666666666yfjgt*oo%+$2NFFFAFFFFZNFFFAN3,O.*dzzzkfe666666666666",
"66666666666yszGGd%  O,2NFFAFFFCFCFFFAFFFN3>+*9qssfsq666666666666",
"6666666666yfjzGGy* O#2NFAAFFFFFFFFFAFSFNSN3,+O*6eqq6666666666666",
"6666666666yssyyy:*O$vNFFFFFACFCFCFFSFFFFZN2,+&*6eqq9666666666666",
"6666666666996%%%*>#vCFFFFFAFFAAFFFFFCDDDmb@O*9ygkks0666666666666",
"666666666699;%o%O+,vCCFFCZFFFFFFCFFFFZDDv<+ *gxxkksy666666666666",
"6666666666ysdeqq;*+$vCFFFFFAFAFAFCFFFFFF2$O.*gGxksr9666666666666",
"6666666666ejkzzxr%.+$vCCCFFNFFFAFFFCCCFFb<@O*tssy966666666666666",
"66666666669yfzJJg%  O$vCFFCFFFFFFBmvbvCFAm<#+=*==;66666666666666",
"666666666666qfkky*o.O+,vZFCFAAAACB<,$$vCAAb$+%.o%;96666666666666",
"666666666666qy6;;=::;*+#vCFZb2bbm<@OO+,vbb,+-;;;6ysq666666666666",
"66666666666669=%%qGzs=o+,vCM<$$$,#O..o+,1$+X*szkkkgy666666666666",
"66666666666666;;:gJGj= o+,3,+++O+*-;*4=+++X *dGGzjpr666666666666",
"66666666666666qsjzjJs*. X+,@o..o.o0ljf=o....=ykzjy66666666666666",
"66666666666666rjHGjjg6===---;==%.otGJz= o===;;9sp6;6666666666666",
"66666666666666rjGjjr8rgzs;O&ejj9%%0lxz=.=ygs9%%;q666666666666666",
"666666666666669ssss96fzJz;o*fcxs=*rzzu;*0kGzy*%;6666666666666666",
"6666666666666669qq668fzzz;%%fxzs:;gjg86;ykGzj6;;6666666666666666",
"666666666666666666669szjd;%;fzfsrrpg86;8ygkks9666666666666666666",
"6666666666666666666;9fjje;;qkfpq:qqr866690sks9666666666666666666",
"666666666666666666666sde966essq;6666666666edsq666666666666666666",
"6666666666666666666669q9669qqq666666666666qqq6666666666666666666",
"666666666666666666666666;966666666666666666666666666666666666666",
"6666666666666666666666669;9;666666666666666666666666666666666666",
"6666666666666666666666666966666666666666666666666666666666666666",
"6666666666666666666666669;66666666666666666666666666666666666666",
"6666666666666666666666666966666666666666666666666666666666666666",
"6666666666666666666666669;66666666666666666666666666666666666666",
"6666666666666666666666666666666666666666666666666666666666666666",
"6666666666666666666666666666666666666666666666666666666666666666",
"6666666666666666666666666666666666666666666666666666666666666666",
"6666666666666666666666666666666666666666666666666666666666666666",
"6666666666666666666666666666666666666666666666666666666666666666",
"6666666666666666666666666666666666666666666666666666666666666666",
"6666666666666666666666666666666666666666666666666666666666666666",
"6666666666666666666666666666666666666666666666666666666666666666"
};
