/* XPM */
static char *_18e0a8215644f748864103bd698c02aQyFXGABCU6qmrRHS[] = {
/* columns rows colors chars-per-pixel */
"64 64 56 1 ",
"  c #F6D9AE",
". c #F8DBAD",
"X c #EFDAB5",
"o c #EFDDBE",
"O c #F4DAB4",
"+ c #F8DBB4",
"@ c #F4DCBB",
"# c #F8DBBA",
"$ c #F4E0BF",
"% c #EEDDC3",
"& c #ECDECB",
"* c #F2DEC3",
"= c #F8DDC1",
"- c #F2DECA",
"; c #EBDED4",
": c #ECE2C7",
"> c #EEE3CC",
", c #EEE8CE",
"< c #F4E1C4",
"1 c #F9E2C4",
"2 c #F4E2CC",
"3 c #F9E4CB",
"4 c #F7E8CE",
"5 c #FAE9CF",
"6 c #EDE3D5",
"7 c #EFE9D3",
"8 c #EDE3DA",
"9 c #EFE9DD",
"0 c #F4E4D3",
"q c #F9E6D2",
"w c #F6E9D4",
"e c #FAEBD6",
"r c #F3E6DA",
"t c #F5E9DC",
"y c #FAECDC",
"u c #FCF0D7",
"i c #F7F2DF",
"p c #FCF0DC",
"a c #EBE5E1",
"s c #EEE9E4",
"d c #F5E6E2",
"f c #F5ECE4",
"g c #FAEEE3",
"h c #F4EEEB",
"j c #F9EEE8",
"k c #F6F0E6",
"l c #FCF3E4",
"z c #FEF9E6",
"x c #F6F2EB",
"c c #FCF4EC",
"v c #FEF9ED",
"b c #F6F3F4",
"n c #FCF6F3",
"m c #FEF9F5",
"M c #FDF7F8",
"N c #FDFBFC",
/* pixels */
"NNNNNNNNNNNNNMNNNNNNNNNmNNNNNNNNNNNNNNNNNNNNNNNNNNNNNNNNNNNNNNNN",
"NNNNNNNNNNNNMNMNNMMNMNNNNNNNNNNNNNNNNNNNNNNNNNNNNNNNNNNNNNNNNNNb",
"NNNNNNNNNNMnhMMNNNNNNNNNNNNNNNNNNNNNNNNNNNNNNNNNNNNNNbhhbNNNNNNN",
"NNNNNNmmmmndadnMmNNNNmNNNNNNNNNNNNNNNNNNNNNNNNNNNNNNNhaahNNNNNNN",
"NNNNnvxcjjdr;dnMNNNNmNmNNNNNNNNNNNNNNNNNNNNNNNnnbxxvlt;;cmNNNNNN",
"NNmvkr7200-&-djnmNmmNNNNNNNNNNNNNNNNNNNNNNNmmxfrr4220-&;cmNNNNNN",
"Nmmxr::$@@@o*3ycvvmmmNNNNNNNNNNNNNNNNNNNNNNNnj0&o@@$@@*-zmmmmNNN",
"NNvze4$#OOO#@*3eiklmNNNNNNNNNNNNNNNNNNNNNNNNmxt3<OO#++@=eyylkbmm",
"NNmzie1#O   O#*%>69vNNmNNNNNNNNNNNNNNNNNNNNNmnlp1$$O. OO$<:>8fmN",
"NNmvzu3@+    +X*:79xmNNNNNNNNNNNNNNNNNNNNNNNmnnl5+......O@o:7xmm",
"Nmmzzp1@O    O@%4tzmNNNNNNNNNNNNNNbNNbNNNbNNNncz5+O.....$X<ulvmN",
"Nmmvzu$@O    X@-wlvmNNNNNNNNNNNNNNNNNNNNNNNNNmcp5+O..... $4zmmmN",
"NNvzi5$OO  OO#=0gvnmNNNNNNNNNNNNNNNNbNNNNNNbNble1$..+..$<2evmNNN",
"NNvi0%@OOOXOX-egznmNNNNNNNNNNNbNNNNNNNNNNNNNNxt2$#O+++#1ezvmmmNm",
"NNnk6&%*o@*o*qlcnmmNNNNNNNNNNNNNbNNNNNNNNNNNNxt0>*$#@@#3pzmmmmmN",
"NNNnhddrrrw-%-ygcmNNNNNNNNNNNNNNNNNNNNNbNNNNNmxxfyww3<*-eizvmmmm",
"NNNNNNNNNnzw:%&6tnNNNNNNNNNNNNNNNNNNNNNNNNNNNNNNMmmvzw::::tvmmmm",
"NNNNNNNNNNml7,6rgnNNNNNNNNNNNNNNNbNNbNNNNNNNNNNNNNNNvi77,,ivmmmN",
"NNNNNNNNNNNNnxccnNNNNNNNNNNNNNNNNNNNNNNbNNNNNNNNNNNNmvkzzzxmmmmN",
"NNNNNNNNNNNNNNNNNNNNNNNNNNNNNNNNNNNNNNNNNNNNNNNNNNNNNNmmmNmNNNmN",
"NNNNNNNNNNNNNNNNNNNNNNNNNNNNNNNNNNbNNNNNNNNNNNNNNNNNNNNNNNmNNmNN",
"NNNNNNNNNNNNNNNNNNNNNNNNNNNNNNNNNNNNNNNNNNNNNNNNNNNNNNNNNNNNNNNN",
"NNNNNNNNNNNNNNNNNNNNNNNNNNNNNNNNNNNNNNNNNNNNNNNNNNNNNNNNNNNNmNNN",
"NNNNNNNNNNNNNNNNNNNNNNNNNMNNmNNNbbsbNNNNbNNNNNNNNNNNNNNNNNNNNNNN",
"NNNNNNNNNNNNNNNNNNNNNNNNNnNmmmmnsa8jNNNNNNNNNNNNNNNNNNNNNNNNNNNN",
"NNNNNNNNNNNNNNNNNNNNNNNmnnccllll9:0jnNNMNNNNNNNNNNNNNNNNNNNNNNNN",
"NNNNNNNNNNNNNNNNNNNNNNNmctqq2<<<::<lnNmNNNNNNNNNNbNNNNNNNNNNNNNN",
"NNNNNNNNNNNNNNNNNNNNNNNng0&%XXXOXX<yvnmnNNNNNNNNNNbNNNNNNNNNNNNN",
"NNNNNNNNNNNNNNNNNNNNmNNmct0**@XO#+1quplcbNNNNNbNNNNNNNNNNNNNNNNN",
"NNNNNNNNNNNNNNNNNNNNNNNNncy3<@XOO+$=1<6rxNNNNNNNNNNNNNNNNNNNNNNN",
"NNNNNNNNNNNNNNNNNNmNNNNNmcl3*@OOO+@#@*;rxNNNNNNNNNNbNNNNNNNNNNbN",
"NNNNNNNNNNNNNNNNNNNNNNNmmnlq*o@XO##=*0ylbNNNNNNNNNNNNNNNNNNNNNNN",
"NNNNNNNNNNNNbNNNNNNmNNNNmvl2%XXOO#*=-rcnNNmNNNNNNNNNNNNNNNNNNNNN",
"NNNNbNNNNNNNNNNNNNNNNNNNnvy2@OO O#=-rgnmNNNNNNNNNNNNbNNNNNNNbNNN",
"NNNNNNNNNNNNNNNNNNNNmNNmcp3<XO XO@<qgcmNNNNNNNNNNNNNNNNNNNNNbNNN",
"NNNNNNNNNNNNNNNNNNNNNNmmlw:oooO$@@2ylcnNNNNNNNNNNNNNNNNNbNNNNNNN",
"NNNNNNNNNNNNNNNNNNNNmNNmxgtw,4452%-wgcnNNNNNNNNNNNNNNNNNNNbNNNNN",
"NNbNNNNbNNNNNNNNNmNNNNNNNmmnNbmxy&&;6dmNNNNNNNNNNNNNNNNNNNNNNNNN",
"NNNNNNbNNNNNNNNNNNNNNNmNNNNNNNNbh8;;8fmNNNNNNNNNNNNNNNNNNNNNNNNN",
"NNNNNNNNNNNNNNNNNNmNNNNNNNNNNNNNnhhjfcNNNNbNNNNNNNNNNNNNNNNNNNNb",
"NNNNNNNNNNNNNNNNNNNNNNNNbNNNNNNNNMMMbNNNNNNNNNNNNNNNNNNNNNNNNNNN",
"NNNbNNNNNNNNNNNNNNNNNNNNNNNNNNNNNNNNNNNNNNNNNNNNNNNNNNNNNbNNNbNN",
"NNNNNNNNNNNNNNNNNNNNNNNNNNNNNNbNNNNNNNNNNNNNNNNNNNNNNNNNNNNNbNNN",
"NNNNNNNNNNNNNNNNNNNNNNNNNNNbNNNNNNNNNbNNNNNNNNNNNNmNNNmNNNNNNNNN",
"NNNNNNNNNNNbbbMNNNNNNNNNNNNNNNNNNNNNNbNbNNNbNNNNNNNNmmbbbNNNNNNN",
"NNNNNNbNNNnjasnMMNNMNNNNNNNNNbNNNNNNNNNNNNNNNNNNNmmmmkssbbNNNNNN",
"NNNmmnbmcvxt;8nMNMNNNNNNNNNNbNNbNNNNNNNNbNNNNNbvnvvvzs69bbNNNNNN",
"NMmxgtt7wwe-&0jnMNNMNNNNNbNbNNNNNNNNNNNNNNNNbbs9wwww6>>7xNNbNNNN",
"NMnj0-*%*@<*%2lnnMNMNNNNNNNNNbNbNbNbNNNNNNNNnf6%:oo%**%;gnNNNNNN",
"NMnjyq==$##@$<ellxcnNNNNNNNNNNNNNNNNNNNNNNNNNj02o@@@@=*-egjcnMNN",
"NNMnce==##O+#@#<%&8bnNMNNNNNNbNNNbNNNbNNNNNmnnle-@+@OO@o*->6fcNN",
"NNMMng-##.++.OOo%&;jNNNNNNNNNNbNNNbNNNNNNNNNNncl3#+++OO@@%%69xmn",
"MNNMny-=++++OOO:-rjnMNNNNNNNNNNbNNNbNNNNNNNNNnvzq#@OO OX@o2qjcNM",
"NNNncl-###++#O@<qcnNNNMNNNbNNNNNbNNNNNNbNNNNNmcz3*OOOOO@X*qlcmMN",
"NMNnce-=##OO@@*2gnNNMNMNNNNNNNNbNbNbNNNNNNNNNnle<@+@OOO@*qycmmNM",
"NNmceq==##@#@=elnMMNMNNNNNNNNNNNNNNNNNNNNNNNNct2*@++O+O*eycnnNNN",
"NNng0=@#++##=-ynmmNNNNNNNNNNbNbNNbbNNbNNNNNNNx8>o#+#@##<eznmNNNM",
"NNncrq-1===#*=elcnmNnNNNNbNbNNNNNNNNNNbNNNNNNbf0q221<=-2elcnmNNN",
"NNMnnnclggyq%%*0ycnMNNNNNNNNNNbNNNNbNbNNNNNNNmmvxcclle0-0rdnNNNN",
"mNNNNMNnMncy&&:0ynNNMNNNNNNNNbNNNbNNNNNNNNNNNNNNNmmmclr668jnMNNN",
"NNNNNMNNNMMjdftjcnNNNNNNNNNNbNNNbNNNNNNNNNNNNNNNNNNNmcxjhjnnMNNN",
"NNmNNNNNNNNMMnnNNNNNNNNNNNNbNNNbNNNNNNNNNNNNNNNNNNNNNNNNNmMNNNNN",
"NNNNNNMNNNNNNNNNNNNNNNNNNNNNNNbNNNNbNNNbNNNNNNNNNNNNNNNmNNNNNNNN",
"NNNNNNNNNNNNNNNNNNNNNNNbNNNNNNNNNbNNNNNNNNNNNNNNNNNNNNNNNNNNNNNN"
};
