/* XPM */
static char *_a029c3c563c4e198b1fe7a13ca54fe28YmEBwBddNcefcfd[] = {
/* columns rows colors chars-per-pixel */
"64 64 92 1 ",
"  c #677A43",
". c #6C7C45",
"X c #727B47",
"o c #757B49",
"O c #7C7B4B",
"+ c #847C4E",
"@ c #897D4F",
"# c #8C7D50",
"$ c #937E53",
"% c #9A7E55",
"& c #6E8046",
"* c #728447",
"= c #768648",
"- c #7C844B",
"; c #778848",
": c #7B8B4A",
"> c #80834C",
", c #808E4C",
"< c #83924C",
"1 c #88944E",
"2 c #88964E",
"3 c #89974E",
"4 c #89974F",
"5 c #8A974E",
"6 c #8B974F",
"7 c #8B984F",
"8 c #8C984F",
"9 c #8C994F",
"0 c #958054",
"q c #958754",
"w c #988155",
"e c #988255",
"r c #9B8056",
"t c #9E8157",
"y c #9D8257",
"u c #9D8856",
"i c #8B9650",
"p c #8B9750",
"a c #8C9750",
"s c #8E9A50",
"d c #8F9A50",
"f c #8F9B51",
"g c #919B51",
"h c #919B52",
"j c #919C51",
"k c #929D52",
"l c #939E52",
"z c #949E52",
"x c #949E53",
"c c #969F53",
"v c #A08357",
"b c #A28258",
"n c #A48259",
"m c #A18458",
"M c #A28458",
"N c #A28658",
"B c #A48759",
"V c #A6845A",
"C c #A8855A",
"Z c #A9875B",
"A c #A58859",
"S c #A7885A",
"D c #A68D59",
"F c #AA885B",
"G c #AA895B",
"H c #AB895B",
"J c #AB8A5B",
"K c #AB8C5B",
"L c #AB8A5C",
"P c #AC8B5C",
"I c #AD8B5C",
"U c #AD8C5C",
"Y c #AF8D5D",
"T c #AC8E5C",
"R c #AE8E5C",
"E c #AF8F5D",
"W c #B08F5D",
"Q c #B0905D",
"! c #B1915D",
"~ c #B2915E",
"^ c #96A053",
"/ c #97A053",
"( c #97A054",
") c #97A154",
"_ c #99A154",
"` c #99A254",
"' c #9AA255",
"] c #9AA355",
"[ c #9BA355",
"{ c #9CA455",
"} c #9DA556",
"| c #9EA656",
/* pixels */
"QQQQQQQQQQQQQQQQQQQQQQQQQQQQQQQQQQ!!Q!!QQQQQQQQQQQQQQQQQQQQQQQQQ",
"QQQQQQQQQQQQQQQQQQQQQQUCCUQQQQQQQQUCVUQQWWQQQQQQQQQQQQQQQQQQQQQQ",
"QQQQQQQQQQQQQQQQQQWJKWv@@vWQQQWJUUN@@vUQPPRQRJRQQQQQQQQQQQQQQQQQ",
"QQQQQQQQQQQQQQRRWUC%%%@..@NUUQn%t%@..@NUw%NK%%bRQQQQQQQQQQQQQQQQ",
"QQQQQQQQQQQQQQPb%V$X..:99:+%nC0.XX-fh-+wO +tO.+vRQQQQQQQQQQQQQQQ",
"QQQQQQQQQQQQQRwOO+>,<&;`': +O+>,:.;''7-O:<>O:<-+NWQQQQQQQQQQQQQQ",
"QQQQQQQQQQWWRw+** ;/`<;7x;.**.;`{:;6`]6*l'6;l{7 #bRHQQRQQQQQQQQQ",
"QQQQQQQQQQWRtO;//;;//6;;9:;xx*-`/f;*l`72l'f<x'<&.#%%%HQQQQQQQQQQ",
"QQQQQQQQQQQ%O.-]]<:7/7::<<<`/<<x6fh262<<6l76/::7p-XoX$HWQQQQQQQQ",
"QQQQQQQQWRt>:::,/9<79<<<<<9/9666<l'`2:<<<77<9:<]];.::>$HQQQQQQQQ",
"QQQQQQWQRtO.l]p*99<<<<<<<<9l<<<<<8xc2<<:<<<<<<7/x::'';o%RQQQQQQQ",
"QQQQQQWRbO..h'f,<<<<<<<<<<<<<<<<<<9x6<<<<<<<<;7/69l'c;ObRQQQQQQQ",
"QQQQQQWtO:p<;pl<<<<<:<<<<<<<<<<<<<<8<<<<<<<<<<27<262;.ObWQQQQQQQ",
"QQQQQQH%.6[c:p6<<<<<<<<<<<<<6:<<<<<<<<<<<<<<<:<<<<<2:;-+VWQQQQQQ",
"QQQQWQP$X,lhxp<<<<<<<<<<<<<<<<<<<<<<<<<<<<<<<<<<<<2l''6X$HQQQQQQ",
"QQQQWWF%...*<<<<<<<<<<<<<<<<<<<<<<<<<<<<<<<<<<<<<<<6x'<.%HQQQQQQ",
"QQQQQH0O,61<<<<<<<<<<<<<<<<<<<<<<<<<<<<<<<<<:<<<<<<<6:-$NUQQQQQQ",
"QQQQQV+&x{l1<<<<<<<<<<<<<<<<<<<<<<<<<<<<<<<<<<<<<<<67:-$KQQQQQQQ",
"QQQQQC#X9x<*,<<<<<<<<<<<<<<<<<<<<<<<<<<<<<<<<<<<<<6l''<XDQQQQQQQ",
"QQQQQRN$*.*:,<<<<<<<<<<<<<<<<<<<:<<<<<<<<<<<<<<<<<<6/]<XDQQQQQQQ",
"QQQQQK0>,,<f<<<<<<<<<<<<<<<<<<<<2<<<<<<<<<<<<<<<<<<:::-#QQQQQQQQ",
"QQQQQC#.l''l<<<<<<<<<<<<<<:<<<<<<<<<<<<<<<<<<<622<<<**-$KQQQQQQQ",
"QQQQRC@.7'f<<<<<<<<<<<<,<<<<<<<<<<<<<<<<<<<<<<7/'2<6/'2XwJQQQQQQ",
"QQQQQC@ *:2<<<<<<<<<<<<<<<<<<<<<<7:<<:<<<<<<<7/`(72l']<.$JQQQQQQ",
"QQQWH$-:,<<<<<<<<,<<<<<<<<<<<<<<<<<<<<:7<<<<<777626f<:>@tWQQQQQQ",
"QQRR%o;''a<<<<:2<<<,<<<<<<<<<<<<<<<<<<<<<<<<<<<<<<2<* OnUQQQQQQQ",
"QQQRnO-ccxf<<<<<<<<<<<<<<<:<<<<<<;7<<<<<<<<<<<<<<7(/x;O%QQQQQQQQ",
"QQQRK%+;*<p<<<<<<,<<<<<,<<<<<<:<<<<<<<<<<<<:<<<<<6f'';+%QQQQQQQQ",
"QQWQQu-;;,<<<<<<<<<<<<<<<<<<<<<<<<<<;<<<<<<<<<<<<<261&.@NQQQQQQQ",
"QQWRS-;''p<<<<<<<<<<<<<<<<<<<<<<<<<<<<<<<<<<<<<<<<2:*..*$PQQQQQQ",
"QQRwo -'''p<<<<<<<<<<<<<<<<<<<<<<<<<<<<<<<<<<<<<<<<<hlx9*qQQQQQQ",
"QQuO<2:;2p6<<<<<<<<<<<<<<<<<<<<<<<<<<<<<<<<<2:<<<<<<8'[l.qQQQQQQ",
"QQq&/]7=<<7737<<<<<<:<<<<<<<<<<<<<<<<<<<<<<:<<<<3393<<<<+uW!!WWW",
"QQqX9l/l<^/`/7:<<<<<<<<<<<<<<<<<<<<<<<7;<<<<<<<<7``/<*.o$A!!!P!W",
"QQC$*.-<<l//3<<<<<<<<<<<<<<<<<<<<<<7<<<<<<<<<<<<:l`l*,z9*@P!W!W!",
"QQP%.;2f9773<<<<<<<<<<<<:<<<<<<<<<<:<<<<<<<<<<<<3397<l{z.+n~!W!W",
"QQUtX1]/^2<<<<<<<<<<<<<<<<<<<<<<<<<<<:7<<<<<<<<<:3<<//x<o$PQW!U!",
"QQJ0X,`l<<2<<<<<<<<<<<<<<<<<<<<<:<<<<<<<<<<<<<<<3:<3//<XwJWQ!W!!",
"QQUJ0-**fxll3<<<<<<<<<<<<<<<<<<<7<<<<<<<<<<<<<:<3<<<3<;ePUQQQQ!U",
"QQQQV$X.l]/7<<<<<<<<<<<<<<<<<:<<<<<7;<<<<<<<<<<<<<<<3:;-AUQQQQQQ",
"QQQQQJ$X272:2<<<<<<<<<<<<<<<<<<<<<<<<<<<<<<<<<<<<<<8`{<X$P!QQQQQ",
"QQQQQQA0&&=<<<<<<<<<<<<<<<<<<<<<<<:<<<<<<<<<<<<<<<8xcx<X%P!!QQQQ",
"QQQQWP0-<37/<<<<<<<<<<<<<<<<<<<<<<3<<<:3<<<<<<<<<<<1;*-$JW!UQQQQ",
"QQQQQn+./|/9<<<<:<<<<<<<<<<<<<<<<<<<<33:<<<<<<<<<<16,;>@BPW!QQQQ",
"QQQQQV@.7/7<<6<<<<<<<<<<:<<<<<<<<<<:3<:3<<<<<<<<<<1x{{<X$JQQQQQQ",
"QQQWQV@.&:<<<:<<<<<<<<<<<<<<<<<<:<<<<<33<<<<<<<<<<<1cx<X%K!QQQQQ",
"QQQQV#-<<<:<<<<<:2<<<<<<<<<<<<<<3<<<<<<:<<<<<<<<<<<:;;*0JPQQQQQQ",
"QQQUto;[(/7<<<<<<<2:<<<<<<<<<<<<<<<<<<<<<<<<<<<<<<28;;-$AWQQQQQQ",
"QQQUvO-hll61<<<<<<<<<<<<<<<<<<<<<<<<<<<<<<<<<<<<<<9l`{6.%PQQQQQQ",
"QQQQUN+*..;<<<<<<<<<<<<<<ff<<<<<<<<<<<<<<<<<<<<<zx2*x{< %CU!QQQQ",
"QQQQQWt+.-6ff2<<<<<<<<<2<fcf<<<<<<26<<<<<<<<<<<6c`z,;;-0CU!WQQQQ",
"QQQQQQC%.<]/2262<<<<<<<:<x'x<<<<<<ll<<<<<<<<<<<<dx`l..+VU!W!QQQQ",
"QQQQQQJwo,/a*1'l2<<<<<<<<p(l2<<2<6`x<<<<<<<<<<<<69xdX@nWQQQQQQQQ",
"QQQQQQQP%-&;6l'x<<<<hp<<<222<<2l<l'`2<<<<99<<<<<x;*o@AW!QQQQQQQQ",
"QQQQQQQQJ$X.x{h:p2pfc<:i*:<<22p'l96:7l66f/l<f<<6`2*.%PWWQQQQQQQQ",
"QQQQQQQQQV0X67<-x2<'(;-c;;<p(<<'`6;*l'7:x'8,l9<<x{2.%PW!QQQQQQQQ",
"QQQQQQQQQQJ$X.=lc;;cc;;c/=;((:-/x--xx]6&hx<*x`<Xh[<XwUQQQQQQQQQQ",
"QQQQQQQQQQQJ0.;'':.** :'';;{'; ** :[':-@**..l{<.&*-$PQQQQQQQQQQQ",
"QQQQQQQQQQQQJ#-::-OOOO-:,--::>OOOO>::-#N++O+,:,+OO@PWUQQQQQQQQQQ",
"QQQQQQQQQQQQQV0oX$Cnnn$XX$0XX0nbNv$XX$JUn%N%O.+%n%AQQQQQQQQQQQQQ",
"QQQQQQQQQQQQQQJ%wFRERES%%AH%%JURRRJ%%CQQQQPt%%NWWWWWQQQQQQQQQQQQ",
"QQQQQQQQQQQQQQRJHQQEQQREHRRHPWQQQQURPUQQQQUJPCPQWQQQQQQQQQQQQQQQ",
"QQQQQQQQQQQQQQRQQQQQQQQQQQQQQQQQQQQQQQQQQQW!W!QQQQQQQQQQQQQQQQQQ",
"QQQQQQQQQQQQQQQQQQQQQQQQQWQQQQQQQQQQQQQQQU!W!WQQQQQQQQQQQQQQQQQQ"
};
