/* XPM */
static char *_817c0d4cb5449b5e7a89ef792f8fa44d1tHt0YyCKa67VP0[] = {
/* columns rows colors chars-per-pixel */
"64 64 57 1 ",
"  c #AA9164",
". c #AB9264",
"X c #A99064",
"o c #A98F64",
"O c #A88F64",
"+ c #A88E64",
"@ c #A68D63",
"# c #A68C63",
"$ c #AA9064",
"% c #A58B63",
"& c #A48963",
"* c #A28862",
"= c #A48A63",
"- c #A38863",
"; c #A78D63",
": c #A99164",
"> c #AB9164",
", c #AB9265",
"< c #AC9265",
"1 c #AD9365",
"2 c #AD9366",
"3 c #AC9365",
"4 c #A58C63",
"5 c #AE9466",
"6 c #AF9567",
"7 c #B09567",
"8 c #AF9467",
"9 c #A38963",
"0 c #A78E63",
"q c #B29668",
"w c #B39769",
"e c #B39869",
"r c #B29769",
"t c #B19668",
"y c #A18662",
"u c #A18762",
"i c #B49869",
"p c #B5996A",
"a c #B6996A",
"s c #B6996B",
"d c #A08562",
"f c #A28762",
"g c #B79A6B",
"h c #B89A6B",
"j c #B89B6B",
"k c #B69A6B",
"l c #B4986A",
"z c #AF9466",
"x c #9F8462",
"c c #B89B6C",
"v c #B99B6C",
"b c #B29768",
"n c #A08462",
"m c #B5986A",
"M c #A08662",
"N c #AE9366",
"B c white",
/* pixels */
"               ..                                               ",
"                                                                ",
"              XXXX                                              ",
"            XoO++OoX                                            ",
"            X+@##@+X                                            ",
"           $O@%&&%@O$                                           ",
"           X+#&**&#+X                                           ",
"           XO#=--=#OX                                           ",
"           $O;%==%;O$                                           ",
"            X+;##;+X                              :             ",
"            XXoOOoXX                                            ",
"XXXXXXXX                                      >......>          ",
"+++++++OoX$                                 >,<1222223<,        ",
"###4%%##;OX                                 ,1567777782<.       ",
"9999999=#0o                                ><57qwwewrt62,       ",
"yyyyyyu-=@O$                               .16qipasapwt5<       ",
"dddddddf&#O$                               .27wpghjgklqz<       ",
"xxxxxxdy9#+X                               .27wahcvcgpb8<       ",
"xxxxxxny9#+X                             : .27esjvvcgpb8<       ",
"dddxxxdy9#O$                               .27wagccjgmq8<       ",
"MMMdddyf=#O$                               .27rpkgggait5<       ",
"ffffff*9%;O                                >38twlppmib75<       ",
"=======%#+X                                 <26tqbbqt751,       ",
";;@@@@;;+oX                                 ,<25z888551<>       ",
"ooooOOooXX                                   .,<<<<<<<,>        ",
"                                                                ",
"                                                                ",
"                                                                ",
"                                                                ",
"                                                                ",
"                                                                ",
"                                                                ",
"                                                                ",
"                                                                ",
"                                    $XXXX                       ",
"                                   XoO++OXX                     ",
"                                  $o0#4#@+X                     ",
"                                  XO#=9&%;O                     ",
"                                  X+49*-=#O$                    ",
"        .,<<<,>                   X+#&--=#O                     ",
"       .<25552<>                  XO@%==%;o                     ",
"       ,28tt781,                   X+;##;OX                     ",
"       <5twer7N,                   XXOOOoX$                     ",
"       <5telwt5,                      $                         ",
"       <57rwb7N,                                                ",
"       ,287t751,                                                ",
"       ><1N5N1<>                                                ",
"        >,,,,,>                                                 ",
"                                                                ",
"                                                                ",
"                                         :                      ",
"                                                                ",
"           $$XX$$                     >>>>>>                    ",
"        XXOOO++OOoX$               >,<311113<,.                 ",
"       Xo+;#####@0OX               ,1586777652<>                ",
"       X+#%=999&=#;o              ><57qrwwwqt81,                ",
"       o;%9fyyyf-=#OX             .26qipaaplw7N,                ",
"       o;=*ydnddu9#+X             ,27wpgghgait5<                ",
"       O@=fdxxxdy9%+X             ,27iagcchglt5<                ",
"       O@=fdxxxdy9%+X             ,27iagccjglt5<                ",
"       o@=fdxxxdy94+X             ,27eagcchkit5<                ",
"       o@=fMdxxdy9#+X             ,27wagjjgsit5<                ",
"       o;=fMdxxdy9#+X             ,27wagjjgsit5<                ",
"       o;=fMdxxdy9#+X             ,27wagjjgsit5<                "
};
