/* XPM */
static char *_f47407545954409a179e54d73e6abe9346UecGV9fZn7JMK[] = {
/* columns rows colors chars-per-pixel */
"64 64 223 2 ",
"   c #65140A",
".  c #6A140A",
"X  c #6D1C0C",
"o  c #741D0D",
"O  c #5D2613",
"+  c #77220E",
"@  c #642B16",
"#  c #632D1B",
"$  c #682A1A",
"%  c #7C2612",
"&  c #7D2A13",
"*  c #6F3119",
"=  c #733415",
"-  c #7A3617",
";  c #75361B",
":  c #793519",
">  c #7D3B1F",
",  c #753B27",
"<  c #7D4E45",
"1  c #7F544D",
"2  c #812714",
"3  c #842B13",
"4  c #833113",
"5  c #8C3917",
"6  c #933C1A",
"7  c #8D441B",
"8  c #94451C",
"9  c #99431A",
"0  c #9B4B1F",
"q  c #8E4622",
"w  c #8E4823",
"e  c #924722",
"r  c #9C4625",
"t  c #9B4A23",
"y  c #974728",
"u  c #9F4429",
"i  c #9D4A2B",
"p  c #9B4A30",
"a  c #975734",
"s  c #A04C23",
"d  c #A24A2B",
"f  c #A84E2A",
"g  c #A35229",
"h  c #A9552C",
"j  c #A9592B",
"k  c #B15D2F",
"l  c #A14832",
"z  c #AB5934",
"x  c #B45C34",
"c  c #AD612D",
"v  c #B5632D",
"b  c #B8632D",
"n  c #AB6531",
"m  c #A7643C",
"M  c #B36332",
"N  c #B96633",
"B  c #B66833",
"V  c #B5653D",
"C  c #BA653B",
"Z  c #BC693C",
"A  c #845346",
"S  c #82534B",
"D  c #85574E",
"F  c #8D5848",
"G  c #A65D42",
"H  c #9C6456",
"J  c #AE6D4C",
"K  c #B66340",
"L  c #B56B43",
"P  c #BD6A44",
"I  c #BD6A4A",
"U  c #B87758",
"Y  c #AA7461",
"T  c #A67A70",
"R  c #C16944",
"E  c #C86D42",
"W  c #C1684C",
"Q  c #C97647",
"!  c #D27E4D",
"~  c #CD7F53",
"^  c #D37E55",
"/  c #BD8769",
"(  c #DA8347",
")  c #D78946",
"_  c #D4834C",
"`  c #D98349",
"'  c #D58A4D",
"]  c #D98A4A",
"[  c #DC984D",
"{  c #CD8154",
"}  c #CC8B55",
"|  c #CE805B",
" . c #D48253",
".. c #D18B52",
"X. c #DB8C52",
"o. c #D3835A",
"O. c #DA8359",
"+. c #DE885C",
"@. c #DC9E53",
"#. c #DE9C5B",
"$. c #E69A4E",
"%. c #E59755",
"&. c #E39D54",
"*. c #EB9D55",
"=. c #E6965E",
"-. c #E49D5B",
";. c #EB9D5B",
":. c #D8A15A",
">. c #DCA55C",
",. c #E3A255",
"<. c #E4A35C",
"1. c #EBA25B",
"2. c #E8A65A",
"3. c #F0A055",
"4. c #F0A65F",
"5. c #D38161",
"6. c #D59F64",
"7. c #DA9969",
"8. c #C58974",
"9. c #E59561",
"0. c #E49766",
"q. c #E59B65",
"w. c #EA9C63",
"e. c #E49C6A",
"r. c #EA9C6B",
"t. c #E79A70",
"y. c #CDA26B",
"u. c #D5A465",
"i. c #DBA464",
"p. c #DCAA64",
"a. c #D3A56D",
"s. c #DCA66B",
"d. c #D5A96D",
"f. c #DBAA6C",
"g. c #D9A971",
"h. c #DCAC73",
"j. c #DEAF78",
"k. c #DCB273",
"l. c #DBB577",
"z. c #DDB37A",
"x. c #E4A562",
"c. c #ECA264",
"v. c #E4AB65",
"b. c #EDAB64",
"n. c #E5A46B",
"m. c #EBA36A",
"M. c #E3AB6C",
"N. c #ECAC6B",
"B. c #F0A464",
"V. c #F1AA64",
"C. c #F0A66A",
"Z. c #F1AC6C",
"A. c #ECB265",
"S. c #E6B26D",
"D. c #ECB36C",
"F. c #F1B165",
"G. c #F1B36E",
"H. c #F3B86F",
"J. c #E2AC72",
"K. c #ECAB77",
"L. c #ECAC75",
"P. c #F1AD74",
"I. c #F1AF7E",
"U. c #E4B374",
"Y. c #EBB474",
"T. c #E6B874",
"R. c #EDBA74",
"E. c #E3B57A",
"W. c #ECB57B",
"Q. c #E5B97C",
"!. c #ECBA7C",
"~. c #F2B374",
"^. c #F3BB75",
"/. c #F1B47B",
"(. c #F3BC7C",
"). c #EFC07B",
"_. c #F4C378",
"`. c #F3C27D",
"'. c #BF9489",
"]. c #DC9E85",
"[. c #DCB780",
"{. c #D7AA91",
"}. c #E3B780",
"|. c #E5BC82",
" X c #EBBC83",
".X c #E6BD88",
"XX c #EDBD88",
"oX c #F2BE82",
"OX c #F2BF88",
"+X c #E3B194",
"@X c #EFBAA5",
"#X c #EDC285",
"$X c #ECC48C",
"%X c #ECC88C",
"&X c #F3C384",
"*X c #F6CA85",
"=X c #F3C58B",
"-X c #F5CB8C",
";X c #F6D18D",
":X c #EDC693",
">X c #EECA92",
",X c #EECC9C",
"<X c #F4C691",
"1X c #F5CC93",
"2X c #F4CE9B",
"3X c #F6D294",
"4X c #F7D897",
"5X c #F6D39C",
"6X c #F8D79D",
"7X c #F8DA9C",
"8X c #F6D5A3",
"9X c #F3D3A5",
"0X c #F8D7A3",
"qX c #F7D8A6",
"wX c #F8DAA4",
"eX c #F6D6AB",
"rX c #F8D7AB",
"tX c #F5DAAC",
"yX c #F8DAAB",
"uX c #F7D7B0",
"iX c #F8D7B1",
"pX c #F5D9B2",
"aX c #F8D9B1",
/* pixels */
"@X{.{.'.T 1 1 < < 1 < < 1 < S A S S S S S S 1 1 1 1 1 1 1 1 S S D 1 1 1 1 1 1 1 A A A A A A F A A F A A S S S D A F H Y T +X@X@X",
"g.]./ T a , O O O O # # @ @ # # # # # # # # # # # # # # # # # O # # # O # # # # # # # @ @ @ @ @ @ @ # # $ $ $ # $ * , A I 8.].].",
"} / Y H a , = = = = = = ; ; ; ; ; ; ; ; , ; ; ; ; ; ; ; ; ; : : , ; ; ; ; ; , ; ; ; ; : - - - - - - : : : : : : 4 > q p G U ^ 8.",
"J J m m a 7 7 7 7 7 7 7 7 w 7 8 w w w w w w w w e w e w e e e e w w w w w w w w w 8 e e e 0 8 e e 8 e 8 e e e t y y y p z K W W ",
"0 a s j c c v c v c v v v v n v n M M n M M x M k b N x b b b b M n x n n n M M M M b b x b b b b b b b b b b x x x x h l f d d ",
"- 4 7 0 v Q ] ] ) ) ) ) ) ) _ _ _ _ _ _ _ _ ` ` ` ` ( ( ( ( ! ! _ _ _ ) } _  . . .` _ ` ( ( ( ( ( ( ( ( ( ( ( ( ! ! E x f 6 3 3 ",
"  X & 8 B [ b.b.4.b.m.b.v.m.v.n.n.r.r.r.m.m.C.m.c.w.c.;.;.;.;.;.;.w.w.x.c.r.n.m.m.r.r.r.C.w.w.r.B.C.w.B.w.B.B.w.B.=.^ R d 3 o . ",
"  X & 7 v [ N.G.G.^.^.^./././.W.W.I.oX X/.oX/././.~.~.V.4.;.3.;.;.x.c.N.L.W./.(./.oX/.oX/./.I. X/././././.~.~.Z.r.9.^ R d 2 . . ",
"  X + 8 B ..N.Y.(.`.*X=X=X=X=X<X<X=X<X<X<X<X=X=X*X&X(.G.1.*.*.%.-.-.v.L./.&X=X-X<X<X<X<X<X<XOX<X<X<X<X<X=X*X&X/.C.9.^ W l % .   ",
"  X 4 8 n } n.W.&X-X1X3X3X5X5X2X2X2X2X2X2X8X5X3X1X-X`.^.V.2.&.@.>.x.b.Y.`.=X1X5X5X5X0X5X5X6X2X2X5X5X5X1X3X;X*X(.K.0.U I l %     ",
"  X & 8 n } h.W.*X1X4X0XqXqX8X8X8X8X8X0X0X6X5X5X1X*X`.^.F.4.2.<.<.v.S.!.&X=X<X3X5X0X8XrXyXtXtXyX8X0X5X5X3X;X*XoXK.0.^ I p &     ",
"  X & 7 c } n.!.%X5X6XwXqXqXqXeX0XeXeX0XwX0X5X1X-X*X`.^.H.D.D.M.N.D.Y.!.&X=X<X1X5X0XyXrXaXyXpXpXrXrX0X0X5X3X;XoXK.0.^ I l *     ",
"  o & 7 j } g.}.1X5X0XyXtXtXyXtXqXtXeX0X0X5X1X1X&XoXW.W.(.`.oX(.`.!.(.!. X X.X$X2X0XyXaXaXaXpXpXiXuXeX8X5X3X;XOXK.t.^ I l & .   ",
"  X & 7 n } g. X1X5XwXyXtXpXpXtXtXyXyX0X6X5X1X&X(.U.h.!.=X2X3X4X3X1X=XoXW.E.E.|.<X0XyXyXpXaXpXpXiXiXrX8X5X3X;XOXK.t.8.I p %     ",
"X X & 7 m } g.XX2X9XtXaXaXpXpXtXaXyXyXwX6X5X-X&XW.h.d.}.1X8XwXwX6X4X-XXXE.j.j.z.:X0XyXaXpXpXpXpXpXpXuXeX0X5X<XOX}.t.5.W l % .   ",
"  X & 7 n | J.XX<X9XyXaXaXaXaXaXaXyXyXwX0X5X-X`.Y.d.a.[.,X8XqXqX0X5X1XoXk.g.g.h.XXeXaXaXpXpXpXpXpXpXiX0X0X5X<XOXoXt.5.W l % .   ",
"  X & 7 v } S. X<X5X0XrXrXyXyXyXyXyXrXyX0X5X-XoXE.d.y.z.,X8XwX8X0X8X2XOXj.g.a.h.$X0XyXyXqXqXtXqXpXiXeX0X4X4X;X&X/.t.^ W l 2 . . ",
"  + 4 8 c ) n.!.=X<X2X0X0X0X0X0XrX0X8XrX6X5X-X&XT.d.a.[.:X8XqXwX0X8X2XOX}.E.h.h.XX5X6X6X8X6X8X6X8X8X5X3X4X;X*X`./.r.+.W l 3 . . ",
". X 4 7 v ' m.^.oX=X-X1X3X5X5X5X5X2X5X5X5X5X=XoXl.l.g.[.,XwXwXwX0X0X2X<XXX}.K.E.oX-X1X1X1X3X4X;X3X3X3X-X*X`.`.(.P.r.^ W l 2 . . ",
". + 4 9 v ' c.N.~./.oX&X&X=X=X=X=X=XOX<X=X=X&X X#Xz.z.$X,X6XwXwX0X0X2X2XOXXX XoX X(. X`.&X&X*X`.&X*X`._._._._.H.P.w.^ W l 2 . . ",
". o 4 9 v ] 1.m.N.Z.N.N.Y.Y.Y.J.E.J.K.}.E.E.}.|.|.#X%X1X6X6X0X0X0X0X8X2X2X<XOXOXW.J.M.M.k.S.S.S.D.D.A.A.A.F.F.F.C.9.^ E l 2 . . ",
". o 4 9 v ] ;.;.-.-.-.>.i.i.i.i.7.y.7.7.7.g.z.}.#X2X6XwX0X0X0X8X0X8XeX8X5X2X1XOXU.u.6.:.:.:.>.>.>.>.:.>.,.,.2.2.B.9.^ R d 2 . . ",
". o 4 9 b ] ;.*.-.*.#.>.i.M.f.f.a.s.s.g.g.h.}.$X>X5XwXwXwX0X8X8X0X0X8XeX8X8X2X1X Xd.a.u.p.p.p.p.p.>.>.>.,.>.,.2.w.9.^ E u 2 . . ",
". o 4 9 b ] ;.*.*.-.-.x.M.Y.W.W.W.}. X X.X|.$X>X2X0XwXwXyXyXeXeXrXrX9XrX8X8X5X2X%X#XQ.Q.l.T.T.).T.S.S.A.2.2.,.,.B.9.^ R f 2 . . ",
". o 3 9 b ) 3.*.*.;.-.v.Y.oX=X=X=X=X<X<X;X>X3X5X8XqXqXqXtXyXrXeXrXrXrXrXrXrX5X2X3X1X%X*X#X&X_._.)._.R.D.v.<.&.-.w.9.^ E l 2 . . ",
". 2 3 9 b ) 3.3.*.*.x.N.^.=X<X1X<X3X<X3X4X7X6XqX8XqXtXtXeXeXeXrXuXuXrXrX9XrXrXrX5X5X1X3X;X;X;X;X*X*X_.^.D.2.,.-.w.w.^ W d 2 . . ",
". 2 3 9 b ] ;.;.*.1.c.D.oX-X1X4X6X6X0X5X7XyXyX7XyXwXeXeXeXuXeXuXuXuXuXiXyXrXrXrX0X6X7X7X7X7X7X4X4X;X*X_.H.2.,.1.B.r.^ E d 2 .   ",
". o 3 9 b ] 1.1.b.Z.D.^.(.&X-X3X5X6XwXwXwXwXyXyXyXyXeXtXeXuXuXuXuXuXiXiXiXrXrXrXwXwXwX7X7X7X7X;X;X`.`._.^.D.b.Z.C.r.^ W d % .   ",
". o 3 9 b ( c.Z.^._.`.`.(.Y.!.=X3X5XwXyXyXyXyXyXyXyXyXaXpXpXuXpXiXaXaXaXiXyXyXyXqXwX0XwX7X7X4X*X).k.S.T.^._._.~.P.r.o.W d 2 .   ",
". o 3 9 b ( m.^.`.*X;X*XR.M.M. X1X5XyXtXwXyXyXyXyXyXyXyXtXpXpXpXiXiXaXaXiXiXyXrX8X8X0XwX7X7X3X%Xl.u.f.R._.`.*X`.~.m.o.P p %     ",
". . 3 9 b ] v.^.*X*X;X-X(.M.U. X=X2X5XqXwXyXwXyXwXyXtXpXpXpXpXpXiXaXaXaXiXiXiXrXeXwX6XwX7X4X%X#Xl.k.T.).`.*X*XoXI.r.o.I i %     ",
". 2 3 9 b ] m.^.*X-X-X-X`.Y.Y.!. X%X>X,X7XyXwXwXqXyXtXtXpXpXpXpXaXaXpXaXiXrXrXrXqXqX8X3X,X>X$X#X!.Q.!.).`.*X*X(.P.e.o.I l &     ",
"o o 3 9 b ..n.W.*X-X1X;X=X(.!. X|.[..X%X,XwXwXwXtXtXtXtXpXpXpXpXaXpXaXiXaXuXrXeX8X8X5X1X$X.X}.|. X#X&X*X*X*X*X(.P.r.o.I i &     ",
". o 4 9 M ..J.W.-X1X4X4X1X-X&X).l.l.l.[.>XwXwXtXtXtXpXpXpXpXpXpXaXpXaXaXiXuXeXeXrX8X2X<X.X}.z.E.#X-X-X-X;X-X-X`.P.e.| P i &     ",
". o 3 9 M ..n. X1X1X3X5X3X1X=X!.l.l.d.l.%X7XqXtXtXtXpXpXtXtXpXpXaXpXpXaXrXrXrX9X8X8X2X:X|.z.h.E.#X-X3X3X1X;X;XoXP.0.o.P i &     ",
". o 3 9 M } h. X1X3X5X5X1X&X X XQ.Q.l.Q.>X7X7XtXpXtXtXtXtXtXtXtXpXpXiXaXrXrX8X8X9X8X3X<X=X X|.}. XXX&X-X-X;X;XOXI.e.| P i &     ",
". o 3 9 M } J. X>X2X3X1X=XE.E.Q.#X).%X;X4X9XtXtXtXtXtXtXtXtXtXtXtXpXuXuXrX8X9X0X8X5X5X5X2X1X=X XQ.k.W.oX*X-X;X&XY.e.o.P i &     ",
". o 3 9 M o.J.|.:X2X3X-X!.f.f.!.%X%X3X4X7X7XqXtXtXtXtXtXtXtXtXpXpXtXpXeXrXrXrX0X8X8X0X6X6X5X1X=XE.s.J.!.&X-X;X&XI.n.o.P i &     ",
". o 3 9 M } J. X1X1X1X-XE.i.d.!.#X3X4X8XtXtXtXtXtXtXtXtXtXtXtXtXtX9XeXeXeX8X0X0X8X6X6X6X6X5X3X=XU.s.h.W.&X-X4X*X/.e.o.P i & X   ",
". 2 3 9 M } J. X>X5X1X=XU.u.s.!.-X,X6X8XtXtXtXtXtXtXtXtXtXtXtXtXtXtXeX8XeXeX8XrX8X8X8X6X5X5X3X-XU.u.M.Y.&X-X4X*XI.e.o.P d & .   ",
". o 3 9 b ..M. X;X4X>X*XU.u.s.Q.-X2X8XeXeXrXrXiXiXrXuXqXtXtXqXtXtX9XtX9XtXtXqXqXqX0X6X6X5X6X5X=XJ.s.M.^.`.-X;X*XP.e.o.P d & .   ",
". o 3 9 b X.M.W.%X;X;X%XU.u.d.Q.%X2XeXqXeXyXiXiXiXrXrXyXyXwXyXyXtXtXtXtXqXtXqXwXqX0XwXwX6X6X5X=XU.6.s.Y.`.*X;X&X~.q. .R d 3 . . ",
". o 3 9 b ..m.W.).).`.).T.d.k.#X<X5X8XqXyXeXrXiXrXeX0X0X5X5X5X5X7X,X,X9X8X8XqXtXwXqXwX8X0X5X6X<X}.n.J.^.(.&X&X(.P.q.O.R s 3 . . ",
". o 3 9 v _ x.M.T.).).).Q.Q.Q.%X2X5X8XeXeXeXrXeXeX0X5X1X*XoX&X#X#X|.%X%X5X,X8XtXeXqX8XwX0X8X0X2XXX X!./.^.^.H.Z.C.q.^ R d 3 . . ",
"X o 3 9 v ' 1.<.A.A.p.T.Q.%X%X,X9X7X9XqX8X8XeX8X8X8X5X*X^.Y.U.U.k.T.E.#X%X,X8X9XeXqXeX8XeX8X8X2X2X<XOX(.~.F.V.b.w.w. .R d 3 . . ",
"X o 3 6 b ] 1.2.,.>.p.).%X>X7X7X7X9X7X9X8X8X8X8X5X5X1X&X~.b.b.v.v.v.M.!.$X>X,X9XtXtXtXtXqXeXeX8X8X2X=XoX~.b.1.3.w.w.` R s 2 . . ",
". o 4 9 v ' *.,.@.,.p.T.%X4XwX7X9X,X9X9X5X5X8X5X5X5X-X&XD.v.v.v.v.v.M.!.&X1X>X,X,X8XeXtXtXeXeX0X0X0X<XoXD.1.%.%.B.;.! R f 3 . . ",
". o 4 9 v ] *.&.@.@.p.l.%X7XwX7X7X7X5X3X,X:X1X1X-X-X=XoXY.S.J.J.U.U.Y.!. XXX$X:X:X,X2X8X8X8X0XwX0X0X1X&XG.1.$.%.;.9.^ R d 3 . . ",
". o 3 9 b ] 1.&.[ :.p.k.*X7X7XwX7X5X4X1X|.l.l.T.Q.Q.E.Q.OXOXoX&XoXoXoX!.W.U.J.h.z.}..X:X2X5X8XyXyXwX3X&XG.1.[ %.%.=. .P s 2 . . ",
". o 3 9 N ] -.@.[ :.>.S.%X4X7X7X7X5X3X#Xk.u.u.p.u.u.a.Q.<X5X2X5X5X3X1XoXJ.i.6.6.6.u.j.|.<X5X8XwXyXwX1X&XG.2.[ $.;.=._ R d % . . ",
". o 3 9 b ] ;.<.>.<.v.T.#X3X4X3X-X-X-X).S.u.p.p.p.d.g..X2XrXrX8X0X0X2X&XU.M.c.<.i.s.J.!.$X<X2X2X5X5X-XoXH.4.3.*.;.=.^ R s 2 . . ",
". 2 3 9 N ] c.b.b.A.R.R.!.#X#X).).!.!.R.T.D.R.R.R.Q.Q.:X8XrXrX8X8X6X2X=X(.^.H.G.D.L.W. XoXOXoXOXOXOX(.(.^.G.F.V.w.w.^ R d & .   ",
". o 3 9 b $.B.G.~.^.^.^.^.T.Y.S.S.S.S.Y.^._.`.`.&X&X=X<X0XyX8X5X5X5X5X-X&X&X(.oX(.(.(./.^.W.W.Y.P.L.~./.^.^.^.H.N.=.{ P i & .   ",
". o 4 9 b ] B.H.^._.(._.G.b.v.<.<.v.v.D.(.*X*X*X*X-X-X3X5X6X5X5X2X5X3X-X-X=X*X*X&X&X`.(.Y.N.n.n.n.n.Z.~.^._._.^.C.9._ P i &     ",
". o 3 9 N X.N.~.`.`._.^.A.3.&.@.%.:.<.A.`.-X-X;X3X3X1X3X3X3X<X;X3X<X<X1X-X-X;X;X;X*X`.^.G.c.-.=.#.#.r.Z.^._.*X/.Z.9._ P i &     ",
". . 3 9 N X.m.~.(.(._.H.4.3.*.$.&.,.2.V.^.&X*X-X*X=X&X&XOX&X=X=X=X&X=X&X&X=X<X=X*X&X^.G.V.c.-.-.=.=.x.C.~.(.`.^.Z.q.o.Z i %     ",
". o 4 9 N X.C.N.~.~.G.Z.4.3.3.3.4.1.b.b.Z.~./.W./.W./.Y.P.P.P.I././.W.W.W.W././.~.P.Z.B.B.B.w.;.w.w.B.m.Z.~.~.~.P.r.o.P t &     ",
"o + 4 9 N  .q.r.e.m.m.c.1.;.;.;.;.1.w.w.c.q.e.n.e.e.0.e.r.9.r.t.e.r.e.t.e.e.7.e.q.9.q.;.;.;.9.;.w.w.w.q.w.q.q.m.m.e. .Z s 3 X   ",
"4 4 6 s k Q ~ ~  . . ._ ` ! ! `  . . .o.{ { { { { { { ~ ^ ^ ^ ^  .~ ~ | ~ ~ ~ ~ ^ ^ ! ! ! ! ! ` _ ! ^ ! { { { } o. .Q V g 6 - - ",
"s s s g h z M M V V V Z P C C Z Z L Z K L V L m m V K K x C C R K K K K K K K K C K x C C V C C C N B V B V L V C V n z j s 0 9 ",
"N b b x g r t r r r i i d i i d i p i p i i y y y y y u u u u u u u u u u d d u u u u u r t t t t 9 t y e y y y y y s h k M B B ",
"X.! Q Z f 5 % & & & & & 2 3 2 & & : 3 & & & & % & 3 3 3 2 2 2 2 2 2 2 2 2 2 2 2 2 2 2 2 3 3 & 3 3 & & & & & & & & 4 6 s M Q ' ] ",
"C.w.+.E d %     .           .                     .   . . . . . . . . . . . . . . . . . . . . . . . .             X 4 t Z X.c.b.",
"C.r.+.Q d +                                           . . . . . . . . . . . . . . . .                             X 3 9 N X.B.B."
};
