/* XPM */
static char *_6b5380d282146088ca9c06bb9ac80beQccpjj5zcFfzyCQs[] = {
/* columns rows colors chars-per-pixel */
"64 64 203 2 ",
"   c None",
".  c #010404",
"X  c #030807",
"o  c #060808",
"O  c #0B0909",
"+  c #060608",
"@  c #150A0A",
"#  c #1C0C0D",
"$  c #0E0F10",
"%  c #1C0F13",
"&  c #1B1716",
"*  c #191908",
"=  c #280D0D",
"-  c #300F0F",
";  c #33100E",
":  c #290E13",
">  c #370912",
",  c #381216",
"<  c #29180C",
"1  c #313108",
"2  c #2A2A08",
"3  c #2F1F27",
"4  c #351A23",
"5  c #3A1A24",
"6  c #470A16",
"7  c #540819",
"8  c #531819",
"9  c #61071B",
"0  c #621119",
"q  c #6A171A",
"w  c #72161B",
"e  c #60241E",
"r  c #441A24",
"t  c #531923",
"y  c #530A20",
"u  c #6D1627",
"i  c #56212F",
"p  c #51222F",
"a  c #763035",
"s  c #7B780A",
"d  c #63630E",
"f  c #403945",
"g  c #662E40",
"h  c #792E44",
"j  c #6A3649",
"k  c #7C344B",
"l  c #7C4948",
"z  c #7D6550",
"x  c #6D4D65",
"c  c #794F68",
"v  c #6F6471",
"b  c #727070",
"n  c #8A0928",
"m  c #97082F",
"M  c #851723",
"N  c #A90C2E",
"B  c #A80B35",
"V  c #B21335",
"C  c #94202D",
"Z  c #942739",
"A  c #8B232E",
"S  c #A8263C",
"D  c #C40B3D",
"F  c #9A710F",
"G  c #A70A44",
"H  c #B51244",
"J  c #973953",
"K  c #853B53",
"L  c #AB2B47",
"P  c #AD3A54",
"I  c #B93752",
"U  c #B12C44",
"Y  c #913466",
"T  c #B03D7A",
"R  c #C80A48",
"E  c #D40A52",
"W  c #DB0D5C",
"Q  c #D21252",
"!  c #C1334F",
"~  c #C83D5B",
"^  c #DF1261",
"/  c #E5136A",
"(  c #EC1C79",
")  c #EA1572",
"_  c #E20F66",
"`  c #CF3A64",
"'  c #DA3E6B",
"]  c #B34D5D",
"[  c #9F4461",
"{  c #975873",
"}  c #BE4466",
"|  c #B8556E",
" . c #AC4463",
".. c #CA405F",
"X. c #D15555",
"o. c #C94464",
"O. c #D8486C",
"+. c #CA4F73",
"@. c #DD4D74",
"#. c #DF4272",
"$. c #C05175",
"%. c #DB557B",
"&. c #DB577D",
"*. c #E3557D",
"=. c #939301",
"-. c #A6A603",
";. c #F8B008",
":. c #F8BA08",
">. c #F6B00D",
",. c #E78523",
"<. c #F8CB08",
"1. c #F8DA05",
"2. c #F8D608",
"3. c #EBEB0E",
"4. c #F8E406",
"5. c #F8E508",
"6. c #F8F90E",
"7. c #F8F60B",
"8. c #F8E514",
"9. c #F8E22B",
"0. c #F8F72A",
"q. c #F8F831",
"w. c #BDBD77",
"e. c #F8BF40",
"r. c #F9BD77",
"t. c #DBDB5C",
"y. c #F9CB5F",
"u. c #F8E449",
"i. c #F8F84F",
"p. c #D7D76D",
"a. c #F51D83",
"s. c #F7258A",
"d. c #F83595",
"f. c #BA5F82",
"g. c #956787",
"h. c #DC5B81",
"j. c #E65B84",
"k. c #DE6B94",
"l. c #CF648B",
"z. c #EC638E",
"x. c #E6628C",
"c. c #F07088",
"v. c #EC6592",
"b. c #EC6995",
"n. c #E56D99",
"m. c #EF6D9A",
"M. c #F16E9C",
"N. c #F16794",
"B. c #FA59A8",
"V. c #F84DA3",
"C. c #EF7DA9",
"Z. c #F574A3",
"A. c #F877A7",
"S. c #F879A9",
"D. c #F47AA8",
"F. c #FB67B1",
"G. c #F77FB6",
"H. c #919295",
"J. c #BF9585",
"K. c #AEA9B3",
"L. c #D68C9A",
"P. c #DB91A2",
"I. c #F885A8",
"U. c #FA83B3",
"Y. c #F48ABB",
"T. c #F88BBC",
"R. c #F485B6",
"E. c #EB8DBE",
"W. c #DAC187",
"Q. c #F8DB95",
"!. c #FAFABD",
"~. c #F88FC1",
"^. c #F889CC",
"/. c #EE91C4",
"(. c #F996CB",
"). c #F59ACE",
"_. c #FA9ACE",
"`. c #F993C6",
"'. c #F99ED2",
"]. c #F599D2",
"[. c #F8A1D4",
"{. c #F6A5DB",
"}. c #F8A6DE",
"|. c #F5A6D8",
" X c #EFA3D9",
".X c #F8A8E0",
"XX c #FAB4E3",
"oX c #D3D3C1",
"OX c #EBC8D2",
"+X c #F1DBCE",
"@X c #FBE7C7",
"#X c #F9F9C3",
"$X c #F9FAC9",
"%X c #F9F9D4",
"&X c #FBE0D8",
"*X c #F8D6F4",
"=X c #F8F5ED",
"-X c #F8F6E4",
";X c #F8E5F8",
":X c #F8F4FD",
">X c #F8F8F9",
",X c #F9F7F4",
"<X c #F8EAEA",
/* pixels */
"                                                                                                                                ",
"                                                                                                                                ",
"                                                                                                                                ",
"                                                                                                                                ",
"                                                                                                                                ",
"                                                                                                                                ",
"                                                                                                                                ",
"                                                                                                                                ",
"                                                                                                                                ",
"                                                                                                                                ",
"                                                      6.#X>X>X>X>X>X>X$X7.1.                                                    ",
"                                                      i.%X>X>X>X>X>X>X%Xi.8.4.                                                  ",
"                                                2.4.q.%X-X=X>X>X>X>X=X-X%Xq.4.2.                                                ",
"                                              ;.<.5.6.0.9.u.        u.9.0.6.5.2.                                                ",
"                                              ;.:.<.5.5.2.1.1.1.1.1.1.2.1.<.<.                                                  ",
"                                              ;.;.:.<.<.<.<.<.<.<.<.<.<.2.:.                                                    ",
"                                                ;.;.;.;.;.;.;.;.;.;.;.;.                                                        ",
"                                                                                                                                ",
"                                                        . . . . . . . .                                                         ",
"                                                        i g j j j j g i                                                         ",
"                                  1 1 1 1         @ # 5 | Z.U.U.U.U.Z.| 5 : %                                                   ",
"                            $ o d 3.3.3.s o     O = a n.].}.}.{.{.[.'.].n.I t O                                                 ",
"                          * -.w.oX!.!.#Xt.=.o X u P k.]..X.X.X].+.h.Y./...j.+.h O                                               ",
"                          & p.$X>X:X:X:X!.t.s e P b.(.}..X.X.X|.P.] l.|.L.| h.[ .                                               ",
"                          & K.+X@X!.*X;X>X$Xu.X.n.`.}..X.X.X.X.XOXl { .XOXa | f.5                                               ",
"                            $ F >.y.<X-X,X>X<XI.Y.[.}..X.X.X.X).~ , c ].h., { R.} %                                             ",
"                              < z &X,Xy.Q.:X*XI.T.[..X.X.X.X.X X%.r x '.n.3 g.].l.&                                             ",
"                                f v b W.@X&Xr.I.T.[..X.X.X.X(.B.v.r x .XE.3 Y F.k.t #                                           ",
"                                  . O H.K.L.,.c.Y.[..X.X.X.X^.V.G.c g..X Xx T B.n.A t ,                                         ",
"                                      O o < L O.I._.}..X.X.X}.}..X.X.X}.].{..X(.m.! @.h .                                       ",
"                                            : S x.T.'.}.}..X{._.}..X.X(.x.).[.~.Z.@.M.K X                                       ",
"                                            # S O.m.Y.'.[.`.R.T.}..X.X{.E.).~.D.z.N.N.k X                                       ",
"                                          @ , C ~ j.M.C.C.S.A.I.(.(.(.(.].T.U.v.O.v. .i                                         ",
"                                        X = w w I @.*.*.*.N.S.S.A.A.A.S.S.S.A.&.S } 5                                           ",
"                                        X > N N V ..j.Z.A.A.S.S.A.S.S.S.A.A.z.J % %                                             ",
"                                      O - u ^ E D S Z ..*.M.S.S.S.S.S.S.S.z.K 5                                                 ",
"                                      o 6 U F.( E N M C U o.&.*.b.N.N.z.*.J r                                                   ",
"                                      o 9 ~ {.d./ E N w 8 M S U ' #.#.` C :                                                     ",
"                                      o 9 Q s.s.a.) R 0 # , n V E W W G #                                                       ",
"                                      X 9 R _ a.) E N =   @ y E ( a._ m O                                                       ",
"                                      X 6 N R Q H n 7     X 6 E / _ B 7                                                         ",
"                                      o ; 0 n n 0 ; X       > n G m 7 X                                                         ",
"                                          O @ O O O           O O O O                                                           ",
"                                                                                                                                ",
"                                                                                                                                ",
"                                                                                                                                ",
"                                                                                                                                ",
"                                                                                                                                ",
"                                                                                                                                ",
"                                                                                                                                ",
"                                                                                                                                ",
"                                                                                                                                ",
"                                                                                                                                ",
"                                                                                                                                ",
"                                                                                                                                ",
"                                                                                                                                ",
"                                                                                                                                ",
"                                                                                                                                ",
"                                                                                                                                ",
"                                                                                                                                ",
"                                                                                                                                ",
"                                                                                                                                ",
"                                                                                                                                ",
"                                                                                                                                "
};
