/* XPM */
static char *d4b6330c522146e9deae21a68e4a56cbTUtSaptjp7IdWXNy[] = {
/* columns rows colors chars-per-pixel */
"64 64 202 2 ",
"   c #0A0405",
".  c #130304",
"X  c #190508",
"o  c #1D0409",
"O  c #23060A",
"+  c #27080C",
"@  c #250C11",
"#  c #290912",
"$  c #360914",
"%  c #26161C",
"&  c #231E1E",
"*  c #2B1E1F",
"=  c #331A13",
"-  c #2C1F20",
";  c #341D23",
":  c #3A1B25",
">  c #252122",
",  c #2C2020",
"<  c #392126",
"1  c #3F3C3D",
"2  c #5B0D10",
"3  c #521212",
"4  c #751B0E",
"5  c #630F13",
"6  c #651214",
"7  c #6B151A",
"8  c #761C10",
"9  c #73121C",
"0  c #7D1718",
"q  c #6D250E",
"w  c #76260F",
"e  c #772711",
"r  c #762B17",
"t  c #762B19",
"y  c #6C1E24",
"u  c #7B1221",
"i  c #403D3D",
"p  c #6C2528",
"a  c #762D2F",
"s  c #762D30",
"d  c #811A1A",
"f  c #86250C",
"g  c #862F0D",
"h  c #87300E",
"j  c #940829",
"k  c #9B0C2D",
"l  c #821C24",
"z  c #AA0E2E",
"x  c #BD192D",
"c  c #AB0D31",
"v  c #B90D37",
"b  c #B7153A",
"n  c #872229",
"m  c #85252D",
"M  c #843329",
"N  c #832832",
"B  c #86303B",
"V  c #BC2735",
"C  c #C00D3E",
"Z  c #C61734",
"A  c #C5123D",
"S  c #CD2D2B",
"D  c #C52330",
"F  c #C92738",
"G  c #D82A3C",
"H  c #DD5605",
"J  c #DE5807",
"K  c #DE5808",
"L  c #ED5F02",
"P  c #E8550B",
"I  c #F75E06",
"U  c #F1540D",
"Y  c #F35513",
"T  c #EE6505",
"R  c #ED6902",
"E  c #F16B02",
"W  c #FA6804",
"Q  c #FF7600",
"!  c #F7750A",
"~  c #B71C42",
"^  c #B01559",
"/  c #863B40",
"(  c #B12546",
")  c #BE1562",
"_  c #C91442",
"`  c #CB1C43",
"'  c #C5114A",
"]  c #CF2F40",
"[  c #CD224B",
"{  c #D72D41",
"}  c #D83548",
"|  c #CC2B56",
" . c #D52F5B",
".. c #E22B41",
"X. c #E6334A",
"o. c #E8354A",
"O. c #EB364A",
"+. c #EB3C53",
"@. c #C71763",
"#. c #CB1663",
"$. c #D31666",
"%. c #D81D63",
"&. c #D5176C",
"*. c #DB196E",
"=. c #DA1870",
"-. c #E11C6F",
";. c #C52D72",
":. c #F22765",
">. c #F6286D",
",. c #FC2C6E",
"<. c #FD336F",
"1. c #FE2D71",
"2. c #E43574",
"3. c #FF3472",
"4. c #F53A73",
"5. c #FF3B7A",
"6. c #874749",
"7. c #894849",
"8. c #EF4056",
"9. c #EE435A",
"0. c #DC4E68",
"q. c #DF556F",
"w. c #E94C68",
"e. c #E8516A",
"r. c #F3526E",
"t. c #FF437E",
"y. c #EA5A75",
"u. c #F55675",
"i. c #F95A77",
"p. c #F65A7A",
"a. c #FB5C7B",
"s. c #FC607E",
"d. c #DC9E07",
"f. c #FF8100",
"g. c #FF860A",
"h. c #ECA902",
"j. c #F6A906",
"k. c #E2B400",
"l. c #ECB402",
"z. c #EDB90A",
"x. c #F6B406",
"c. c #FCB401",
"v. c #FEBE00",
"b. c #FEC100",
"n. c #FECA00",
"m. c #FFC509",
"M. c #FECF09",
"N. c #FFD009",
"B. c #FFD412",
"V. c #FEDD3F",
"C. c #FFE93F",
"Z. c #EDC941",
"A. c #ECD441",
"S. c #EDD84A",
"D. c #FFE347",
"F. c #FFEE47",
"G. c #FFE448",
"H. c #FFEF48",
"J. c #FFF04A",
"K. c #FFF351",
"L. c #FFF15B",
"P. c #FFF465",
"I. c #FF4785",
"U. c #F85F80",
"Y. c #FC6482",
"T. c #FC6887",
"R. c #F16A8D",
"E. c #FD6989",
"W. c #FB6F91",
"Q. c #EA7091",
"!. c #F77499",
"~. c #FA769B",
"^. c #FC799C",
"/. c #E47FA6",
"(. c #FC7DA1",
"). c #E983A8",
"_. c #FC80A6",
"`. c #FC84AA",
"'. c #FD88AF",
"]. c #E38DB5",
"[. c #EE8FB7",
"{. c #F98DB8",
"}. c #EF91B9",
"|. c #FB93BD",
" X c #FE93C2",
".X c #FF99C4",
"XX c #FF9DC9",
"oX c #FFA0CD",
"OX c #FEA8D0",
"+X c #C9C6C6",
"@X c #C9C6C7",
"#X c #D3C9C9",
"$X c #DECACA",
"%X c #F3CDD9",
"&X c #FEFCD8",
"*X c #F8D9E3",
"=X c #E4E3E3",
"-X c #EDE4E4",
";X c #F0E7E7",
":X c #F0E8E8",
">X c #FEFDEA",
",X c #FFFFFF",
/* pixels */
",X,X,X,X,X,X,X,X,X,X,X,X,X,X,X,X,X,X,X,X,X,X,X,X,X,X,X,X,X,X,X,X,X,X,X,X,X,X,X,X,X,X,X,X,X,X,X,X,X,X,X,X,X,X,X,X,X,X,X,X,X,X,X,X",
",X,X,X,X,X,X,X,X,X,X,X,X,X,X,X,X,X,X,X,X,X,X,X,X,X,X,X,X,X,X=X=X=X=X=X=X=X=X=X=X=X=X=X=X=X=X,X,X,X,X,X,X,X,X,X,X,X,X,X,X,X,X,X,X",
",X,X,X,X,X,X,X,X,X,X,X,X,X,X,X,X,X,X,X,X,X,X,X,X,X,X,X,X,X=X1 > > - > > > > & & > > > > & 1 =X,X,X,X,X,X,X,X,X,X,X,X,X,X,X,X,X,X",
",X,X,X,X,X,X,X,X,X,X,X,X,X,X,X,X,X,X,X,X,X,X,X,X,X,X=X=X=X+X* . X o o O @ @ @ O + @ o o . * +X=X=X=X,X,X,X,X,X,X,X,X,X,X,X,X,X,X",
",X,X,X,X,X,X,X,X,X,X,X,X,X,X,X,X,X,X,X,X,X,X,X,X,X=Xi > > , 3 6 k c F ] 0.q.q.0.] F c k 5 3 - - & 1 =X,X,X,X,X,X,X,X,X,X,X,X,X,X",
",X,X,X,X,X,X,X,X,X,X,X,X,X,X,X,X,X,X,X,X,X,X,X,X=X+X* . O # 7 n ~ [ +.9.Y.E.E.Y.9.+.` ~ m y # O . % +X=X,X,X,X,X,X,X,X,X,X,X,X,X",
",X,X,X,X,X,X,X,X,X,X,X,X,X,X,X,X,X,X,X,X,X,X,X=Xi * 3 6 V ] e.y.'.|.|.|..X XXX.X X|.|.}.[.).} V 6 3 * i =X,X,X,X,X,X,X,X,X,X,X,X",
",X,X,X,X,X,X,X,X,X,X,X,X,X,X,X,X,X,X,X,X,X,X=X+X; + 7 n X.9.Y.W.XXoXoXoXoXoXoXoXoXoXoXoXoX Xw.} m p O ; +X=X,X,X,X,X,X,X,X,X,X,X",
",X,X,X,X,X,X,X,X,X,X,X,X,X,X,X,X,X,X,X,X,X=X1 < j b e.y.{. X XXXXXoXoXoXXXoXoXoXoXoXoXoXoXoX X|.].).~ j ; i =X,X,X,X,X,X,X,X,X,X",
",X,X,X,X,X,X,X,X,X,X,X,X,X,X=X=X=X=X=X=X=X+X, + b [ s.W..XoXoXXXoXoXoXoXoXoXoXoXoXoXoXXXoXoXoXoXoX X| ~ + , +X=X,X,X,X,X,X,X,X,X",
",X,X,X,X,X,X,X,X,X,X,X,X,X=X1 & > > > > > , 3 7 0.p.|..XoXoXoXoXoXoXXXoXoXoXoXoXoXoXoXoXoXoXoXoXoXoX|./.y 3 , 1 =X,X,X,X,X,X,X,X",
",X,X,X,X,X,X,X,X,X,X,X,X=X+X* . X X @ o @ # 7 m y.E..XoXoXoXoXoXoXoXoXoXoXoXoXoXoXoXoXoXoXoXoXoXoXoXoX}.m 6 . > =X,X,X,X,X,X,X,X",
",X,X,X,X,X,X,X,X,X,X,X=Xi * 3 6 k c F G 0.q.y.y.^._.XXoXoXoXoXoXoXoXoXoXXXoXoXoXoXoXoXoXoXoXoXoXoXoXoX|.} D @ > =X,X,X,X,X,X,X,X",
",X,X,X,X,X,X,X,X,X,X=X+X- o 7 d b [ +.9.s.E.Y.E._.`.XXoXoXXXoXoXoXoXoXoXoXXX}.}. X XXXoXoXXX[.[. X XoX|.w.} + , +X=X,X,X,X,X,X,X",
",X,X,X,X,X,X,X,X,X=X1 - 3 7 F } R.~.|.|..X|._.^._.`.XXoXoXoXoXoXXXoXoXoXoX}.B N 4.I. XoXoX}./ m 4.I. XoX|.).p 3 & 1 =X,X,X,X,X,X",
",X,X,X,X,X,X,X,X,X=X- . 5 d } 8.^.'.XXoXoXoX'._._._.XXoXoXoXoXoXoXoXoXoXoX}./ s  .2.|.XXoX}./ N | 2. XoXoX{.m 6 + : +X=X:X,X,X,X",
",X,X,X,X,X,X,X,X,X=X& o k b R.(..XXXoXoXXXoXXX.X`.`.XXXXoXoXoXoXoXoXoXoXoXOX-X#X: : ].oXoXOX*X#X< : ].oXoX|.} G F V < 1 =X,X,X,X",
",X,X,X,X,X,X,X,X,X=X> o c [ !.`.XXoXoXoXoXoXoXXX`.'.XXoXoXoXoXoXoXoXoXoXoXOX*X#X, , ].oXoXOX-X#X% % ].oXoX X9.O.+.} $ , @X=X,X,X",
",X,X,X,X,X,X,X,X,X=X> o F O.~.`.XXXXoXoXoXoXoXoXXXXXoXoXoXoXoXXXXXoXoXoXoX X .( o - ].oXoX X .( o % ].oXoX.XY.U.~.R.b j ; 1 =X,X",
",X,X,X,X,X,X,X,X,X=X> O F O.~.`..XXXoXoXoXoXoXoXXXXXoXXXoXoXoXoXoXoXoXoXoX}.~ j X % ].oXoX}.~ j o - ].OXoX.XE.E._.^.[ b X & =X,X",
",X,X,X,X,X,X,X,X,X=X& o c ` !._.`.`.XXoXXXoXoXXX'.'.XXoXoXoXoXXXoXoXoXoXoX].: o   % ].oXOX].: X   - ].oXoXXX(.`. X|.p.0.@ & =X,X",
",X,X,X,X,X,X,X,X,X=X1 ; k b R.~.(.`..XoXXXXXXX.X_.`.XXoXoXXXXX X.X.X.X.XXX].: O   ; ].oXoX].: O . - ].oXXX X(.(.XXXXR.q.@ - =X,X",
",X,X,X,X,X,X,X,X,X,X=X@X< $ ] w.^.`.`.`.`.`._.`._.`.XXXXoXXXW.T.E.Y.E.W.XX|.} D 6 y ].oXoX|.} V 5 y Q.(.`.(.E.E.XX XT.q.@ & =X,X",
",X,X,X,X,X,X,X,X,X,X,X=X1 < V ] Q.Q.!.~.(.^.(.^.(.`.XXoXoX XY.a.U.U.a.Y. X|.w.{ l N [.oXOX|.9.{ l l Q.(.(.!.U.U.|.|.Y.0.@ & =X,X",
",X,X,X,X,X,X,X,X,X,X,X,X=X+X; + 7 n } 8.a.T.Y.Y.(.`.XXoXoX Xt.<.1.1.1.5. X.XY.u.G } |.oXoX.XY.r.} { 3.3.3.<.+.+._.^.8.F @ > =X,X",
",X,X,X,X,X,X>X,X,X,X,X,X,X=X1 - 3 6 V G r.p.Y.Y.(.`.XXoXoX XI.5.5.5.5.I. X.XW.U.8.w..XoXoXXXW.Y.9.+.3.5.3.<.O.O.R.R.} V < 1 =X,X",
",X,X,X,X,X,X,X,X,X,X,X,X,X,X=X+X, . @ $ b [ W.(.(.`.XXXXoXXX X X X X X XXXoX XXX X|.XXoXoXoX.X.X|.|. X X(.W.O...[ b $ < +X=X,X,X",
",X,X,X,X,X,X,X,X,X,X,X,X,X,X,X=Xi &   X k b !.(._._.XXXXoXoXoXoXoXoXoXoXoXoXXXoXoXoXXXXX{.|.XXoXoXXXXXXX(.!.} G c k , i =X,X,X,X",
",X,X,X,X,X,X,X,X,X,X,X,X,X,X,X,X=X+X& . 2 l y.E.(._.`.'.XXoXoXoXoXoXoXoXoXoXoXoXoXXX'.!.| | |.oXoXXX`._.T.y.l 6 O % +X=X,X,X,X,X",
",X,X,X,X,X,X,X,X,X,X,X,X,X,X,X,X,X=X< O 6 u e.a.^.(.(.`..XXXXXXXXXoXoXoXoXoXoXXXoXXX'.(.| | {.XXXXXX_.~.p.w.y 3 - 1 =X,X,X,X>X,X",
",X,X,X,X,X,X,X,X,X,X,X,X,X,X,X,X,X-Xs 5 z v X.+.a.T.(._.`.`.`.`.XXoXXXoXoXXXoXoXXXXXXXXX}.{.`.`.`.(.E.p.[ b O - +X=X,X,X,X,X,X,X",
",X,X,X,X,X,X,X,X,X,X,X,X,X,X,X,X=X#Xs u b ` G X.i.Y.^.(.^.(.(._.XXXXXXXXXXXXXXXXXXXXXXXXXX X_.(.(.^.Y.u.b k o - =X,X,X,X,X,X,X,X",
",X,X,X,X,X,X,X,X,X,X,X,X,X,X,X=Xi : ^ &.>.:.Z A u.Y.Y.T.Y.Y.Y.T.(._.`.`.`.`.`.`.`._.`.`.`._.E.Y.Y.s.s.y.l 5 . - =X,X,X,X,X,X,X,X",
",X,X,X,X,X,X,X,X,X,X,X,X,X,X=X+X; $ ;.2.1.,.` A r.i.a.a.s.s.a.Y.^.(.(.(.^.(.(.^._.^.^._.^.^.s.s.s.s.i.e.y 3 - i =X,X,X,X,X,X,X,X",
",X,X,X,X,X,X,X,X,X,X,X,X,X=Xi ; k ( %X%Xt.,.,.:._ ` u.s.s.s.s.Y.Y.Y.E.Y.Y.Y.Y.T.Y.Y.Y.Y.Y.Y.s.s.s.i.[ b + - +X=X,X,X,X,X,X,X,X,X",
",X,X,X,X,X,X,X,X,X,X,X,X,X=X& X c | %X*Xt.,.,.,._ ` r.u.i.a.U.a.Y.a.a.s.s.s.s.a.s.s.s.a.s.s.a.i.u.w.b k o > =X,X,X,X,X,X,X,X,X,X",
",X,X,X,X,X,X,X,X,X,X,X,X,X=X> O c _ 4.I.3.,.,.,.,.:._ ` X.+.i.U.s.s.s.s.s.s.s.s.a.Y.a.Y.U.i.O.X.` b 9 6 . - =X,X,X,X,X,X,X,X,X,X",
",X,X,X,X,X,X-X-X-X-X-X-X-X#X& X c C :.,.,.,.,.1.1.:._ C ..X.r.u.u.u.i.i.i.i.i.i.i.i.u.u.u.r.X...A v u 7 # : @X=X:X,X,X,X,X,X,X,X",
",X,X,X,X,X;X6.a a a a a a p . O z A >.,.,.,.,.1.-.*.&.$.&.%._ A A F X.O.O.O.O.O.O.O.A A _ A Z C $.$.#.@.) ^ ; 1 =X,X,X,X,X,X,X,X",
",X,X,X,X;X$XM 4 w w w w w q = = z A :.>.>.:.>.:.$.@.#.#.@.@.v v v b G G G G ......{ A ' v A v ' $.*.-.-.=.) @ & +X:X,X,X,X,X,X,X",
",X,X,X;X6.M J R h.l.l.l.l.l.k.d.Z C A C A A A v u 7 9 u 7 u v v 9 6 0 9 0 0 v Z v C $.$.$.$.$.&.>.>.1.>.=.) o X p 7.-X,X,X,X,X,X",
",X,X;X$XM f R f.m.M.M.M.N.M.n.x.S D Z Z Z Z Z Z 0 8 8 8 e 0 x x d 4 4 4 4 8 v v v _ $.&.&.=.=.=.1.1.1.1.-.@.$ # 2 a $X-X,X,X,X,X",
",X-X6.M K E c.m.C.F.F.F.H.F.M.n.c.j.W T I I I I L L L L L L I I L L L T I P Z v v C $.=.=.&.&.*.>.1.1.1.1.>.@.^ 7 6 a 6.-X,X,X,X",
",X-Xa 4 T Q v.M.H.K.K.K.K.H.B.M.N.M.g.Q Q Q Q Q Q Q Q Q Q Q Q Q Q Q Q Q W I D Z v v $.&.&.&.=.=.>.1.1.1.1.1.-.@.9 6 4 M $X=X,X,X",
",X-Xa 4 L Q v.N.H.K.K.K.K.K.F.F.F.H.G.V.m.v.v.v.v.v.v.v.v.v.v.v.v.v.v.c.Q W W P 8 u v ' $.&.&.&.=.*.1.,.,.,.-.@.7 4 J J M 6.-X,X",
",X-X6.M J R c.m.C.H.K.K.K.K.K.K.K.K.K.H.B.M.M.M.n.n.n.n.n.n.n.n.n.n.n.v.Q Q W T f 0 z v #.$.=.&.=.=.>.>.1.>.=.@.d f E E f M $X-X",
",X,X:X$XM f E f.m.B.H.K.K.K.K.K.K.K.K.K.H.H.H.C.M.n.n.n.n.n.n.n.n.n.n.n.b.c.Q W T H 0 0 v ' $.&.=.&.-.=.*.*.=.%.Y R c.c.E J M a ",
",X,X,X-X6.M K R h.l.D.G.F.F.K.K.K.K.K.K.K.K.K.H.B.M.M.M.n.n.n.n.n.n.n.n.n.n.Q Q Q E f d x Z $.$.$.$.&.$.&.$.%. .W f.b.b.f.R 4 5 ",
",X,X,X,X:X$XM 4 w h ! g.m.B.H.K.K.K.K.K.K.K.K.K.F.F.F.D.M.n.n.n.n.n.n.n.n.n.b.c.v.c.R T W U A C v ' C C C Z Y W c.m.n.n.b.h.e 5 ",
",X,X,X,X,X-X6.a s M J R h.z.V.G.H.H.H.H.H.H.K.K.K.K.K.F.B.M.M.M.M.M.M.M.M.N.N.M.N.m.g.Q Q W S D D D D D D S W f.b.n.n.n.b.h.e 6 ",
",X,X,X,X,X,X-X-X-X$XM 4 w h ! g.m.N.M.M.M.B.F.K.K.K.K.J.F.F.F.F.H.H.H.H.H.H.F.F.H.H.G.V.m.c.x.x.x.x.x.x.x.x.v.v.n.n.n.v.f.R 8 5 ",
",X,X,X,X,X,X,X,X,X:X6.a a a H R c.v.n.n.n.M.F.K.K.K.K.K.P.P.P.P.K.K.K.K.K.K.K.K.K.K.K.J.B.N.M.M.M.M.M.M.M.M.M.M.M.M.n.v.E K M s ",
",X,X,X,X,X,X,X,X,X,X-X-X-X$XM f E f.b.n.n.M.H.K.K.K.K.P.&X>X>X&XP.K.K.K.K.K.K.K.K.K.K.K.H.F.F.F.F.F.H.H.H.H.F.F.H.C.M.l.g M $X;X",
",X,X,X,X,X,X,X,X,X,X,X,X,X;X6.M K E v.n.n.M.F.K.K.K.K.P.>X,X,X>XP.K.K.K.K.K.F.F.H.H.K.K.K.K.K.K.K.K.K.K.K.K.K.K.P.L.B.l.h M $X;X",
",X,X,X,X,X,X,X,X,X,X,X,X,X,X;X$XM h l.n.n.M.F.K.K.K.K.P.>X,X,X>XP.H.K.K.K.F.B.M.M.B.H.K.K.K.K.K.K.K.K.J.K.K.K.P.&X&XL.D.! K M s ",
",X,X,X,X,X,X,X,X,X,X,X,X,X,X,X-Xs e h.v.n.M.H.K.K.K.K.P.&X>X>X&XP.K.K.K.F.C.M.n.n.M.C.H.F.H.K.K.K.K.K.K.K.K.K.P.&X&XP.D.g.R 8 5 ",
",X,X,X,X,X,X,X,X,X,X,X,X,X,X,X-Xa 4 R f.b.N.H.K.K.K.K.K.P.P.P.P.K.K.K.F.B.M.n.n.n.n.N.N.N.B.H.K.K.K.K.K.K.K.K.K.P.P.K.F.m.h.e 5 ",
",X,X,X,X,X,X,X,X,X,X,X,X,X,X,X-X6.M J R c.m.C.H.K.K.K.K.K.J.F.F.F.F.D.D.z.k.l.l.l.l.l.l.l.z.C.G.G.G.H.J.J.K.K.K.K.K.K.F.m.h.e 6 ",
",X,X,X,X,X,X,X,X,X,X,X,X,X,X,X,X;X$XM f E f.m.B.J.K.K.K.K.J.B.M.M.m.g.! g w e e w w w w w h ! ! ! g.m.B.J.K.K.K.K.K.K.F.g.R 8 5 ",
",X,X,X,X,X,X,X,X,X,X,X,X,X,X,X,X,X;X6.M J R h.z.A.S.S.S.S.A.z.l.l.h.T K M s a a a a a a a M J L T R h.z.A.S.S.S.S.S.S.Z.! K M s ",
",X,X,X,X,X,X,X,X,X,X,X,X,X,X,X,X,X,X-X$XM 4 w w r t t t r r w w w w 4 M $X-X-X-X-X-X-X-X-X$XM 4 4 8 w e r t t t t t t r 4 M $X;X",
",X,X,X,X,X,X,X,X,X,X,X,X,X,X,X,X,X,X,X;X6.a a a s s s s a a a a a a a 6.:X,X,X,X,X,X,X,X,X;X6.a a s a a a a a a a a a a p 6.;X,X",
",X,X,X,X,X,X,X,X,X,X,X,X,X,X,X,X,X,X,X,X-X-X-X-X-X-X-X-X-X-X-X-X-X-X-X-X,X,X,X,X,X,X,X,X,X,X-X-X-X-X-X-X-X-X-X-X-X-X-X-X=X-X,X,X",
",X,X,X,X,X,X,X,X,X,X,X,X,X,X,X,X,X,X,X,X,X,X,X,X,X,X,X,X,X,X,X,X,X,X,X,X,X,X,X,X,X,X,X,X,X,X,X,X,X,X,X,X,X,X,X,X,X,X,X,X,X,X,X,X"
};
