/* XPM */
static char *c4f3df7d63b6450bc78a91be4eac5c22f8u0kIUZ36AMN2fk[] = {
/* columns rows colors chars-per-pixel */
"64 64 196 2 ",
"   c None",
".  c #000000",
"X  c #0C0607",
"o  c #0C0608",
"O  c #160102",
"+  c #130709",
"@  c #13090C",
"#  c #180C0F",
"$  c #190102",
"%  c #1B0D12",
"&  c #1D1315",
"*  c #2F0407",
"=  c #300205",
"-  c #251116",
";  c #2C161B",
":  c #30181E",
">  c #351B22",
",  c #252424",
"<  c #372025",
"1  c #7C040C",
"2  c #4E2631",
"3  c #562732",
"4  c #42373A",
"5  c #44222B",
"6  c #63303E",
"7  c #6A3442",
"8  c #663240",
"9  c #7C3D4E",
"0  c #753949",
"q  c #920D19",
"w  c #B70713",
"e  c #B70A16",
"r  c #AF1827",
"t  c #A32A3A",
"y  c #CB0714",
"u  c #CF0F1D",
"i  c #D70918",
"p  c #D90D1E",
"a  c #D50715",
"s  c #C5101E",
"d  c #CF101F",
"f  c #CC1423",
"g  c #C61D2E",
"h  c #C81929",
"j  c #D31323",
"k  c #D71325",
"l  c #DE1E35",
"z  c #E41D36",
"x  c #CB2234",
"c  c #C2293C",
"v  c #D5223B",
"b  c #813F52",
"n  c #923E50",
"m  c #AF3E52",
"M  c #B93B50",
"N  c #DF2842",
"B  c #C33247",
"V  c #EA2643",
"C  c #ED2C4D",
"Z  c #F02D4E",
"A  c #EC304C",
"S  c #ED3153",
"D  c #E63757",
"F  c #F33357",
"G  c #D33F60",
"H  c #EF3D62",
"J  c #FA3A63",
"K  c #FD3E6A",
"L  c #854354",
"P  c #894456",
"I  c #8E4659",
"U  c #8E485B",
"Y  c #91475B",
"T  c #93495C",
"R  c #984A5F",
"E  c #A4455A",
"W  c #A9475C",
"Q  c #AA495E",
"!  c #AE4257",
"~  c #9D4E63",
"^  c #9E5C6D",
"/  c #A44D63",
"(  c #AC4D64",
")  c #AF4F68",
"_  c #A34F68",
"`  c #B04D63",
"'  c #A45167",
"]  c #A65269",
"[  c #AC546C",
"{  c #AD586E",
"}  c #AB5067",
"|  c #B1556D",
" . c #B3586F",
".. c #AE5570",
"X. c #AF5B71",
"o. c #B25773",
"O. c #B45A72",
"+. c #BB5C74",
"@. c #BE5E79",
"#. c #B06579",
"$. c #BE627A",
"%. c #D5475E",
"&. c #C35C79",
"*. c #D35D77",
"=. c #D64D6C",
"-. c #E24469",
";. c #E74265",
":. c #F5436D",
">. c #FF426E",
",. c #EE4C72",
"<. c #FF4471",
"1. c #FF4873",
"2. c #FF4F7B",
"3. c #F44971",
"4. c #FF537B",
"5. c #C5617C",
"6. c #CC647F",
"7. c #B77184",
"8. c #BE7A8B",
"9. c #C35E83",
"0. c #FF5A81",
"q. c #CD6581",
"w. c #CD6489",
"e. c #CA6484",
"r. c #D16683",
"t. c #D56A86",
"y. c #D96B87",
"u. c #D76B89",
"i. c #DB6C8A",
"p. c #DA6181",
"a. c #DB708C",
"s. c #DA6994",
"d. c #D76794",
"f. c #E16E8D",
"g. c #E26D94",
"h. c #E56E9C",
"j. c #EB6D98",
"k. c #E47293",
"l. c #EB7394",
"z. c #ED749D",
"x. c #E97898",
"c. c #F47799",
"v. c #F5799A",
"b. c #FC7B9D",
"n. c #F07596",
"m. c #E46DA0",
"M. c #ED72A2",
"N. c #F275A6",
"B. c #FF7DA2",
"V. c #F475AB",
"C. c #FD76AC",
"Z. c #F57AAC",
"A. c #FD7BAD",
"S. c #F478A6",
"D. c #FF7BB3",
"F. c #FD7AB4",
"G. c #FA6EA3",
"H. c #DF889D",
"J. c #E6849C",
"K. c #E48BA1",
"L. c #ED8CA5",
"P. c #EB87A0",
"I. c #FF83A4",
"U. c #FE89A6",
"Y. c #FF81AB",
"T. c #FE8DAB",
"R. c #F489AB",
"E. c #E192A5",
"W. c #EA98AC",
"Q. c #F295AC",
"!. c #FE94AE",
"~. c #F098AD",
"^. c #FF83B5",
"/. c #FF8AB6",
"(. c #FF95B1",
"). c #F49CB1",
"_. c #FC9DB5",
"`. c #FF9DB8",
"'. c #F6A0B5",
"]. c #FDA1B7",
"[. c #FFA2B9",
"{. c #FFA5BB",
"}. c #FFA6BB",
"|. c #FFA7BB",
" X c #FFA7BC",
".X c #FFA6BC",
"XX c #FFA5BB",
"oX c #FFA8BD",
"OX c #FFA8BD",
"+X c #FCAEC1",
"@X c #FFB0C2",
"#X c #FFBBCB",
"$X c #E0D8DA",
"%X c #EDE3E6",
"&X c #F1E4E7",
"*X c #FEEFF2",
/* pixels */
"                                                                                                                                ",
"                                                                                                                                ",
"                                                                                                                                ",
"                                                                                                                                ",
"                                                                                                                                ",
"                                                                                                                                ",
"                                                                                                                                ",
"                                                                                                                                ",
"                                                                                                                                ",
"                                            . . . . . . . . . . . . . . . .                                                     ",
"                                            @ @ @ @ @ # % % # % # @ @ o @ +                                                     ",
"                                    . . . # 9 I I U ..@.d.s.i.y.@.o.Y I I b @ . . .                                             ",
"                                    . . . % T ] ] [ r.i.F.D.B.b.i.r.{ ] ] T # . . .                                             ",
"                                . @ 7 9 T ] s.h.g.k.L.)._.`.`._.Q.Q.E.J.l.i.' T 9 7 @ .                                         ",
"                                . @ I { r.i.F.D.B.I.{.{.|.|.|.|.{.|.OX{.I.b.i.r.| Y @ .                                         ",
"                              @ 2 8 e.s.l.n./.(.!.(.{.{.{.|.|.|.|.{.|.{.!.!.L.J.i.5.8 3 @                                       ",
"                            . @ Y o.V.D.B.I.{.{.}.|.}.OXOXOX|.OX{.|.|.|.oXoXOX{.I.c.o.Y @ .                                     ",
"                            . @ ~ &.S.A.T.T.{.{.}.}.}.'.K.H.L.Q.}.{.|.].K.H.L.Q.T.R.w.o.2 >                                     ",
"                            . # +.y.b.I.].|.{.{.}.}.OX).{ _ 6.a.).OX|.).{ ' q.a._.{.D.V.{ I @ .                                 ",
"                            & > 5.k.I.U.{.{.{.{.}.}.}.'.8.7.6.r._.OX|.'.8.7.5.r._.{./.Z.+.R # .                                 ",
"                        . @ P ] N.D.{.{.{.{.|.|.{.|.{.@X*X&X#.X.).OX{.@X*X&X#.X.)..X{._.i.O.# .                                 ",
"                        . @ T O.Z.^.`.OX{.|.|.{.|.{.{.@X%X$X^ ~ ).{.{.+X%X$X^ ' ~..X{._.a.$.- o                                 ",
"                        . #  .t.).`.{.{.|.{.{.|.{.OXOXW.4 , & > E.OXOXE.4 , % < E.OX.X].b.l.T 9 @ .                             ",
"                        . % @.a._..X|.|.{.|.|.{..X.XOXE.& . . & E.OXOXE.& . . & E.{.{.{.I.v.O.Y @ .                             ",
"                    . @ 8 b h.Z.{..X.X{.{.{.|.|.{.|.OX~.L 6 X & E.OXOX~.L 6 X & E.}.}.}._.Q.q.{ # .                             ",
"                    . @ Y o.V.D.`..XOX{.OX{.|.{.OX{.OX).O.I @ & E.OX.X).X.T @ & E.OX}.}.{._.i.+.# .                             ",
"                  @ 2 6 9.s.C.D.T.!.{.{.|.|.|.|.|.|.OX).X.I @ & E.OX.X).X.I @ & E.|.|.|.{.].n.q.& . .                           ",
"                . @ I o.V.F.F.D.B.I.].{.{.|.{.{.{.{.{.).X.I @ & E..XOX).X.I @ & E.OX{.{.{.{.U.f.% . . .                         ",
"                . @ R @.R./././.B.U.].{.{.{.|.|.|.{.|.).$.~ @ & E..XOX).$.~ @ & E.OX|.|..X`.Y.k.2 : . .                         ",
"                . # +.a._.{.{.].I.B.{.OX{.|.|.|.OXOX|.'.a.+.@ & E.OX.X_.a.O.@ & E.OX|.{..X{.^.N.{ I @ .                         ",
"                % > &.k._.{.{.{.T.U.].{.|.[.!.!.!.!.!.T.k.5.> < E.OX.X_.k.&.> > J.(.`.[.]._.^.Z.&._ : %                         ",
"            . @ L ' n.I.{.{.{.{.{.`.{.{.OX_.4.1.1.1.1.2.C.M._ ' ).OX.X[.^.M._ / :.2.D.D.B.I.`._.I.l._ L @ .                     ",
"            . @ T X.v.U.{.{.{.{.{.|.|.{.|._.4.1.1.1.<.4.A.Z.O.O.)..X{.{.^.Z.X.o.3.4.C.D.I.U.`.`.I.v. .Y @ .                     ",
"            . % | t.!.].{.{.OX.X|.{.|.|.{.{.!.!.!.!.!.!.`.`.~.~.{..X|.{.`.`.Q.Q.!.!.`.`.`._.U.U.b.b.t. .% .                     ",
"            . % +.a._.{.{.{.{.{.|.{.{.{.{.|.OXOXOX.XOXOX.X.XOXOX{.{.|.|.{..X.X.X|.OX|.|.{.].I.b.b.b.i.+.% .                     ",
"            . % d.S.U.!.[.{.T.T././.T.T.{.{.|.{.|.{.OX{.{..X|.{.{.{.T.U.x.J.]..X|.{.|.{.{.{.A.A.B.b.N.d.% .                     ",
"            . % h.D.B.I.{.`.I.B.D.D.B.B.{..X{.{.{.|.{.OX|.{.|.|.{.`.I.v.t.t._.|.|.{.|.{.{.{.^.D.B.B.F.m.% .                     ",
"            . % w.z.B.I.!.T.B.b.z.z.B.A.T.!.{.{.|.{.|.{.{.|.{.|.{.{.!.!.K.L.].{.{.|.|.{.!.T.A.A.A.B.z.w.% .                     ",
"            . # +.i.v.B.B.b.B.b.y.i.C.D.B.I.{.{.OX{.{.|.{.|.|.{.{.|.{.|.OXOX|.|.{.|.{.`.I.B.b.B.D.C.i.+.% .                     ",
"            . # [ q.l.c.B.B.c.l.6.q.Z.D.B.I.].|.{.|.{.|.|.{.|.|.|.{.|.{.{.|.{.|.|.{.{.{.Y.B.v.n.S.M.q.{ # .                     ",
"            . @ Y { q.i.C.F.i.q.] { V.D.B.I.{.[.{.{.|.{.|.{.|.{.{.{.|.{.{.|.{.|.{.{.|.{.^.C.i.t.t.r.{ Y @ .                     ",
"            . @ 9 I &.r.M.M.r.6.] ..V.F.B.I.`.`.`.`.{.|.|.|.{.|.|.|.|.|.|.|.|.{.].].`._.C.N.w.6.6.&.Y 9 @ .                     ",
"                o - T ] { ] ] ] _ | V.F.F.A.B.I.B.U.{.{.{.{.|.{.{.{.{.|.{.{.{.].U.I.D.F.s.r...] ] T - o                         ",
"                . @ P ~ ~ _ / / / ) N.D.F.D.B.B.b.I.`.{.{.{.{.{.{.{.{.{.{.{.{.].B.B.D.C.u.q.( / ' Y % .                         ",
"                    - : T W g f f x p.g.D.F.D.A.D.A.U.I.U.I.I.U.U.U.I.U.I.I.^.D.D.D.F.V.+.` g g Q ' L 0 @ .                     ",
"                    . @ U Q d a a j *.i.C.D.F.F.F.F.B.B.b.B.B.B.B.b.b.B.B.B.F.F.D.D.F.V...W d d W ' ' Y @ .                     ",
"                . $ 1 q %.-.S Z Z Z ,.,.D D C.D.F.F.A.A.A.A.C.A.A.A.A.A.A.D.D.D.k.g.e.&.c x C S -.=.} Y @ .                     ",
"                . $ w p J K >.<.<.>.>.J p k G.F.F.F.F.F.F.F.F.F.D.D.F.F.F.F.F.A.i.q.] W u p J K >.:.} U @ .                     ",
"              @ 5 3 v A U.T.1.>.>.>.>.J V V ;.,.j.M.D.D.F.F.F.F.F.F.F.F.D.D.z.h.&.+.' ( N V K >.>.K B t @ .                     ",
"            . @ Y ) :.0.*X*X4.>.>.>.>.>.<.J p j *.i.F.F.F.F.F.F.D.D.F.F.D.C.i.6.] _ ' ( :.<.>.<.>.J p w $ .                     ",
"            . @ Y ) :.4.#X#X4.>.>.>.>.>.<.J z l %.=.g.m.N.N.N.S.V.N.h.h.m.h.5.5.] / m M D F F F -.;.x r $ .                     ",
"            . @ Y ) :.>.1.1.>.>.>.<.>.>.<.>.<.J k f Q [ r.y.t.y.u.r.{ ] ] ] ' ' ] Q j i i i i f Q ' ( Y @ .                     ",
"            . @ Y ( H J J J J J J J J J J J J F k h W ] O.O.+.O.O.o.Y I I I I I I n e w w w w e n I I 9 @ .                     ",
"            . @ Y Q k i p p p p p p p p p p p j ! Q ' U - @ # @ @ # @ + @ @ o @ @ o O O O O O O + + o @                         ",
"            . @ I E s y y y y y y y y y y y y s E ~ ~ I @ . . . . . . . . . . . . . . . . . . . . . . .                         ",
"                - - * = * * * * = = = = * * = * - - - -                                                                         ",
"                . . . . . . . . . . . . . . . . . . . .                                                                         ",
"                                                                                                                                ",
"                                                                                                                                ",
"                                                                                                                                ",
"                                                                                                                                ",
"                                                                                                                                ",
"                                                                                                                                ",
"                                                                                                                                "
};
