/* XPM */
static char *_f1e60e2c3234e15921c30a7714959c9TejzpqL0AjQRbdpX[] = {
/* columns rows colors chars-per-pixel */
"64 64 194 2 ",
"   c None",
".  c #1C2234",
"X  c #23242C",
"o  c #27282E",
"O  c #28292E",
"+  c #242A33",
"@  c #2B2D32",
"#  c #2E3033",
"$  c #343433",
"%  c #3C3A35",
"&  c #423F2E",
"*  c #443D33",
"=  c #524D2D",
"-  c #434232",
";  c #4A4132",
":  c #4D4A32",
">  c #44443B",
",  c #48473C",
"<  c #4C4B3E",
"1  c #544632",
"2  c #5E4E32",
"3  c #574932",
"4  c #645D2D",
"5  c #624F32",
"6  c #645232",
"7  c #6D5531",
"8  c #6F5831",
"9  c #635E39",
"0  c #705731",
"q  c #735B31",
"w  c #7B5E31",
"e  c #6F682F",
"r  c #756D2F",
"t  c #6F6930",
"y  c #7E6131",
"u  c #766D30",
"i  c #4F4E40",
"p  c #5C5A45",
"a  c #555343",
"s  c #605E47",
"d  c #646249",
"f  c #69664B",
"g  c #6D6B4D",
"h  c #726F4F",
"j  c #73704F",
"k  c #6E6C50",
"l  c #767351",
"z  c #797652",
"x  c #7D7954",
"c  c #816531",
"v  c #896B31",
"b  c #926D30",
"n  c #986D30",
"m  c #897F33",
"M  c #877C36",
"N  c #967030",
"B  c #9D7330",
"V  c #9C7930",
"C  c #84792B",
"Z  c #AF7F2F",
"A  c #A17730",
"S  c #A67930",
"D  c #A87D30",
"F  c #827E57",
"G  c #9E912E",
"H  c #B5832F",
"J  c #BA852F",
"K  c #BE882F",
"L  c #A3962E",
"P  c #A99B2E",
"I  c #BC922F",
"U  c #AA8130",
"Y  c #A18930",
"T  c #A79A35",
"R  c #B3A433",
"E  c #B3A53A",
"W  c #C68D2F",
"Q  c #C88F2F",
"!  c #CC922F",
"~  c #CD982F",
"^  c #D4962E",
"/  c #DC9B2E",
"(  c #C09C30",
")  c #D4A82F",
"_  c #DBAB2F",
"`  c #D1A72F",
"'  c #D5B72F",
"]  c #C2AB30",
"[  c #C4B331",
"{  c #E2A52E",
"}  c #E4AB2E",
"|  c #EDAD2E",
" . c #ECB62E",
".. c #E4BA2F",
"X. c #EEBA2E",
"o. c #F0BB2E",
"O. c #F0B42E",
"+. c #D6C22E",
"@. c #DAC52F",
"#. c #DBC93B",
"$. c #D8C430",
"%. c #EEC62E",
"&. c #E4CB2F",
"*. c #ECCA2F",
"=. c #E6C12F",
"-. c #F0C62D",
";. c #F1CB2E",
":. c #EDD12F",
">. c #F1D42F",
",. c #F3DC2E",
"<. c #F2DC32",
"1. c #F3DD3B",
"2. c #F8E02D",
"3. c #F9E233",
"4. c #FBE438",
"5. c #848056",
"6. c #8A865A",
"7. c #888457",
"8. c #A69D4F",
"9. c #A19B5B",
"0. c #9E9962",
"q. c #999460",
"w. c #A29D64",
"e. c #A29D68",
"r. c #A6A166",
"t. c #A9A367",
"y. c #A6A169",
"u. c #ABA568",
"i. c #AFA96A",
"p. c #B3AC67",
"a. c #B3AD6C",
"s. c #B7B16D",
"d. c #BAB46F",
"f. c #B7B170",
"g. c #C7B945",
"h. c #C4BA61",
"j. c #C8BF68",
"k. c #C4BD73",
"l. c #C4BE78",
"z. c #D9CB56",
"x. c #E5D44B",
"c. c #EFDB44",
"v. c #F2DE46",
"b. c #F2DF4B",
"n. c #E9D853",
"m. c #EADA58",
"M. c #F6E144",
"N. c #FCE642",
"B. c #F4E24D",
"V. c #FDEA4D",
"C. c #F5E451",
"Z. c #F3E35C",
"A. c #FAE857",
"S. c #DCD167",
"D. c #C6C074",
"F. c #CAC376",
"G. c #CFC878",
"H. c #D7CF7B",
"J. c #D7D07C",
"K. c #DAD27D",
"L. c #DDD373",
"P. c #E4D763",
"I. c #E7DE7E",
"U. c #EDE068",
"Y. c #F3E565",
"T. c #FBEB63",
"R. c #F4E76A",
"E. c #F7E96B",
"W. c #FBEC6A",
"Q. c #FEF06F",
"!. c #EDE37D",
"~. c #F2E571",
"^. c #F2E77C",
"/. c #F3E97D",
"(. c #F9ED76",
"). c #FDF179",
"_. c #D7D080",
"`. c #E3DB81",
"'. c #E8DF83",
"]. c #ECE485",
"[. c #F0E787",
"{. c #F3EA85",
"}. c #F3EA88",
"|. c #F8EF8D",
" X c #F8EF8A",
".X c #F9EF85",
"XX c #FAF18B",
"oX c #F9F08A",
"OX c #FAF18D",
"+X c #FFF58D",
"@X c #FEF58E",
"#X c #FDF48D",
"$X c #FEF589",
"%X c #FFFC91",
/* pixels */
"                                                        O O O O O O o o                                                         ",
"                                                        $ $ $ $ $ $ $ $                                                         ",
"                                                        < < < i i i < <                                                         ",
"                                                      p f h z z l l l f p                                                       ",
"                                                  $ < f 6.w.t.u.u.t.0.6.f < $                                                   ",
"                                                O $ < h 0.k.J.`.`.K.k.0.l < $ o                                                 ",
"                                                O $ < l t.K.{.+X+X{.K.t.l < $ o                                                 ",
"                                                X # , l t.K. X%X%X XK.u.l < @ X                                                 ",
"                                                X @ , l u.K. X%X%X XK.u.h > # X                                                 ",
"                                                O $ < l u.K.}.+X+X}.K.u.z < $ O                                                 ",
"                                                > < d 7.p._.}.+X+X}.K.a.7.d < >                                                 ",
"                                              p d l 6.r.k.'.}.+XXX}.`.D.r.6.l f p                                               ",
"                                          $ < f 6.w.d.D.K.].}.}.}.}.].K.D.a.w.7.f < $                                           ",
"                                        O $ < j 0.k.K.].].}.}.}.}.}.{.].].K.k.0.h < $ O                                         ",
"                                        O $ < l u.K.[.XX}.}.}.}.}.}.}. XOX[.K.u.j < $ O                                         ",
"                                      X X @ < j u.K. X#XOX}.{.}.}.}.}.+X+X XK.u.z , @ X X                                       ",
"$ $ $ # O O O O O O o @ o O O O O O o X X O < j u.K.}.+XXX}.}.}.}.}.}.XX+X XK.u.l , # X X o o o O O O O O O o @ o o O O $ $ $ $ ",
"$ $ $ $ $ $ $ $ $ $ $ $ $ $ $ $ $ $ $ # @ $ < x i.K.}.#XXX}.}.}.}.}.}.XXXX}.K.u.z < $ @ @ $ $ $ $ $ $ $ $ $ $ $ $ $ $ $ $ $ $ $ ",
"$ $ $ % > , < a i < < i < < < < i i < , , < d 6.d.K.}.XX X}.}.{.}.{.}. XXX}._.d.6.s < , < < i i < < i i i < i i < < < > % $ $ # ",
"@ $ % < s h x x z z l l l z l z l l l l j z 6.t.D.].}.XXXX{.}.}.}.}.}.XXXX}.'.k.t.6.z l h l l l z l z l l l l x x x h s i * $ O ",
"O $ > p F 0.u.p.a.u.t.t.t.t.t.t.t.t.t.t.u.u.d.D._.{.XXXX X}.}.}.{.}.}. X|. X[.I.F.s.u.u.t.t.t.t.t.t.u.t.t.u.u.p.p.i.0.x p > $ @ ",
"O $ , g q.k.K.K.K.K.K.J.K.K.K.K.K.J.K.J.K.K.K.`.].].}.}.}.}.}.}.}.}.}.}.}.}.[.'.I.K.K.J.J.K.K.K.K.K.J.J.J.J.K._.K.J.k.q.g < $ O ",
"O % < h 0.k.K.'.].[.}.}.{.[.}.[.}.[.}.{.}.{.[.'.`.K.K.I.].].}.}.}.}.].].`.K.K.I.'.[.{.}.{.[.{.{.[.{.}.}.{.}.[.].].K.D.0.j < $ O ",
"o $ < g 6.w.d.G.`.}.+X@X+XOX|.+XOX|.XXXX+XXX[.K.D.f.a.k.H.].}.}.}.[.].J.k.s.s.k.K.[.|.+X+XXXOXXXOXOXOX+X@X+X}.`.G.d.r.6.f < $ o ",
"      p f z 6.u.G.].+X%X+X|.|.|. X X X+X+X}.'.D.w.6.6.w.k.`.}.OX+X}.'.k.w.6.6.r.D.'.}.XX+X XXXXX|.|.OX@X%X+X].G.u.6.z f p       ",
"        > i d 6.a.K.}. X X}.}.}.}.}.}. X X}.K.a.5.d d 5.p.K.}.#X+X{._.p.F d d 5.a.K.}.+X X}.}.}.}.}.}. X X}._.a.6.d < >         ",
"        @ $ i l 0.k.K.I.]./././.}.}.}. X X}.K.u.j < i l u.J.}.+X+X}.J.r.j < < j t.K.}.|. X}.}.}.{./.^.!.I.K.l.0.l i $ @         ",
"          + * d F 0.p.j.P.P.E.(.(.}.}.|.OX}.H.w.g , , g r.J.{.+X+X}.J.r.h > < g w.J.}.OX|.}.}./.(.W.U.S.j.p.0.F s > O           ",
"              i d l 7.8.g.n.A.T.(.}.}.|.|.}.J.r.h , , h w.J.}.+X+X}.K.w.g < , h r.J.}.OX|.|.}.(.T.A.x.g.8.7.j s i               ",
"                > < s M E #.v.A.E./.}.OX|.}.K.r.h < < h t.J.}.+X+X}.J.r.j < < h r.J.[.OX|.}./.W.A.v.x.E M 9 i >                 ",
"                + $ : u L [ #.x.m.~.{..XOX{.K.r.h < < h t.J.}.+X+X}.J.t.h < < h r.K.}.XX.X/.~.m.x.#.R L u : $ @                 ",
"                  @ & 4 C G R g.z.m.E.(..X}.K.y.h < , h w.J.}.+X+X{.K.w.h , < g y.K.{..X(.R.m.z.g.R L C 4 & @                   ",
"                      = e t u G g.x.Z.W.).{.J.y.k , , k y.J.}.@X+X}.J.r.g < , k e._.{.).W.A.x.g.T m u 4 =                       ",
"                        % < t Y R #.M.A.Q.^.J.r.h i i l t.J.}.@X+X}.J.y.j < i l u.K.^.Q.A.v.#.E M 4 : -                         ",
"                        + $ : u P +.4.A.T.~.L.i.5.d d 5.i._.}.@X+X}._.a.5.d d F p.L.~.T.V.1.$.P u : $ +                         ",
"                        . + - t L +.<.N.V.Z.m.d.9.7.6.y.D.`.}.|.OX}.'.k.y.6.7.9.h.P.Z.A.N.<.$.L e - + .                         ",
"                        . @ ; t L +.,.4.N.B.n.z.h.s.d.D.J.].}.|.|.}.].J.l.f.s.h.z.n.b.M.4.<.+.L u - @ .                         ",
"                        + $ : u P $.,.3.3.1.c.n.S.L.K.`.].[.}.}.}.}.].].`.K.L.P.n.c.1.3.2.<.@.P u : $ +                         ",
"                        % ; 6 C R @.,.2.2.<.1.b.Z.~.^.{.^.^.^.^.^.^././.^.^.~.Y.B.<.,.2.2.,.@.R C 6 ; %                         ",
"                      1 5 8 v Y ] @.<.2.,.,.<.M.C.T.W.E.E.R.R.Y.R.R.R.E.E.E.T.C.M.<.,.,.,.,.&.] Y v 8 2 1                       ",
"                  $ * 5 c b U ( ' &.,.,.,.,.<.4.M.B.V.C.C.C.C.B.B.C.C.C.B.C.B.M.1.<.,.,.2.,.&.' ( U N w 5 ; $                   ",
"                @ $ ; 7 b J ~ _ =.:.,.,.,.,.,.<.<.<.1.1.1.1.1.<.1.1.1.1.<.,.4.1.<.,.,.,.,.,.:.=._ ~ H b 7 ; $ @                 ",
"                @ $ ; 7 B Q {  .*.>.,.,.,.<.,.,.,.,.,.,.>.>.>.>.>.>.:.>.,.,.,.,.,.,.,.,.,.,.>.-.X.{ Q B 7 ; $ +                 ",
"                + $ - 7 B Q { o.;.>.,.,.2.,.,.,.,.,.>.>.>.%.%.-.-.;.*.*.>.,.,.,.,.,.,.2.<.<.>.-.o.} ! B 7 * $ +                 ",
"                + # * 7 B Q { X.-.>.<.,.,.2.,.,.,.,.,.:.%.X. . . . .X.-.:.,.,.2.,.,.,.,.2.,.>.-.O.{ Q B 8 * # +                 ",
"                @ $ ; 0 B Q { X.-.>.,.,.,.,.,.,.,.,.>.%...} { { { _ }  .-.:.,.,.,.,.,.,.,.,.>.-.X.{ Q B 0 ; $ @                 ",
"                * ; 2 y D ~ } X.;.>.,.,.>.>.:.<.>.:.*...) ~ Q W W Q ! ) ..&.>.>.<.>.>.>.<.<.>.*.o.} ~ D c 2 ; *                 ",
"              3 5 8 c V I _ ..%.>.<.<.>.>.;.*.*.;.%...` I D B n n n D I ` ..-.;.*.*.;.>.>.,.,.:.*...) I V c 8 5 1               ",
"          $ ; 5 y N D I ` ..*.>.>.<.>.;.;.X.X.o.o. ._ I V c 8 6 6 8 y V I _ X.o.o...o.-.>.>.,.>.>.%...` I U N y 5 ; $           ",
"        + $ ; 7 b H ~ _ ..*.>.<.,.<.>.*...} { { { { ~ D c 2 ; * * ; 5 c D ~ { { { { } ..-.>.,.<.<.>.*..._ ! H b 8 ; $ @         ",
"        @ $ ; 8 B W { X.%.*.>.>.<.>.*...) ~ ! Q Q W H N 8 ; $ @ @ $ ; 8 b J W Q ! Q ~ ) ..*.>.,.>.>.*.%.O.{ W B 8 ; $ @         ",
"        + $ * 8 B Q { O.o.-.;.;.;.%...` I D N B B B b c 2 * @ . . @ * 5 y b B B B B S I ` ..-.;.;.;.%.o.O.{ ! B 7 * # +         ",
"        + # * 8 B ! { | X.X.X.O.o.X._ I V y 0 7 7 0 7 6 3             3 6 7 7 7 7 q c A I _  .o.o.o.X.O.| { Q B 8 * # +         ",
"        @ $ ; 0 A ! / { { { { { { { ~ D c 6 ; * * * ; *                 ; ; ; * * * 5 c U ~ _ { } { { { { / Q B 8 ; $ @         ",
"        * ; 6 c S ! / / ^ ! Q ! ! W H N 8 ; $ # $ $ $ $                 $ $ $ # # $ ; 8 b J W ! Q Q Q ^ / / ! S c 2 ; *         ",
"      3 6 0 c A W ^ / ! H S B B V N b y 5 * @ + @ @ @                     @ @ + + @ * 5 y b B B B B S J ! / ^ W A c q 6 3       ",
"@ $ ; 6 c V D W ^ / ^ K B w 0 8 7 8 7 6 1                                             3 5 7 8 7 7 0 c N J ^ / ^ W D B c 7 ; $ @ ",
"@ $ ; 7 b H Q / / ^ Q D c 2 ; * ; ; ; *                                                 * ; ; * * ; 2 c S Q / / / ! H b 7 * $ @ ",
"@ $ * 7 v Z W ~ ^ W H n 0 * $ $ # $ $ $                                                 $ $ $ $ # $ ; 7 N J Q ^ ! W H v 6 ; $ @ ",
"@ $ * 3 w n A S S B n w 5 * @ + + @ @                                                     @ @ + + @ * 5 c b V S S S b w 3 * $ @ ",
"$ $ $ ; 3 7 q w 0 8 7 6 3                                                                             3 6 7 0 q w q 7 2 ; % $ $ ",
"$ $ $ % * ; ; ; ; ; ; ;                                                                                 * ; ; ; ; ; * * % $ $ $ ",
"$ $ $ $ $ $ $ $ $ $ $ $                                                                                 $ $ $ $ $ $ $ $ $ $ $ $ ",
"# $ $ $ # # + # + # @ @                                                                                 @ @ @ @ @ @ @ # # # $ # "
};
