/* XPM */
static char *_498edadb1244e40a8c2b81f6113619fof7kupDZ984YIfL1[] = {
/* columns rows colors chars-per-pixel */
"64 64 211 2 ",
"   c #A9A9A9",
".  c #494949",
"X  c #020202",
"o  c #010101",
"O  c black",
"+  c #2A2A2A",
"@  c gray62",
"#  c #B1B1B1",
"$  c #353535",
"%  c #151515",
"&  c #0E0E0E",
"*  c #323232",
"=  c gray21",
"-  c #040404",
";  c gray3",
":  c #0B0B0B",
">  c #111111",
",  c gray7",
"<  c #0C0C0C",
"1  c gray4",
"2  c gray1",
"3  c gray19",
"4  c gray36",
"5  c #7B7B7B",
"6  c #8D8D8D",
"7  c gray66",
"8  c gray73",
"9  c #BCBCBC",
"0  c gray74",
"q  c #BDBCBD",
"w  c #BBBBBB",
"e  c #B2B2B2",
"r  c gray58",
"t  c gray49",
"y  c #5D5D5D",
"u  c #3E3E3E",
"i  c gray2",
"p  c gray27",
"a  c gray63",
"s  c gainsboro",
"d  c gray97",
"f  c #F6F6F6",
"g  c gray96",
"h  c #F4F4F4",
"j  c #F4F3F4",
"k  c #F3F3F3",
"l  c #F3F3F4",
"z  c gray95",
"x  c #E6E6E6",
"c  c #C3C3C3",
"v  c #7E7E7E",
"b  c #565656",
"n  c #797979",
"m  c #808080",
"M  c #888888",
"N  c #9B9B9B",
"B  c #979797",
"V  c gray59",
"C  c #959595",
"Z  c #939393",
"A  c gray57",
"S  c gray52",
"D  c gray47",
"F  c gray48",
"G  c #777777",
"H  c #767676",
"J  c gray46",
"K  c gray60",
"L  c gray67",
"P  c gray55",
"I  c #989898",
"U  c #AAAAAA",
"Y  c #909090",
"T  c #929292",
"R  c #ACACAC",
"E  c gray68",
"W  c #8B8B8B",
"Q  c #AFAFAF",
"!  c #9D9D9D",
"~  c #7C7C7C",
"^  c #898989",
"/  c #9F9F9F",
"(  c #B4B4B4",
")  c #828182",
"_  c #A5A5A5",
"`  c #B9B9B9",
"'  c #B7B7B7",
"]  c #B6B6B6",
"[  c gray50",
"{  c gray70",
"}  c #818181",
"|  c gray72",
" . c #A4A4A4",
".. c #838383",
"X. c #8F8F90",
"o. c gray64",
"O. c gray34",
"+. c #444444",
"@. c #868686",
"#. c gray61",
"$. c gray53",
"%. c #9A9A9A",
"&. c gray",
"*. c gray54",
"=. c gray56",
"-. c gray65",
";. c #848484",
":. c gray51",
">. c gray75",
",. c gray71",
"<. c gray69",
"1. c #A7A7A7",
"2. c #747474",
"3. c #434343",
"4. c #A2A2A2",
"5. c gray76",
"6. c #BCBBBC",
"7. c #A0A0A0",
"8. c #B4B4B5",
"9. c #ABAAAB",
"0. c #AFAEAF",
"q. c #C0C0C0",
"w. c #BABABB",
"e. c #AEAEAE",
"r. c gray45",
"t. c #9A9A9B",
"y. c #8E8E8E",
"u. c #585858",
"i. c #888788",
"p. c #A2A1A2",
"a. c #9A999A",
"s. c #B3B3B4",
"d. c #A7A6A7",
"f. c #8C8B8C",
"g. c #A5A5A6",
"h. c #464646",
"j. c #5A5A5A",
"k. c #5B5B5B",
"l. c gray28",
"z. c #797879",
"x. c #2C2C2C",
"c. c gray37",
"v. c #5C5B5C",
"b. c #5F5F5F",
"n. c gray33",
"m. c #4E4E4E",
"M. c gray5",
"N. c #101010",
"B. c gray6",
"V. c #090909",
"C. c gray32",
"Z. c #535353",
"A. c gray18",
"S. c #C0BFC0",
"D. c #252525",
"F. c #131313",
"G. c gray12",
"H. c gray20",
"J. c #3A3A3A",
"K. c #424142",
"L. c gray26",
"P. c gray24",
"I. c #343434",
"U. c gray14",
"Y. c #161616",
"T. c #060606",
"R. c #414141",
"E. c #6F6F6F",
"W. c #D2D2D2",
"Q. c #EAEAEA",
"!. c #EBEAEB",
"~. c gray92",
"^. c #ECEBEC",
"/. c #515151",
"(. c #C6C6C6",
"). c gray85",
"_. c #DADADA",
"`. c gray86",
"'. c gray81",
"]. c #7B7A7B",
"[. c #727272",
"{. c #B9B8B9",
"}. c #9B9A9B",
"|. c #767677",
" X c #717171",
".X c #A4A4A5",
"XX c #A1A0A1",
"oX c #99999A",
"OX c #9C9B9C",
"+X c #777677",
"@X c #444344",
"#X c #BCBCBD",
"$X c #C1C1C1",
"%X c #9B9B9C",
"&X c gray35",
"*X c #A09FA0",
"=X c #919192",
"-X c #B1B0B1",
";X c #BFBEBF",
":X c #BAB9BA",
">X c #787778",
",X c #757675",
"<X c #484848",
"1X c #3F3F3F",
"2X c #3C3C3C",
"3X c #4C4C4C",
"4X c gray15",
"5X c #606060",
"6X c #393939",
"7X c #191919",
"8X c white",
/* pixels */
"  . X o O O O O O O O O O O O O O O O O O O O O O O O O O X X X o o O O O O O O O O O O O O O O O O O O O O O O O O O O O + @ # ",
"$ % o O O O O O O O O O O O O O O O O O O O O O O O O O O O O O O O O O O O O O O O O O O O O O O O O O O O O O O O O O O & * = ",
"O - ; : & > > , , , > > > > > > > > > > > > > > > > > > > > > > > > > > > > > > > > > > > > > > > > > > > > > > > > & < < 1 2 o ",
"- 3 4 5 6 7 8 9 0 0 0 0 0 0 0 0 0 0 q q q 9 9 9 9 0 0 0 0 0 0 9 9 9 q 9 w w w w w w w w w w w w w w w w w w w w 9 e r t y u 1 o ",
"i p 5 a 9 s d d f f f g h h h h h h j k k k k k j h h h h h h j j j j l k k k k k k k k k k k k k k k k k k k z k x c   v b < O ",
"i p n m M r N B V C C r r Z Z Z Z Z Z r r r r r r r Z Z Z Z r r r r r r Z Z Z r Z Z Z r r r r r r r r r r r r r r A M S D b : O ",
"- p D 5 t n D F 5 F F F F F F F F F F F 5 n G n 5 n G G G G H H H H J D 5 D H D F F F F F F F F F F F F F n G D F F H J J b : O ",
"- p F K L P D I L L L U U U U U U U U L L Y D T R T G D D D D D G G D A E I n W U E E R R R R R R R R E Q ! ~ ^ 7 / ~ H J b < O ",
"- p F ! ( V ) _ w w 8 8 8 8 ` 8 8 w w ' ] N [ I { B H H H H H H H F } I { / [ C ` 9 9 9 9 9 w w 9 9 0 w |  ...X.# o.F H J O.< O ",
"- +.n m @.#.R ] 8 ` ` ` ` ` ` ` ` 8 8 @ $.%.R K $.} G H H H H H G P L ! S B U # 8 9 9 9 0 9 9 9 9 0 &.R *.=.E -.W ;.G J J O.< O ",
"2 +.n v :._ 0 9 8 8 ` ` ` ` ` ` ` ] ( K [ C ] %.D H H H H H H 5 m V e @ [ #.0 0 w 9 0 &.&.&.>.&.>.0 ,.a } P <.1.~ H J 2.J O.< O ",
"- 3.5 %.e 8 0 w 8 8 8 ` ` ` 8 w 9 4.$.N <./ *...D J J J H H H 6 E / *.C   ,.q 9 9 9 9 0 0 &.&.&.>.L $.Y L o.M :.D H J 2.J O.: O ",
"- 3.5 1.5.>.9 8 8 ` ` ` 8 8 w ` ( K :.I # K n D H 2.2.J H F v B { @ ..K w &.9 w w w w 9 0 &.&.9 ] 4.:.Y Q 4.~ G G J 2.2.J O.: O ",
"- +.5 -.>.6.w 8 ` ` ` 8 8 9 9 7.M %.<.K @.~ J J 2.2.2.2.J W U / @.V E 8.9 9 w w w w w w 9 0 &.9.*.V 0.a S m n G H J 2.2.J O.: O ",
"- +.F -.q.w 8 ` ` ` ` w 0 ` ( I m N ' B n J 2.2.2.2.J n v T Q ! m K w.9 w w w w w w w w 9 8 ,. .;.C ,.a n H G G H J 2.J J O.< O ",
"- p n -.>.w 8 8 ` ` ` w 0 a $.N Q #.^ [ D H 2.2.2.2.2.^ L a $.C e.( w w w 9 9 9 9 w w 9 &.L $.Z R 7.$.[ H H H H J J r.2.J O.< O ",
"- p n _ &.w 8 ` ` ` 8 ' ( t.:.#.,.B G D n H 2.2.2.D 5 y.<.o.;.K w w w w w 0 0 0 0 0 0 w | _ } A <.! n H H G G G H G 5 F G u.< O ",
"- p n a 9 w 8 8 ` 8 w 7.;.#.# V m 5 G D D H J 2.J T Q V } I <.{ | 8 w w w 0 0 0 0 0 &.U i.B # o.S v H H H G G G J @.E p.~ O.< O ",
"- +.D 7.9 w 8 8 w ,.<.N S #.<.T J J G G G G D [ @.%.# t...! 8 w 8 w w w w 9 9 9 0 | e 7.$.r <.#.n H J H H G G F :.y.e.o.~ b < O ",
"- +.D / 9 w w 9 0 4.;.a.# K :.t J J G G H H n V ] ! } K ( ` 0 9 w w w w w w w w &.7 :.P <./ ;.v G H H H H G G @.Q  .S m D O.< O ",
"- +.D / 9 w 8 ,.# ! @.#.<.r D D J J G G H [ @.I # #.@.7.>.>.9 w w w w w w 9 w ,.<./ ;.y.E %.D G H H H H G F } y.Q -.$.v D u.< O ",
"- p D / 0 0 ` %.[ N ( %.:.v n D H H G H H B ,.7...K ( ` &.&.9 w w w w w w 9 0 o.;.T # a @.[ G H H H H H H $.R -.;.P Q 7.~ O.: O ",
"- p n 7.9 s.e.K ..N e.A G D D D H H G t ..%.Q @ ;./ 0 &.&.0 9 w w w w w 9 | e ! ;.T e.N ~ D G H H H D v ..Z E d.M Z w R v b 1 O ",
"- p D 4.9 N ..a ( B [ F H H H G H J D K <.r } N ( | &.&.0 0 0 0 q 9 9 0 0 1.@.I # 4.@.5 G G H H H H G f.e.g.S =.e.,.>.E [ O.< O ",
"- h.D N Q Y n I e.P H H H 2.J H H H D B Q Y G C <.E R R L L L L L L L L R %.5 Y Q ! ~ H H H H H H H H @.L ! F *.Q <.Q 7.t j.& O ",
"- h.H F v F G 5 m ~ G H J 2.2.2.J J J F v F H 5 v t t ~ ~ ~ ~ ~ ~ ~ ~ ~ t 5 H F m t G H H H H H H H H F m [ n ~ :.} } [ n k.& O ",
"- l.G r.J H H H H H H J J J 2.2.2.2.2.2.2.2.J J 2.2.2.2.2.2.2.2.2.r.r.r.r.r.2.2.r.2.J J H H H H H H G G G D D D D D D n z.k.& o ",
"2 h.D H G G H H G G G G G G G G G G G G H J J H H H J J J J J J J J J J J J J J J J J J H J J H G G D D D n n F F F F F 5 4 < O ",
"x.p y y 4 4 4 4 4 4 y c.c.c.c.c.y y 4 4 k.4 4 4 4 4 4 k.k.k.k.k.k.k.k.k.v.4 4 4 4 4 k.j.j.y c.c.b.b.b.c.k.k.k.k.k.k.k.k.y n.* + ",
"L m.: M.< < < : : : < & N.N.B.B.B.& & & & & & M.M.M.M.M.M.M.M.M.& & & M.& & & M.& & < : < B.N.N.B.B.B.M.V.V.V.V.V.V.V.V.; * @ Q ",
"w C.O X o O O O O O O O O o o o O O O O O O O O O O O O O O O O O O O O O O O O O O O O o O o o o o o o O O O O O O O O O x.L >.",
"9 Z.O X o o o o o o O O O O O O O O O O O O O O O O O O O O O O O O O O o o o o o o o o o o o o o o o o o o o o o o o o O A.E S.",
"W u o o o o o o o o O O O O O O o o o o o o o o o o o o o o o o o o o o o o o o o o o o o o o o o o o o o o o o o o o o o D.:.Y ",
"N.V.o O O O O O O O O O O O O O O O O O O O O O O O O O O O O O O O O O O O O O O O O O O O O O O O O O O O O O O O O O o - > F.",
"o > G.x.H.J.K.L.L.3.3.3.3.3.3.3.3.3.3.3.3.3.3.3.3.3.3.3.3.3.3.3.3.3.3.3.3.3.3.3.3.3.3.3.L.L.L.L.3.3.3.3.3.L.L.L.L.P.I.A.U.Y.i X ",
"T.R.E.C { W.Q.!.!.Q.Q.Q.Q.Q.Q.Q.Q.Q.Q.Q.Q.Q.Q.Q.Q.Q.Q.Q.Q.Q.Q.Q.Q.Q.Q.Q.Q.!.~.~.~.~.!.!.!.Q.Q.Q.Q.Q.Q.Q.Q.Q.Q.Q.^.s | @ G /.M.2 ",
"T.h.n B E (.).)._._.).).).).).).)._._._.)._._._._._._._._._._._._._._._._._._._._._._.).).).).).).).).).)._._._.`.'.e 7.:.4 < X ",
"i h.D ~ ].F 5 t v [ [ [ [ [ [ [ [ [ [ [ [ m m m m m } } m m m m m m m m m [ [ [ [ [ v v v v v v v v v v v v [ [ [ t F z.n 4 1 O ",
"i h.D @.*.~ [.m $.$.$.$.$.$.$.$.$.$.$.$.$.v H [ W } 2.r.r.[.[.[.[.[.r.v *.:.H t ^ W W W *.*.*.*.*.*.*.W P ..G F S ..G J n 4 1 O ",
"i p n a | B G 7.| | | | | | | | | | {.` ` I D T | }.|.2.r.[.[. X[.r.r.6 ( / F 6 e | ' ' ' ' ' ' ' ' | ` w 7 [ $.# 1.t H F 4 1 o ",
"T.h.D C 7 N Y E 9 w w w w w w w w 9 0 # -.B W B .X=.J r.r.r.[.[.r.t *.Z 7 / P #.' w 8 8 ` ` ` ` 8 w 9 ' U a T K   %.D J n 4 1 O ",
"i h.H G 5 #.8 0 9 w w w w w 9 9 9 9 0 %.~ I ] @ t G 2.r.r.r.r.[.2.y.,.7.v Y ( ` 8 w w w w w w w w 9 0 L } $.{ R :.F G H n 4 : O ",
"i p G S Y 7 &.&.0 0 0 0 0 0 0 9 w E o.I =.%._ Z n H 2.r.2.2.J t W r 4.@ A / 8 9 w w w w w w 6.0 &.9 R XX6 A a K n J H J D k.: o ",
"i +.G N 8 0 &.&.0 0 0 0 0 0 0 0 q oX~ N | %.5 F H J J 2.J G D Y ( @ F r ` 8 9 9 w w w w w w 9 &.>..Xv Z ] -.[ n G H J 2.D k.: o ",
"- +.H N 0 &.&.&.0 0 0 0 0 9 9 # _ I P %.-.y.H J 2.2.2.2.J m y.B  .OX=.4.0 0 9 w w w w w w w 9 ,.7 N P V _ I n H J 2.2.2.G j.1 X ",
"- +.+XN 9 &.&.&.0 0 0 0 0 0 0 I n K | %.5 G 2.r.r.r.r.r.[.A | 7.5 C ` w 9 9 w w w w w w w w 0 1.t Z ] o.t n H H J 2.2.2.G j.1 o ",
"- @X+XN 9 &.&.&.0 0 0 0 9 R o.B y.N _ 6 G H J 2.2.2.r.t *.B o.N A 1.0 9 w w w w w w w 9 0 ,.-.@ 6 V -.C n H H H J 2.2.2.G j.1 o ",
"- +.G N #X&.&.&.0 0 0 0 9 T G %.` %.5 D H H J J H J r.T ] / F A | 0 9 9 w w w w w w w 0 $XU ~ y.(  .[ D H H H H J 2.2.J G j.1 o ",
"- +.G %X0 &.&.&.0 0 0 <. .%.Y N 1.y.J 2.J J J H G :.6 I  .! A  .9 &.9 w w w w w w w 9 ]   / Y V o.Z G G G H H H J 5 W $.G &X1 o ",
"2 p G #.9 &.&.&.0 0 &.K ~ a | B 5 n J J J J H H G C 8 *X5 C | 9 9 9 w w w w w w w 9 >.  v W (  .} 5 G G G H H H 2...<.  v &X1 O ",
"- p D #.9 &.>.&.9 e.o.I Z N / M J J J 2.H H G } A %.4.%.=X7 9 9 w w w w w w w w w # -.#.T B 4.r ~ D D G G H J v =.%.a B ~ &X1 O ",
"2 p D N 9 9 >.q.w r n @ ` y.J J J H J J H D G r 8 / 5 Z {.>.&.0 9 w w w w 9 9 0 0 7.~ A | o.m ~ D H H H H J J *.' Q :.n D &X1 O ",
"- h.D N w 9 >.-Xa N T K / ;.H H H H J J H S Z %.! %.r o.8 &.&.0 0 9 w w 9 9 9 { _ N r I 4.T 5 G H H G D H t A B a / B 6 5 j.1 O ",
"- h.D N w w >.%.F a ` C F D G H H H J H D C ' ! F V ] | 8 9 0 0 0 0 0 9 w 9 9 a t T ' 7.~ D G H H H H D H ^ 8 L } W ,.U [ &X1 O ",
"- h.D #.w E o.@ r %.7.^ G G G H H H H S Z %.a ! B 7 8 8 w w 0 0 0 0 0 9 w e  .K Z I ! =.D H G H H G 2.5 Y C a ! C ! 8 E [ j.1 O ",
"- h.D ! w C ~ 7.8 C F n H H H H H H G I 8 @ 5 I &.;X0 9 9 0 0 0 0 0 0 9 9 4.v T :Xa F G G H H H H G r.^ | 7 t P ,.0 >.E [ j.: O ",
"- h.D y.#.@.n P I S G H H H H H H H G M ! 6 n ^ / 7.7.7./ / / / / / / @ @ y.n @.7.y.G H H H H H H G H :.B =.n } C I I A t &X: O ",
"i h.J D n D G H J H H H H H H H H H H G D F n D D G D D D D D D D D D D D >XG D F D H H H H H H G G H J 2.2.J J r.[.[.r.G &X< o ",
"i l.2.,XH H H H H H H H J J 2.2.2.J H H G n D D G G G G G G G G G G G G G G G G G D D G G G G G G H J J J J J J J J J H D &X< X ",
"- l.G D D D D D D G G G G G G G G G G D G D D n n n n n n D D D D D D D n n n n n n n n D D D D D D D G G G G G G G G G n k.M.X ",
"&X<X1Xu P.P.P.P.P.P.P.P.P.P.P.P.P.P.P.P.2X2X2X2X2X2X2X2X2X2X2XP.P.P.2X2XP.2X2X2X2X2X2X2X2X2X2X2X2X2X2X2X2X2X2X2X2X2X2XP.u <Xk.c.",
"` 3XO O O O O O O O O O O O O O O O O O O O O O O O O O O o o O X 2 O O O O o o o o o o o o o o O O O O O O O O O O O O O * R q.",
"c.4XO O O O O O O O O O O O O O O O O O O O O O O O O O X + c.b.5X6X- X X X X X X X X X X X X X o O O O O O O O O O O O O 7XO.b.",
"O O O O O O O O O O O O O O O O O O O O O O O O O O O O O m.` 9 0 [.V.2 2 X X X X X X X X X X X o o O O O O O O O O O O O o o O "
};
