/* XPM */
static char *result[] = {
/* columns rows colors chars-per-pixel */
"64 64 124 2 ",
"   c #8C8BB7",
".  c #8786BA",
"X  c #8A87BA",
"o  c #8D8DBB",
"O  c #998FB6",
"+  c #928BBF",
"@  c #9394BF",
"#  c #9D93BB",
"$  c #AA9CB6",
"%  c #A298BE",
"&  c #B6A3B3",
"*  c #B8A6B2",
"=  c #BDAAB4",
"-  c #B1A3BD",
";  c #BEABBA",
":  c #C2AEBC",
">  c #C5B3BE",
",  c #8785C0",
"<  c #8A86C2",
"1  c #8D8CC4",
"2  c #8886C9",
"3  c #8E8DCB",
"4  c #918EC4",
"5  c #918FCB",
"6  c #8E90C3",
"7  c #8F90C9",
"8  c #9494C4",
"9  c #9897C3",
"0  c #9798C4",
"q  c #9B9AC7",
"w  c #9392CB",
"e  c #9996CC",
"r  c #9798CB",
"t  c #9C9ACD",
"y  c #8E8DD1",
"u  c #918FD2",
"i  c #9493D3",
"p  c #9997D4",
"a  c #9798D2",
"s  c #9D9BD4",
"d  c #9694DA",
"f  c #9997DA",
"g  c #9D9CDB",
"h  c #A59BC3",
"j  c #A99FC5",
"k  c #A19ACE",
"l  c #A19DD4",
"z  c #A19EDB",
"x  c #9FA1DE",
"c  c #A1A2CB",
"v  c #A7A8CF",
"b  c #B6A7C1",
"n  c #B6A8C2",
"m  c #BCAEC6",
"M  c #B0A6CE",
"N  c #BCADC8",
"B  c #A5A5D4",
"V  c #AAA5D5",
"C  c #ACAAD5",
"Z  c #A4A3DC",
"A  c #ABA6DB",
"S  c #ACABDD",
"D  c #B4ACD3",
"F  c #B9AFD4",
"G  c #B2ACDC",
"H  c #BCB3D5",
"J  c #B5B4DD",
"K  c #BCB4DB",
"L  c #BABADD",
"P  c #9896E3",
"I  c #9D9CE2",
"U  c #A19FE3",
"Y  c #A3A2E2",
"T  c #A9A7E2",
"R  c #ADACE3",
"E  c #A5A3E8",
"W  c #AEACE9",
"Q  c #B1AEE5",
"!  c #B1AFE9",
"~  c #AFB0E6",
"^  c #B5B3E3",
"/  c #B8B6E2",
"(  c #BDBCE3",
")  c #B3B2E9",
"_  c #B9B7E9",
"`  c #BDBCE9",
"'  c #C2AFC1",
"]  c #C9B6C3",
"[  c #CCB9C4",
"{  c #C3B5CC",
"}  c #C6B8CE",
"|  c #CFBDC8",
" . c #D1BECA",
".. c #C7B9D1",
"X. c #CABCD4",
"o. c #C1B6DC",
"O. c #C4BBDC",
"+. c #C8BEDC",
"@. c #C0BFE3",
"#. c #C0BFEA",
"$. c #BFC0E2",
"%. c #D4C2CD",
"&. c #CCC2DC",
"*. c #D2C5DA",
"=. c #D4C9DC",
"-. c #D9CBDC",
";. c #C2C2E5",
":. c #C9C7E4",
">. c #CCCBE3",
",. c #C4C3E9",
"<. c #C8C6EB",
"1. c #C7C8EA",
"2. c #CBCAEA",
"3. c #D0CFE4",
"4. c #D0CFEC",
"5. c #CFD0EA",
"6. c #D4D3E4",
"7. c #D8D7E5",
"8. c #DAD8E5",
"9. c #D4D4EB",
"0. c #D8D7EC",
"q. c #DBDAEC",
"w. c #E0DFED",
"e. c #E2E1ED",
/* pixels */
"d P d d P P P d d f d d u y 7 u i g s s s x s a a r i t s s f p p p p p e i p p p i i u u u i p k k s l g s s f f f f f d d u y ",
"P P I U E E I U U E U I d y u f U W ) ^ J G R R Z Z Z Z z z z U U Z Y z Z Z Z Z U U l i e i z U W Q Q ! W W T T Y Z E U U I d y ",
"E E W W W ) ) W ~ ) W W g d f E ) #.<.<.1.1.1.` ` ) ) ) Q ) _ ) ) ) ! ! ) ) ! ) ! W U z i f T o.<.<.<.<.<.<.` ` ) ) ! ! ! E f u ",
"E W ) _ ` ` $.` $.` _ W E f f T ` 4.q.q.q.q.9.9.1.,.,.` #.#.#.#.#.#.#.#.` ` #.` #.o.W U p z W #.9.0.0.0.0.4.4.<.#.#.#.#._ ! U d ",
"E W ` ` ,.,.$.<.<.,.#.) x a g R ,.9.w.e.e.q.q.9.2.2.<.#.<.<.<.<.<.#.<.@.,.#.,.,.#.#.! z i z ) 2.0.e.w.w.q.0.9.4.<.<.,.,.` ! E i ",
"E W ` #.,.,.<.<.<.<.#.) Z a p R ,.9.w.w.q.q.9.9.2.2.<.<.<.#.<.#.#.<.#.<.,.<.#.<.#.#.Q z i l ^ 2.0.e.w.q.0.9.4.<.<.,.1.,.` ) T f ",
"E ! ` ,.,.<.<.$.,.,.#.) Z e s R ,.9.q.q.q.9.2.2.2.<.<.,.#.<.#.<.<.<.<.#.<.<.<.#.#.#.Q A e l ) <.q.w.0.0.4.4.2.<.,.<.1.,.` ) Y a ",
"E ! ` ,.,.$.$.<.,.,.,.) B e t S ,.0.q.0.5.2.1.<.<.<.,.<.<.<.<.#.<.#.#.<.#.<.#.<.#.#.Q z e l / <.0.w.9.4.2.<.<.<.1.,.1.,.` ~ Y s ",
"E ) $.$.$.$.$.<.1.,.$._ Z r r S #.w.w.0.3.<.:.<.<.<.,.:.,.<.#.<.+.#.<.#.,.,.,.#.,._ Q l e k / <.q.q.9.5.1.1.1.,.,.,.,.,.$.) x a ",
"E W ` $.<.$.<.$.,.,.$.) Z t t S @.9.0.0.4.<.1.,.,.,.,.,.,.@.<.#.<.<.#.<.,.,.,.,.#.#.Q V e s / 1.q.q.9.5.2.1.1.1.1.<.,.,._ ) Z a ",
"E ~ ` $.$.$.<.<.1.1.$._ Z s t T #.9.w.0.4.<.<.<.,.,.,.,.,.,.<.:.<.#.<.:.,.,.,.,.#.` Q z t s ^ <.9.q.9.5.1.1.1.1.,.,.<.,.` ) x r ",
"E ~ $.$.<.$.$.$.,.$.` ) Z e s T #.2.6.9.3.<.,.,.,.@.,.,.,.#.#.<.#.:.#.#.,.,.#.#.#.( Q z r s R ,.5.5.5.2.1.1.1.$.,.,.,.,.` ~ Z a ",
"x ~ $.$.$.$.$.<.,.$.$.) Z p p T _ #.4.4.4.#.@.#.#.<.#.@.@.#.@.@.,.,.,.;.,.` $.,.,.` W z i s R ` 1.5.2.1.1.,.,.1.,.,.,.,.` ~ x r ",
"x W _ $.<.$.<.` $.$.` ~ Y d i Y Q #.#.:.#.#.@.#.,.@.#.#.#.#.<.#.;.#.#.,.,.,.,.$.#._ ! z i f T ) ;.1.1.;.;.;.;.,.,.$.;.,.` R Z a ",
"x E ) _ _ $.$.$.` $._ W x d d g W _ #.#.@.#.#.#.#.#.#.#.#.#.#.` ` ` ` ( ` ` ` ` ` ) R I i d Y W ` ` ` $.` ` ` ` ` ` ` ` ) R g i ",
"I E W W W W ) W W ) R E g d u d U T T Q Q Q Q Q Q Q Q Q Q Q Q Q Q ) ^ Q R Q Q ) R W Y f d i I Y R R ) ) ) ~ ) ~ ) R ~ ~ R Y f e ",
"P P I U U x x x Y Y g g d y y u d I U U U U U U Y U U z Y U U Z Y Z x x Y x Y x U I g d y i d f g U Y Z Z Z x Y Y Y I Y g f i 7 ",
"y d d d d d d d d i i i y y y 3 u d i d f i i f f i i f i i i f i i w i i w d w i i y y y 3 u i i d i i i i i i d i i d d y i 3 ",
"y d d i u 7 u a i e i w i w i i i i i i i 5 i e i w w i e 5 5 w w w w 8 w w 7 w i w w i i i w w w i i i i i w i i i i i u u 3 3 ",
"a d x f g a x x z s g g g g g z s z l s l z l z z l z l z l l l l l c x c x x x s x s s x s t x s B s x g g g g g g g P P a u 3 ",
"g x T W R R ~ ~ W R R R Q R ~ ~ ^ S S R Q Q R Q S R R R Q R Q R S J S S ~ ~ W R J S S ~ ~ ~ ~ ~ ~ R ~ R R R R R ~ W E W T x f w ",
"x R ) _ _ _ ( _ ( ( ( ` ( ( ( ` ` ` ` ` _ ( ( / ` ` ( ` ( ( ( ( ` ` ` $.$.$.` $.` ( _ $.` $._ $.` ` ` ` ` ` ` ` _ _ $.$.) R x a ",
"x S / $.,.;.$.$.@.;.@.;.,.;.;.;.;.#.;.@.;.@.#.#.;.#.;.#.;.;.;.;.,.;.;.,.1.$.1.$.$.1.;.$.,.$.,.$.;.;.;.;.$.$.,.,.$.$.$.$.$.R x 7 ",
"B S / ` $.;.,.;.;.@.#.;.#.#.$.;.;.$.;.#.;.;.;.;.;.;.;.;.;.;.;.;.;.;.,.$.$.$.$.1.$.$.$.1.$.,.$.$.;.;.$.;.$.;.$.;.$.$.$.$.) ~ x i ",
"B S / $.$.;.;.( $.$.$.;.$.$.;.$.;.;.;.;.;.;.;.$.;.;.;.;.;.;.;.;.;.;.$.;.$.$.$.$.;.;.;.$.,.$.$.,.$.$.;.$.;.$.;.$.,.$.;.$.` R x i ",
"x S ~ / ( ` ` ` ` ` / ` ` $.` ` / ` ( / ( ` ` ( ` / ` ( ( ( ` ( ` ` ( ` $.` ` $.( ` ` $.` $.$.$.$.$.` ( ` ( ` ( _ $.` ` ) T x w ",
"s x T R R S R S S S R S G S ~ S S S S S S S S G S S S S S G G G G S S S S S ~ ~ R S S Q ~ S C S R ~ S ~ S ~ S S ~ ~ R R R x f 7 ",
"7 a a x s t x s x s c x t x s s l s B c c k s l k s B t s l s l x q x c x t x a s l s l s x x q s s s c q x x s x g g g f d u 7 ",
"3 7 i y 5 w w 7 8 8 w 7 7 3 3 8 8 w 5 8 w 8 w 4 8 w 4 5 5 4 5 4 5 5 5 w 7 7 8 7 5 5 5 u 3 5 5 5 7 7 8 w 8 7 7 8 7 3 3 y y 3 3 2 ",
"y i i i i i w 8 w 7 w 7 1 1 1 3 w w e p e p e i w w 5 5 5 5 5 5 5 5 w w w w w w u u u 3 1 3 5 i e a s r t r r w i w i i u y 3 3 ",
"i d I I g x g x g s g a i 3 3 e z Z R A S Q S A Z z z z z z z z z z z z z z g z z z f u 3 u f z Z S S S S S A Z Z g g Y g d 7 3 ",
"d Y T R T R ~ S ~ ~ R Z s 7 w g S ( @.:.:.@.@.@.) ^ Q Q Q Q Q Q Q Q Q G Q Q Q Q Q R z f u i z ^ ( ;.:.,.;.$.( / ^ R R ^ T Y f 7 ",
"I T ~ / / / ( / / ( ^ ~ x 7 r Z / >.7.6.7.6.6.>.:.@.( ( / ( ( ( ( ( ( ( / ( / ( / ^ T f u s R #.3.6.7.6.3.3.>.$.$.$./ ( ^ T g w ",
"Y T J ( ( ( ( ( $.$.( S x 8 e S ( 6.8.8.7.7.6.3.:.;.@.( @.@.( ` ( @.( @.( @.@._ ( / R s 5 s G ;.6.8.8.8.7.6.>.$.$.$.@.( / R g i ",
"g R ^ / ( ( ( $.( $.( G c @ q C ( >.7.6.6.3.>.>.@.@.;.@.( @.( O.( @.( ( ( ( @.L / / S s 5 t G ;.6.8.6.6.3.>.1.1.$.@.( @./ R g w ",
"Y T ^ ( / ( ( $.$.( ( C c @ 0 C ( 3.6.6.>.1.;.$.;.@.L ( @.( $.( @.( ( @.O.@.@.@.( ^ S s 8 e G ,.3.7.6.>.>.$.&.$.$.#.@.@./ W g w ",
"g R / / ( $.( ( ( $./ C c @ @ v L 3.7.6.>.;.;.&.@.;.$.( ;.L ;.;.( ( $.@.( ;.L ;.( J S c 0 q J ;.6.6.6.&.1.$.>.$.;.( O.;./ S g w ",
"x T / / J ( ( $.$.L $.C c @ @ v &.3.7.>.;.&.$.$.@.O.;.( ( ;.;.L $.&.( $.$.( $.L ( / S q 8 q C $.6.6.3.;.&.$.$.$.( $.( ( J R s w ",
"x T J / ( ( L $.$.L L C c @ 9 v L 3.7.3.:.;.$.$.@.L L @.;.L L ;.$.( ;.( ;.L ( ( ( J S t 6 q G &.6.6.=.>.$.$.$.$.$.( ( ( / S s 8 ",
"g S / ( L ( ( ( $.$.( R x 8 8 B L >.7.>.:.;.( O.( ;.L ( L ;.L ( ( ( L $.L ;.L $.( J S s 0 q C ;.3.6.>.:.$.$.$.$.$.$.$.L / S s w ",
"g R / J ( ( ( L ( ( / S B 8 r B L 1.>.>.:.;.L @.( ( ( @.L @.@.( L $.( ( ( L $.( ( / S s 8 r A ( >.3.>.$.$.$.$.$.( ( $.( J S s w ",
"g S / J L / L ( L ( J ~ g w w x J $.:.:.$.L ( O.O.( K ( ( L L / $.L $.L $.L L $.L J S s 5 r Z / $.&.;.&.( $.L $.$.L ;.L / S s w ",
"g T / / / L ( L / L J R g i 7 s S L $.( ( ( L ( K ( K ( K ( K L L ( L / / ( ( L L ^ S i 5 i Z R L $.$.( L $.L ( L ( L ( ^ S s 7 ",
"g T R J ^ / J / J J ~ T g i y a x S J J J K ^ J ^ / / J / / / / / J / J J / L / ^ ^ Z p 5 u g Y J ^ / J / J ^ / / J / J R Z s 7 ",
"d g T Z Z Z S T T S Y g d y 3 i g Z z A A T S T T S T S S A S S S S S A S T S T S Z g i 3 3 d g x T S S S T S S R T S T Z g i 1 ",
"i i i f f s f f f f f i y 2 2 3 5 i f f f s s s s p s p p s a t r r a s p a p s p i i 3 3 2 y u d f f g g p p g p a f f a i 3 1 ",
"3 y 3 3 3 2 1 1 3 3 y 3 2 2 2 2 3 5 5 3 5 5 5 5 3 4 1 4 1 4 6 @ 6 6 1 1 3 1 7 1 7 3 1 < 2 2 2 3 y y 7 u w 3 7 7 7 u y y 3 3 1 < ",
"3 3 3 3 w 3 8 3 3 3 3 3 u u u 5 5 5 5 4 5 5 5 5 5 4 8 1 8 4 6 @ @ 6 6 8 7 7 7 7 7 8 3 3 3 y y y y u y 7 y 7 3 3 7 3 3 3 3 3 3 < ",
"y i a s x a x x a x s g s g s s s s s s s s s s t k c s t q t q q q q x s t x a t s s s g f s g f f g p a a g a f f d a d u 7 1 ",
"d g T S S S B C C B S R R S S R S S S S S S S S S S S S S C S C C S C S S S v S S S S S S S S S S S S R S S S S S S S S Z x i 1 ",
"g S S J J L L L / J J J J / J J J J L J J J J L L J J J J J L J ( J J J J J J J J J L J J J J J J J J J J J J J J J J J ~ Z a 7 ",
"a S J J J L $.L L L L L L L L L L L L L $.L L L L L L L L L L L L ( L J L L L L L $.L $.L L L L ( L L L L L $.L J ( L L J S a 7 ",
"s S C L L L L L L L L L L L J L L L L L L L L L L L L L L L L L L L L L L L L L L L L L L L L L L L L L L L L L L L L L J Z a 7 ",
"a S J J L L L L L L J J J L K L L L L J L L L L L L L L L L L L L L L L L L L $.L L L L L K L L L L L L L L L L L L L L J Z g 7 ",
"a Z G J J L L J J J J J G J J J J J J J J J J J J J J J J J J J J J J J L J J J J J J J J J J J J J J J J J J J J J J J S Z a 7 ",
"i s x B B B B S B B A B B B B B v B B v B B B B B B B B v B B B v v v x v C B B v B B B v B B B B B B B B A A B B B Z A x g i 1 ",
"3 w w r 0 r e e r r r 8 8 8 9 8 8 @ 9 9 9 9 8 9 8 9 8 9 9 8 9 9 0 0 0 9 9 9 9 9 9 8 9 8 9 9 9 9 8 9 9 8 r r 8 r a r i i i u 1 < ",
"1 1 1 1 1 1 @ 1 @ o o     .       o           o o o + + o o + + o o       + o   + + + +   o     + o 4 o o 1 o 1 1 3 1 2 1 1 2 , ",
"3 1 w 3 7 7 4 4 1 8 1 4 1 . . o 4 9 r 9 r 8 w w 8 w w 8 5 8 5 4 7 6 8 4 4 4 8 @ 4 4 4 X X X + 4 @ 8 r e w 8 8 1 7 8 1 5 5 5 2 < ",
"w i p B B B s s s s s t w < < 3 l A A A A A A V l z l z l z l l s s s s k s s s p k u 4 < < e k V A C G A A V l t t t s l p 5 < ",
"e l D G G G V D D A M l t 4 4 k A o.O.o.o.o.o.o.K G G G A G A A A V A z z A A A A l k k + + k V K O.O.O.O.K K K D V V M V l e + ",
"h M D H H F { K o.F F F j # # j F +.=.=.=.*.+.+.+.+.+.+.o.o.o.o.o.o.o.{ o.o.o.o.F F F j % % M o.+.=.-.6.=.*.&.O.o.o.{ o.F M h O ",
"- b m { { { { } } { { N - $ $ b { X.*.*.-.*.X.*.+.X.X.X.X.X.......{ ............} { { b $ & m } *.-.-.-.-.-.*.X.} } ....{ n - $ ",
"; : > > > ] ] ] ] ] ] : : & & : > ]  . . . .| |  .[ | [ [ [ [ [ [ ] [ > [ [ [ ] ] > : = * = : ]  . .%.%.%. . .[ ] ] ] ] ' ' ; & "
};
