/* XPM */
static char *cb21a033d1214e53efb27cb0268477faA458CETeMfLwuw1m[] = {
/* columns rows colors chars-per-pixel */
"64 64 247 2 ",
"   c #030605",
".  c #040805",
"X  c #03050B",
"o  c #070A08",
"O  c #0D0D0B",
"+  c #100B0E",
"@  c #0F100C",
"#  c #0D0D12",
"$  c #050819",
"%  c #040A1B",
"&  c #111113",
"*  c #14131E",
"=  c #010622",
"-  c #080B24",
";  c #0B1728",
":  c #131525",
">  c #161C26",
",  c #121529",
"<  c #141A2B",
"1  c #0D1B30",
"2  c #1E2D33",
"3  c #162838",
"4  c #1F2A3A",
"5  c #262B2D",
"6  c #31312F",
"7  c #232937",
"8  c #212E34",
"9  c #2E3030",
"0  c #2E3235",
"q  c #2B333C",
"w  c #323332",
"e  c #34363A",
"r  c #37383B",
"t  c #3B3C3C",
"y  c #152E46",
"u  c #293C4C",
"i  c #363B46",
"p  c #3B3E42",
"a  c #394146",
"s  c #314654",
"d  c #30526F",
"f  c #3B5369",
"g  c #444A56",
"h  c #4C4D56",
"j  c #454B5A",
"k  c #494B5D",
"l  c #52555F",
"z  c #445667",
"x  c #535A66",
"c  c #4C5E76",
"v  c #526167",
"b  c #466275",
"n  c #4A6575",
"m  c #4A637A",
"M  c #4C697A",
"N  c #576875",
"B  c #646565",
"V  c #656669",
"C  c #666A6D",
"Z  c #626D78",
"A  c #3B678F",
"S  c #4A6C88",
"D  c #58758D",
"F  c #6D7E85",
"G  c #747B88",
"H  c #637D93",
"J  c #777E97",
"K  c #77848D",
"L  c #6D8494",
"P  c #788295",
"I  c #76839A",
"U  c #7B8499",
"Y  c #6886A3",
"T  c #6B8EAC",
"R  c #748EA6",
"E  c #6B94AE",
"W  c #6D8FB5",
"Q  c #6690B2",
"!  c #6B95B2",
"~  c #6E99B4",
"^  c #739AB6",
"/  c #679AC6",
"(  c #76A4CB",
")  c #72A9CE",
"_  c #74ABD2",
"`  c #78AAD7",
"'  c #77B0DE",
"]  c #6EB3E4",
"[  c #6DB5EB",
"{  c #6EB6EB",
"}  c #6FB9EE",
"|  c #72B3E4",
" . c #7BB4E4",
".. c #73B5EB",
"X. c #7BB4EB",
"o. c #75BAED",
"O. c #7BBAEC",
"+. c #7FB6F0",
"@. c #73BCF3",
"#. c #7CBDF2",
"$. c #7BC3F6",
"%. c #7AC6F7",
"&. c #7CC4F9",
"*. c #858585",
"=. c #84868B",
"-. c #85898A",
";. c #86888A",
":. c #868B93",
">. c #888994",
",. c #8A939A",
"<. c #90919F",
"1. c #8A99A6",
"2. c #8FA7B8",
"3. c #99A5B8",
"4. c #ACADAE",
"5. c #AEB0AF",
"6. c #B1B1AF",
"7. c #A5ABBA",
"8. c #B1AEB2",
"9. c #AEB1B2",
"0. c #A7B1BA",
"q. c #B1B2B3",
"w. c #B2B4B9",
"e. c #8AAAC8",
"r. c #95A5C4",
"t. c #99A6C4",
"y. c #95A9C4",
"u. c #9BA9C4",
"i. c #86ACD7",
"p. c #8EB7D6",
"a. c #A0AAC4",
"s. c #ACB9C5",
"d. c #B4BAC7",
"f. c #81B5E3",
"g. c #8CB4E5",
"h. c #82B6ED",
"j. c #8EB6E9",
"k. c #83BBED",
"l. c #8BBDED",
"z. c #95BCEB",
"x. c #82BCF2",
"c. c #8ABDF3",
"v. c #B9C1CA",
"b. c #BDC8DE",
"n. c #8CC0EE",
"m. c #94C3E9",
"M. c #82C3F6",
"N. c #8CC3F4",
"B. c #88C7F9",
"V. c #8BC6F9",
"C. c #84CAFA",
"Z. c #8CCBFA",
"A. c #93C5F5",
"S. c #99C6F7",
"D. c #9CCBF5",
"F. c #93C4F9",
"G. c #94CDFA",
"H. c #9BCBFA",
"J. c #8ED2FB",
"K. c #8ED9FB",
"L. c #99D6F7",
"P. c #93D2FB",
"I. c #9CD3FB",
"U. c #9BDBFB",
"Y. c #ABCAEA",
"T. c #B6C7EA",
"R. c #B3CBEC",
"E. c #BCCBE9",
"W. c #BAD5E5",
"Q. c #A7CAF6",
"!. c #A4CCFA",
"~. c #A9D8F7",
"^. c #A3D2FA",
"/. c #ACD3FB",
"(. c #ACDBFB",
"). c #BCD2F7",
"_. c #B9D9F7",
"`. c #B4D5FB",
"'. c #BCD5FA",
"]. c #B3DBFC",
"[. c #BCDBFC",
"{. c #9DE3FC",
"}. c #BBE0FC",
"|. c #D7D6D7",
" X c #D4D6DA",
".X c #D9D6DD",
"XX c #D6DBDD",
"oX c #D8D9DB",
"OX c #D4E0DF",
"+X c #C4CEEA",
"@X c #C9CEEE",
"#X c #CDD4E6",
"$X c #C4D3EC",
"%X c #CCD3EC",
"&X c #C9D8E9",
"*X c #D5DBE4",
"=X c #DADDE4",
"-X c #D1D6EC",
";X c #D7DCEB",
":X c #D4DBEC",
">X c #C4CEF2",
",X c #C7CFF5",
"<X c #C6D2F5",
"1X c #CAD4F4",
"2X c #CDDAF3",
"3X c #C5D4FB",
"4X c #CBD4FA",
"5X c #C3DAFC",
"6X c #CCDAFB",
"7X c #D0D6F2",
"8X c #D3DBF3",
"9X c #D9DEF3",
"0X c #D3DCFB",
"qX c #D8DEFB",
"wX c #D9E4E6",
"eX c #DCE2ED",
"rX c #C4E1FC",
"tX c #CCE1FC",
"yX c #C9E8F9",
"uX c #D5E5F6",
"iX c #DCE2F4",
"pX c #D5E2FB",
"aX c #DCE4FB",
"sX c #DEEAFD",
"dX c #DBF1FC",
"fX c #E6EAED",
"gX c #E1E6F4",
"hX c #E4E9F5",
"jX c #EBEEF4",
"kX c #E1E7FB",
"lX c #E4EBFC",
"zX c #EAEEFC",
"xX c #F0EFF3",
"cX c #EEF2F4",
"vX c #E5F6FA",
"bX c #E6F1FE",
"nX c #EBF3FD",
"mX c #EDFAFE",
"MX c #F1F2F3",
"NX c #F1F2F4",
"BX c #F6FAF6",
"VX c #F9FEF6",
"CX c #F2F5FD",
"ZX c #F5FAFE",
"AX c #FBFDFE",
"SX c #FAFDFF",
"DX c #FFFFFF",
/* pixels */
"H D x j i i i i e w t t t t t t p p p g t t p t t t e t w w r w t t r t t t t t t p t t t t t t t t g t a a a a s s s s d b L Y ",
"n c N C C C V B B B B B V B V V C C C C C V V V B B x B B B B B B B B B B B B B B B B V V V V V C V V B V V C C C V N N N M M A ",
"u g G <.8.8.8.8.8.6.6.8.8.8.8.8.8.w.w.w.w.8.8.8.4.4.6.4.4.4.4.4.4.4.6.4.4.4.6.6.4.5.9.q.6.9.q.9.q.q.6.6.q.8.q.9.9.9.9.4.2.L d s ",
": i >.|.xXxXNXNXxXNXNXxXxXxXxXNXxXCXBXNXBXNXxXxXfXxXxXxXxXxXMXxXMXMXMXMXMXMXMXMXMXcXMXjXMXMXMXNXNXNXNXNXcXNXNXcXvXcXvXdXwX^ s ; ",
"% q >.=XAXAXAXDXDXDXDXDXAXAXAXAXAXDXDXDXAXAXDXAXAXAXDXDXDXDXDXDXDXDXAXAXVXAXDXDXAXAXAXDXDXAXAXAXDXDXDXDXDXDXAXSXmXmXvXvX&XR s o ",
"# 0 =.=XAXAXAXAXDXAXZXCXzXzXzXzXzXzXzXzXzXzXjXjXjXcXcXNXCXAXAXDXDXAXAXAXVXAXDXDXAXAXAXDXDXAXAXAXDXDXDXAXSXmXbXdXdXyXyXW.d.L u o ",
"# 0 =..XAXAXAXAXZXCXnXaX9XqX7XqXqXqXqX9X9XiX9XeXeXeXfXfXxXBXBXVXVXAXAXAXAXZXZXAXAXAXAXAXAXAXAXAXAXAXAXZXnXbXyXyX}.~.Y.p.2.Z 8 X ",
"+ w =..XAXCXAXAXZXmXzXqXqX7X1X7X7X2X8X8X8X8X;X=X=XwXfXfXfXBXBXVXAXAXAXAXCXAXZXBXZXCXAXCXZXAXAXAXAXAXZXCXmXsXyXrX~.L.m.e.1.N 7 . ",
"O 6 *..XAXAXAXZXZXmXlXpX2X1X@X1X1X1X7X7X@X-X#X#XXXXXwXfXfXMXBXVXAXAXAXAXCXZXCXZXZXAXZXAXAXCXAXAXAXZXZXnXbXsXyX].~.m.p.( R v 5   ",
"+ e =.=XSXAXZXCXmXbXaX0X1X<X>X>X@X,X@X@X@X@X#X#X*X=XwXfXjXcXBXAXVXAXAXAXAXZXAXCXCXzXCXzXCXAXAXCXZXZXnXzXsXpXrX[.L.n.i.( I b 7   ",
"+ e :..XZXZXnXnXaXpX0X4X<X<X>X@X@X@X@X@X@X#X#X;XeXcXcXcXMXBXBXVXAXAXAXCXZXAXZXCXzXgXhXhXnXzXZXAXzXzXkXaXpXtXrX].^.N.f.( R c 7   ",
"+ e :.*XAXnXzXkX6X3X,X<X,X,X,X@X,X,X@X@X@X#X#X=XcXCXZXZXVXVXBXBXZXAXAXCXZXZXZXCXhX9X;X9XiXzXAXAXzXqX0X0X6X5X[.].D.Z.f.( T c 7 X ",
"& r >.=XZXzXlXpX3X,X,X,X,X3X,X<X,X<X@X1X2X;X;XiXvXZXDXAXAXVXVXVXAXAXZXZXCXCXBXnXkX;X:XeXiXzXZXCXzX8X7X4X3X3X[.].H.c.X.` W S 7 X ",
"& t >.=XZXnXkXqX4X,X3X,X4X4X4X4X<X@X7X0XqXaXaXcXCXVXVXAXAXAXAXAXDXAXSXCXzXzXlXkXiXqXiXsXkXkXzXlXqX7X1X4X3X3X[.].!.c.h.` W c 7 $ ",
"+ p >.iXZXzXaX0X4X,X4X4X4X4X1X1X@X1X8XiXkXzXnXnXmXmXBXZXAXAXDXDXDXAXZXnXlXhXiXiXkXkXlXkXkXkXhXiX8X7X,X4X4X3X[.].H.V.+.` W S 7 $ ",
"& e >.=XZXzXkX0X4X,X4X4X4X4X1X7X%X#X8XaXzXnXCXZXBXBXVXVXSXSXSXDXAXAXnXcXiXiX;XiXsXzXbXzXzXsXiX:X7X1X@X4X3X5X[.].H.V.O.( W c 4 X ",
"# e :.=XZXnXaXqX4X,X4X1X1X7X@X@X#X#XeXhXnXCXZXZXAXVXVXZXAXSXSXDXDXAXCXnXiXeX-X9XaXmXnXnXlXiX:X-X-X7X1X4X3X3X[.(.I.V.+.` W m 3 X ",
"# e :.=XZXnXkXqX0X,X,X1X@X1X7X-X-X*XeXcXBXVXAXDXAXVXVXVXAXAXZXVXZXBXnXbXsXeX:X;XsXnXnXzXsXiX2X#X7X7X4X4X3X5X[.].I.V.+.( W c 4 X ",
"O 0 >.:XCXnXkXqX4X,X@X@X7X@X9X9X9XgXjXNXVXVXAXAXVXVXVXAXAXVXZXCXcXhXhXiXiXsXpXaXkXkXaXuXuXuX-X2X2X1X<X4X3X5X].}.I.V.+.` Q b 4   ",
"O w :.*XZXnXkXqX7X@X@X@X@X9X9XkXNXCXBXBXVXVXAXVXVXVXAXAXAXZXZXnXeX;X;XiXhXlXmXbXsXpXuX7X2X2X2X-X2X1X1X1X3X5X}.(.I.V.O._ T c 3   ",
"O 0 =.*XZXnXkXqX1X@X@X#X%XiXiXjXCXAXDXVXVXAXVXAXVXVXAXZXZXZXZXhXeX*X;XiXsXzXnXnXsX0X2X%X%X2X2X2X2X<X<X3X3X5X[.(.I.B.X.) T c 3   ",
"o 0 :.*XmXnXkXqX7X%X-X-X;XiXhXnXZXAXAXVXVXVXVXAXAXAXVXCXCXCXzXlXiXiXiXsXsXzXbXbXpX2X1X2X%X2X%X2X2X$X1X3X3X5X}.(.I.B.O.( T b 2   ",
"O 0 =.*XCXzXkXiX7X%X-XeXiXhXjXcXVXAXAXVXVXVXVXAXAXAXBXnXjXlXlXhXkXlXaXlXlXsXlXsX0X1X<X2X2X$X%X$X<X<X2X3X5X5X}.}.I.B.O.) E z 2   ",
"O 0 ;.*XnXzXhX9X-X%X:XeXhXjXcXCXAXAXAXVXVXVXVXAXDXAXZXjXhXgXiXkXzXbXbXlXkXsXaXpX6X2X<X<X<X<X2X2X<X<X<X3X5X5X}.].I.B. .) E b 2   ",
"O w =.*XCXzXgX9X.X-X9XxXcXCXBXVXAXAXVXVXZXVXAXAXDXAXCXhXeX;X9XiXlXmXnXzXsXpX0X6X4X3X<X<X<X1X<X<X<X4X4X5X5XrX}.].I.Z.O._ E b 5 . ",
"O 0 =. XCXzXkX9X;X-X9XCXZXZXAXAXAXVXAXAXVXAXZXAXAXAXCXhX9X;X-XpXzXCXmXzXaXpX4X<X3X4X4X3X3X4X4X1X3X3X3X3X5X}.}.(.U.B.l.) E b 2 . ",
"O 0 =. XCXxXzXjXgXgXzXCXAXAXAXDXAXAXAXAXZXBXZXBXnXcXjXaXaXaXaXaXkXzXsXsXpX6X4X<X3X3X4X3X3X3X<X<X3X4X3X3X5X5X}.(.I.Z.#.` E n 2 . ",
"O 0 =. XCXCXCXCXCXCXCXAXDXDXDXDXDXDXAXAXAXDXCXzXfXeXiXlXzXzXzXzXsXaXpXqX0X4X,X3X3X3X3X3X4X3X4X3X3X3X3X3X3X[.}.(.I.Z.$.` ~ n 2 . ",
"O 6 *.|.NXCXCXCXCXCXAXAXAXAXDXDXDXDXAXAXSXnXjXhXeX;XqXlXnXnXnXzXaXqX4X0X6X4X3X3X3X3X3X3X3X3X3X3X3X3X3X3X3X'.].(.L.Z.$.' ~ M 8 . ",
"O 6 *.|.CXDXCXAXCXCXAXAXAXAXAXDXDXDXSXAXBXcXjXgX;X;XiXkXlXzXzXlXaX4X0X4X4X4X4X4X4X3X3X3X3X3X3X3X3X3X3X'.).`.].^.L.M.$.` ^ M 8 . ",
"O 6 *.|.CXAXAXAXAXCXAXAXAXAXAXDXDXDXSXZXzXhXgXgXiX9XiXkXlXlXlXkXqX6X4X0X4X4X4X5X3X3X3X3X3X3X3X3X3X3X'.'.`.`.(.I.J.M.o._ ~ M 8 . ",
"O 6 *.|.BXAXAXAXAXCXAXAXAXAXAXAXDXDXSXjXhXgXeXiXiXkXkXkXkXkXaXqX0X4X4X4X4X4X4X6X4X4X3X3X3X3X3X'.[.[.'.`.`.^.H.G.B.$.$._ ~ M 8 . ",
"O 6 *.|.AXAXAXAXAXAXAXAXAXAXAXAXAXAXCXgXeX;X-X;XlXnXzXkXkXqX0X7X4X4X4X4X4X4X4X4X4X3X3X3X3X3X).).'.[.[.`.(.S.N.O.#.@..._ ! M 2 . ",
"+ 6 *.|.AXAXAXAXAXAXAXDXAXAXAXCXAXCXxX9X;X-X#XqXzXCXnXkXqX7X7X,X1X4X4X4X4X4X4X4X3X4X3X3X3X3X).'.'.].].(.^.A.X.| ..[ ] ) ! M 8 X ",
"+ 6 *.|.AXAXAXAXAXAXAXAXAXAXAXCXCXkXkXgX9X9X8XaXlXzXlXkXqX4X1X@X4X4X4X4X,X4X,X,X3X3X3X3X5X[.'.'.`.`.^.^.G.Z.M.$.@.@..._ ! M 8 . ",
"O 6 *..XNXAXAXAXAXAXAXAXAXAXCXzXkX9XiXkXkXkXkXsXkXaXaXaX0X4X,X@X1X4X4X4X,X4X4X,X3X3X3X3X5X5X5X`./.D.A.A.A.J.J.J.C.$.O._ ! m 2 . ",
"O 6 *..XAXAXAXAXAXCXAXAXAXAXzXzX9X;X9XkXzXzXkXkXaX0X0X0X4X4X,X>X,X4X4X4X,X,X4X,X3X'.3X3X[.5X[.].Q.m.l.l.N.J.U.U.K.C.#._ ! M 2 . ",
"O 6 *.oXCXAXAXAXAXAXCXAXAXZXzXzX9X-XqXkXzXbXbXkXqX0X0X4X0X4X2X4X4X4X4X4X,X4X,X4X3X3X'.'.[.[.]./.H.l.l.l.n.G.U.U.J.&.o._ ! m 2 . ",
"@ w *.oXAXAXAXCXAXCXCXCXnXnXzXkX9X-XqXzXlXnXnXkXqX1X1X4X0X0X0X0X7X7X4X,X,X,X4X,X3X3X'.'.`.]./.^.G.c.l.N.N.G.L.U.J.&.@._ ~ m 2 X ",
"@ w *.oXAXAXAXAXAXCXCXCXkXzXlXkXkXqXkXkXlXlXkXpX4X1X4X0XqXqXpXpXqX4X4X,X4X4X,X4X3X3X'.`./.!.H.F.F.N.A.N.Z.J.P.Z.C.&.} _ ~ M 2 . ",
"@ w ;.oXVXAXAXDXDXZXzXgX9XaXkXlXzXzXlXsXpX0X0X6X3X,X4XpXsXkXlXsXqX4X4X,X<X3X3X3X5X3X'./.!.c.c.c.V.G.G.I.G.Z.M.@.%.@..._ ! M 8   ",
"@ w ;.oXAXAXAXDXDXAXzX9X;XqXaXbXCXAXmXsXqX6X>X+XE.,X0XaXlXnXbXsXqX4X4X,X<X3X[.3X[.[.`.!.F.c. .X.M.I.U.U.L.B.@.] [ @.] _ ~ S 8   ",
"@ w *.oXZXAXZXAXZXCXlXiX9XuXaXlXzXmXbXaX6X<X>X'.>X,X6XpXsXsXbXsX0X4X,X,X<X'.[.[.`./.!.H.F.c.h.x.N.P.P.P.P.M.} ] [ [ ] _ ^ M 8 X ",
"@ w ;.oXZXZXZXcXzXlXkXaXiXsXaXsXlXkXaXpX2X2X<X>X,X4X6X0XpXaXsXpX5X3X3X3X`.'.[.]./.H.F.V.N.N.N.V.Z.G.Z.Z.C.%.} [ [ [ ] _ ~ M 8   ",
"@ w ;.oXAXZXCXzXiXaXkXlXbXsXsXpXpXpXtX6X6X2X<X3X4X4X4X0X6XpXpXtX5X5X'.)._.`.].(.H.c.c.B.V.V.P.P.Z.V.C.&.%.} } } $.] ] ) ~ M 8 . ",
"@ w ;.oXCXCXCXkXiX9XaXnXbXsXsXpX2X2X2X2X2X4X6X4X6X6X4X5X5X6X6X6X5X5X'.`.`.].(.~.F.x.x.M.V.G.P.U.P.C.&.%.%.} } } ] $.] ) ~ M 8 . ",
"@ w =.XXZXCXzXhX9X-XuXbXmXbXsXpX<X$X$X<X2X6X6X6X4X4X6X5X5X6X5X5X5X5X[.].(.].(.^.V.+.#.x.V.P.U.U.J.M.@...[ [ [ [ %.[ ] ) E n 2 . ",
"@ w =..XZXZXzXlXiXiXsXbXbXsXpX2X$XW.<X2X6XpXpX0X4X4X6X4X4X5X5X5X5X[.].`.~.^.^.G.V.#.#.V.C.P.U.P.C.O...[ ] [ %.%.%.%.] ) E n 2 . ",
"@ w ;.oXZXnXnXmXbXzXlXsXpXuX2X$X$X+X2XpXsXsXsXpXqX4X4X3X3X3X3X3X[.}.].~.Q.A.n.N.N.G.J.J.J.J.C.%.$.| | | X.#.Z.J.C.%.| ) E n 2 . ",
"O 6 ;.XXSXCXCXCXZXmXlXuX2X$X$XW.W.$X6XlXbXmXbXsXqX4X3X3X'.3X[.[.[.`./.L.A.l. .X.G.L.L.L.J.M.$.} ] ] | X.x.Z.U.{.K.C.$._ ~ n 2 . ",
"@ w ;.oXSXnXmXnXmXmXsX2X2X$X$X$X<X2XpXdXbXbXlXsXqX4X3X3X3X[.[.'.`./.L.D.A.n.X.k.Z.I.L.K.C.$.} ] ] | X.h.c.G.U.U.K.%.%._ ~ n 2 . ",
"O w ;.=XAXCXnXnXbXlXpX2X$X$X2X2XpXaXsXbXbXlXsXaX0X<X3X3X3X'.'.`.^.!.A.A.n.n.k.N.G.P.J.n.$.$.] ] ..X.x.c.F.F.G.G.C.%.} ) ! n 8 . ",
"o 6 ;.OXVXmXnXlXsXqX2X2X&X&XtXuXdXbXsXsXsXaXpX0X6X4X3X3X[.'.'./.Q.z.z.l.N.N.A.V.V.V.N.x.o. .] ] O.k.N.F.S.F.c.V.M.@.| ) E n 8 . ",
". 6 *.OXSXmXbXsXuX-X2X%X2X-XuXsXbXmXbXsXpXpX6X4X3X3X3X3X[.'.'.!.z.g.g.z.z.G.H.H.F.x.k. . .' ' ' k.N.S.H.!.S.c.h.#...' ( ! n 2 . ",
". 9 *.OXmXmXsXuX2X%X%X%X&X;XuXuXmXmXbXsXtX5X3X).).3X'.'.'.`.`.Q.j.i.i.j.z.H.~.^.A.f. .' ' ' ' f.A.H.!.!.!.c.j.h.X...| ( E b 5 . ",
". 6 *.OXZXvXsXiX2X%X2X2XuXuXiXbXmXZXbXaXqX5X3X).).).'.[.'.`.`.!.z.g.j.z.Q.^.[.(.G.k.f. .f.f.p.n.D././.`./.!.c.h.h.h.f.e.^ N 5   ",
". 9 K OXZXmXbXlX0X8XqXzXzXzXnXnXmXbXsXpXtXtX6X5X6X5X5X5XrX[.'./.Q.Q.!.Q.`.`.[.].^.I.D.S.D.D.Q.Q./.].[.[.[./.!.H.H.G.S.z.2.Z 0   ",
"o w ,.OXZXmXnXkXpXqXaXCXDXZXCXmXiXiXpXpXqXtXtXqXtXtXtXtXtX5X5X3X'.'.'.3X3X5X[.[.].(.(.}.}.[._.[.5XrXrXrX5X5X`.].].]./.Y.p.L q X ",
"; u K v.wXuX*X#X+X#X-X9XiXeXiX*X+Xb.E.+XE.E.E.E.E.E.E.T.R.R.T.T.T.T.T.T.R.R.Y.Y.Y.Y.Y.R.Y.R.Y.Y.R.R.R.R.R.R.Q.Y.Q.Q.Q.z.e.Y s ; ",
"8 s F 0.v.v.d.7.7.7.d.d.v.v.d.s.7.3.3.3.t.u.a.a.3.u.u.u.t.t.t.t.r.r.t.r.r.r.r.r.y.e.y.u.y.y.3.y.3.y.y.r.r.y.r.e.e.p.e.e.~ S d y ",
"f z F K ,.,.>.>.>.>.<.<.<.<.,.,.K G G P U U :.U U U P J J J J J J U J J J J J J J Y I R U U P P P P P L K L I R Y R Y Y H A A d ",
"S M M v l x l l k h l x x l l l g g g k j k k j k k k h k k k k k k k k k k k k k k k k z h j j j j j g g f j z z f d d d A A A ",
"E L z 8 > > : : , , < < < > > > , , , , : : * : : * * * , * * * , * * , , , , , , , , , : , , : : : ; , , , , ; , , 1 1 y d Q / ",
"2.R b 2 * $ $ % = = = = - = = = = = $ = % % $ % # # # + + + + + + * - * - - - - - = = = = = = = = = = = = = = % % % = 1 y d Q ' "
};
