/* XPM */
static char *f9a8262dd9d74153c780d9f13dbae5a2AKJvKlKy2YIMnOIQ[] = {
/* columns rows colors chars-per-pixel */
"64 64 174 2 ",
"   c None",
".  c #553F2E",
"X  c #4F4E2F",
"o  c #54432E",
"O  c #5C4531",
"+  c #5E4931",
"@  c #495630",
"#  c #4C5E31",
"$  c #515030",
"%  c #5E5032",
"&  c #555C33",
"*  c #5B5C34",
"=  c #634C33",
"-  c #684F34",
";  c #635434",
":  c #6B5435",
">  c #665835",
",  c #6F5936",
"<  c #725B37",
"1  c #755E38",
"2  c #456331",
"3  c #496633",
"4  c #4D6A34",
"5  c #516333",
"6  c #516E35",
"7  c #547236",
"8  c #597637",
"9  c #5A7937",
"0  c #577538",
"q  c #597738",
"w  c #5C7A39",
"e  c #6E6137",
"r  c #776039",
"t  c #7A643A",
"y  c #746B3A",
"u  c #7F693B",
"i  c #617E3B",
"p  c #826C3C",
"a  c #65823D",
"s  c #66843C",
"d  c #67843C",
"f  c #67853C",
"g  c #67843D",
"h  c #67843E",
"j  c #65823B",
"k  c #68853B",
"l  c #68853C",
"z  c #69853C",
"x  c #68853D",
"c  c #68863C",
"v  c #69863C",
"b  c #68863D",
"n  c #69863D",
"m  c #69873D",
"M  c #6A863D",
"N  c #6A873D",
"B  c #6B873D",
"V  c #68843E",
"C  c #68853E",
"Z  c #69853E",
"A  c #69863E",
"S  c #69863F",
"D  c #6A863F",
"F  c #6A873F",
"G  c #6C873F",
"H  c #69853C",
"J  c #6A883D",
"K  c #6B883D",
"L  c #6B893D",
"P  c #6B883E",
"I  c #6B893E",
"U  c #6C893D",
"Y  c #6C8A3D",
"T  c #6C883E",
"R  c #6C893E",
"E  c #6D893E",
"W  c #6C883F",
"Q  c #6D883F",
"!  c #6D893F",
"~  c #6C893F",
"^  c #6C8A3E",
"/  c #6D8B3E",
"(  c #6D8A3F",
")  c #6E8A3E",
"_  c #6E8A3F",
"`  c #6F8B3F",
"'  c #6F8B3E",
"]  c #6E8C3E",
"[  c #6C893E",
"{  c #718D3F",
"}  c #718D3F",
"|  c #6D8840",
" . c #6D8940",
".. c #6E8940",
"X. c #6E8A40",
"o. c #6F8A40",
"O. c #6F8B40",
"+. c #6F8B41",
"@. c #6E8A40",
"#. c #708B40",
"$. c #708B41",
"%. c #708C40",
"&. c #718C40",
"*. c #718D40",
"=. c #708C41",
"-. c #718C41",
";. c #718D41",
":. c #728D41",
">. c #728E41",
",. c #738E41",
"<. c #738F41",
"1. c #738E42",
"2. c #738F42",
"3. c #748F41",
"4. c #748F42",
"5. c #758F42",
"6. c #728D41",
"7. c #759141",
"8. c #759041",
"9. c #759042",
"0. c #759043",
"q. c #769142",
"w. c #769143",
"e. c #779143",
"r. c #779242",
"t. c #779243",
"y. c #779342",
"u. c #759042",
"i. c #789243",
"p. c #789343",
"a. c #799343",
"s. c #799443",
"d. c #799442",
"f. c #7A9443",
"g. c #7A9543",
"h. c #7B9543",
"j. c #7B9643",
"k. c #7C9743",
"l. c #7A9444",
"z. c #7A9544",
"x. c #7B9544",
"c. c #7B9644",
"v. c #7C9644",
"b. c #7C9744",
"n. c #7D9744",
"m. c #7A9543",
"M. c #7D9844",
"N. c #7E9844",
"B. c #7E9944",
"V. c #7F9944",
"C. c #7E9845",
"Z. c #7F9945",
"A. c #7F9A45",
"S. c #7F9A44",
"D. c #7E9944",
"F. c #809A44",
"G. c #809A45",
"H. c #809B45",
"J. c #819B45",
"K. c #819C45",
"L. c #829C45",
"P. c #829C46",
"I. c #839D46",
"U. c #829D46",
"Y. c #839E46",
"T. c #849E46",
"R. c #859E46",
"E. c #859F46",
"W. c #869F46",
"Q. c #839D46",
"!. c #86A046",
"~. c #86A047",
"^. c #87A047",
"/. c #86A047",
/* pixels */
"                                                w q q q     w w q w w q                                                         ",
"                                                | i a |     w a i i i w                                                         ",
"                                w q q q     w w 0.l.w.+.a w | O.| +.+.| i w         q q w q w q                                 ",
"                                a a a a     w | t././.C. .a ..t.w.l.t.1.| i         a a i i i i                                 ",
"                            q a 8.l.s.8.a 0 q a b./.^.L.b.t.9.t.C.A.A.C.+.| i q q w  .O.O. . . .i w                             ",
"                            q a l./.^.b. .a q a t.U.L.^.^.L.l.l.A././.A.w.| a q w | +.t.t.t.0. .i w                             ",
"                            w a b./.^.A.b.O.a w O.b.U./.!.L.L.A./././.A.0.| w w a 8.b.L.A.A.w. .i w                             ",
"                            q a y.A.!.!.^.b.O.a ..0.b.A.L.L./.!.A.A.A.z.+.| | | 0.l.L././.A.+.| i q                             ",
"                        w q w i O.l.U./.^.L.C.9.O.] 9.l.L.^.T.L.C.t.t.O.a a 8.l.A.L./.^./.b.| a                                 ",
"                        i i w | | 8.l.A.L.!./.G.9.-.9.l.L.L.L.C.0.0.t.0.v I C././.L.A.C.b.O.w q                                 ",
"                    w i | | | | a a -.l.A.!.!.U.L.S.C.L.L.L.b.t.8.t.b.C.b.b.L.^.^.L.b.8.| w w w                                 ",
"                    q i | 0.0.| a a 8.b.L./.L.U.L.A.L.^.T.C.t.9.0.b.A./.L.!.A.A.A.b.t...| w a w                                 ",
"                    q a | 0.0.0.y.k.C.L.L.^.^.L.s.l.L.^.^.S.9.9.b.A.L./.^.L.l.t.y.t.9.-....... .a 0 6 4                         ",
"                    q w +.0.0.z.L.L.^.L.L.A.A.C.s.l.A.^.^.C.y.y.A./.L.^.!.A.l.t.0.8.0.-.9.9.9.O.i q 0 6                         ",
"            7 7 7 0 q a  .0.0.t.L.^.^.L.s.y.s.l.C.A.L.!.^.C.y.y.A./.^.L.L.L.L.C.t.1.0.t.9.9.9...i q w q 6 4                     ",
"            q q w w 0 w |  . .+.l.L.L.C.y.-.] 9.C.!.^.L.L.C.l.s.L.U.A.L.L././.L.l.8.O.O.-.t.9...i q | i 0 0                     ",
"        7 q | | ..a q 7 q w q a -.l.s.9.t.-.v { C.^.L.L.s.s.C.L.!.A.z.z.A./././.A.w.| | O.8.9.O.i w | i i 9 7 4                 ",
"        7 w | 0.9. .w 7 q w q w | ../ -.-./ v / s.L.L.C.9.9.L.L.!.A.z.y.A.A.A.A./.w.w q | O...a i w w | j i 6 6                 ",
"    7 7 7 q | 0.9./ q q | | | a w w a v v v ..-.9.l.l.t.9.l.L.^.!.A.A.b.7.7.A././.b.| 0 w w a j w j a a z i 7 4                 ",
"    q w q w | | y.-.a a | 1.t.| q 0 w k j v -.9.9.9.-.9.9.9.s.L.!.^.!.A.Y I z.A.A.t.| w w w w w k k i w 9 w 6 4                 ",
"7 q a  .| | w i 9.A.k.9.9.9.5.| 9 8 i j j z { 5.5.5.5.-.5.-.-.9.A.^.!.k.a j  .z.b.O.a q w j k L I j 9 6 7 6                     ",
"7 q  .0.z.+.i | l./.^.L.i.-...V w 9 i j k z { -.-.-.5.5.5.-./ / y.A.A.8.a j h  . . .w a j k L ] ] k 9 7 7 7                     ",
"7 w | 0.A.A.z.z.L.^.^.G.i...i w i i j j V v v / / / -.9.5.-./ v ] { O.] a j a j j w j j k k I ] ] I k a j j 7 4 4 4             ",
"7 q | 1.A.U./.U.G.L.L.L.n.-.i w j k j v B / ..v v / -.-.-.{ / v I a I I | | w w w j 9 j w j z I I I Y ] ] a 0 7 6 7             ",
"    q | l././.H.l.l.H.T.L.s.-./ { { B B -.-.-.O.I v I / / I I I v I I v / v a a a j q 9 0 9 j k k k Y Y Y k j 9 i 9 6 4         ",
"    q i t.A.U.A.t.t.H.T.^.L.s.9.5.&.B B -.9.9.8./ / / v a k v v v v a j j j v I a a w w q w w a k L Y Y Y Y k j i 9 6 4         ",
"7 w | | 1.w.l.w.t.i.H.T.^.L.s.9.5.-./ B -.9.9.9.-.-.&.| j w j I I j w q q w z k w w a I / v w w k L Y } Y Y k i 8 6 6 6 4 4     ",
"6 q | 1.0.0.+.| -.t.C.G.s.s.-.-.5.&.B B -.-.-.-.9.5.5...j w j k a i w w w w i i q a -.l.l...q q j z Y Y } Y k j 8 6 6 7 6 7     ",
"7 w | 0.0.| i i ..t.t.-.a i a / / B v v B / I ] 5.9.9.-.v a i 9 q w a ../ V w w a -.C.L.L.9.w 7 0 w L ] ' ' Y k i i i i i 9 6 6 ",
"7 q | | | | q q | t.1.| q 0 j I / | / / v v k a O.-.-.&./ a w q q a -.l.i.-.i i ..s.L.^./.l.a q 9 w j L Y ' Y Y i i i i k i 6 4 ",
"    w w q q 7 q | t.t.| q q a / ..-.5.-...a w j v / / / v j q q a -.n.G.U.l.&...-.y.A.L.^.C.-. ...a w w k ' U k 9 8 i k k i 6 6 ",
"    6 7 7 q q w a | | a w w a -.-.9.5.-...v j w i a v v / a 0 q ..l.U./.T.H.n.i.s.l.L.^.^.L.l.8.O.a 0 9 k U U k 8 7 9 i i 9 6 4 ",
"    4 6 w a j i w w w w i v ] -.1.0.5.5.&.&.v i 0 9 j I m j q q  .i.L.^.^.T.L.L.G.G.T.T.T.G.a...i q 7 q i k k j i 9 8 6 6 7     ",
"    3 6 i / / V w q q w v / 5.9.-.8.-.5.5.5./ j 0 9 w j a j q q a ..9.l.C.G.L.L.T.T.T.T.G.G.k.-.a w w w i i i k k i 8 6 6 5     ",
"    3 6 i { / v a j a a &.-.5.-.O...-.9.5.-./ z j w 9 7 9 w 9 0 q w w a -.b.L.^.T.T.T.G.k.s.C.G.l.t.&.a 8 6 i j k i i 9 6 4     ",
"    3 6 w i i i j a v / -.9.9.-.I I &.&...v B B I k 7 4 0 9 9 q q w w a -.b.L.L.T.T.T.G.s.l.L.T.T.G.i.| i 8 9 i i k k 9 7 6     ",
"        6 7 6 6 6 0 j / -.9.9.-./ I / a 9 9 j / I j 7 4 7 9 7 q a O.8.b.C.L.L.!.T.T.T.T.G.F.R.R.T.L.i.-...a 8 8 i j k i 7 4     ",
"        3 3 3 4 4 0 i / -.-.5.{ I v v j 8 8 i i j w 7 7 0 q 9 a O.t.L./.^.L.L.A.T.T.T.T.T.R.k.k.G.G.t.9.5...9 7 9 i i w 6 6     ",
"            3 6 w i v B { B B / v v v v j w 8 7 7 7 0 0 0 q a  .0.t.L./.!.L.l.l.T.T.W.T.T.F.{ { 5.i.5.5.t...j w 7 6 7 6         ",
"            3 6 i / B v a i v v a j V / L j 7 4 4 7 7 0 0 w  .t.t.8.y.s.C.A.t.l.G.G.F.k.G.k.{ z / &.&.&.&...v w 6 4 4 4         ",
"            3 6 j I I j 8 7 i j q q j / B j 7 6 7 7 8 9 7 9  .y.t.O.a a -.l.C.L.L.C.{ ] } a.,.Q k k k k k k k 9 6 3             ",
"            4 6 w a i w 7 q a a q 8 i i j w 7 6 8 8 7 7 7 9 a Y  .a q q v a.L././.C.I k } e.e.{ k k i k j j k i 7 6             ",
"                6 6 6 7 w j v v a i 8 7 7 7 7 8 9 7 4 4 7 9 9 w w w 0 w B a.L.T.T.k./ j } } } } k i k i j j j j i 8 6 3         ",
"                3 2 3 6 i / B v j i 6 6 4 7 8 9 9 7 4 4 7 7 0 7 7 7 7 w / a.C.G.S.a.v k } } } } k k j i i i j j k i 6 2         ",
"                    3 6 i L U j 8 7 7 7 7 0 9 9 9 8 7 7 4 4 7 8 q 7 4 0 L 9.a.9.{ z j j k k k k k i k i 7 7 i z j i 6 3         ",
"                    3 6 9 j j 9 4 4 7 9 9 9 7 0 9 9 9 7 4 2 6 0 0 7 7 0 z { { U j j j j j j 9 i i k k 9 6 4 8 9 i 8 6 3         ",
"                        6 7 7 4 4 4 7 9 9 7 4 4 7 9 9 7 2 2 2 3 4 7 9 w j z z j z j j j j i 7 6 i i k 9 6 4 4 6 6 6             ",
"                        3 3 3 3 3 4 7 7 7 6 # 3 6 7 7 6 5 3 # # 2 6 w k k j j j i i j j k 9 6 6 9 i i 9 4 3 3 3 3 3             ",
"                                    3 3 4 # X X 2 4 3 4 * ; ; * 5 6 i k k k k i 7 7 w k j i 4 4 5 6 6 6                         ",
"                                    2 2 2 @ o o & 5 5 & ; - - ; & 5 9 9 w w w q 5 5 8 w i 8 6 3 5 3 3 3                         ",
"                                            o O , y y e ; = = : > * 6 6 7 4 4 5 $ $ 5 7 6 4                                     ",
"                                            . + < p p t = = = : : > & 5 5 5 5 & o o @ 3 4 3                                     ",
"                                            . + : r p r - = = : < < > ; ; ; * + o o                                             ",
"                                            + + ; < t r = = : : < < , : - : : = + o                                             ",
"                                            O = : 1 1 1 : : : 1 1 1 < , : : : = + O                                             ",
"                                            O = : 1 < < : : 1 1 1 1 1 < : : : - = +                                             ",
"                                            O + - : : , < < 1 1 1 1 1 < < 1 < , = O                                             ",
"                                            O = : : : , < 1 1 1 1 1 1 1 1 1 1 , = O                                             ",
"                                        + + O + : < < < 1 1 1 1 1 1 1 1 1 1 1 < + O O +                                         ",
"                                        = - - : < 1 t 1 1 t t 1 < , , < 1 1 1 < : - - ;                                         ",
"                                    + = < t t 1 1 1 1 1 t p p 1 - = + - < 1 1 1 t t t < = +                                     ",
"                                    = : p p p t 1 , , 1 t p p t : = + = : , , 1 t p p t : =                                     ",
"                                O = < t p p p < - = = - < u p p u , = O = = = - < t p p u < = O                                 ",
"                                O - t p p p 1 , + O O = , 1 p p p t = O O O O = , t u p p t - +                                 "
};
