/* XPM */
static char *result[] = {
/* columns rows colors chars-per-pixel */
"64 64 100 2 ",
"   c #CFA55D",
".  c #D3A656",
"X  c #D8A757",
"o  c #D6A956",
"O  c #D8AA57",
"+  c #D2A65C",
"@  c #D8A758",
"#  c #D4A95D",
"$  c #DBAC5C",
"%  c #DDB15E",
"&  c #E1B15F",
"*  c #CFA761",
"=  c #D1A662",
"-  c #D4AB64",
";  c #DAAE63",
":  c #D4AE6B",
">  c #D8AF6B",
",  c #DCB165",
"<  c #D7B16D",
"1  c #DBB26B",
"2  c #D3AE71",
"3  c #D7B171",
"4  c #DCB572",
"5  c #DDB873",
"6  c #D4B27A",
"7  c #DBB779",
"8  c #DFBC7A",
"9  c #E1AF61",
"0  c #E3B464",
"q  c #E6B967",
"w  c #E2B66B",
"e  c #E5BA6D",
"r  c #EABC6C",
"t  c #E1B771",
"y  c #E4BB73",
"u  c #EABE72",
"i  c #E3BD7B",
"p  c #EBC16F",
"a  c #EBC175",
"s  c #E6C17D",
"d  c #ECC47D",
"f  c #F1C474",
"g  c #F2C67B",
"h  c #F3CA7D",
"j  c #DCBB84",
"k  c #D7BA89",
"l  c #D9BB8B",
"z  c #DDBF90",
"x  c #E4BF81",
"c  c #DCC08F",
"v  c #DFC495",
"b  c #DFC79D",
"n  c #E5C284",
"m  c #EBC582",
"M  c #EEC986",
"N  c #E5C68E",
"B  c #EBC68A",
"V  c #EBC98C",
"C  c #F1C780",
"Z  c #F3CC83",
"A  c #F3CE8A",
"S  c #F6D185",
"D  c #F7D28C",
"F  c #F8D78E",
"G  c #E1C292",
"H  c #E6C893",
"J  c #EDCC91",
"K  c #E7CB9C",
"L  c #EACC9D",
"P  c #F3CF92",
"I  c #EFD197",
"U  c #EFD199",
"Y  c #F6D494",
"T  c #F8D795",
"R  c #F8D895",
"E  c #F5D59B",
"W  c #F8D79B",
"Q  c #F7D89E",
"!  c #F8D89C",
"~  c #E4CAA2",
"^  c #E9CEA3",
"/  c #E6CFA8",
"(  c #EED2A0",
")  c #EDD5AC",
"_  c #EFDBAC",
"`  c #F6D7A3",
"'  c #F8D7A1",
"]  c #F6D9A4",
"[  c #F8D8A1",
"{  c #F1D6A9",
"}  c #F3D9AA",
"|  c #EEDAB3",
" . c #EEDDBB",
".. c #F2DBB3",
"X. c #F2DDBA",
"o. c #F6E2BE",
"O. c #F8E1BC",
"+. c #F3E4C5",
"@. c #F8E2C0",
"#. c #F2E3C8",
/* pixels */
"+   + # , - < < < : : : : : : 2 2 2 2 : : 2 3 2 2 2 2 : < - - # - - ; : : : : : < < 2 < : : : : 2 2 : 2 2 : 2 : 2 : : : - = = = ",
"# . O % , q w w 5 1 e 5 5 5 4 4 t 4 4 4 5 7 t 4 4 5 4 t 1 , : # # # , 0 w t t t t t 5 5 5 5 5 4 4 5 4 4 t t 4 4 t 4 t w w > ; - ",
"$ O % 0 p p a s a a d d d d m s g C C g d d d d d d d d d p , $ o % 0 a f g g d d d d g m a m d m C m m g d d d m g d d y w 9 = ",
"$ % % q f h h S S D D A D D D D A A A A D A D D S D S S h a r % % , r a h Z Z Z Z A D S D D D D A A A A A A A S A A Z S u t 9 ; ",
", % , p h h D D F Y F T F Y Y Y T T T T F R R F T F F F S h y , $ 0 f h Z D S F T F T T R T T T T T T T T F T T T F F D C u 9 9 ",
", $ q a h F D R T W T R R R R R R R T T R R R R T T F F D h e , ; q a h D F T T T R T W R R R R T T ! R T T W T T T T S C u 9 > ",
", , 1 a S F F R W W Q ! ! Q E E Q ! ! Q ! ! ! ! R R R T D h p , ; w a Z D T W W Q ! ! ! ! ! ! ! Q Q ! Q W W W W T T T D C u > ; ",
"- - 1 g S F R Q W ' Q [ Q [ Q Q Q Q Q Q Q [ [ [ Q ! ! T D g y 1 , 1 s Z Y T ! W Q [ Q Q Q Q [ Q W [ W [ ' ' W [ W T T D C y > - ",
"> ; w d A P W W [ ] ] ] ] [ [ ] Q ] ] ] ] ] ] [ [ W ! R Y Z y > ; 5 a M Y W W ' ' ] ' ' [ ] ] ] ] ] ] ] ] ] [ ] ' Q T Y C y 1 ; ",
"> > 4 i A P W W [ ] ] ] ] ] ] ] _ ] ] ] _ ] ] ] ' [ Q ! Y C i > > 1 m M Y W ' ' ] ] ' ] [ ] ] ] ] ] } ] } ] ] ] ' Q W F Z i < - ",
"> - t i A W W ' [ ] ] ] [ [ ] ] ] ] ] ] ] ] ] } ] ' [ Q Y m i > > 5 s M P W ' ' ] ] ] ' ] ] ] ] ] ] ] ] ' } ] ] [ Q Q T M y < - ",
"> > t x A P W ' [ ] [ ] [ ] ] ] ] ] ] ] ] ] ] ] ] ' [ W Y M y > > 1 n A P E ' ' ] ] ] ] ] ] ] ] ] ] ] ] ] ' ] ] [ Q ! T M i < - ",
"- - 3 i A P E E E E E E R I E E I Q I E U R I R Q E R Y P B y > = 1 i B P W E E E Q E E E E E I [ Q E I I E E R E E W A M i : > ",
": ; > y x x B J V V H N J J V N V V V V V N J B V V V B C i t : : 1 y x B B A z V V H V N B V V V V V V V V V N B M M B i 4 : - ",
"= = > > t i x x j 8 8 8 8 8 8 8 8 8 8 8 8 8 8 8 8 8 5 i y > > - = ; > 7 i i x x j x 8 8 8 8 8 5 8 8 8 8 8 8 8 8 8 i i t 4 > = = ",
"= = = - : : : > 2 : : < : , : : - 1 - - : : : < - < : : > - = = = = - : > > : > : : : : : ; : > - - : < < - : : : - : > = = = = ",
"= = = = ; = = = = ; = - # # @ + + + + # # = = = - - - * - - = = = = - * - - = = = - - # # + +   . + + # - - - - - - = - = # * = ",
"w 1 > > > > 1 1 > ; ; ; ; $ @ X . . # $ ; 1 , , , 1 : , 1 - 1 1 1 , < < > > > > , ; ; 9 $ # X . o # # , , 1 , - < , 1 < 1 1 1 1 ",
"y i y u p y y y u y u r r q 0 $ X O $ q e e y p y y y u p y y y y a y p y u u u u y r r q 0 % O o % q e e e e a p y p p u y y y ",
"C C C C m Z C C g g g f g f r & X O 0 r p g g g g C Z C m Z g Z C m Z m C g C h g g f f f r & O O & p a f g g g d M m m C Z C C ",
"D Y D D D D D D S S S S S h f 0 $ % q f h S S S S S Y D D D D D D D D F D D D D A S S Z h f 0 O % q a h h S S S D D D D Y D Y D ",
"T T R T R R R R T T T T D h f 0 $ % r f h S F F T T T T W Y W W ! R T T T R T T T F F F Z f q $ % q a S S F F T T Y W E T E Y W ",
"W W ! ! ! ! ! ! R T T T F Z d w # , e g S D F T W T W W W W W ' W Q Q ! ! R ! T T T T F Z a 1 $ , 1 h S F F T R W W W W W W W W ",
"' ' Q Q Q Q ! ! ! ! T T T A d w % , y g D F R R W W W ' ' W ' ' W Q [ W Q Q ! ! ! T T Y D g e # , p g S F T R ! W W ' W ' ' ' ' ",
"' ' ' ' [ [ ] ] Q Q ! ! E A d w - , 5 h A R E Q Q ' ' ` ' ' ' ' [ [ ' ] ] [ [ Q Q Q ! R A m 5 , 1 y C D T E Q Q ' ] ` ' ' ' ' ' ",
"' ' } } } ] ] ] ] Q Q ! R P s w : 1 8 M A R E [ [ [ ] ] ] ] } ' ' ] ] ' } ] ] ] Q Q ! T P s 1 ; , i m A Y E Q [ ] ] ' ' } ' ' } ",
"} ] } } } } ] { ] ] Q Q E A m 1 - 1 8 h V R Q ] ' } } } } ] } ` } } } } } } ] ] [ Q ! ! D m 4 - < y m P R Q ] ] } } ] } } } } } ",
"' } } ] } { { ] ] [ Q ! R Y m 4 1 1 8 M Y E [ ] ] ` ] } ] } ` } } } } } } } { ] [ Q ! ! P m 4 > 1 i m P E Q [ ] ] } } ] ' ' } } ",
"] ] ] ] { ] ] ` Q Q E E Y A s 4 - < a M D R R ] ] [ ] ] ] ] ` ` ] ] ] ] [ ] ` [ ` E E T D d 5 - < a M D R Q Q ] ` ` ` ' ' ' ' ` ",
"J E I I I I I I I Y P Y D m s 1 - 1 5 a V J I R I I I I I I P E I U U I E J J I P Y D V M i 4 - - y s V M I Y I L U U ( E U U U ",
"n B n n n n n N n n m m n s 5 < * - 1 8 s n m n B c n n n n n n n n n n n n B n n m m s 8 5 < - - 1 t s s V n n n B x x x x x x ",
"5 5 4 7 7 5 4 4 4 4 4 4 1 1 < - - - - 1 1 5 5 7 4 4 7 7 4 4 4 t 5 5 7 7 7 4 7 4 4 4 5 4 1 < - - = > 1 1 5 5 7 7 7 4 4 7 i 4 t i ",
"; # = ; : - - - - - - : - - - *     - * - - - - : - : = - = - # - - ; - - - : - - > = -   -       - # - : : * : : : - - * = - - ",
"+ + + # # # - # - # - # - # * - - - - % * - - - = = - ; - + @ X . + + + # # - * - - - - # - - - # - - - - * * * * * ; $ # # + + ",
"O O @ $ % , , , , 1 < 1 , 1 1 5 , w 1 1 1 1 1 1 w > r 0 9 9 $ X o $ $ 0 , , , , , , 1 1 1 1 1 1 w 1 1 1 1 1 1 < 1 1 , 0 9 $ O @ ",
"@ @ & 0 q p r a a a a a a a a s s a s a a a a a u u u u r r & $ $ $ 0 q p e p a a a a a a a d d a a a a a a a a a a p p r 0 $ O ",
"$ O 0 r f h S h S S S A S D S A S A S A Z Z A Z A Z S Z h f q $ $ & r f h h S S S S D M A D M D S A S S S M A S S h S h u r & @ ",
"% $ 0 u g S F D D F Y F R R R F F R R R F T T T T T F S S g r 9 $ 0 u h S D F F F R F R R R R Y R R I F F F F F F F D S f u 9 $ ",
"; ; q u M F D F R R R E R R ! E Q R R R T R R R R R T F S Z u > $ 0 a Z D D F D R R ! R E R Q R R R R R E R R R R T F S C u 9 $ ",
"; ; w f S D R F R ! ! ! Q Q E Q Q Q Q Q ! R ! ! ! T T F D g u 9 ; w d Z D Y R R ! R ! ! E Q R Q Q Q Q Q E ! ! R R T T D C u 9 ; ",
"> ; w d A Y Y T E Q Q Q Q Q ] E E Q Q Q Q Q Q Q W W ! T D Z i 0 ; w i A Y T R E Q Q Q Q Q ] Q Q ] [ [ [ Q Q Q Q ! R R F C u 1 > ",
"> ; w s A R W E Q ] ] ] ] ] ] ] Q _ ] ] ] ] ] ] ' ' ! T Y Z u > - t d A Y E E Q Q [ ] ] ] ] { ] ] ] ] [ [ [ [ [ Q ! W D Z i 1 - ",
"1 : 4 s A Y E Q [ ] ] { ] } ] ] _ ] _ { ] ] ] ] ] ' W W Y M i 1 : t i A Y E E ` ] ] ] } { ] { { { ] ` } ] ] { [ [ Q ! T A y 1 > ",
"1 : 4 s A Y E E ] ] ] ] ] ] ] _ ( _ ] ] ] ] ] ] ] ] W W Y M i > : 4 s A E E E ] ] } ] ] ] ] ` { _ ] } ] ` } ] ] Q Q ! T M i < - ",
"< : 5 s V Y E Q Q ` Q ] ` { ` ` { ] ] ] ] ] [ ] ` Q W W Y M i 1 > 1 s M R E E E ] ] ] ] ] ] ` ` ` ] ] ] ` ` ` ` Q W W Y M y 1 - ",
": : < a M P P Y E E I E E E E E E U ` E E E E E E E Y Y A d i : : 1 s M I Y E E I Q E I U E ` E E U ` E E E E E E Y Y D M i : : ",
": - 1 y m M V A V V J V V J V P J J J J J V H J J J A A Z s 4 > - 1 s m M V V V J V I J J V J P J J H J J J J J V V A Z s y > = ",
"- # < 1 i i i x n s n i n n n x x n i n n x n n x x x i i t 1 = * - 1 8 s s s n c s s s n n n i i n i x x x x x n i i i y 4 : = ",
"* * - : > > > 4 1 3 > > 4 3 3 1 1 1 3 1 3 4 3 4 3 4 3 < : > =     - - 1 3 3 2 2 3 3 3 < 3 1 1 1 4 1 4 3 3 3 3 3 3 1 1 1 > ; * * ",
"    + + + - = = = = = = = = + =     = = * * = * = = = *             # = = = = * * * * # #   #   + + #   + = = = = = + = * =     ",
"; ; - , ; - > - > > ; ; ; # = + .   o # - ; - ; = ; > - ; ; ; = ; ; ; ; ; ; ; ; : - - $ # # O . . X # # ; = ; - > > - - - ; = > ",
"5 e w 5 t t t t t t t w w w 0 $ + # $ % 0 w 5 w t e t w y t t e w 5 y t t t w i y e e e q , O O # $ , 1 w t w t w t w y y t t t ",
"d d d d m g C g C C g g f u r 0 # % , p f f a g g g d d d h d d g d d d d m d C d d f f p r & O @ 0 q a f d g d g x g C C C C i ",
"D D D D D D D D A D A S Z C u q $ % p p h h S S S D S D F D D D D S S F S D D D F S S D h p & & $ q f h Z S S A D D A D D A D D ",
"Y R R T R Y Y Y Y Y Y D F Z f w $ , p g S S S T F T F T Y Y T T Y T Y Y T T T T R F F D h f 0 % % e g Z S D F T T T T Y P W T T ",
"E R E E Q E W W Y W T T F Z g w # , p g S F D T R E ! R R R R R R R R R R R R R R R F S S a 0 $ , r h D F T T T T W W W W W W W ",
"` W ' W ' W W W W W R R T S C y > > t C S D T W ! Q Q Q ! Q Q Q E Q Q ! ! ! ! ! ! ! R F S g , , ; e m D F I R R W W Q Q Q Q Q Q ",
"' ' ' ] ' ] ] ' ' ' Q Q R S g t > 9 r x D Y W ' Q Q [ [ Q Q [ ] Q [ [ Q Q Q Q Q [ ! R R S g 1 , 1 i C A F Q Q Q ' ' ] Q Q ] Q ] ",
"] ] ] ` ` } ` } ` ] ' Q W A m t 9 > u Z D W W ` [ ] ] } ] ] { ] ] ' ] ] ] [ [ ' [ [ ! R F s 5 : : i m P E Q Q Q ' ] ] ] ] ] } ] ",
"} } } } } } } } } } ' [ W Y n 4 > > x A P W ' ` } } } } } } } } } } } } } } ] } ] ] [ ! D V 5 < : 5 B Y E ] _ Q } { _ } _ } } } ",
"} } | } | | } | } { ] ] Q U n 7 2 2 j x U ' } } ..} ..} } _ } } | } _ _ } } _ _ } } ] ] I n 4 2 3 8 V U Q _ _ _ _ _ _ _ _ _ _ } ",
"|  .| | | | | | | ..O.] ] U G j 6 k j z ( ` } ..X...| ..| ..| | | | | | | | _ O...} } ] I N j 6 6 l H ( _ _ _ _ _ _ | | _ | | | ",
" . . . . . . . . .o.X...} { L z z x z L { } X.X.X.X.X.X.X. . . . . . . . . . . .O...O...) K z k l v ^ ) |  . . . . . . . . . . .",
"#.#.#.#.#.#.#.#.#.+.+.@.O.X.) ~ z ~ ^ { X.@.@.@.@.#.#.#.+.+.+.#.#.#.#.#.#.#.#.+.+.+.o.O.X.) ~ b ~ / | X. .+. .+.+.+.+.+.+.#.+.#."
};
